<svg xmlns="http://www.w3.org/2000/svg" xmlns:xlink="http://www.w3.org/1999/xlink" width="75" zoomAndPan="magnify" viewBox="0 0 56.25 37.499999" height="50" preserveAspectRatio="xMidYMid meet" version="1.0"><defs><g/><clipPath id="8b21d7327e"><path d="M 0 0 L 55.511719 0 L 55.511719 33 L 0 33 Z M 0 0 " clip-rule="nonzero"/></clipPath></defs><g clip-path="url(#8b21d7327e)"><path stroke-linecap="butt" transform="matrix(0.925164, 0, 0, 0.925164, 0.00000075, 5.088404)" fill="none" stroke-linejoin="miter" d="M 11.953111 11.448001 C 14.680667 11.190446 16.774889 9.864668 16.774889 7.158223 C 16.774889 4.578445 15.238 4.367334 13.211333 4.173112 C 12.442889 4.105556 11.564667 4.084445 10.669555 4.084445 C 8.968 4.084445 7.177777 4.173112 5.704222 4.194223 C 5.640888 4.194223 5.446666 4.236445 5.446666 4.430667 C 5.446666 4.793778 5.746444 4.979556 6.020888 4.979556 C 6.130666 4.979556 6.215111 4.962667 6.303777 4.962667 C 6.536 4.962667 6.620444 5.089334 6.620444 5.283556 C 6.620444 5.477779 6.557111 5.710001 6.536 5.967556 C 6.514889 6.474223 6.320666 9.037112 6.130666 11.80689 C 5.894222 12.765335 5.125777 12.343112 5.104666 12.744223 L 5.104666 12.765335 C 5.104666 13.111557 5.852 12.959557 5.978666 13.833557 C 5.835111 15.775779 5.725333 17.587113 5.683111 18.634224 C 5.640888 19.470224 5.640888 19.491335 5.315777 19.592668 C 5.214444 19.634891 5.020222 19.76578 5.020222 19.960002 C 5.020222 20.128891 5.172222 20.318891 5.315777 20.318891 C 5.404444 20.318891 5.425555 20.29778 5.531111 20.255557 C 6.130666 20.019113 6.916 19.981113 7.768889 19.981113 C 9.132666 19.981113 10.842667 20.213335 11.653333 20.213335 C 14.554 20.213335 17.923334 19.022668 17.923334 15.712446 C 17.923334 12.174223 14.638445 11.448001 11.953111 11.448001 Z M 11.311333 19.613779 L 11.248 19.613779 C 10.352889 19.613779 9.563333 19.187335 9.457778 18.676446 C 9.305778 18.034668 9.263555 17.249335 9.263555 16.396446 C 9.263555 14.137557 9.652 11.532446 9.69 10.789334 C 9.795555 9.18489 9.926444 7.411556 10.179778 5.967556 C 10.352889 5.068223 10.821555 4.599556 11.78 4.599556 C 12.932667 4.599556 13.764445 4.962667 13.764445 6.326445 C 13.764445 9.016001 12.675111 10.911779 10.289555 11.422668 C 10.137555 11.448001 10.078444 11.61689 10.078444 11.726668 C 10.078444 11.849112 10.200889 11.916668 10.289555 11.916668 C 10.331778 11.916668 10.352889 11.916668 10.395111 11.895557 C 10.648444 11.80689 10.884889 11.785779 11.138222 11.785779 C 13.253556 11.785779 14.406222 13.407112 14.406222 15.370446 C 14.406222 17.376002 13.316889 19.550446 11.311333 19.613779 Z M 30.336668 3.852223 C 30.18889 3.852223 30.041112 3.983112 29.84689 4.105556 C 29.568223 4.299778 28.863112 4.346223 28.293112 4.346223 C 25.198223 4.346223 23.598001 3.725556 22.339778 3.725556 C 21.208223 3.725556 19.776889 4.388445 19.502445 5.49889 C 19.502445 5.515779 19.481334 5.558001 19.481334 5.579112 C 19.481334 5.731112 19.650223 5.752223 19.755778 5.752223 C 19.823334 5.752223 19.886667 5.731112 19.907778 5.621334 C 20.140001 4.768445 21.423556 4.430667 22.145556 4.388445 C 20.845112 5.988667 20.824001 6.774001 20.608667 7.673334 C 20.313112 8.906223 20.182223 10.595112 20.097778 12.364223 C 19.886667 13.322668 19.114 12.917335 19.092889 13.322668 L 19.092889 13.343779 C 19.092889 13.690001 19.865556 13.51689 19.992223 14.412001 C 19.886667 16.438668 19.755778 18.338668 19.396889 19.449113 C 19.244889 19.871335 18.902889 20.192224 18.902889 20.276668 C 18.902889 20.44978 19.012667 20.48778 19.114 20.48778 C 19.798001 20.48778 20.933778 18.380891 21.14489 17.333779 C 21.292667 16.569557 21.423556 15.138224 21.48689 13.643557 C 22.445334 13.643557 23.572667 13.660446 24.79289 13.660446 L 25.730223 13.660446 C 25.645779 15.906668 25.536001 17.912224 25.451556 18.718668 C 25.413556 19.060668 25.392445 19.208446 25.261556 19.529335 C 25.219334 19.634891 24.98289 19.681335 24.94489 19.681335 C 24.856223 19.702446 24.79289 19.896668 24.79289 20.040224 C 24.79289 20.192224 24.894223 20.318891 25.004001 20.318891 C 25.920223 20.019113 26.925112 19.998002 27.862446 19.998002 C 29.35289 19.998002 29.737112 20.128891 29.889112 20.128891 C 30.015779 20.128891 30.146668 20.019113 30.146668 19.850224 C 30.146668 19.470224 29.84689 19.449113 29.699112 19.449113 C 29.593557 19.449113 29.526001 19.470224 29.483779 19.470224 C 29.310668 19.470224 29.310668 18.976224 29.310668 18.849557 C 29.230446 17.418224 29.146001 15.881335 29.146001 14.496446 C 29.310668 13.474668 30.104446 13.875779 30.125557 13.453557 C 30.125557 13.090446 29.35289 13.301557 29.188223 12.385335 C 29.251557 10.759779 29.526001 5.325779 29.65689 4.941556 C 29.678001 4.857112 29.825779 4.793778 30.421112 4.641778 C 30.53089 4.620667 30.674446 4.409556 30.674446 4.194223 C 30.674446 3.983112 30.509779 3.852223 30.336668 3.852223 Z M 23.38689 5.431334 C 23.834445 4.979556 24.345334 4.578445 24.94489 4.578445 C 25.088445 4.578445 25.240445 4.599556 25.413556 4.66289 C 25.709112 4.768445 25.81889 6.774001 25.81889 9.231334 C 25.81889 10.422001 25.793557 11.747779 25.751334 13.006001 C 24.514223 13.048223 23.019556 13.111557 21.508001 13.111557 C 21.634667 10.232001 21.871112 6.94289 23.38689 5.431334 Z M 39.807113 4.042223 C 35.884668 4.042223 33.068446 6.647334 33.068446 11.338223 C 33.068446 11.61689 33.068446 11.895557 33.089557 12.153112 C 32.895335 12.938446 32.194446 12.64289 32.194446 13.027112 C 32.211335 13.407112 33.005113 13.132668 33.19089 14.091112 C 33.617335 18.228891 35.133113 20.234446 38.422224 20.234446 C 41.30178 20.234446 41.770446 17.629335 41.770446 16.67089 C 41.770446 16.438668 41.344002 16.286668 41.002002 16.286668 C 40.638891 16.286668 40.508002 16.438668 40.508002 16.734224 C 40.508002 16.970668 40.529113 17.270446 40.529113 17.566002 C 40.529113 18.575113 39.954891 19.449113 38.912002 19.449113 C 37.565113 19.449113 36.885335 16.202224 36.885335 12.79489 C 36.885335 9.37489 37.417335 4.878223 39.722669 4.878223 C 40.508002 4.878223 40.76978 5.642445 40.76978 6.263112 L 40.76978 6.689556 C 40.76978 7.116001 41.192002 7.394668 41.512891 7.394668 C 41.981558 7.394668 42.02378 6.436223 42.02378 6.115334 C 42.02378 4.561556 40.681113 4.042223 39.807113 4.042223 Z M 55.931781 19.318224 C 55.632003 19.318224 51.59978 12.153112 51.152225 9.784445 C 52.710225 7.373556 54.437114 4.979556 55.205559 4.726223 C 55.653114 4.578445 55.762892 4.388445 55.762892 4.236445 C 55.762892 4.042223 55.610892 3.873334 55.458892 3.873334 C 55.395559 3.873334 55.315336 3.898667 55.273114 3.919778 C 55.205559 3.94089 54.779114 4.042223 53.799558 4.105556 C 53.309781 4.105556 52.925558 3.962001 52.516003 3.962001 C 52.178225 3.962001 51.815114 4.042223 51.498447 4.194223 C 51.40978 4.236445 51.367558 4.346223 51.367558 4.47289 C 51.367558 4.620667 51.430892 4.747334 51.536447 4.747334 C 51.578669 4.747334 51.642003 4.726223 51.663114 4.705112 C 51.836225 4.599556 52.089558 4.561556 52.304892 4.561556 C 52.668003 4.561556 53.031114 4.768445 53.031114 5.110445 C 53.031114 5.241334 52.984669 5.368001 52.904447 5.515779 C 52.558225 6.115334 48.272669 12.744223 48.019336 12.811779 C 48.120669 11.916668 48.209336 6.178667 48.424669 5.389112 C 48.530225 4.878223 49.066447 4.857112 49.231114 4.81489 C 49.467558 4.747334 49.615336 4.561556 49.615336 4.367334 C 49.615336 4.152001 49.467558 4.025334 49.298669 4.025334 C 49.231114 4.025334 48.956669 4.173112 47.846225 4.173112 C 45.160891 4.173112 44.071558 3.962001 43.835113 3.962001 C 43.754891 3.962001 43.624002 4.004223 43.602891 4.215334 C 43.602891 4.346223 43.602891 4.641778 43.898447 4.705112 C 44.30378 4.81489 44.628891 4.684001 44.628891 4.941556 C 44.628891 5.731112 44.586669 8.927334 44.519113 12.043335 C 44.261558 12.854001 43.58178 12.49089 43.560669 12.875112 L 43.560669 12.896223 C 43.560669 13.301557 44.476891 13.048223 44.476891 14.281112 C 44.476891 15.775779 44.371336 17.181779 44.371336 19.022668 C 44.371336 19.297113 44.324891 19.402668 44.050447 19.423779 C 43.687336 19.470224 43.560669 19.550446 43.560669 19.850224 C 43.58178 20.040224 43.624002 20.082446 43.754891 20.082446 C 43.966002 20.082446 44.160224 20.040224 44.324891 20.040224 C 45.777336 20.040224 47.124225 20.082446 48.44578 20.082446 C 48.656891 20.082446 48.678003 19.938891 48.678003 19.786891 C 48.678003 19.592668 48.618891 19.423779 48.382447 19.423779 C 48.272669 19.423779 48.230447 19.449113 48.167114 19.449113 C 48.082669 19.449113 47.998225 19.402668 47.977114 19.276002 C 47.956002 18.934002 47.934891 18.292224 47.934891 17.587113 C 47.934891 16.396446 47.977114 15.053779 48.040447 14.92289 C 48.120669 14.749779 48.551336 14.006668 49.146669 13.006001 C 49.961558 15.053779 51.878447 18.634224 51.878447 19.254891 C 51.878447 19.297113 51.857336 19.339335 51.836225 19.339335 C 51.642003 19.402668 51.194447 19.339335 51.194447 19.702446 C 51.194447 19.896668 51.304225 20.040224 51.498447 20.040224 C 51.578669 20.040224 51.663114 20.019113 51.772892 20.019113 C 52.668003 20.019113 53.499781 19.960002 54.331558 19.960002 C 55.315336 19.960002 55.906447 19.998002 56.527114 19.998002 C 56.679114 19.998002 56.679114 19.871335 56.679114 19.76578 C 56.679114 19.423779 56.636892 19.318224 56.10067 19.318224 Z M 55.931781 19.318224 " stroke="#800000" stroke-width="1.600013" stroke-opacity="1" stroke-miterlimit="4"/></g><g fill="#eb4d4d" fill-opacity="1"><g transform="translate(3.440456, 23.591692)"><g><path d="M 7.625 -7.90625 C 10.140625 -8.15625 12.078125 -9.375 12.078125 -11.875 C 12.078125 -14.265625 10.65625 -14.46875 8.78125 -14.640625 C 8.078125 -14.703125 7.265625 -14.71875 6.4375 -14.71875 C 4.859375 -14.71875 3.203125 -14.640625 1.828125 -14.625 C 1.78125 -14.625 1.59375 -14.578125 1.59375 -14.40625 C 1.59375 -14.078125 1.875 -13.890625 2.125 -13.890625 C 2.234375 -13.890625 2.3125 -13.90625 2.390625 -13.90625 C 2.609375 -13.90625 2.6875 -13.796875 2.6875 -13.609375 C 2.6875 -13.4375 2.625 -13.21875 2.609375 -12.984375 C 2.578125 -12.515625 2.40625 -10.140625 2.234375 -7.578125 C 2.015625 -6.6875 1.296875 -7.078125 1.28125 -6.703125 L 1.28125 -6.6875 C 1.28125 -6.375 1.96875 -6.515625 2.09375 -5.703125 C 1.953125 -3.90625 1.859375 -2.234375 1.8125 -1.265625 C 1.78125 -0.5 1.78125 -0.46875 1.484375 -0.375 C 1.375 -0.328125 1.203125 -0.21875 1.203125 -0.046875 C 1.203125 0.125 1.34375 0.296875 1.484375 0.296875 C 1.5625 0.296875 1.578125 0.28125 1.671875 0.234375 C 2.234375 0.015625 2.953125 -0.015625 3.75 -0.015625 C 5.015625 -0.015625 6.59375 0.203125 7.34375 0.203125 C 10.03125 0.203125 13.140625 -0.90625 13.140625 -3.96875 C 13.140625 -7.25 10.109375 -7.90625 7.625 -7.90625 Z M 7.03125 -0.359375 L 6.96875 -0.359375 C 6.140625 -0.359375 5.40625 -0.75 5.3125 -1.21875 C 5.171875 -1.8125 5.125 -2.546875 5.125 -3.328125 C 5.125 -5.421875 5.484375 -7.828125 5.53125 -8.53125 C 5.625 -10 5.75 -11.640625 5.984375 -12.984375 C 6.140625 -13.8125 6.578125 -14.25 7.453125 -14.25 C 8.53125 -14.25 9.296875 -13.90625 9.296875 -12.65625 C 9.296875 -10.15625 8.28125 -8.40625 6.078125 -7.9375 C 5.9375 -7.90625 5.875 -7.75 5.875 -7.65625 C 5.875 -7.53125 6 -7.484375 6.078125 -7.484375 C 6.125 -7.484375 6.140625 -7.484375 6.171875 -7.5 C 6.40625 -7.578125 6.625 -7.59375 6.875 -7.59375 C 8.828125 -7.59375 9.890625 -6.09375 9.890625 -4.28125 C 9.890625 -2.421875 8.875 -0.421875 7.03125 -0.359375 Z M 7.03125 -0.359375 "/></g></g></g><g fill="#eb4d4d" fill-opacity="1"><g transform="translate(16.779363, 23.591692)"><g><path d="M 11.28125 -14.9375 C 11.15625 -14.9375 11.015625 -14.828125 10.828125 -14.703125 C 10.578125 -14.53125 9.921875 -14.484375 9.390625 -14.484375 C 6.53125 -14.484375 5.046875 -15.0625 3.890625 -15.0625 C 2.84375 -15.0625 1.515625 -14.453125 1.265625 -13.421875 C 1.265625 -13.40625 1.25 -13.359375 1.25 -13.34375 C 1.25 -13.203125 1.40625 -13.1875 1.5 -13.1875 C 1.5625 -13.1875 1.625 -13.203125 1.640625 -13.296875 C 1.859375 -14.09375 3.046875 -14.40625 3.703125 -14.453125 C 2.5 -12.96875 2.484375 -12.234375 2.296875 -11.40625 C 2.015625 -10.265625 1.890625 -8.703125 1.8125 -7.0625 C 1.625 -6.171875 0.90625 -6.546875 0.890625 -6.171875 L 0.890625 -6.15625 C 0.890625 -5.84375 1.59375 -6 1.71875 -5.171875 C 1.625 -3.296875 1.5 -1.546875 1.171875 -0.515625 C 1.03125 -0.125 0.703125 0.171875 0.703125 0.25 C 0.703125 0.421875 0.8125 0.453125 0.90625 0.453125 C 1.546875 0.453125 2.578125 -1.5 2.78125 -2.46875 C 2.921875 -3.171875 3.046875 -4.5 3.09375 -5.875 C 3.984375 -5.875 5.03125 -5.859375 6.15625 -5.859375 L 7.03125 -5.859375 C 6.953125 -3.78125 6.84375 -1.9375 6.765625 -1.1875 C 6.734375 -0.875 6.703125 -0.734375 6.59375 -0.4375 C 6.546875 -0.328125 6.328125 -0.296875 6.296875 -0.296875 C 6.21875 -0.28125 6.15625 -0.09375 6.15625 0.046875 C 6.15625 0.171875 6.25 0.296875 6.359375 0.296875 C 7.203125 0.015625 8.125 0 9 0 C 10.375 0 10.734375 0.125 10.875 0.125 C 10.984375 0.125 11.109375 0.015625 11.109375 -0.140625 C 11.109375 -0.5 10.828125 -0.515625 10.703125 -0.515625 C 10.59375 -0.515625 10.53125 -0.5 10.5 -0.5 C 10.34375 -0.5 10.34375 -0.953125 10.34375 -1.0625 C 10.265625 -2.390625 10.1875 -3.8125 10.1875 -5.09375 C 10.34375 -6.03125 11.078125 -5.65625 11.09375 -6.0625 C 11.09375 -6.390625 10.375 -6.203125 10.21875 -7.046875 C 10.28125 -8.546875 10.53125 -13.578125 10.65625 -13.9375 C 10.671875 -14.015625 10.8125 -14.078125 11.359375 -14.203125 C 11.46875 -14.234375 11.609375 -14.421875 11.609375 -14.625 C 11.609375 -14.828125 11.453125 -14.9375 11.28125 -14.9375 Z M 4.859375 -13.484375 C 5.265625 -13.890625 5.75 -14.265625 6.296875 -14.265625 C 6.4375 -14.265625 6.578125 -14.25 6.734375 -14.1875 C 7 -14.09375 7.109375 -12.234375 7.109375 -9.96875 C 7.109375 -8.859375 7.078125 -7.640625 7.046875 -6.46875 C 5.90625 -6.4375 4.515625 -6.375 3.125 -6.375 C 3.234375 -9.03125 3.453125 -12.078125 4.859375 -13.484375 Z M 4.859375 -13.484375 "/></g></g></g><g fill="#eb4d4d" fill-opacity="1"><g transform="translate(29.388172, 23.591692)"><g><path d="M 7.4375 -14.765625 C 3.8125 -14.765625 1.203125 -12.359375 1.203125 -8.015625 C 1.203125 -7.75 1.203125 -7.5 1.21875 -7.265625 C 1.046875 -6.53125 0.390625 -6.8125 0.390625 -6.453125 C 0.421875 -6.09375 1.140625 -6.359375 1.328125 -5.46875 C 1.71875 -1.640625 3.125 0.21875 6.15625 0.21875 C 8.828125 0.21875 9.25 -2.1875 9.25 -3.078125 C 9.25 -3.296875 8.859375 -3.4375 8.546875 -3.4375 C 8.203125 -3.4375 8.09375 -3.296875 8.09375 -3.015625 C 8.09375 -2.796875 8.109375 -2.53125 8.109375 -2.25 C 8.109375 -1.328125 7.578125 -0.515625 6.609375 -0.515625 C 5.375 -0.515625 4.734375 -3.515625 4.734375 -6.671875 C 4.734375 -9.828125 5.234375 -13.984375 7.359375 -13.984375 C 8.09375 -13.984375 8.328125 -13.28125 8.328125 -12.703125 L 8.328125 -12.3125 C 8.328125 -11.921875 8.71875 -11.65625 9.015625 -11.65625 C 9.453125 -11.65625 9.5 -12.546875 9.5 -12.84375 C 9.5 -14.28125 8.25 -14.765625 7.4375 -14.765625 Z M 7.4375 -14.765625 "/></g></g></g><g fill="#eb4d4d" fill-opacity="1"><g transform="translate(39.293682, 23.591692)"><g><path d="M 12.453125 -0.625 C 12.171875 -0.625 8.453125 -7.265625 8.03125 -9.453125 C 9.46875 -11.6875 11.078125 -13.890625 11.78125 -14.125 C 12.203125 -14.265625 12.296875 -14.453125 12.296875 -14.578125 C 12.296875 -14.765625 12.15625 -14.921875 12.015625 -14.921875 C 11.953125 -14.921875 11.875 -14.90625 11.84375 -14.875 C 11.78125 -14.859375 11.390625 -14.765625 10.484375 -14.703125 C 10.03125 -14.703125 9.671875 -14.84375 9.296875 -14.84375 C 8.984375 -14.84375 8.640625 -14.765625 8.34375 -14.625 C 8.265625 -14.578125 8.234375 -14.484375 8.234375 -14.359375 C 8.234375 -14.234375 8.28125 -14.109375 8.390625 -14.109375 C 8.421875 -14.109375 8.484375 -14.125 8.5 -14.15625 C 8.65625 -14.25 8.90625 -14.28125 9.09375 -14.28125 C 9.4375 -14.28125 9.765625 -14.09375 9.765625 -13.78125 C 9.765625 -13.65625 9.734375 -13.53125 9.65625 -13.40625 C 9.328125 -12.84375 5.375 -6.703125 5.125 -6.65625 C 5.234375 -7.484375 5.3125 -12.78125 5.5 -13.515625 C 5.609375 -13.984375 6.09375 -14.015625 6.25 -14.046875 C 6.46875 -14.109375 6.609375 -14.28125 6.609375 -14.46875 C 6.609375 -14.65625 6.46875 -14.78125 6.3125 -14.78125 C 6.25 -14.78125 6 -14.640625 4.96875 -14.640625 C 2.484375 -14.640625 1.484375 -14.84375 1.265625 -14.84375 C 1.1875 -14.84375 1.0625 -14.796875 1.046875 -14.609375 C 1.046875 -14.484375 1.046875 -14.203125 1.328125 -14.15625 C 1.703125 -14.046875 2 -14.171875 2 -13.9375 C 2 -13.203125 1.953125 -10.234375 1.890625 -7.359375 C 1.65625 -6.609375 1.03125 -6.953125 1 -6.59375 L 1 -6.578125 C 1 -6.203125 1.859375 -6.4375 1.859375 -5.28125 C 1.859375 -3.90625 1.75 -2.609375 1.75 -0.90625 C 1.75 -0.65625 1.71875 -0.546875 1.453125 -0.53125 C 1.125 -0.5 1 -0.421875 1 -0.140625 C 1.03125 0.046875 1.0625 0.078125 1.1875 0.078125 C 1.375 0.078125 1.5625 0.046875 1.71875 0.046875 C 3.0625 0.046875 4.296875 0.078125 5.53125 0.078125 C 5.71875 0.078125 5.75 -0.0625 5.75 -0.203125 C 5.75 -0.375 5.6875 -0.53125 5.46875 -0.53125 C 5.375 -0.53125 5.328125 -0.515625 5.265625 -0.515625 C 5.1875 -0.515625 5.109375 -0.546875 5.09375 -0.671875 C 5.078125 -0.984375 5.046875 -1.578125 5.046875 -2.234375 C 5.046875 -3.328125 5.09375 -4.578125 5.15625 -4.703125 C 5.234375 -4.859375 5.625 -5.546875 6.171875 -6.46875 C 6.921875 -4.578125 8.703125 -1.265625 8.703125 -0.6875 C 8.703125 -0.65625 8.6875 -0.609375 8.65625 -0.609375 C 8.484375 -0.546875 8.078125 -0.609375 8.078125 -0.28125 C 8.078125 -0.09375 8.171875 0.046875 8.34375 0.046875 C 8.421875 0.046875 8.5 0.015625 8.609375 0.015625 C 9.4375 0.015625 10.203125 -0.046875 10.96875 -0.046875 C 11.875 -0.046875 12.4375 0 13 0 C 13.140625 0 13.140625 -0.125 13.140625 -0.21875 C 13.140625 -0.53125 13.109375 -0.625 12.609375 -0.625 Z M 12.453125 -0.625 "/></g></g></g></svg>