<svg xmlns="http://www.w3.org/2000/svg" xmlns:xlink="http://www.w3.org/1999/xlink" width="150" zoomAndPan="magnify" viewBox="0 0 112.5 37.5" height="50" preserveAspectRatio="xMidYMid meet" version="1.0"><defs><g/><clipPath id="f1ee261386"><path d="M 0.492188 1 L 111.511719 1 L 111.511719 35 L 0.492188 35 Z M 0.492188 1 " clip-rule="nonzero"/></clipPath></defs><g clip-path="url(#f1ee261386)"><path stroke-linecap="butt" transform="matrix(0.740132, 0, 0, 0.740132, -6.685855, 4.810856)" fill="none" stroke-linejoin="miter" d="M 15.393056 7.269721 C 13.841389 7.269721 12.458611 7.195833 11.82 6.900277 C 11.735556 6.873888 11.603611 6.789444 11.466389 6.789444 C 11.286945 6.789444 11.234167 6.926666 11.234167 7.05861 C 11.234167 7.29611 11.360833 7.591666 11.577222 7.670833 C 11.709167 7.728888 13.044445 8.230277 13.044445 9.269999 C 13.044445 9.565555 12.938889 13.212499 12.854445 16.949166 C 12.616945 18.068055 11.682778 17.587777 11.656389 18.094444 C 11.656389 18.553611 12.616945 18.310833 12.801667 19.429722 C 12.748889 21.614722 12.7225 23.372222 12.7225 25.129722 C 12.7225 26.655 11.149722 26.924167 11.044167 27.399167 C 11.044167 27.457222 11.017778 27.5575 11.017778 27.663056 C 11.017778 27.826667 11.123333 28.016667 11.260556 28.016667 C 11.286945 28.016667 11.313333 27.990278 11.334445 27.958611 C 11.973056 27.267222 14.237222 27.13 15.9525 27.13 C 16.775834 27.13 17.335278 27.188056 17.9 27.188056 C 18.243056 27.188056 18.433056 27.103611 18.433056 26.813333 C 18.433056 26.465 18.105834 26.253889 17.815556 26.253889 C 17.71 26.253889 17.414445 26.2275 17.414445 25.8 C 17.414445 24.623056 17.277223 21.910278 17.229723 18.516666 C 23.204167 18.516666 26.344445 14.495 26.344445 11.191111 C 26.344445 8.900555 24.829723 6.979444 21.678889 6.979444 C 20.850278 6.979444 18.132223 7.269721 15.393056 7.269721 Z M 17.250834 17.666944 L 17.250834 15.988611 C 17.250834 11.966944 17.388056 8.494166 18.216667 8.124721 C 18.459445 8.019166 19.145556 7.781666 19.974167 7.781666 C 21.040278 7.781666 22.159167 8.203888 22.159167 10.14611 C 22.159167 13.428888 20.903056 17.271111 17.250834 17.666944 Z M 41.460001 22.675555 C 41.164446 22.675555 40.63139 22.765278 40.578612 23.002778 C 40.552224 23.641389 40.15639 24.390833 39.802779 24.813056 C 38.926668 25.879167 37.675834 26.338333 36.26139 26.338333 C 34.292779 26.311944 34.525001 25.905556 34.445834 24.596667 C 34.445834 24.417222 34.393057 22.306111 34.371945 19.646111 C 34.525001 18.284444 35.564723 18.785833 35.564723 18.258055 C 35.564723 17.777777 34.556668 18.094444 34.345557 16.838333 C 34.345557 12.447222 34.472223 7.755277 34.93139 7.670833 C 35.142501 7.644444 35.913057 7.670833 35.913057 7.322499 C 35.913057 6.657499 31.115556 7.195833 28.772223 6.367221 C 28.66139 6.340833 28.529445 6.256388 28.392223 6.256388 C 28.239167 6.256388 28.154723 6.446388 28.154723 6.551944 C 28.154723 6.763055 28.291945 7.05861 28.503056 7.137777 C 28.66139 7.195833 29.996668 7.702499 29.996668 8.736944 L 29.996668 8.821388 C 29.970279 9.027222 29.891112 12.922222 29.806668 16.87 C 29.574445 18.094444 28.608612 17.614166 28.608612 18.120833 L 28.608612 18.147222 C 28.608612 18.58 29.51639 18.363611 29.75389 19.376944 C 29.701112 21.593611 29.674723 23.451389 29.674723 25.293333 C 29.674723 26.924167 28.128334 27.077222 27.99639 27.636667 C 27.99639 27.663056 27.970001 27.7475 27.970001 27.826667 C 27.970001 28.043056 28.022779 28.2225 28.212779 28.2225 C 28.239167 28.2225 28.265556 28.2225 28.291945 28.196111 C 29.384445 27.399167 34.129168 27.214445 37.59139 27.214445 C 38.87389 27.214445 39.96639 27.267222 40.657779 27.267222 C 41.481112 27.267222 41.618335 24.227222 41.618335 23.002778 C 41.618335 22.812778 41.570835 22.7125 41.460001 22.675555 Z M 57.135002 6.815833 C 56.945002 6.815833 56.765558 6.979444 56.52278 7.137777 C 56.169169 7.375277 55.293057 7.433333 54.57528 7.433333 C 50.711946 7.433333 48.711668 6.657499 47.13889 6.657499 C 45.724446 6.657499 43.935279 7.48611 43.592224 8.874166 C 43.592224 8.900555 43.565835 8.953333 43.565835 8.979722 C 43.565835 9.164444 43.776946 9.190833 43.90889 9.190833 C 43.993335 9.190833 44.072501 9.164444 44.09889 9.027222 C 44.389168 7.96111 45.993613 7.538888 46.896113 7.48611 C 45.270557 9.486388 45.244168 10.468055 44.975001 11.592222 C 44.605557 13.138611 44.441946 15.244444 44.33639 17.455833 C 44.072501 18.653889 43.106668 18.147222 43.080279 18.653889 L 43.080279 18.680277 C 43.080279 19.113055 44.046113 18.896666 44.199168 20.015555 C 44.072501 22.548889 43.90889 24.923889 43.460279 26.311944 C 43.270279 26.839722 42.842779 27.240833 42.842779 27.346389 C 42.842779 27.5575 42.980001 27.610278 43.106668 27.610278 C 43.961668 27.610278 45.38139 24.976667 45.645279 23.667778 C 45.830002 22.7125 45.993613 20.923333 46.067502 19.055 C 47.265557 19.055 48.680002 19.081389 50.205279 19.081389 L 51.371668 19.081389 C 51.271391 21.883889 51.134168 24.390833 51.028613 25.398889 C 50.975835 25.826389 50.949446 26.011111 50.791113 26.412222 C 50.738335 26.544167 50.442779 26.602222 50.390002 26.602222 C 50.279168 26.628611 50.205279 26.871389 50.205279 27.050833 C 50.205279 27.240833 50.331946 27.399167 50.469168 27.399167 C 51.614446 27.024445 52.870557 26.998056 54.042224 26.998056 C 55.90528 26.998056 56.385558 27.161667 56.575558 27.161667 C 56.728613 27.161667 56.892224 27.024445 56.892224 26.813333 C 56.892224 26.338333 56.52278 26.311944 56.33278 26.311944 C 56.206113 26.311944 56.121669 26.338333 56.068891 26.338333 C 55.852502 26.338333 55.852502 25.715556 55.852502 25.5625 C 55.746946 23.773333 55.646669 21.852222 55.646669 20.121111 C 55.852502 18.843889 56.839446 19.345278 56.865835 18.8175 C 56.865835 18.363611 55.90528 18.6275 55.694169 17.482222 C 55.773335 15.455555 56.121669 8.657777 56.280002 8.177499 C 56.306391 8.071944 56.496391 7.992777 57.240558 7.808055 C 57.37778 7.781666 57.557224 7.512499 57.557224 7.243333 C 57.557224 6.979444 57.351391 6.815833 57.135002 6.815833 Z M 48.447779 8.789722 C 49.007224 8.230277 49.640557 7.728888 50.390002 7.728888 C 50.574724 7.728888 50.764724 7.755277 50.975835 7.829166 C 51.350557 7.96111 51.482502 10.468055 51.482502 13.539722 C 51.482502 15.028055 51.450835 16.685277 51.398057 18.258055 C 49.856946 18.310833 47.988613 18.39 46.09389 18.39 C 46.257502 14.790555 46.553057 10.684444 48.447779 8.789722 Z M 73.395836 6.636388 C 73.073892 6.736666 72.224169 6.842221 71.501114 6.842221 C 71.073614 6.842221 70.730558 6.815833 70.540558 6.736666 C 70.466669 6.683888 70.403336 6.657499 70.329447 6.657499 C 70.171114 6.657499 70.139447 6.842221 70.139447 6.953055 C 70.139447 7.137777 70.25028 7.348888 70.329447 7.433333 C 70.466669 7.591666 71.205558 7.618055 71.205558 7.934721 L 71.205558 7.96111 C 71.179169 8.314722 68.30278 15.935833 68.165558 16.363333 C 68.165558 16.416111 68.139169 16.548055 68.11278 16.548055 C 68.086391 16.548055 68.038891 16.416111 67.928058 16.015 C 67.658891 15.054444 65.743058 10.045833 65.341947 8.847777 C 65.236391 8.552222 65.183613 8.34111 65.183613 8.177499 C 65.183613 7.829166 65.479169 7.781666 66.012225 7.591666 C 66.11778 7.565277 66.328891 7.348888 66.328891 7.084999 C 66.328891 6.842221 66.170558 6.609999 65.954169 6.609999 C 65.848613 6.609999 65.711391 6.657499 65.558336 6.683888 C 64.275836 6.842221 61.235835 7.169444 59.905835 7.169444 C 59.425558 7.169444 59.346391 7.29611 59.346391 7.459721 C 59.346391 8.203888 60.354447 7.934721 60.46528 8.494166 C 60.570835 9.079999 63.637224 16.152222 64.196669 17.804166 C 63.800836 18.2 63.241391 18.015277 63.204447 18.39 C 63.204447 18.843889 64.091113 18.653889 64.302224 19.614444 L 64.302224 20.411389 C 64.302224 22.253333 64.223058 24.654722 64.143891 25.668056 C 64.117502 25.852778 64.091113 26.011111 63.74278 26.042778 C 63.50528 26.095556 63.368058 26.338333 63.368058 26.570556 C 63.368058 26.897778 63.584447 27.050833 63.827224 27.050833 C 64.465836 26.971667 65.394725 26.971667 66.328891 26.971667 C 68.835836 26.971667 68.96778 26.998056 69.105002 26.998056 C 69.368891 26.998056 69.638058 26.924167 69.638058 26.570556 C 69.638058 26.201111 69.258058 26.042778 69.15778 26.011111 C 68.783058 25.958333 68.835836 25.778889 68.783058 25.398889 C 68.725002 24.976667 68.672225 23.298333 68.672225 21.509167 C 68.672225 20.765 68.672225 20.015555 68.698614 19.345278 C 68.994169 18.147222 69.928336 18.706666 69.928336 18.147222 C 69.928336 17.856944 68.888614 17.640555 68.888614 17.081111 C 69.284447 15.883055 71.81778 8.979722 72.271669 8.019166 C 72.377225 7.829166 73.047503 7.565277 73.416947 7.565277 C 73.501392 7.565277 73.580558 7.591666 73.659725 7.591666 C 73.738892 7.591666 73.823336 7.565277 73.849725 7.433333 C 73.849725 7.322499 73.876114 7.169444 73.876114 6.979444 C 73.876114 6.789444 73.823336 6.551944 73.633336 6.551944 C 73.554169 6.551944 73.469725 6.609999 73.395836 6.636388 Z M 98.876948 6.815833 C 98.686948 6.815833 98.507504 6.979444 98.264726 7.137777 C 97.916393 7.375277 97.035004 7.433333 96.322504 7.433333 C 92.453892 7.433333 90.453614 6.657499 88.880837 6.657499 C 87.466392 6.657499 85.677225 7.48611 85.33417 8.874166 C 85.33417 8.900555 85.307781 8.953333 85.307781 8.979722 C 85.307781 9.164444 85.52417 9.190833 85.650836 9.190833 C 85.735281 9.190833 85.814448 9.164444 85.840837 9.027222 C 86.136392 7.96111 87.735559 7.538888 88.638059 7.48611 C 87.012503 9.486388 86.986114 10.468055 86.722225 11.592222 C 86.347503 13.138611 86.183892 15.244444 86.083614 17.455833 C 85.814448 18.653889 84.853892 18.147222 84.827503 18.653889 L 84.827503 18.680277 C 84.827503 19.113055 85.788059 18.896666 85.946392 20.015555 C 85.814448 22.548889 85.650836 24.923889 85.202225 26.311944 C 85.012225 26.839722 84.584725 27.240833 84.584725 27.346389 C 84.584725 27.5575 84.721948 27.610278 84.853892 27.610278 C 85.703614 27.610278 87.123337 24.976667 87.392503 23.667778 C 87.571948 22.7125 87.735559 20.923333 87.814725 19.055 C 89.012781 19.055 90.421948 19.081389 91.947226 19.081389 L 93.118892 19.081389 C 93.013337 21.883889 92.876115 24.390833 92.770559 25.398889 C 92.723059 25.826389 92.69667 26.011111 92.533059 26.412222 C 92.480281 26.544167 92.184726 26.602222 92.137226 26.602222 C 92.026392 26.628611 91.947226 26.871389 91.947226 27.050833 C 91.947226 27.240833 92.073892 27.399167 92.211115 27.399167 C 93.356392 27.024445 94.612504 26.998056 95.78417 26.998056 C 97.647226 26.998056 98.127504 27.161667 98.317504 27.161667 C 98.475837 27.161667 98.639448 27.024445 98.639448 26.813333 C 98.639448 26.338333 98.264726 26.311944 98.080004 26.311944 C 97.948059 26.311944 97.863615 26.338333 97.810837 26.338333 C 97.594448 26.338333 97.594448 25.715556 97.594448 25.5625 C 97.49417 23.773333 97.388615 21.852222 97.388615 20.121111 C 97.594448 18.843889 98.58667 19.345278 98.613059 18.8175 C 98.613059 18.363611 97.647226 18.6275 97.441393 17.482222 C 97.515281 15.455555 97.863615 8.657777 98.027226 8.177499 C 98.053615 8.071944 98.238337 7.992777 98.982504 7.808055 C 99.119726 7.781666 99.29917 7.512499 99.29917 7.243333 C 99.29917 6.979444 99.093337 6.815833 98.876948 6.815833 Z M 90.189726 8.789722 C 90.74917 8.230277 91.387781 7.728888 92.137226 7.728888 C 92.31667 7.728888 92.50667 7.755277 92.723059 7.829166 C 93.092503 7.96111 93.229726 10.468055 93.229726 13.539722 C 93.229726 15.028055 93.198059 16.685277 93.145281 18.258055 C 91.598892 18.310833 89.735837 18.39 87.841114 18.39 C 87.999448 14.790555 88.295003 10.684444 90.189726 8.789722 Z M 113.802504 16.685277 C 113.327504 16.6325 112.38806 16.495277 111.459171 16.495277 C 110.873338 16.495277 109.142226 16.606111 109.142226 17.2975 C 109.142226 17.535 109.326949 17.830555 109.511671 17.830555 C 109.564449 17.830555 109.617226 17.804166 109.670004 17.751389 C 109.754449 17.666944 109.886393 17.429444 110.229449 17.429444 C 111.591115 17.429444 111.591115 20.495833 111.591115 21.377222 C 111.591115 23.831389 111.005282 26.517778 109.590837 26.517778 C 107.886115 26.491389 106.846393 21.883889 106.846393 17.345 C 106.846393 14.521388 107.273893 8.314722 110.604171 8.314722 C 112.38806 8.314722 111.48556 11.993333 112.76806 11.993333 C 113.644171 11.993333 113.723338 10.552499 113.723338 9.855833 C 113.723338 8.15111 112.657227 7.269721 110.58306 7.269721 C 102.898615 7.269721 102.476393 14.658611 102.365559 16.416111 C 102.365559 16.574444 102.339171 16.838333 102.339171 17.165555 C 102.101671 18.147222 101.220282 17.804166 101.220282 18.258055 L 101.220282 18.284444 C 101.24667 18.759444 102.128059 18.416389 102.365559 19.561666 C 102.581948 22.918333 103.780004 27.531111 108.788615 27.531111 C 113.269449 27.531111 113.886949 21.720278 113.886949 18.601111 C 113.886949 17.455833 113.802504 16.685277 113.802504 16.685277 Z M 130.095005 6.815833 C 129.905005 6.815833 129.720283 6.979444 129.482783 7.137777 C 129.129172 7.375277 128.25306 7.433333 127.535283 7.433333 C 123.666671 7.433333 121.671671 6.657499 120.093616 6.657499 C 118.684449 6.657499 116.890004 7.48611 116.546949 8.874166 C 116.546949 8.900555 116.52056 8.953333 116.52056 8.979722 C 116.52056 9.164444 116.736949 9.190833 116.868893 9.190833 C 116.953338 9.190833 117.027227 9.164444 117.053616 9.027222 C 117.349171 7.96111 118.948338 7.538888 119.856116 7.48611 C 118.225282 9.486388 118.198893 10.468055 117.935005 11.592222 C 117.56556 13.138611 117.401949 15.244444 117.296393 17.455833 C 117.027227 18.653889 116.066671 18.147222 116.040282 18.653889 L 116.040282 18.680277 C 116.040282 19.113055 117.000838 18.896666 117.159171 20.015555 C 117.027227 22.548889 116.868893 24.923889 116.415004 26.311944 C 116.230282 26.839722 115.797504 27.240833 115.797504 27.346389 C 115.797504 27.5575 115.934727 27.610278 116.066671 27.610278 C 116.916393 27.610278 118.336116 24.976667 118.605282 23.667778 C 118.784727 22.7125 118.948338 20.923333 119.027505 19.055 C 120.22556 19.055 121.640005 19.081389 123.160005 19.081389 L 124.331671 19.081389 C 124.226116 21.883889 124.088894 24.390833 123.988616 25.398889 C 123.935838 25.826389 123.909449 26.011111 123.745838 26.412222 C 123.69306 26.544167 123.402783 26.602222 123.350005 26.602222 C 123.239171 26.628611 123.160005 26.871389 123.160005 27.050833 C 123.160005 27.240833 123.291949 27.399167 123.429171 27.399167 C 124.574449 27.024445 125.83056 26.998056 127.002227 26.998056 C 128.860005 26.998056 129.345561 27.161667 129.530283 27.161667 C 129.688616 27.161667 129.852227 27.024445 129.852227 26.813333 C 129.852227 26.338333 129.482783 26.311944 129.292783 26.311944 C 129.160838 26.311944 129.076394 26.338333 129.023616 26.338333 C 128.812505 26.338333 128.812505 25.715556 128.812505 25.5625 C 128.706949 23.773333 128.601394 21.852222 128.601394 20.121111 C 128.812505 18.843889 129.799449 19.345278 129.825838 18.8175 C 129.825838 18.363611 128.860005 18.6275 128.654172 17.482222 C 128.733338 15.455555 129.076394 8.657777 129.240005 8.177499 C 129.266394 8.071944 129.456394 7.992777 130.195283 7.808055 C 130.332505 7.781666 130.517227 7.512499 130.517227 7.243333 C 130.517227 6.979444 130.306116 6.815833 130.095005 6.815833 Z M 121.402505 8.789722 C 121.961949 8.230277 122.60056 7.728888 123.350005 7.728888 C 123.529449 7.728888 123.719449 7.755277 123.935838 7.829166 C 124.305283 7.96111 124.442505 10.468055 124.442505 13.539722 C 124.442505 15.028055 124.410838 16.685277 124.35806 18.258055 C 122.816949 18.310833 120.948616 18.39 119.053893 18.39 C 119.217505 14.790555 119.507782 10.684444 121.402505 8.789722 Z M 140.117505 7.322499 C 139.315283 7.538888 138.375839 7.618055 137.499728 7.618055 C 135.795005 7.618055 134.253894 7.348888 133.953061 7.348888 C 133.768339 7.348888 133.557227 7.375277 133.530838 7.618055 C 133.557227 8.045555 134.143061 8.414999 134.327783 8.414999 C 134.750005 8.414999 134.776394 8.979722 134.839727 9.855833 C 134.839727 12.230833 134.860839 14.442222 134.860839 16.6325 C 134.860839 18.337222 133.631116 17.693333 133.604727 18.258055 C 133.604727 18.733055 134.623339 18.442777 134.813339 19.698889 C 134.776394 21.556667 134.728894 23.240278 134.728894 24.174444 C 134.728894 25.689167 134.728894 26.338333 134.253894 26.517778 C 133.984727 26.628611 133.478061 27.103611 133.478061 27.346389 C 133.478061 27.5575 133.578338 27.610278 133.768339 27.610278 C 134.517783 27.610278 134.839727 27.293611 136.380839 27.293611 C 137.790005 27.293611 139.262505 27.531111 139.711117 27.5575 C 139.927505 27.5575 140.05945 27.457222 140.05945 27.267222 C 140.05945 27.077222 139.953894 26.813333 139.684728 26.681389 C 139.315283 26.517778 139.072505 26.602222 139.046117 25.8 C 138.972228 23.746944 138.887783 21.641111 138.861394 19.904722 C 138.998616 18.442777 140.05945 18.975833 140.05945 18.442777 C 140.05945 17.994166 139.098894 18.284444 138.861394 17.191944 C 138.861394 13.059444 139.046117 10.684444 139.072505 10.072222 C 139.098894 9.586666 138.998616 8.494166 139.658339 8.494166 C 140.170283 8.494166 140.513339 8.230277 140.513339 7.755277 C 140.513339 7.538888 140.407783 7.348888 140.117505 7.322499 Z M 157.386395 23.055555 C 157.386395 22.226944 157.412784 21.023611 157.439173 19.725278 C 157.734728 18.601111 158.642506 19.113055 158.668895 18.601111 L 158.668895 18.58 C 158.668895 18.094444 157.518339 18.39 157.518339 16.87 C 157.518339 13.798333 157.550006 11.750555 157.550006 9.723888 C 157.550006 9.296388 157.655562 8.657777 157.972228 8.57861 C 158.188617 8.520555 158.584451 8.520555 158.774451 8.367499 C 158.853617 8.314722 158.880006 8.15111 158.880006 7.992777 C 158.880006 7.829166 158.853617 7.565277 158.695284 7.565277 L 158.13584 7.565277 C 156.774173 7.565277 156.130284 7.48611 155.465284 7.48611 C 155.227784 7.48611 155.148617 7.781666 155.148617 7.934721 C 155.148617 8.261944 155.391395 8.467777 155.544451 8.494166 C 156.103895 8.604999 156.510284 8.393888 156.510284 9.750277 C 156.510284 13.988333 156.214728 18.653889 156.103895 22.443333 C 154.483617 21.43 152.990006 12.552777 148.403617 8.763333 C 147.121117 7.702499 145.548339 7.111388 143.711672 7.111388 C 143.474172 7.111388 143.447783 7.322499 143.447783 7.48611 C 143.447783 7.728888 143.627228 7.808055 143.817228 7.881944 C 143.928061 7.934721 144.645839 8.203888 145.04695 8.847777 C 145.279172 9.24361 145.416395 11.966944 145.416395 15.107222 C 145.416395 15.830277 145.390006 16.548055 145.390006 17.2975 C 145.126117 18.39 144.218339 17.930833 144.218339 18.442777 L 144.218339 18.469166 C 144.218339 18.896666 145.152506 18.653889 145.363617 19.725278 C 145.316117 22.575278 145.252783 24.950278 145.231672 25.240556 C 145.126117 26.786944 144.007228 26.998056 143.870006 27.483611 L 143.870006 27.5575 C 143.870006 27.721111 143.95445 27.800278 144.086394 27.800278 C 144.107506 27.800278 144.133894 27.800278 144.160283 27.773889 C 144.566672 27.483611 145.152506 27.32 146.002228 27.32 C 146.350561 27.32 146.725283 27.346389 147.147506 27.399167 L 147.226672 27.399167 C 147.443061 27.399167 147.606672 27.267222 147.606672 27.077222 C 147.606672 26.871389 147.416672 26.655 147.337506 26.628611 C 147.047228 26.544167 146.535283 26.491389 146.487783 26.253889 L 146.487783 25.958333 C 146.487783 24.654722 146.640839 19.376944 146.640839 16.711666 C 146.640839 15.962222 146.588061 15.513611 146.588061 15.054444 C 146.588061 14.790555 146.61445 14.283888 146.751672 14.283888 C 148.345561 14.283888 150.989728 27.7475 157.871951 27.7475 C 158.405006 27.7475 158.880006 26.897778 158.880006 26.707778 L 158.880006 26.681389 C 158.558062 25.931944 157.386395 25.266944 157.386395 23.055555 Z M 157.386395 23.055555 " stroke="#800000" stroke-width="2.000002" stroke-opacity="1" stroke-miterlimit="4"/></g><g fill="#eb4d4d" fill-opacity="1"><g transform="translate(0.264443, 24.794408)"><g><path d="M 4.4375 -14.609375 C 3.296875 -14.609375 2.265625 -14.65625 1.796875 -14.875 C 1.734375 -14.90625 1.640625 -14.953125 1.546875 -14.953125 C 1.40625 -14.953125 1.359375 -14.859375 1.359375 -14.765625 C 1.359375 -14.578125 1.453125 -14.359375 1.625 -14.3125 C 1.71875 -14.265625 2.703125 -13.890625 2.703125 -13.125 C 2.703125 -12.90625 2.625 -10.203125 2.5625 -7.4375 C 2.390625 -6.609375 1.703125 -6.96875 1.671875 -6.59375 C 1.671875 -6.25 2.390625 -6.4375 2.53125 -5.609375 C 2.484375 -3.984375 2.46875 -2.6875 2.46875 -1.375 C 2.46875 -0.25 1.296875 -0.0625 1.21875 0.296875 C 1.21875 0.328125 1.203125 0.421875 1.203125 0.5 C 1.203125 0.609375 1.28125 0.75 1.375 0.75 C 1.40625 0.75 1.421875 0.734375 1.4375 0.703125 C 1.921875 0.203125 3.59375 0.09375 4.859375 0.09375 C 5.46875 0.09375 5.875 0.140625 6.296875 0.140625 C 6.546875 0.140625 6.6875 0.078125 6.6875 -0.140625 C 6.6875 -0.390625 6.453125 -0.546875 6.234375 -0.546875 C 6.15625 -0.546875 5.9375 -0.578125 5.9375 -0.890625 C 5.9375 -1.75 5.84375 -3.765625 5.796875 -6.28125 C 10.21875 -6.28125 12.546875 -9.25 12.546875 -11.703125 C 12.546875 -13.40625 11.421875 -14.828125 9.09375 -14.828125 C 8.484375 -14.828125 6.46875 -14.609375 4.4375 -14.609375 Z M 5.828125 -6.90625 L 5.828125 -8.15625 C 5.828125 -11.125 5.921875 -13.703125 6.53125 -13.96875 C 6.703125 -14.046875 7.21875 -14.234375 7.828125 -14.234375 C 8.625 -14.234375 9.453125 -13.90625 9.453125 -12.46875 C 9.453125 -10.046875 8.53125 -7.203125 5.828125 -6.90625 Z M 5.828125 -6.90625 "/></g></g></g><g fill="#eb4d4d" fill-opacity="1"><g transform="translate(13.029148, 24.794408)"><g><path d="M 10.96875 -3.203125 C 10.75 -3.203125 10.359375 -3.140625 10.328125 -2.953125 C 10.296875 -2.484375 10 -1.9375 9.75 -1.625 C 9.09375 -0.828125 8.171875 -0.5 7.125 -0.5 C 5.65625 -0.515625 5.84375 -0.8125 5.78125 -1.78125 C 5.78125 -1.921875 5.75 -3.46875 5.71875 -5.453125 C 5.84375 -6.453125 6.609375 -6.078125 6.609375 -6.46875 C 6.609375 -6.828125 5.859375 -6.59375 5.703125 -7.515625 C 5.703125 -10.78125 5.796875 -14.25 6.140625 -14.3125 C 6.296875 -14.328125 6.875 -14.3125 6.875 -14.5625 C 6.875 -15.0625 3.3125 -14.65625 1.578125 -15.28125 C 1.5 -15.296875 1.40625 -15.359375 1.296875 -15.359375 C 1.1875 -15.359375 1.125 -15.21875 1.125 -15.140625 C 1.125 -14.984375 1.21875 -14.765625 1.375 -14.703125 C 1.5 -14.65625 2.484375 -14.28125 2.484375 -13.515625 L 2.484375 -13.453125 C 2.46875 -13.296875 2.40625 -10.421875 2.34375 -7.5 C 2.171875 -6.59375 1.453125 -6.953125 1.453125 -6.578125 L 1.453125 -6.546875 C 1.453125 -6.234375 2.125 -6.390625 2.3125 -5.640625 C 2.265625 -4 2.25 -2.625 2.25 -1.265625 C 2.25 -0.0625 1.109375 0.0625 1 0.46875 C 1 0.5 0.984375 0.546875 0.984375 0.609375 C 0.984375 0.765625 1.03125 0.90625 1.171875 0.90625 C 1.1875 0.90625 1.203125 0.90625 1.21875 0.890625 C 2.03125 0.296875 5.546875 0.15625 8.109375 0.15625 C 9.0625 0.15625 9.875 0.203125 10.375 0.203125 C 10.984375 0.203125 11.09375 -2.046875 11.09375 -2.953125 C 11.09375 -3.09375 11.046875 -3.171875 10.96875 -3.203125 Z M 10.96875 -3.203125 "/></g></g></g><g fill="#eb4d4d" fill-opacity="1"><g transform="translate(24.314167, 24.794408)"><g><path d="M 11.28125 -14.9375 C 11.15625 -14.9375 11.015625 -14.828125 10.828125 -14.703125 C 10.578125 -14.53125 9.921875 -14.484375 9.390625 -14.484375 C 6.53125 -14.484375 5.046875 -15.0625 3.890625 -15.0625 C 2.84375 -15.0625 1.515625 -14.453125 1.265625 -13.421875 C 1.265625 -13.40625 1.25 -13.359375 1.25 -13.34375 C 1.25 -13.203125 1.40625 -13.1875 1.5 -13.1875 C 1.5625 -13.1875 1.625 -13.203125 1.640625 -13.296875 C 1.859375 -14.09375 3.046875 -14.40625 3.703125 -14.453125 C 2.5 -12.96875 2.484375 -12.234375 2.296875 -11.40625 C 2.015625 -10.265625 1.890625 -8.703125 1.8125 -7.0625 C 1.625 -6.171875 0.90625 -6.546875 0.890625 -6.171875 L 0.890625 -6.15625 C 0.890625 -5.84375 1.59375 -6 1.71875 -5.171875 C 1.625 -3.296875 1.5 -1.546875 1.171875 -0.515625 C 1.03125 -0.125 0.703125 0.171875 0.703125 0.25 C 0.703125 0.421875 0.8125 0.453125 0.90625 0.453125 C 1.546875 0.453125 2.578125 -1.5 2.78125 -2.46875 C 2.921875 -3.171875 3.046875 -4.5 3.09375 -5.875 C 3.984375 -5.875 5.03125 -5.859375 6.15625 -5.859375 L 7.03125 -5.859375 C 6.953125 -3.78125 6.84375 -1.9375 6.765625 -1.1875 C 6.734375 -0.875 6.703125 -0.734375 6.59375 -0.4375 C 6.546875 -0.328125 6.328125 -0.296875 6.296875 -0.296875 C 6.21875 -0.28125 6.15625 -0.09375 6.15625 0.046875 C 6.15625 0.171875 6.25 0.296875 6.359375 0.296875 C 7.203125 0.015625 8.125 0 9 0 C 10.375 0 10.734375 0.125 10.875 0.125 C 10.984375 0.125 11.109375 0.015625 11.109375 -0.140625 C 11.109375 -0.5 10.828125 -0.515625 10.703125 -0.515625 C 10.59375 -0.515625 10.53125 -0.5 10.5 -0.5 C 10.34375 -0.5 10.34375 -0.953125 10.34375 -1.0625 C 10.265625 -2.390625 10.1875 -3.8125 10.1875 -5.09375 C 10.34375 -6.03125 11.078125 -5.65625 11.09375 -6.0625 C 11.09375 -6.390625 10.375 -6.203125 10.21875 -7.046875 C 10.28125 -8.546875 10.53125 -13.578125 10.65625 -13.9375 C 10.671875 -14.015625 10.8125 -14.078125 11.359375 -14.203125 C 11.46875 -14.234375 11.609375 -14.421875 11.609375 -14.625 C 11.609375 -14.828125 11.453125 -14.9375 11.28125 -14.9375 Z M 4.859375 -13.484375 C 5.265625 -13.890625 5.75 -14.265625 6.296875 -14.265625 C 6.4375 -14.265625 6.578125 -14.25 6.734375 -14.1875 C 7 -14.09375 7.109375 -12.234375 7.109375 -9.96875 C 7.109375 -8.859375 7.078125 -7.640625 7.046875 -6.46875 C 5.90625 -6.4375 4.515625 -6.375 3.125 -6.375 C 3.234375 -9.03125 3.453125 -12.078125 4.859375 -13.484375 Z M 4.859375 -13.484375 "/></g></g></g><g fill="#eb4d4d" fill-opacity="1"><g transform="translate(36.921034, 24.794408)"><g><path d="M 10.71875 -15.078125 C 10.484375 -15 9.84375 -14.921875 9.3125 -14.921875 C 9 -14.921875 8.75 -14.9375 8.609375 -15 C 8.546875 -15.03125 8.5 -15.0625 8.453125 -15.0625 C 8.328125 -15.0625 8.3125 -14.921875 8.3125 -14.84375 C 8.3125 -14.703125 8.390625 -14.546875 8.453125 -14.484375 C 8.546875 -14.359375 9.09375 -14.34375 9.09375 -14.109375 L 9.09375 -14.09375 C 9.078125 -13.828125 6.953125 -8.1875 6.84375 -7.875 C 6.84375 -7.828125 6.828125 -7.734375 6.8125 -7.734375 C 6.78125 -7.734375 6.75 -7.828125 6.671875 -8.125 C 6.46875 -8.84375 5.046875 -12.546875 4.75 -13.4375 C 4.671875 -13.65625 4.640625 -13.8125 4.640625 -13.9375 C 4.640625 -14.1875 4.859375 -14.234375 5.25 -14.359375 C 5.328125 -14.390625 5.484375 -14.546875 5.484375 -14.734375 C 5.484375 -14.921875 5.375 -15.09375 5.203125 -15.09375 C 5.125 -15.09375 5.03125 -15.0625 4.90625 -15.03125 C 3.96875 -14.921875 1.71875 -14.6875 0.734375 -14.6875 C 0.375 -14.6875 0.3125 -14.578125 0.3125 -14.46875 C 0.3125 -13.90625 1.0625 -14.109375 1.140625 -13.703125 C 1.21875 -13.265625 3.5 -8.03125 3.90625 -6.8125 C 3.609375 -6.515625 3.203125 -6.65625 3.171875 -6.375 C 3.171875 -6.03125 3.828125 -6.171875 3.984375 -5.46875 L 3.984375 -4.875 C 3.984375 -3.515625 3.921875 -1.734375 3.875 -0.984375 C 3.84375 -0.84375 3.828125 -0.734375 3.578125 -0.703125 C 3.390625 -0.671875 3.296875 -0.5 3.296875 -0.3125 C 3.296875 -0.078125 3.453125 0.046875 3.625 0.046875 C 4.109375 -0.015625 4.796875 -0.015625 5.484375 -0.015625 C 7.34375 -0.015625 7.4375 0 7.53125 0 C 7.734375 0 7.9375 -0.0625 7.9375 -0.3125 C 7.9375 -0.59375 7.65625 -0.703125 7.578125 -0.734375 C 7.296875 -0.765625 7.34375 -0.90625 7.296875 -1.1875 C 7.265625 -1.5 7.21875 -2.75 7.21875 -4.0625 C 7.21875 -4.625 7.21875 -5.171875 7.25 -5.65625 C 7.453125 -6.546875 8.15625 -6.140625 8.15625 -6.546875 C 8.15625 -6.765625 7.375 -6.921875 7.375 -7.34375 C 7.671875 -8.234375 9.546875 -13.34375 9.890625 -14.046875 C 9.96875 -14.1875 10.453125 -14.390625 10.734375 -14.390625 C 10.796875 -14.390625 10.859375 -14.359375 10.90625 -14.359375 C 10.96875 -14.359375 11.03125 -14.390625 11.046875 -14.484375 C 11.046875 -14.5625 11.078125 -14.6875 11.078125 -14.828125 C 11.078125 -14.953125 11.03125 -15.140625 10.890625 -15.140625 C 10.828125 -15.140625 10.78125 -15.09375 10.71875 -15.078125 Z M 10.71875 -15.078125 "/></g></g></g><g fill="#eb4d4d" fill-opacity="1"><g transform="translate(48.304701, 24.794408)"><g/></g></g><g fill="#eb4d4d" fill-opacity="1"><g transform="translate(55.20987, 24.794408)"><g><path d="M 11.28125 -14.9375 C 11.15625 -14.9375 11.015625 -14.828125 10.828125 -14.703125 C 10.578125 -14.53125 9.921875 -14.484375 9.390625 -14.484375 C 6.53125 -14.484375 5.046875 -15.0625 3.890625 -15.0625 C 2.84375 -15.0625 1.515625 -14.453125 1.265625 -13.421875 C 1.265625 -13.40625 1.25 -13.359375 1.25 -13.34375 C 1.25 -13.203125 1.40625 -13.1875 1.5 -13.1875 C 1.5625 -13.1875 1.625 -13.203125 1.640625 -13.296875 C 1.859375 -14.09375 3.046875 -14.40625 3.703125 -14.453125 C 2.5 -12.96875 2.484375 -12.234375 2.296875 -11.40625 C 2.015625 -10.265625 1.890625 -8.703125 1.8125 -7.0625 C 1.625 -6.171875 0.90625 -6.546875 0.890625 -6.171875 L 0.890625 -6.15625 C 0.890625 -5.84375 1.59375 -6 1.71875 -5.171875 C 1.625 -3.296875 1.5 -1.546875 1.171875 -0.515625 C 1.03125 -0.125 0.703125 0.171875 0.703125 0.25 C 0.703125 0.421875 0.8125 0.453125 0.90625 0.453125 C 1.546875 0.453125 2.578125 -1.5 2.78125 -2.46875 C 2.921875 -3.171875 3.046875 -4.5 3.09375 -5.875 C 3.984375 -5.875 5.03125 -5.859375 6.15625 -5.859375 L 7.03125 -5.859375 C 6.953125 -3.78125 6.84375 -1.9375 6.765625 -1.1875 C 6.734375 -0.875 6.703125 -0.734375 6.59375 -0.4375 C 6.546875 -0.328125 6.328125 -0.296875 6.296875 -0.296875 C 6.21875 -0.28125 6.15625 -0.09375 6.15625 0.046875 C 6.15625 0.171875 6.25 0.296875 6.359375 0.296875 C 7.203125 0.015625 8.125 0 9 0 C 10.375 0 10.734375 0.125 10.875 0.125 C 10.984375 0.125 11.109375 0.015625 11.109375 -0.140625 C 11.109375 -0.5 10.828125 -0.515625 10.703125 -0.515625 C 10.59375 -0.515625 10.53125 -0.5 10.5 -0.5 C 10.34375 -0.5 10.34375 -0.953125 10.34375 -1.0625 C 10.265625 -2.390625 10.1875 -3.8125 10.1875 -5.09375 C 10.34375 -6.03125 11.078125 -5.65625 11.09375 -6.0625 C 11.09375 -6.390625 10.375 -6.203125 10.21875 -7.046875 C 10.28125 -8.546875 10.53125 -13.578125 10.65625 -13.9375 C 10.671875 -14.015625 10.8125 -14.078125 11.359375 -14.203125 C 11.46875 -14.234375 11.609375 -14.421875 11.609375 -14.625 C 11.609375 -14.828125 11.453125 -14.9375 11.28125 -14.9375 Z M 4.859375 -13.484375 C 5.265625 -13.890625 5.75 -14.265625 6.296875 -14.265625 C 6.4375 -14.265625 6.578125 -14.25 6.734375 -14.1875 C 7 -14.09375 7.109375 -12.234375 7.109375 -9.96875 C 7.109375 -8.859375 7.078125 -7.640625 7.046875 -6.46875 C 5.90625 -6.4375 4.515625 -6.375 3.125 -6.375 C 3.234375 -9.03125 3.453125 -12.078125 4.859375 -13.484375 Z M 4.859375 -13.484375 "/></g></g></g><g fill="#eb4d4d" fill-opacity="1"><g transform="translate(67.816737, 24.794408)"><g><path d="M 9.734375 -7.640625 C 9.375 -7.671875 8.6875 -7.78125 8 -7.78125 C 7.5625 -7.78125 6.28125 -7.703125 6.28125 -7.1875 C 6.28125 -7 6.40625 -6.78125 6.546875 -6.78125 C 6.59375 -6.78125 6.625 -6.8125 6.671875 -6.84375 C 6.734375 -6.90625 6.828125 -7.078125 7.078125 -7.078125 C 8.09375 -7.078125 8.09375 -4.8125 8.09375 -4.15625 C 8.09375 -2.34375 7.65625 -0.359375 6.609375 -0.359375 C 5.34375 -0.375 4.578125 -3.78125 4.578125 -7.140625 C 4.578125 -9.234375 4.890625 -13.828125 7.359375 -13.828125 C 8.6875 -13.828125 8.015625 -11.109375 8.953125 -11.109375 C 9.609375 -11.109375 9.671875 -12.171875 9.671875 -12.6875 C 9.671875 -13.953125 8.875 -14.609375 7.34375 -14.609375 C 1.65625 -14.609375 1.34375 -9.140625 1.265625 -7.828125 C 1.265625 -7.71875 1.25 -7.515625 1.25 -7.28125 C 1.0625 -6.546875 0.421875 -6.8125 0.421875 -6.46875 L 0.421875 -6.453125 C 0.4375 -6.09375 1.078125 -6.359375 1.265625 -5.5 C 1.421875 -3.015625 2.3125 0.390625 6.015625 0.390625 C 9.328125 0.390625 9.78125 -3.90625 9.78125 -6.21875 C 9.78125 -7.0625 9.734375 -7.640625 9.734375 -7.640625 Z M 9.734375 -7.640625 "/></g></g></g><g fill="#eb4d4d" fill-opacity="1"><g transform="translate(78.312599, 24.794408)"><g><path d="M 11.28125 -14.9375 C 11.15625 -14.9375 11.015625 -14.828125 10.828125 -14.703125 C 10.578125 -14.53125 9.921875 -14.484375 9.390625 -14.484375 C 6.53125 -14.484375 5.046875 -15.0625 3.890625 -15.0625 C 2.84375 -15.0625 1.515625 -14.453125 1.265625 -13.421875 C 1.265625 -13.40625 1.25 -13.359375 1.25 -13.34375 C 1.25 -13.203125 1.40625 -13.1875 1.5 -13.1875 C 1.5625 -13.1875 1.625 -13.203125 1.640625 -13.296875 C 1.859375 -14.09375 3.046875 -14.40625 3.703125 -14.453125 C 2.5 -12.96875 2.484375 -12.234375 2.296875 -11.40625 C 2.015625 -10.265625 1.890625 -8.703125 1.8125 -7.0625 C 1.625 -6.171875 0.90625 -6.546875 0.890625 -6.171875 L 0.890625 -6.15625 C 0.890625 -5.84375 1.59375 -6 1.71875 -5.171875 C 1.625 -3.296875 1.5 -1.546875 1.171875 -0.515625 C 1.03125 -0.125 0.703125 0.171875 0.703125 0.25 C 0.703125 0.421875 0.8125 0.453125 0.90625 0.453125 C 1.546875 0.453125 2.578125 -1.5 2.78125 -2.46875 C 2.921875 -3.171875 3.046875 -4.5 3.09375 -5.875 C 3.984375 -5.875 5.03125 -5.859375 6.15625 -5.859375 L 7.03125 -5.859375 C 6.953125 -3.78125 6.84375 -1.9375 6.765625 -1.1875 C 6.734375 -0.875 6.703125 -0.734375 6.59375 -0.4375 C 6.546875 -0.328125 6.328125 -0.296875 6.296875 -0.296875 C 6.21875 -0.28125 6.15625 -0.09375 6.15625 0.046875 C 6.15625 0.171875 6.25 0.296875 6.359375 0.296875 C 7.203125 0.015625 8.125 0 9 0 C 10.375 0 10.734375 0.125 10.875 0.125 C 10.984375 0.125 11.109375 0.015625 11.109375 -0.140625 C 11.109375 -0.5 10.828125 -0.515625 10.703125 -0.515625 C 10.59375 -0.515625 10.53125 -0.5 10.5 -0.5 C 10.34375 -0.5 10.34375 -0.953125 10.34375 -1.0625 C 10.265625 -2.390625 10.1875 -3.8125 10.1875 -5.09375 C 10.34375 -6.03125 11.078125 -5.65625 11.09375 -6.0625 C 11.09375 -6.390625 10.375 -6.203125 10.21875 -7.046875 C 10.28125 -8.546875 10.53125 -13.578125 10.65625 -13.9375 C 10.671875 -14.015625 10.8125 -14.078125 11.359375 -14.203125 C 11.46875 -14.234375 11.609375 -14.421875 11.609375 -14.625 C 11.609375 -14.828125 11.453125 -14.9375 11.28125 -14.9375 Z M 4.859375 -13.484375 C 5.265625 -13.890625 5.75 -14.265625 6.296875 -14.265625 C 6.4375 -14.265625 6.578125 -14.25 6.734375 -14.1875 C 7 -14.09375 7.109375 -12.234375 7.109375 -9.96875 C 7.109375 -8.859375 7.078125 -7.640625 7.046875 -6.46875 C 5.90625 -6.4375 4.515625 -6.375 3.125 -6.375 C 3.234375 -9.03125 3.453125 -12.078125 4.859375 -13.484375 Z M 4.859375 -13.484375 "/></g></g></g><g fill="#eb4d4d" fill-opacity="1"><g transform="translate(90.919466, 24.794408)"><g><path d="M 6.09375 -14.5625 C 5.5 -14.40625 4.8125 -14.34375 4.15625 -14.34375 C 2.90625 -14.34375 1.75 -14.546875 1.546875 -14.546875 C 1.40625 -14.546875 1.25 -14.53125 1.21875 -14.34375 C 1.25 -14.03125 1.671875 -13.75 1.8125 -13.75 C 2.125 -13.75 2.15625 -13.34375 2.1875 -12.6875 C 2.1875 -10.9375 2.203125 -9.296875 2.203125 -7.671875 C 2.203125 -6.40625 1.296875 -6.890625 1.28125 -6.46875 C 1.28125 -6.125 2.03125 -6.328125 2.171875 -5.40625 C 2.15625 -4.03125 2.109375 -2.78125 2.109375 -2.09375 C 2.109375 -0.96875 2.109375 -0.5 1.75 -0.359375 C 1.5625 -0.28125 1.1875 0.078125 1.1875 0.25 C 1.1875 0.421875 1.265625 0.453125 1.40625 0.453125 C 1.953125 0.453125 2.1875 0.21875 3.328125 0.21875 C 4.375 0.21875 5.46875 0.390625 5.796875 0.421875 C 5.953125 0.421875 6.0625 0.328125 6.0625 0.203125 C 6.0625 0.0625 5.984375 -0.140625 5.78125 -0.234375 C 5.5 -0.359375 5.328125 -0.296875 5.3125 -0.890625 C 5.25 -2.40625 5.1875 -3.96875 5.171875 -5.25 C 5.265625 -6.328125 6.0625 -5.9375 6.0625 -6.328125 C 6.0625 -6.671875 5.34375 -6.453125 5.171875 -7.265625 C 5.171875 -10.328125 5.3125 -12.078125 5.328125 -12.53125 C 5.34375 -12.890625 5.265625 -13.703125 5.765625 -13.703125 C 6.140625 -13.703125 6.390625 -13.890625 6.390625 -14.25 C 6.390625 -14.40625 6.3125 -14.546875 6.09375 -14.5625 Z M 6.09375 -14.5625 "/></g></g></g><g fill="#eb4d4d" fill-opacity="1"><g transform="translate(98.495425, 24.794408)"><g><path d="M 11.3125 -2.921875 C 11.3125 -3.53125 11.328125 -4.421875 11.34375 -5.390625 C 11.5625 -6.21875 12.234375 -5.84375 12.25 -6.21875 L 12.25 -6.234375 C 12.25 -6.59375 11.40625 -6.375 11.40625 -7.5 C 11.40625 -9.765625 11.421875 -11.28125 11.421875 -12.78125 C 11.421875 -13.109375 11.5 -13.578125 11.734375 -13.640625 C 11.90625 -13.671875 12.203125 -13.671875 12.328125 -13.796875 C 12.390625 -13.828125 12.40625 -13.953125 12.40625 -14.078125 C 12.40625 -14.1875 12.390625 -14.390625 12.28125 -14.390625 L 11.859375 -14.390625 C 10.859375 -14.390625 10.375 -14.453125 9.890625 -14.453125 C 9.703125 -14.453125 9.65625 -14.234375 9.65625 -14.109375 C 9.65625 -13.875 9.828125 -13.71875 9.953125 -13.703125 C 10.359375 -13.609375 10.65625 -13.78125 10.65625 -12.765625 C 10.65625 -9.625 10.4375 -6.171875 10.359375 -3.375 C 9.15625 -4.125 8.046875 -10.703125 4.65625 -13.5 C 3.703125 -14.28125 2.546875 -14.71875 1.1875 -14.71875 C 1 -14.71875 0.984375 -14.5625 0.984375 -14.453125 C 0.984375 -14.265625 1.125 -14.203125 1.265625 -14.15625 C 1.34375 -14.109375 1.875 -13.90625 2.171875 -13.4375 C 2.34375 -13.140625 2.453125 -11.125 2.453125 -8.796875 C 2.453125 -8.265625 2.421875 -7.734375 2.421875 -7.1875 C 2.234375 -6.375 1.5625 -6.703125 1.5625 -6.328125 L 1.5625 -6.3125 C 1.5625 -6 2.25 -6.171875 2.40625 -5.390625 C 2.375 -3.28125 2.328125 -1.515625 2.3125 -1.296875 C 2.234375 -0.15625 1.40625 0 1.296875 0.359375 L 1.296875 0.421875 C 1.296875 0.53125 1.359375 0.59375 1.453125 0.59375 C 1.484375 0.59375 1.5 0.59375 1.515625 0.578125 C 1.8125 0.359375 2.25 0.234375 2.875 0.234375 C 3.140625 0.234375 3.40625 0.25 3.734375 0.296875 L 3.78125 0.296875 C 3.953125 0.296875 4.0625 0.203125 4.0625 0.0625 C 4.0625 -0.09375 3.921875 -0.25 3.875 -0.28125 C 3.65625 -0.328125 3.28125 -0.375 3.234375 -0.546875 L 3.234375 -0.765625 C 3.234375 -1.734375 3.359375 -5.640625 3.359375 -7.625 C 3.359375 -8.171875 3.3125 -8.5 3.3125 -8.84375 C 3.3125 -9.03125 3.328125 -9.40625 3.4375 -9.40625 C 4.625 -9.40625 6.578125 0.546875 11.65625 0.546875 C 12.0625 0.546875 12.40625 -0.078125 12.40625 -0.21875 L 12.40625 -0.234375 C 12.171875 -0.796875 11.3125 -1.28125 11.3125 -2.921875 Z M 11.3125 -2.921875 "/></g></g></g></svg>