<svg xmlns="http://www.w3.org/2000/svg" xmlns:xlink="http://www.w3.org/1999/xlink" width="75" zoomAndPan="magnify" viewBox="0 0 56.25 30.000001" height="40" preserveAspectRatio="xMidYMid meet" version="1.0"><defs><g/><clipPath id="416f65b30a"><path d="M 0.542969 0 L 54.980469 0 L 54.980469 29.03125 L 0.542969 29.03125 Z M 0.542969 0 " clip-rule="nonzero"/></clipPath></defs><g clip-path="url(#416f65b30a)"><path stroke-linecap="butt" transform="matrix(0.907258, 0, 0, 0.907258, 0.544354, 1.754051)" fill="none" stroke-linejoin="miter" d="M 18.865418 21.30373 C 15.093751 21.30373 18.783612 12.533313 12.385557 12.533313 L 12.148751 12.533313 C 14.624446 11.84873 16.760001 10.251369 16.760001 7.500119 C 16.760001 5.752063 15.730973 3.831785 12.91514 3.831785 C 12.596529 3.831785 7.989584 4.107341 6.280279 4.107341 C 5.600001 4.107341 5.28139 4.042757 4.984307 4.042757 C 4.66139 4.042757 4.579584 4.133174 4.579584 4.258035 C 4.579584 4.684285 4.984307 4.878035 5.109168 4.878035 C 5.90139 5.02873 5.922918 5.622896 5.922918 6.281646 C 5.922918 7.035119 5.879862 9.29123 5.810973 11.685119 C 5.664584 12.744285 4.85514 12.343869 4.833612 12.765813 C 4.833612 13.131785 5.578473 12.916508 5.772223 13.773313 C 5.750696 15.693591 5.729168 17.252202 5.729168 18.806508 C 5.729168 19.297341 5.664584 19.297341 5.259862 19.318869 C 5.199584 19.318869 4.915418 19.512619 4.915418 19.826924 C 4.915418 19.917341 5.044584 20.020674 5.169446 20.020674 C 6.155418 20.020674 9.354446 19.999146 9.802223 20.020674 C 10.082084 20.020674 10.206946 19.977619 10.206946 19.745119 C 10.206946 19.529841 10.103612 19.275813 9.759168 19.275813 C 9.759168 19.275813 9.419029 19.275813 9.419029 18.931369 C 9.419029 18.444841 9.289862 15.198452 9.289862 11.917619 C 9.289862 8.757341 9.440557 5.601369 9.991668 4.921091 C 10.206946 4.60248 11.274723 4.533591 11.593334 4.533591 C 12.510418 4.533591 13.513612 4.921091 13.513612 6.518452 C 13.513612 9.274008 12.424307 11.788452 9.393196 12.447202 C 9.375973 12.46873 9.354446 12.511785 9.354446 12.580674 C 9.354446 12.765813 9.483612 13.067202 9.974446 13.067202 C 15.093751 13.067202 10.034723 21.76873 17.819168 21.76873 C 18.142084 21.76873 18.503751 21.751508 18.865418 21.72998 C 19.03764 21.708452 19.162501 21.639563 19.162501 21.471647 C 19.162501 21.320952 19.020418 21.30373 18.865418 21.30373 Z M 31.002779 11.831508 L 31.002779 11.043591 C 31.002779 9.355813 30.085696 5.244007 27.480835 5.244007 C 26.951251 5.244007 26.374307 5.325813 25.668196 5.816646 C 25.543335 5.902757 25.495973 6.027619 25.495973 6.156785 C 25.495973 6.415119 25.689723 6.647619 25.81889 6.647619 C 25.840418 6.647619 25.861946 6.647619 25.883473 6.626091 C 26.20639 6.432341 26.460418 6.324702 26.675696 6.324702 C 27.502362 6.324702 27.631529 7.246091 27.631529 12.257758 C 27.631529 14.625813 27.502362 19.805396 25.564862 19.805396 C 23.601529 19.805396 23.369029 14.518174 23.369029 12.23623 C 23.369029 10.079146 23.666112 5.071785 25.905001 4.727341 C 26.159029 4.727341 26.288196 4.490535 26.288196 4.301091 C 26.288196 4.17623 26.227918 4.085813 26.115973 4.064285 C 20.380973 4.064285 19.976251 10.505396 19.911668 11.84873 C 19.765279 12.834702 18.973057 12.490258 18.973057 12.877758 L 18.973057 12.89498 C 18.973057 13.304008 19.808335 12.938035 19.976251 14.113452 C 20.380973 16.804424 21.36264 20.425397 25.517501 20.425397 C 29.254723 20.425397 30.43014 16.782896 30.809029 14.005813 C 31.024307 13.239424 31.833751 13.304008 31.855279 13.028452 L 31.855279 13.006924 C 31.855279 12.66248 31.063057 12.813174 31.002779 11.831508 Z M 44.160557 16.541785 C 43.928057 16.541785 43.497501 16.610674 43.458751 16.804424 C 43.437224 17.31248 43.118612 17.910952 42.838751 18.251091 C 42.136946 19.103591 41.133751 19.469563 40.005696 19.469563 C 38.425557 19.448035 38.615001 19.125119 38.550418 18.078869 C 38.550418 17.93248 38.511668 16.244702 38.49014 14.113452 C 38.615001 13.028452 39.445974 13.428869 39.445974 13.006924 C 39.445974 12.619424 38.640835 12.877758 38.468612 11.870258 C 38.468612 8.356924 38.571946 4.60248 38.937918 4.533591 C 39.11014 4.512063 39.725835 4.533591 39.725835 4.258035 C 39.725835 3.728452 35.885279 4.154702 34.012362 3.491646 C 33.921946 3.470119 33.818612 3.405535 33.710974 3.405535 C 33.586112 3.405535 33.517224 3.55623 33.517224 3.638035 C 33.517224 3.810257 33.624862 4.042757 33.797085 4.107341 C 33.921946 4.154702 34.989724 4.559424 34.989724 5.386091 L 34.989724 5.45498 C 34.968196 5.622896 34.907918 8.735813 34.839029 11.896091 C 34.65389 12.877758 33.883196 12.490258 33.883196 12.89498 L 33.883196 12.916508 C 33.883196 13.260952 34.606529 13.08873 34.795974 13.90248 C 34.757224 15.672063 34.735696 17.161785 34.735696 18.634285 C 34.735696 19.938869 33.495696 20.06373 33.392362 20.511508 C 33.392362 20.533035 33.370835 20.597619 33.370835 20.662202 C 33.370835 20.834424 33.41389 20.980813 33.564585 20.980813 C 33.586112 20.980813 33.603335 20.980813 33.624862 20.959285 C 34.49889 20.317758 38.29639 20.171369 41.069168 20.171369 C 42.09389 20.171369 42.967918 20.214424 43.519029 20.214424 C 44.182085 20.214424 44.289724 17.781785 44.289724 16.804424 C 44.289724 16.649424 44.250974 16.567619 44.160557 16.541785 Z M 56.362501 16.541785 C 56.125696 16.541785 55.699446 16.610674 55.65639 16.804424 C 55.634863 17.31248 55.320557 17.910952 55.03639 18.251091 C 54.334585 19.103591 53.335696 19.469563 52.203335 19.469563 C 50.627501 19.448035 50.81264 19.125119 50.752363 18.078869 C 50.752363 17.93248 50.709307 16.244702 50.687779 14.113452 C 50.81264 13.028452 51.647918 13.428869 51.647918 13.006924 C 51.647918 12.619424 50.838474 12.877758 50.670557 11.870258 C 50.670557 8.356924 50.77389 4.60248 51.135557 4.533591 C 51.307779 4.512063 51.923474 4.533591 51.923474 4.258035 C 51.923474 3.728452 48.087224 4.154702 46.210001 3.491646 C 46.12389 3.470119 46.016251 3.405535 45.908613 3.405535 C 45.783751 3.405535 45.714863 3.55623 45.714863 3.638035 C 45.714863 3.810257 45.826807 4.042757 45.999029 4.107341 C 46.12389 4.154702 47.191668 4.559424 47.191668 5.386091 L 47.191668 5.45498 C 47.17014 5.622896 47.105557 8.735813 47.040974 11.896091 C 46.851529 12.877758 46.080835 12.490258 46.080835 12.89498 L 46.080835 12.916508 C 46.080835 13.260952 46.804168 13.08873 46.997918 13.90248 C 46.954863 15.672063 46.933335 17.161785 46.933335 18.634285 C 46.933335 19.938869 45.69764 20.06373 45.590001 20.511508 C 45.590001 20.533035 45.568474 20.597619 45.568474 20.662202 C 45.568474 20.834424 45.611529 20.980813 45.762224 20.980813 C 45.783751 20.980813 45.805279 20.980813 45.826807 20.959285 C 46.700835 20.317758 50.498335 20.171369 53.266807 20.171369 C 54.291529 20.171369 55.169863 20.214424 55.720974 20.214424 C 56.379724 20.214424 56.491668 17.781785 56.491668 16.804424 C 56.491668 16.649424 56.448613 16.567619 56.362501 16.541785 Z M 56.362501 16.541785 " stroke="#25412a" stroke-width="1.600013" stroke-opacity="1" stroke-miterlimit="4"/></g><g fill="#649b72" fill-opacity="1"><g transform="translate(3.53547, 19.899212)"><g><path d="M 14.125 1.1875 C 10.703125 1.1875 14.0625 -6.78125 8.25 -6.78125 L 8.03125 -6.78125 C 10.28125 -7.390625 12.21875 -8.84375 12.21875 -11.34375 C 12.21875 -12.9375 11.28125 -14.671875 8.734375 -14.671875 C 8.4375 -14.671875 4.265625 -14.421875 2.703125 -14.421875 C 2.09375 -14.421875 1.796875 -14.484375 1.53125 -14.484375 C 1.234375 -14.484375 1.15625 -14.40625 1.15625 -14.28125 C 1.15625 -13.90625 1.53125 -13.71875 1.640625 -13.71875 C 2.359375 -13.59375 2.375 -13.046875 2.375 -12.453125 C 2.375 -11.765625 2.34375 -9.71875 2.28125 -7.546875 C 2.15625 -6.578125 1.40625 -6.953125 1.390625 -6.5625 C 1.390625 -6.234375 2.078125 -6.421875 2.25 -5.65625 C 2.21875 -3.90625 2.203125 -2.5 2.203125 -1.078125 C 2.203125 -0.640625 2.15625 -0.640625 1.78125 -0.625 C 1.71875 -0.625 1.46875 -0.4375 1.46875 -0.15625 C 1.46875 -0.078125 1.59375 0.015625 1.703125 0.015625 C 2.59375 0.015625 5.5 0 5.90625 0.015625 C 6.15625 0.015625 6.265625 -0.015625 6.265625 -0.234375 C 6.265625 -0.421875 6.171875 -0.65625 5.859375 -0.65625 C 5.859375 -0.65625 5.5625 -0.65625 5.5625 -0.96875 C 5.5625 -1.40625 5.4375 -4.359375 5.4375 -7.34375 C 5.4375 -10.203125 5.578125 -13.0625 6.078125 -13.6875 C 6.265625 -13.984375 7.234375 -14.03125 7.53125 -14.03125 C 8.359375 -14.03125 9.265625 -13.6875 9.265625 -12.234375 C 9.265625 -9.734375 8.28125 -7.453125 5.53125 -6.859375 C 5.515625 -6.828125 5.5 -6.796875 5.5 -6.734375 C 5.5 -6.5625 5.609375 -6.296875 6.0625 -6.296875 C 10.703125 -6.296875 6.125 1.609375 13.1875 1.609375 C 13.46875 1.609375 13.796875 1.59375 14.125 1.5625 C 14.28125 1.546875 14.40625 1.484375 14.40625 1.328125 C 14.40625 1.203125 14.265625 1.1875 14.125 1.1875 Z M 14.125 1.1875 "/></g></g></g><g fill="#649b72" fill-opacity="1"><g transform="translate(17.351512, 19.899212)"><g><path d="M 11.328125 -7.421875 L 11.328125 -8.125 C 11.328125 -9.65625 10.5 -13.390625 8.125 -13.390625 C 7.640625 -13.390625 7.125 -13.3125 6.484375 -12.875 C 6.375 -12.796875 6.328125 -12.6875 6.328125 -12.5625 C 6.328125 -12.328125 6.5 -12.125 6.625 -12.125 C 6.640625 -12.125 6.65625 -12.125 6.671875 -12.140625 C 6.96875 -12.3125 7.203125 -12.40625 7.390625 -12.40625 C 8.15625 -12.40625 8.265625 -11.578125 8.265625 -7.03125 C 8.265625 -4.875 8.15625 -0.171875 6.390625 -0.171875 C 4.609375 -0.171875 4.390625 -4.96875 4.390625 -7.046875 C 4.390625 -9 4.671875 -13.546875 6.703125 -13.859375 C 6.9375 -13.859375 7.046875 -14.078125 7.046875 -14.25 C 7.046875 -14.359375 6.984375 -14.4375 6.890625 -14.46875 C 1.6875 -14.46875 1.3125 -8.609375 1.265625 -7.390625 C 1.125 -6.5 0.40625 -6.8125 0.40625 -6.46875 L 0.40625 -6.453125 C 0.40625 -6.078125 1.15625 -6.40625 1.3125 -5.34375 C 1.6875 -2.90625 2.578125 0.390625 6.34375 0.390625 C 9.734375 0.390625 10.796875 -2.921875 11.15625 -5.4375 C 11.34375 -6.140625 12.078125 -6.078125 12.09375 -6.328125 L 12.09375 -6.34375 C 12.09375 -6.65625 11.390625 -6.53125 11.328125 -7.421875 Z M 11.328125 -7.421875 "/></g></g></g><g fill="#649b72" fill-opacity="1"><g transform="translate(29.851741, 19.899212)"><g><path d="M 10.765625 -3.140625 C 10.546875 -3.140625 10.15625 -3.078125 10.125 -2.90625 C 10.109375 -2.4375 9.8125 -1.890625 9.5625 -1.59375 C 8.921875 -0.8125 8.015625 -0.484375 6.984375 -0.484375 C 5.5625 -0.5 5.734375 -0.796875 5.671875 -1.75 C 5.671875 -1.875 5.640625 -3.40625 5.609375 -5.34375 C 5.734375 -6.328125 6.484375 -5.96875 6.484375 -6.34375 C 6.484375 -6.703125 5.75 -6.46875 5.59375 -7.375 C 5.59375 -10.5625 5.6875 -13.984375 6.015625 -14.03125 C 6.171875 -14.0625 6.734375 -14.03125 6.734375 -14.28125 C 6.734375 -14.765625 3.25 -14.390625 1.546875 -14.984375 C 1.46875 -15 1.375 -15.0625 1.28125 -15.0625 C 1.15625 -15.0625 1.109375 -14.921875 1.109375 -14.84375 C 1.109375 -14.6875 1.203125 -14.484375 1.359375 -14.421875 C 1.46875 -14.390625 2.4375 -14.015625 2.4375 -13.265625 L 2.4375 -13.203125 C 2.421875 -13.046875 2.359375 -10.21875 2.296875 -7.359375 C 2.125 -6.46875 1.4375 -6.8125 1.4375 -6.453125 L 1.4375 -6.421875 C 1.4375 -6.125 2.09375 -6.265625 2.265625 -5.53125 C 2.21875 -3.9375 2.203125 -2.578125 2.203125 -1.234375 C 2.203125 -0.0625 1.078125 0.0625 0.984375 0.46875 C 0.984375 0.484375 0.96875 0.546875 0.96875 0.59375 C 0.96875 0.75 1 0.890625 1.140625 0.890625 C 1.15625 0.890625 1.1875 0.890625 1.203125 0.875 C 2 0.296875 5.4375 0.15625 7.953125 0.15625 C 8.890625 0.15625 9.671875 0.1875 10.1875 0.1875 C 10.78125 0.1875 10.875 -2.015625 10.875 -2.90625 C 10.875 -3.046875 10.84375 -3.109375 10.765625 -3.140625 Z M 10.765625 -3.140625 "/></g></g></g><g fill="#649b72" fill-opacity="1"><g transform="translate(40.920051, 19.899212)"><g><path d="M 10.765625 -3.140625 C 10.546875 -3.140625 10.15625 -3.078125 10.125 -2.90625 C 10.109375 -2.4375 9.8125 -1.890625 9.5625 -1.59375 C 8.921875 -0.8125 8.015625 -0.484375 6.984375 -0.484375 C 5.5625 -0.5 5.734375 -0.796875 5.671875 -1.75 C 5.671875 -1.875 5.640625 -3.40625 5.609375 -5.34375 C 5.734375 -6.328125 6.484375 -5.96875 6.484375 -6.34375 C 6.484375 -6.703125 5.75 -6.46875 5.59375 -7.375 C 5.59375 -10.5625 5.6875 -13.984375 6.015625 -14.03125 C 6.171875 -14.0625 6.734375 -14.03125 6.734375 -14.28125 C 6.734375 -14.765625 3.25 -14.390625 1.546875 -14.984375 C 1.46875 -15 1.375 -15.0625 1.28125 -15.0625 C 1.15625 -15.0625 1.109375 -14.921875 1.109375 -14.84375 C 1.109375 -14.6875 1.203125 -14.484375 1.359375 -14.421875 C 1.46875 -14.390625 2.4375 -14.015625 2.4375 -13.265625 L 2.4375 -13.203125 C 2.421875 -13.046875 2.359375 -10.21875 2.296875 -7.359375 C 2.125 -6.46875 1.4375 -6.8125 1.4375 -6.453125 L 1.4375 -6.421875 C 1.4375 -6.125 2.09375 -6.265625 2.265625 -5.53125 C 2.21875 -3.9375 2.203125 -2.578125 2.203125 -1.234375 C 2.203125 -0.0625 1.078125 0.0625 0.984375 0.46875 C 0.984375 0.484375 0.96875 0.546875 0.96875 0.59375 C 0.96875 0.75 1 0.890625 1.140625 0.890625 C 1.15625 0.890625 1.1875 0.890625 1.203125 0.875 C 2 0.296875 5.4375 0.15625 7.953125 0.15625 C 8.890625 0.15625 9.671875 0.1875 10.1875 0.1875 C 10.78125 0.1875 10.875 -2.015625 10.875 -2.90625 C 10.875 -3.046875 10.84375 -3.109375 10.765625 -3.140625 Z M 10.765625 -3.140625 "/></g></g></g></svg>