<svg xmlns="http://www.w3.org/2000/svg" xmlns:xlink="http://www.w3.org/1999/xlink" width="75" zoomAndPan="magnify" viewBox="0 0 56.25 37.499999" height="50" preserveAspectRatio="xMidYMid meet" version="1.0"><defs><g/><clipPath id="3a4f39064f"><path d="M 0 0 L 55.511719 0 L 55.511719 33 L 0 33 Z M 0 0 " clip-rule="nonzero"/></clipPath></defs><g clip-path="url(#3a4f39064f)"><path stroke-linecap="butt" transform="matrix(0.925164, 0, 0, 0.925164, 0.00000075, 5.088405)" fill="none" stroke-linejoin="miter" d="M 10.154444 11.448001 C 12.882 11.190445 14.976222 9.864667 14.976222 7.158223 C 14.976222 4.578445 13.439333 4.367333 11.416889 4.173111 C 10.644222 4.105556 9.770222 4.084445 8.875111 4.084445 C 7.169333 4.084445 5.379111 4.173111 3.905555 4.194222 C 3.842222 4.194222 3.652222 4.236445 3.652222 4.430667 C 3.652222 4.793778 3.947777 4.979556 4.222222 4.979556 C 4.331999 4.979556 4.416444 4.962667 4.505111 4.962667 C 4.737333 4.962667 4.821777 5.089334 4.821777 5.283556 C 4.821777 5.477778 4.758444 5.71 4.737333 5.967556 C 4.716222 6.474223 4.526222 9.037112 4.331999 11.80689 C 4.099777 12.765334 3.327111 12.343112 3.305999 12.744223 L 3.305999 12.765334 C 3.305999 13.111556 4.057555 12.959556 4.179999 13.833556 C 4.036444 15.775779 3.926666 17.587112 3.884444 18.634223 C 3.842222 19.470223 3.842222 19.491335 3.521333 19.592668 C 3.415777 19.63489 3.225777 19.765779 3.225777 19.960001 C 3.225777 20.12889 3.373555 20.31889 3.521333 20.31889 C 3.609999 20.31889 3.631111 20.297779 3.732444 20.255557 C 4.331999 20.019112 5.117333 19.981112 5.974444 19.981112 C 7.338222 19.981112 9.044 20.213335 9.858889 20.213335 C 12.759556 20.213335 16.128889 19.022668 16.128889 15.712445 C 16.128889 12.174223 12.844 11.448001 10.154444 11.448001 Z M 9.512667 19.613779 L 9.453555 19.613779 C 8.554222 19.613779 7.764666 19.187335 7.659111 18.676446 C 7.511333 18.034668 7.469111 17.249334 7.469111 16.396445 C 7.469111 14.137556 7.853333 11.532445 7.895555 10.789334 C 8.001111 9.184889 8.127778 7.411556 8.385333 5.967556 C 8.554222 5.068222 9.022889 4.599556 9.981333 4.599556 C 11.134 4.599556 11.965778 4.962667 11.965778 6.326445 C 11.965778 9.016 10.880667 10.911778 8.495111 11.422667 C 8.343111 11.448001 8.279778 11.61689 8.279778 11.726667 C 8.279778 11.849112 8.406444 11.916667 8.495111 11.916667 C 8.537333 11.916667 8.554222 11.916667 8.596444 11.895556 C 8.854 11.80689 9.086222 11.785778 9.343778 11.785778 C 11.454889 11.785778 12.607556 13.407112 12.607556 15.370445 C 12.607556 17.376001 11.518222 19.550446 9.512667 19.613779 Z M 28.542223 3.852222 C 28.390223 3.852222 28.242446 3.983111 28.052446 4.105556 C 27.769557 4.299778 27.068668 4.346222 26.494445 4.346222 C 23.399556 4.346222 21.803556 3.725556 20.541112 3.725556 C 19.413778 3.725556 17.978223 4.388445 17.703778 5.498889 C 17.703778 5.515778 17.682667 5.558 17.682667 5.579111 C 17.682667 5.731111 17.855778 5.752222 17.961334 5.752222 C 18.028889 5.752222 18.088 5.731111 18.109112 5.621334 C 18.345556 4.768445 19.624889 4.430667 20.351112 4.388445 C 19.046445 5.988667 19.025334 6.774 18.814223 7.673334 C 18.514445 8.906223 18.387778 10.595112 18.303334 12.364223 C 18.088 13.322667 17.319556 12.917334 17.298445 13.322667 L 17.298445 13.343779 C 17.298445 13.690001 18.066889 13.51689 18.193556 14.412001 C 18.088 16.438668 17.961334 18.338668 17.598223 19.449112 C 17.450445 19.871335 17.104223 20.192223 17.104223 20.276668 C 17.104223 20.449779 17.214 20.487779 17.319556 20.487779 C 17.999334 20.487779 19.135112 18.38089 19.350445 17.333779 C 19.494001 16.569557 19.624889 15.138223 19.688223 13.643556 C 20.646667 13.643556 21.778223 13.660445 22.994223 13.660445 L 23.931556 13.660445 C 23.847112 15.906668 23.741556 17.912223 23.657112 18.718668 C 23.61489 19.060668 23.593779 19.208446 23.46289 19.529335 C 23.420667 19.63489 23.188445 19.681335 23.146223 19.681335 C 23.057556 19.702446 22.994223 19.896668 22.994223 20.040223 C 22.994223 20.192223 23.099779 20.31889 23.209556 20.31889 C 24.125779 20.019112 25.130668 19.998001 26.068001 19.998001 C 27.558446 19.998001 27.942668 20.12889 28.094668 20.12889 C 28.217112 20.12889 28.348001 20.019112 28.348001 19.850223 C 28.348001 19.470223 28.052446 19.449112 27.900446 19.449112 C 27.79489 19.449112 27.727334 19.470223 27.685112 19.470223 C 27.516223 19.470223 27.516223 18.976223 27.516223 18.849557 C 27.431779 17.418223 27.347334 15.881334 27.347334 14.496445 C 27.516223 13.474667 28.305779 13.875779 28.32689 13.453556 C 28.32689 13.090445 27.558446 13.301556 27.389557 12.385334 C 27.45289 10.759778 27.727334 5.325778 27.858223 4.941556 C 27.879334 4.857111 28.031334 4.793778 28.622446 4.641778 C 28.732223 4.620667 28.880001 4.409556 28.880001 4.194222 C 28.880001 3.983111 28.711112 3.852222 28.542223 3.852222 Z M 21.588223 5.431334 C 22.035778 4.979556 22.546667 4.578445 23.146223 4.578445 C 23.289779 4.578445 23.441779 4.599556 23.61489 4.662889 C 23.910445 4.768445 24.020223 6.774 24.020223 9.231334 C 24.020223 10.422001 23.99489 11.747778 23.952667 13.006001 C 22.719779 13.048223 21.225112 13.111556 19.709334 13.111556 C 19.840223 10.232001 20.072445 6.942889 21.588223 5.431334 Z M 42.188447 16.844001 C 42.188447 16.181112 42.209558 15.218445 42.230669 14.179779 C 42.467113 13.280445 43.197558 13.690001 43.214447 13.280445 L 43.214447 13.263556 C 43.214447 12.875112 42.294002 13.111556 42.294002 11.895556 C 42.294002 9.438223 42.319335 7.8 42.319335 6.178667 C 42.319335 5.836667 42.40378 5.325778 42.657113 5.262445 C 42.830224 5.216 43.146891 5.216 43.298891 5.089334 C 43.362224 5.047111 43.383335 4.920445 43.383335 4.793778 C 43.383335 4.662889 43.362224 4.451778 43.235558 4.451778 L 42.788002 4.451778 C 41.702891 4.451778 41.183558 4.388445 40.65578 4.388445 C 40.461558 4.388445 40.398224 4.620667 40.398224 4.747334 C 40.398224 5.009111 40.592446 5.173778 40.714891 5.194889 C 41.166669 5.283556 41.487558 5.110445 41.487558 6.199778 C 41.487558 9.590223 41.251113 13.322667 41.166669 16.354223 C 39.866224 15.543556 38.671335 8.437556 35.002224 5.410222 C 33.976224 4.561556 32.718001 4.084445 31.248668 4.084445 C 31.058668 4.084445 31.037557 4.257556 31.037557 4.388445 C 31.037557 4.578445 31.181112 4.641778 31.333112 4.705111 C 31.421779 4.747334 31.996001 4.962667 32.31689 5.477778 C 32.502668 5.794445 32.612446 7.968889 32.612446 10.485334 C 32.612446 11.063778 32.591335 11.638001 32.591335 12.237556 C 32.380224 13.111556 31.654001 12.744223 31.654001 13.153779 L 31.654001 13.17489 C 31.654001 13.51689 32.401335 13.322667 32.570224 14.179779 C 32.532224 16.459779 32.485779 18.359779 32.464668 18.592001 C 32.380224 19.829112 31.485112 19.998001 31.375335 20.386446 L 31.375335 20.449779 C 31.375335 20.576446 31.44289 20.639779 31.548446 20.639779 C 31.565335 20.639779 31.586446 20.639779 31.607557 20.618668 C 31.932668 20.386446 32.401335 20.255557 33.081113 20.255557 C 33.359779 20.255557 33.659557 20.276668 33.997335 20.31889 L 34.060668 20.31889 C 34.233779 20.31889 34.364668 20.213335 34.364668 20.061335 C 34.364668 19.896668 34.212668 19.723557 34.149335 19.702446 C 33.917113 19.63489 33.507557 19.592668 33.469557 19.402668 L 33.469557 19.166223 C 33.469557 18.123334 33.592001 13.901112 33.592001 11.76889 C 33.592001 11.169334 33.549779 10.810445 33.549779 10.443112 C 33.549779 10.232001 33.57089 9.822445 33.680668 9.822445 C 34.955779 9.822445 37.071113 20.597557 42.576891 20.597557 C 43.003335 20.597557 43.383335 19.917779 43.383335 19.765779 L 43.383335 19.744668 C 43.12578 19.145112 42.188447 18.613112 42.188447 16.844001 Z M 57.717781 19.318223 C 57.418003 19.318223 53.385781 12.153112 52.938225 9.784445 C 54.496225 7.373556 56.227336 4.979556 56.991559 4.726222 C 57.439114 4.578445 57.548892 4.388445 57.548892 4.236445 C 57.548892 4.042222 57.396892 3.873333 57.244892 3.873333 C 57.181559 3.873333 57.101336 3.898667 57.059114 3.919778 C 56.991559 3.940889 56.565114 4.042222 55.585559 4.105556 C 55.095781 4.105556 54.711558 3.962 54.302003 3.962 C 53.964225 3.962 53.601114 4.042222 53.284447 4.194222 C 53.195781 4.236445 53.153558 4.346222 53.153558 4.472889 C 53.153558 4.620667 53.216892 4.747334 53.326669 4.747334 C 53.36467 4.747334 53.428003 4.726222 53.449114 4.705111 C 53.622225 4.599556 53.875558 4.561556 54.090892 4.561556 C 54.454003 4.561556 54.817114 4.768445 54.817114 5.110445 C 54.817114 5.241334 54.77067 5.368 54.690447 5.515778 C 54.344225 6.115334 50.058669 12.744223 49.805336 12.811779 C 49.906669 11.916667 49.995336 6.178667 50.210669 5.389111 C 50.316225 4.878222 50.852447 4.857111 51.017114 4.814889 C 51.253558 4.747334 51.401336 4.561556 51.401336 4.367333 C 51.401336 4.152 51.253558 4.025333 51.084669 4.025333 C 51.017114 4.025333 50.742669 4.173111 49.632225 4.173111 C 46.946891 4.173111 45.857558 3.962 45.621113 3.962 C 45.540891 3.962 45.410002 4.004222 45.388891 4.215333 C 45.388891 4.346222 45.388891 4.641778 45.684447 4.705111 C 46.08978 4.814889 46.414891 4.684 46.414891 4.941556 C 46.414891 5.731111 46.372669 8.927334 46.305113 12.043334 C 46.05178 12.854001 45.36778 12.49089 45.346669 12.875112 L 45.346669 12.896223 C 45.346669 13.301556 46.262891 13.048223 46.262891 14.281112 C 46.262891 15.775779 46.157336 17.181779 46.157336 19.022668 C 46.157336 19.297112 46.110891 19.402668 45.836447 19.423779 C 45.473336 19.470223 45.346669 19.550446 45.346669 19.850223 C 45.36778 20.040223 45.410002 20.082446 45.540891 20.082446 C 45.752002 20.082446 45.946225 20.040223 46.110891 20.040223 C 47.563336 20.040223 48.910225 20.082446 50.23178 20.082446 C 50.442892 20.082446 50.464003 19.93889 50.464003 19.78689 C 50.464003 19.592668 50.404892 19.423779 50.168447 19.423779 C 50.058669 19.423779 50.016447 19.449112 49.957336 19.449112 C 49.868669 19.449112 49.784225 19.402668 49.763114 19.276001 C 49.742003 18.934001 49.720891 18.292223 49.720891 17.587112 C 49.720891 16.396445 49.763114 15.053779 49.826447 14.92289 C 49.906669 14.749779 50.337336 14.006667 50.932669 13.006001 C 51.747558 15.053779 53.664447 18.634223 53.664447 19.25489 C 53.664447 19.297112 53.643336 19.339335 53.622225 19.339335 C 53.428003 19.402668 52.980447 19.339335 52.980447 19.702446 C 52.980447 19.896668 53.090225 20.040223 53.284447 20.040223 C 53.36467 20.040223 53.449114 20.019112 53.558892 20.019112 C 54.454003 20.019112 55.290003 19.960001 56.117559 19.960001 C 57.101336 19.960001 57.692448 19.998001 58.313114 19.998001 C 58.465114 19.998001 58.465114 19.871335 58.465114 19.765779 C 58.465114 19.423779 58.422892 19.318223 57.88667 19.318223 Z M 57.717781 19.318223 " stroke="#7d4f00" stroke-width="1.600013" stroke-opacity="1" stroke-miterlimit="4"/></g><g fill="#faa81c" fill-opacity="1"><g transform="translate(1.778051, 23.591693)"><g><path d="M 7.625 -7.90625 C 10.140625 -8.15625 12.078125 -9.375 12.078125 -11.875 C 12.078125 -14.265625 10.65625 -14.46875 8.78125 -14.640625 C 8.078125 -14.703125 7.265625 -14.71875 6.4375 -14.71875 C 4.859375 -14.71875 3.203125 -14.640625 1.828125 -14.625 C 1.78125 -14.625 1.59375 -14.578125 1.59375 -14.40625 C 1.59375 -14.078125 1.875 -13.890625 2.125 -13.890625 C 2.234375 -13.890625 2.3125 -13.90625 2.390625 -13.90625 C 2.609375 -13.90625 2.6875 -13.796875 2.6875 -13.609375 C 2.6875 -13.4375 2.625 -13.21875 2.609375 -12.984375 C 2.578125 -12.515625 2.40625 -10.140625 2.234375 -7.578125 C 2.015625 -6.6875 1.296875 -7.078125 1.28125 -6.703125 L 1.28125 -6.6875 C 1.28125 -6.375 1.96875 -6.515625 2.09375 -5.703125 C 1.953125 -3.90625 1.859375 -2.234375 1.8125 -1.265625 C 1.78125 -0.5 1.78125 -0.46875 1.484375 -0.375 C 1.375 -0.328125 1.203125 -0.21875 1.203125 -0.046875 C 1.203125 0.125 1.34375 0.296875 1.484375 0.296875 C 1.5625 0.296875 1.578125 0.28125 1.671875 0.234375 C 2.234375 0.015625 2.953125 -0.015625 3.75 -0.015625 C 5.015625 -0.015625 6.59375 0.203125 7.34375 0.203125 C 10.03125 0.203125 13.140625 -0.90625 13.140625 -3.96875 C 13.140625 -7.25 10.109375 -7.90625 7.625 -7.90625 Z M 7.03125 -0.359375 L 6.96875 -0.359375 C 6.140625 -0.359375 5.40625 -0.75 5.3125 -1.21875 C 5.171875 -1.8125 5.125 -2.546875 5.125 -3.328125 C 5.125 -5.421875 5.484375 -7.828125 5.53125 -8.53125 C 5.625 -10 5.75 -11.640625 5.984375 -12.984375 C 6.140625 -13.8125 6.578125 -14.25 7.453125 -14.25 C 8.53125 -14.25 9.296875 -13.90625 9.296875 -12.65625 C 9.296875 -10.15625 8.28125 -8.40625 6.078125 -7.9375 C 5.9375 -7.90625 5.875 -7.75 5.875 -7.65625 C 5.875 -7.53125 6 -7.484375 6.078125 -7.484375 C 6.125 -7.484375 6.140625 -7.484375 6.171875 -7.5 C 6.40625 -7.578125 6.625 -7.59375 6.875 -7.59375 C 8.828125 -7.59375 9.890625 -6.09375 9.890625 -4.28125 C 9.890625 -2.421875 8.875 -0.421875 7.03125 -0.359375 Z M 7.03125 -0.359375 "/></g></g></g><g fill="#faa81c" fill-opacity="1"><g transform="translate(15.116958, 23.591693)"><g><path d="M 11.28125 -14.9375 C 11.15625 -14.9375 11.015625 -14.828125 10.828125 -14.703125 C 10.578125 -14.53125 9.921875 -14.484375 9.390625 -14.484375 C 6.53125 -14.484375 5.046875 -15.0625 3.890625 -15.0625 C 2.84375 -15.0625 1.515625 -14.453125 1.265625 -13.421875 C 1.265625 -13.40625 1.25 -13.359375 1.25 -13.34375 C 1.25 -13.203125 1.40625 -13.1875 1.5 -13.1875 C 1.5625 -13.1875 1.625 -13.203125 1.640625 -13.296875 C 1.859375 -14.09375 3.046875 -14.40625 3.703125 -14.453125 C 2.5 -12.96875 2.484375 -12.234375 2.296875 -11.40625 C 2.015625 -10.265625 1.890625 -8.703125 1.8125 -7.0625 C 1.625 -6.171875 0.90625 -6.546875 0.890625 -6.171875 L 0.890625 -6.15625 C 0.890625 -5.84375 1.59375 -6 1.71875 -5.171875 C 1.625 -3.296875 1.5 -1.546875 1.171875 -0.515625 C 1.03125 -0.125 0.703125 0.171875 0.703125 0.25 C 0.703125 0.421875 0.8125 0.453125 0.90625 0.453125 C 1.546875 0.453125 2.578125 -1.5 2.78125 -2.46875 C 2.921875 -3.171875 3.046875 -4.5 3.09375 -5.875 C 3.984375 -5.875 5.03125 -5.859375 6.15625 -5.859375 L 7.03125 -5.859375 C 6.953125 -3.78125 6.84375 -1.9375 6.765625 -1.1875 C 6.734375 -0.875 6.703125 -0.734375 6.59375 -0.4375 C 6.546875 -0.328125 6.328125 -0.296875 6.296875 -0.296875 C 6.21875 -0.28125 6.15625 -0.09375 6.15625 0.046875 C 6.15625 0.171875 6.25 0.296875 6.359375 0.296875 C 7.203125 0.015625 8.125 0 9 0 C 10.375 0 10.734375 0.125 10.875 0.125 C 10.984375 0.125 11.109375 0.015625 11.109375 -0.140625 C 11.109375 -0.5 10.828125 -0.515625 10.703125 -0.515625 C 10.59375 -0.515625 10.53125 -0.5 10.5 -0.5 C 10.34375 -0.5 10.34375 -0.953125 10.34375 -1.0625 C 10.265625 -2.390625 10.1875 -3.8125 10.1875 -5.09375 C 10.34375 -6.03125 11.078125 -5.65625 11.09375 -6.0625 C 11.09375 -6.390625 10.375 -6.203125 10.21875 -7.046875 C 10.28125 -8.546875 10.53125 -13.578125 10.65625 -13.9375 C 10.671875 -14.015625 10.8125 -14.078125 11.359375 -14.203125 C 11.46875 -14.234375 11.609375 -14.421875 11.609375 -14.625 C 11.609375 -14.828125 11.453125 -14.9375 11.28125 -14.9375 Z M 4.859375 -13.484375 C 5.265625 -13.890625 5.75 -14.265625 6.296875 -14.265625 C 6.4375 -14.265625 6.578125 -14.25 6.734375 -14.1875 C 7 -14.09375 7.109375 -12.234375 7.109375 -9.96875 C 7.109375 -8.859375 7.078125 -7.640625 7.046875 -6.46875 C 5.90625 -6.4375 4.515625 -6.375 3.125 -6.375 C 3.234375 -9.03125 3.453125 -12.078125 4.859375 -13.484375 Z M 4.859375 -13.484375 "/></g></g></g><g fill="#faa81c" fill-opacity="1"><g transform="translate(27.725768, 23.591693)"><g><path d="M 11.3125 -2.921875 C 11.3125 -3.53125 11.328125 -4.421875 11.34375 -5.390625 C 11.5625 -6.21875 12.234375 -5.84375 12.25 -6.21875 L 12.25 -6.234375 C 12.25 -6.59375 11.40625 -6.375 11.40625 -7.5 C 11.40625 -9.765625 11.421875 -11.28125 11.421875 -12.78125 C 11.421875 -13.109375 11.5 -13.578125 11.734375 -13.640625 C 11.90625 -13.671875 12.203125 -13.671875 12.328125 -13.796875 C 12.390625 -13.828125 12.40625 -13.953125 12.40625 -14.078125 C 12.40625 -14.1875 12.390625 -14.390625 12.28125 -14.390625 L 11.859375 -14.390625 C 10.859375 -14.390625 10.375 -14.453125 9.890625 -14.453125 C 9.703125 -14.453125 9.65625 -14.234375 9.65625 -14.109375 C 9.65625 -13.875 9.828125 -13.71875 9.953125 -13.703125 C 10.359375 -13.609375 10.65625 -13.78125 10.65625 -12.765625 C 10.65625 -9.625 10.4375 -6.171875 10.359375 -3.375 C 9.15625 -4.125 8.046875 -10.703125 4.65625 -13.5 C 3.703125 -14.28125 2.546875 -14.71875 1.1875 -14.71875 C 1 -14.71875 0.984375 -14.5625 0.984375 -14.453125 C 0.984375 -14.265625 1.125 -14.203125 1.265625 -14.15625 C 1.34375 -14.109375 1.875 -13.90625 2.171875 -13.4375 C 2.34375 -13.140625 2.453125 -11.125 2.453125 -8.796875 C 2.453125 -8.265625 2.421875 -7.734375 2.421875 -7.1875 C 2.234375 -6.375 1.5625 -6.703125 1.5625 -6.328125 L 1.5625 -6.3125 C 1.5625 -6 2.25 -6.171875 2.40625 -5.390625 C 2.375 -3.28125 2.328125 -1.515625 2.3125 -1.296875 C 2.234375 -0.15625 1.40625 0 1.296875 0.359375 L 1.296875 0.421875 C 1.296875 0.53125 1.359375 0.59375 1.453125 0.59375 C 1.484375 0.59375 1.5 0.59375 1.515625 0.578125 C 1.8125 0.359375 2.25 0.234375 2.875 0.234375 C 3.140625 0.234375 3.40625 0.25 3.734375 0.296875 L 3.78125 0.296875 C 3.953125 0.296875 4.0625 0.203125 4.0625 0.0625 C 4.0625 -0.09375 3.921875 -0.25 3.875 -0.28125 C 3.65625 -0.328125 3.28125 -0.375 3.234375 -0.546875 L 3.234375 -0.765625 C 3.234375 -1.734375 3.359375 -5.640625 3.359375 -7.625 C 3.359375 -8.171875 3.3125 -8.5 3.3125 -8.84375 C 3.3125 -9.03125 3.328125 -9.40625 3.4375 -9.40625 C 4.625 -9.40625 6.578125 0.546875 11.65625 0.546875 C 12.0625 0.546875 12.40625 -0.078125 12.40625 -0.21875 L 12.40625 -0.234375 C 12.171875 -0.796875 11.3125 -1.28125 11.3125 -2.921875 Z M 11.3125 -2.921875 "/></g></g></g><g fill="#faa81c" fill-opacity="1"><g transform="translate(40.946276, 23.591693)"><g><path d="M 12.453125 -0.625 C 12.171875 -0.625 8.453125 -7.265625 8.03125 -9.453125 C 9.46875 -11.6875 11.078125 -13.890625 11.78125 -14.125 C 12.203125 -14.265625 12.296875 -14.453125 12.296875 -14.578125 C 12.296875 -14.765625 12.15625 -14.921875 12.015625 -14.921875 C 11.953125 -14.921875 11.875 -14.90625 11.84375 -14.875 C 11.78125 -14.859375 11.390625 -14.765625 10.484375 -14.703125 C 10.03125 -14.703125 9.671875 -14.84375 9.296875 -14.84375 C 8.984375 -14.84375 8.640625 -14.765625 8.34375 -14.625 C 8.265625 -14.578125 8.234375 -14.484375 8.234375 -14.359375 C 8.234375 -14.234375 8.28125 -14.109375 8.390625 -14.109375 C 8.421875 -14.109375 8.484375 -14.125 8.5 -14.15625 C 8.65625 -14.25 8.90625 -14.28125 9.09375 -14.28125 C 9.4375 -14.28125 9.765625 -14.09375 9.765625 -13.78125 C 9.765625 -13.65625 9.734375 -13.53125 9.65625 -13.40625 C 9.328125 -12.84375 5.375 -6.703125 5.125 -6.65625 C 5.234375 -7.484375 5.3125 -12.78125 5.5 -13.515625 C 5.609375 -13.984375 6.09375 -14.015625 6.25 -14.046875 C 6.46875 -14.109375 6.609375 -14.28125 6.609375 -14.46875 C 6.609375 -14.65625 6.46875 -14.78125 6.3125 -14.78125 C 6.25 -14.78125 6 -14.640625 4.96875 -14.640625 C 2.484375 -14.640625 1.484375 -14.84375 1.265625 -14.84375 C 1.1875 -14.84375 1.0625 -14.796875 1.046875 -14.609375 C 1.046875 -14.484375 1.046875 -14.203125 1.328125 -14.15625 C 1.703125 -14.046875 2 -14.171875 2 -13.9375 C 2 -13.203125 1.953125 -10.234375 1.890625 -7.359375 C 1.65625 -6.609375 1.03125 -6.953125 1 -6.59375 L 1 -6.578125 C 1 -6.203125 1.859375 -6.4375 1.859375 -5.28125 C 1.859375 -3.90625 1.75 -2.609375 1.75 -0.90625 C 1.75 -0.65625 1.71875 -0.546875 1.453125 -0.53125 C 1.125 -0.5 1 -0.421875 1 -0.140625 C 1.03125 0.046875 1.0625 0.078125 1.1875 0.078125 C 1.375 0.078125 1.5625 0.046875 1.71875 0.046875 C 3.0625 0.046875 4.296875 0.078125 5.53125 0.078125 C 5.71875 0.078125 5.75 -0.0625 5.75 -0.203125 C 5.75 -0.375 5.6875 -0.53125 5.46875 -0.53125 C 5.375 -0.53125 5.328125 -0.515625 5.265625 -0.515625 C 5.1875 -0.515625 5.109375 -0.546875 5.09375 -0.671875 C 5.078125 -0.984375 5.046875 -1.578125 5.046875 -2.234375 C 5.046875 -3.328125 5.09375 -4.578125 5.15625 -4.703125 C 5.234375 -4.859375 5.625 -5.546875 6.171875 -6.46875 C 6.921875 -4.578125 8.703125 -1.265625 8.703125 -0.6875 C 8.703125 -0.65625 8.6875 -0.609375 8.65625 -0.609375 C 8.484375 -0.546875 8.078125 -0.609375 8.078125 -0.28125 C 8.078125 -0.09375 8.171875 0.046875 8.34375 0.046875 C 8.421875 0.046875 8.5 0.015625 8.609375 0.015625 C 9.4375 0.015625 10.203125 -0.046875 10.96875 -0.046875 C 11.875 -0.046875 12.4375 0 13 0 C 13.140625 0 13.140625 -0.125 13.140625 -0.21875 C 13.140625 -0.53125 13.109375 -0.625 12.609375 -0.625 Z M 12.453125 -0.625 "/></g></g></g></svg>