<svg xmlns="http://www.w3.org/2000/svg" xmlns:xlink="http://www.w3.org/1999/xlink" width="75" zoomAndPan="magnify" viewBox="0 0 56.25 37.499999" height="50" preserveAspectRatio="xMidYMid meet" version="1.0"><defs><g/><clipPath id="a146921fef"><path d="M 0 0 L 55.511719 0 L 55.511719 34 L 0 34 Z M 0 0 " clip-rule="nonzero"/></clipPath></defs><g clip-path="url(#a146921fef)"><path stroke-linecap="butt" transform="matrix(0.925164, 0, 0, 0.925164, 0.00000075, 5.088404)" fill="none" stroke-linejoin="miter" d="M 18.869112 21.302668 C 15.090222 21.302668 18.784667 12.533112 12.383778 12.533112 L 12.151556 12.533112 C 14.621556 11.849112 16.758 10.253112 16.758 7.500223 C 16.758 5.752223 15.732 3.831112 12.915778 3.831112 C 12.599111 3.831112 7.988444 4.105556 6.282666 4.105556 C 5.598666 4.105556 5.282 4.042223 4.982222 4.042223 C 4.661333 4.042223 4.576888 4.13089 4.576888 4.257556 C 4.576888 4.684001 4.982222 4.878223 5.108888 4.878223 C 5.902666 5.030223 5.919555 5.621334 5.919555 6.284223 C 5.919555 7.031556 5.881555 9.294668 5.814 11.684446 C 5.666222 12.744223 4.855555 12.343112 4.834444 12.765335 C 4.834444 13.132668 5.577555 12.917335 5.771777 13.770224 C 5.750666 15.691335 5.729555 17.249335 5.729555 18.807335 C 5.729555 19.297113 5.666222 19.297113 5.260888 19.318224 C 5.197555 19.318224 4.914666 19.512446 4.914666 19.829113 C 4.914666 19.91778 5.045555 20.019113 5.172222 20.019113 C 6.156 20.019113 9.352222 19.998002 9.799778 20.019113 C 10.082667 20.019113 10.209333 19.981113 10.209333 19.744668 C 10.209333 19.529335 10.103778 19.276002 9.757555 19.276002 C 9.757555 19.276002 9.419778 19.276002 9.419778 18.934002 C 9.419778 18.444224 9.288889 15.197335 9.288889 11.916668 C 9.288889 8.758445 9.440889 5.600223 9.994 4.920445 C 10.209333 4.599556 11.273333 4.532001 11.594222 4.532001 C 12.510444 4.532001 13.515333 4.920445 13.515333 6.516445 C 13.515333 9.273557 12.426 11.785779 9.394444 12.448668 C 9.373333 12.469779 9.352222 12.512001 9.352222 12.579557 C 9.352222 12.765335 9.483111 13.069335 9.972889 13.069335 C 15.090222 13.069335 10.036222 21.771335 17.822 21.771335 C 18.142889 21.771335 18.501778 21.750224 18.869112 21.729113 C 19.038 21.708002 19.164667 21.640446 19.164667 21.47578 C 19.164667 21.32378 19.016889 21.302668 18.869112 21.302668 Z M 31.003779 11.828001 L 31.003779 11.042668 C 31.003779 9.353779 30.087557 5.241334 27.482446 5.241334 C 26.950445 5.241334 26.372001 5.325779 25.671112 5.815556 C 25.544445 5.904223 25.498001 6.026667 25.498001 6.157556 C 25.498001 6.415112 25.692223 6.647334 25.81889 6.647334 C 25.840001 6.647334 25.861112 6.647334 25.882223 6.626223 C 26.207334 6.436223 26.460668 6.326445 26.676001 6.326445 C 27.503557 6.326445 27.634446 7.24689 27.634446 12.254446 C 27.634446 14.627335 27.503557 19.808002 25.565556 19.808002 C 23.602223 19.808002 23.370001 14.517557 23.370001 12.237557 C 23.370001 10.080001 23.665556 5.068223 25.903334 4.726223 C 26.16089 4.726223 26.287557 4.494001 26.287557 4.299778 C 26.287557 4.173112 26.228445 4.084445 26.118668 4.063334 C 20.380667 4.063334 19.979556 10.506446 19.912001 11.849112 C 19.764223 12.83289 18.974667 12.49089 18.974667 12.875112 L 18.974667 12.896223 C 18.974667 13.301557 19.806445 12.938446 19.979556 14.116446 C 20.380667 16.801779 21.364445 20.428668 25.519112 20.428668 C 29.251557 20.428668 30.429557 16.780668 30.809557 14.006668 C 31.02489 13.242446 31.835557 13.301557 31.856668 13.027112 L 31.856668 13.006001 C 31.856668 12.664001 31.06289 12.811779 31.003779 11.828001 Z M 44.160224 16.544224 C 43.928002 16.544224 43.497335 16.611779 43.459335 16.801779 C 43.438224 17.312668 43.117335 17.912224 42.838669 18.250002 C 42.133558 19.102891 41.137113 19.470224 40.005557 19.470224 C 38.426446 19.449113 38.616446 19.124002 38.553113 18.07689 C 38.553113 17.933335 38.510891 16.244446 38.48978 14.116446 C 38.616446 13.027112 39.448224 13.428224 39.448224 13.006001 C 39.448224 12.621779 38.64178 12.875112 38.468668 11.870223 C 38.468668 8.357334 38.574224 4.599556 38.937335 4.532001 C 39.110446 4.51089 39.722669 4.532001 39.722669 4.257556 C 39.722669 3.725556 35.884668 4.152001 34.010002 3.493334 C 33.921335 3.472223 33.820002 3.404667 33.710224 3.404667 C 33.583557 3.404667 33.516001 3.556667 33.516001 3.63689 C 33.516001 3.810001 33.625779 4.042223 33.79889 4.105556 C 33.921335 4.152001 34.989557 4.561556 34.989557 5.389112 L 34.989557 5.456667 C 34.968446 5.621334 34.905113 8.737334 34.837557 11.895557 C 34.651779 12.875112 33.879113 12.49089 33.879113 12.896223 L 33.879113 12.917335 C 33.879113 13.263557 34.605335 13.090446 34.799557 13.901112 C 34.757335 15.674446 34.736224 17.160668 34.736224 18.634224 C 34.736224 19.938891 33.49489 20.061335 33.393557 20.508891 C 33.393557 20.530002 33.372446 20.597557 33.372446 20.660891 C 33.372446 20.834002 33.410446 20.977557 33.562446 20.977557 C 33.583557 20.977557 33.604668 20.977557 33.625779 20.956446 C 34.499779 20.318891 38.295557 20.171113 41.069558 20.171113 C 42.091335 20.171113 42.969558 20.213335 43.518447 20.213335 C 44.181336 20.213335 44.291113 17.781335 44.291113 16.801779 C 44.291113 16.649779 44.248891 16.569557 44.160224 16.544224 Z M 56.362447 16.544224 C 56.126003 16.544224 55.699559 16.611779 55.657336 16.801779 C 55.636225 17.312668 55.319559 17.912224 55.03667 18.250002 C 54.335781 19.102891 53.335114 19.470224 52.203558 19.470224 C 50.628669 19.449113 50.814447 19.124002 50.751114 18.07689 C 50.751114 17.933335 50.708892 16.244446 50.68778 14.116446 C 50.814447 13.027112 51.646225 13.428224 51.646225 13.006001 C 51.646225 12.621779 50.83978 12.875112 50.666669 11.870223 C 50.666669 8.357334 50.772225 4.599556 51.135336 4.532001 C 51.308447 4.51089 51.924892 4.532001 51.924892 4.257556 C 51.924892 3.725556 48.086891 4.152001 46.212225 3.493334 C 46.123558 3.472223 46.018002 3.404667 45.908225 3.404667 C 45.78578 3.404667 45.718225 3.556667 45.718225 3.63689 C 45.718225 3.810001 45.82378 4.042223 45.996891 4.105556 C 46.123558 4.152001 47.19178 4.561556 47.19178 5.389112 L 47.19178 5.456667 C 47.170669 5.621334 47.107336 8.737334 47.03978 11.895557 C 46.84978 12.875112 46.081336 12.49089 46.081336 12.896223 L 46.081336 12.917335 C 46.081336 13.263557 46.803336 13.090446 46.997558 13.901112 C 46.955336 15.674446 46.934225 17.160668 46.934225 18.634224 C 46.934225 19.938891 45.697113 20.061335 45.591558 20.508891 C 45.591558 20.530002 45.570447 20.597557 45.570447 20.660891 C 45.570447 20.834002 45.612669 20.977557 45.764669 20.977557 C 45.78578 20.977557 45.806891 20.977557 45.82378 20.956446 C 46.702002 20.318891 50.49778 20.171113 53.267558 20.171113 C 54.293558 20.171113 55.167559 20.213335 55.72067 20.213335 C 56.379336 20.213335 56.489114 17.781335 56.489114 16.801779 C 56.489114 16.649779 56.451114 16.569557 56.362447 16.544224 Z M 56.362447 16.544224 " stroke="#25412a" stroke-width="1.600013" stroke-opacity="1" stroke-miterlimit="4"/></g><g fill="#649b72" fill-opacity="1"><g transform="translate(3.050152, 23.591692)"><g><path d="M 14.40625 1.203125 C 10.90625 1.203125 14.328125 -6.90625 8.40625 -6.90625 L 8.1875 -6.90625 C 10.484375 -7.53125 12.453125 -9.015625 12.453125 -11.5625 C 12.453125 -13.1875 11.5 -14.953125 8.90625 -14.953125 C 8.609375 -14.953125 4.34375 -14.703125 2.765625 -14.703125 C 2.125 -14.703125 1.828125 -14.765625 1.5625 -14.765625 C 1.265625 -14.765625 1.1875 -14.6875 1.1875 -14.5625 C 1.1875 -14.171875 1.5625 -13.984375 1.671875 -13.984375 C 2.40625 -13.859375 2.421875 -13.296875 2.421875 -12.6875 C 2.421875 -12 2.390625 -9.90625 2.328125 -7.703125 C 2.1875 -6.703125 1.4375 -7.078125 1.421875 -6.6875 C 1.421875 -6.359375 2.109375 -6.546875 2.296875 -5.765625 C 2.265625 -3.984375 2.25 -2.546875 2.25 -1.109375 C 2.25 -0.65625 2.1875 -0.65625 1.8125 -0.625 C 1.75 -0.625 1.5 -0.453125 1.5 -0.15625 C 1.5 -0.078125 1.625 0.015625 1.734375 0.015625 C 2.640625 0.015625 5.609375 0 6.015625 0.015625 C 6.28125 0.015625 6.390625 -0.015625 6.390625 -0.234375 C 6.390625 -0.4375 6.296875 -0.671875 5.984375 -0.671875 C 5.984375 -0.671875 5.65625 -0.671875 5.65625 -0.984375 C 5.65625 -1.4375 5.546875 -4.4375 5.546875 -7.484375 C 5.546875 -10.40625 5.6875 -13.328125 6.203125 -13.953125 C 6.390625 -14.25 7.375 -14.3125 7.671875 -14.3125 C 8.53125 -14.3125 9.453125 -13.953125 9.453125 -12.46875 C 9.453125 -9.921875 8.453125 -7.59375 5.640625 -6.984375 C 5.625 -6.96875 5.609375 -6.921875 5.609375 -6.875 C 5.609375 -6.6875 5.71875 -6.40625 6.171875 -6.40625 C 10.90625 -6.40625 6.234375 1.640625 13.4375 1.640625 C 13.734375 1.640625 14.078125 1.625 14.40625 1.59375 C 14.5625 1.578125 14.6875 1.515625 14.6875 1.359375 C 14.6875 1.21875 14.546875 1.203125 14.40625 1.203125 Z M 14.40625 1.203125 "/></g></g></g><g fill="#649b72" fill-opacity="1"><g transform="translate(17.138878, 23.591692)"><g><path d="M 11.546875 -7.5625 L 11.546875 -8.28125 C 11.546875 -9.84375 10.703125 -13.65625 8.28125 -13.65625 C 7.796875 -13.65625 7.265625 -13.578125 6.609375 -13.125 C 6.5 -13.046875 6.453125 -12.921875 6.453125 -12.8125 C 6.453125 -12.578125 6.625 -12.359375 6.75 -12.359375 C 6.765625 -12.359375 6.78125 -12.359375 6.8125 -12.375 C 7.109375 -12.546875 7.34375 -12.65625 7.53125 -12.65625 C 8.3125 -12.65625 8.421875 -11.796875 8.421875 -7.15625 C 8.421875 -4.96875 8.3125 -0.171875 6.515625 -0.171875 C 4.703125 -0.171875 4.484375 -5.078125 4.484375 -7.1875 C 4.484375 -9.171875 4.75 -13.8125 6.828125 -14.125 C 7.0625 -14.125 7.1875 -14.34375 7.1875 -14.53125 C 7.1875 -14.640625 7.125 -14.71875 7.03125 -14.734375 C 1.71875 -14.734375 1.34375 -8.78125 1.28125 -7.53125 C 1.140625 -6.625 0.421875 -6.953125 0.421875 -6.59375 L 0.421875 -6.578125 C 0.421875 -6.203125 1.1875 -6.53125 1.34375 -5.453125 C 1.71875 -2.953125 2.625 0.390625 6.46875 0.390625 C 9.921875 0.390625 11.015625 -2.984375 11.359375 -5.546875 C 11.5625 -6.25 12.3125 -6.203125 12.328125 -6.453125 L 12.328125 -6.46875 C 12.328125 -6.78125 11.609375 -6.65625 11.546875 -7.5625 Z M 11.546875 -7.5625 "/></g></g></g><g fill="#649b72" fill-opacity="1"><g transform="translate(29.885821, 23.591692)"><g><path d="M 10.96875 -3.203125 C 10.75 -3.203125 10.359375 -3.140625 10.328125 -2.953125 C 10.296875 -2.484375 10 -1.9375 9.75 -1.625 C 9.09375 -0.828125 8.171875 -0.5 7.125 -0.5 C 5.65625 -0.515625 5.84375 -0.8125 5.78125 -1.78125 C 5.78125 -1.921875 5.75 -3.46875 5.71875 -5.453125 C 5.84375 -6.453125 6.609375 -6.078125 6.609375 -6.46875 C 6.609375 -6.828125 5.859375 -6.59375 5.703125 -7.515625 C 5.703125 -10.78125 5.796875 -14.25 6.140625 -14.3125 C 6.296875 -14.328125 6.875 -14.3125 6.875 -14.5625 C 6.875 -15.0625 3.3125 -14.65625 1.578125 -15.28125 C 1.5 -15.296875 1.40625 -15.359375 1.296875 -15.359375 C 1.1875 -15.359375 1.125 -15.21875 1.125 -15.140625 C 1.125 -14.984375 1.21875 -14.765625 1.375 -14.703125 C 1.5 -14.65625 2.484375 -14.28125 2.484375 -13.515625 L 2.484375 -13.453125 C 2.46875 -13.296875 2.40625 -10.421875 2.34375 -7.5 C 2.171875 -6.59375 1.453125 -6.953125 1.453125 -6.578125 L 1.453125 -6.546875 C 1.453125 -6.234375 2.125 -6.390625 2.3125 -5.640625 C 2.265625 -4 2.25 -2.625 2.25 -1.265625 C 2.25 -0.0625 1.109375 0.0625 1 0.46875 C 1 0.5 0.984375 0.546875 0.984375 0.609375 C 0.984375 0.765625 1.03125 0.90625 1.171875 0.90625 C 1.1875 0.90625 1.203125 0.90625 1.21875 0.890625 C 2.03125 0.296875 5.546875 0.15625 8.109375 0.15625 C 9.0625 0.15625 9.875 0.203125 10.375 0.203125 C 10.984375 0.203125 11.09375 -2.046875 11.09375 -2.953125 C 11.09375 -3.09375 11.046875 -3.171875 10.96875 -3.203125 Z M 10.96875 -3.203125 "/></g></g></g><g fill="#649b72" fill-opacity="1"><g transform="translate(41.172584, 23.591692)"><g><path d="M 10.96875 -3.203125 C 10.75 -3.203125 10.359375 -3.140625 10.328125 -2.953125 C 10.296875 -2.484375 10 -1.9375 9.75 -1.625 C 9.09375 -0.828125 8.171875 -0.5 7.125 -0.5 C 5.65625 -0.515625 5.84375 -0.8125 5.78125 -1.78125 C 5.78125 -1.921875 5.75 -3.46875 5.71875 -5.453125 C 5.84375 -6.453125 6.609375 -6.078125 6.609375 -6.46875 C 6.609375 -6.828125 5.859375 -6.59375 5.703125 -7.515625 C 5.703125 -10.78125 5.796875 -14.25 6.140625 -14.3125 C 6.296875 -14.328125 6.875 -14.3125 6.875 -14.5625 C 6.875 -15.0625 3.3125 -14.65625 1.578125 -15.28125 C 1.5 -15.296875 1.40625 -15.359375 1.296875 -15.359375 C 1.1875 -15.359375 1.125 -15.21875 1.125 -15.140625 C 1.125 -14.984375 1.21875 -14.765625 1.375 -14.703125 C 1.5 -14.65625 2.484375 -14.28125 2.484375 -13.515625 L 2.484375 -13.453125 C 2.46875 -13.296875 2.40625 -10.421875 2.34375 -7.5 C 2.171875 -6.59375 1.453125 -6.953125 1.453125 -6.578125 L 1.453125 -6.546875 C 1.453125 -6.234375 2.125 -6.390625 2.3125 -5.640625 C 2.265625 -4 2.25 -2.625 2.25 -1.265625 C 2.25 -0.0625 1.109375 0.0625 1 0.46875 C 1 0.5 0.984375 0.546875 0.984375 0.609375 C 0.984375 0.765625 1.03125 0.90625 1.171875 0.90625 C 1.1875 0.90625 1.203125 0.90625 1.21875 0.890625 C 2.03125 0.296875 5.546875 0.15625 8.109375 0.15625 C 9.0625 0.15625 9.875 0.203125 10.375 0.203125 C 10.984375 0.203125 11.09375 -2.046875 11.09375 -2.953125 C 11.09375 -3.09375 11.046875 -3.171875 10.96875 -3.203125 Z M 10.96875 -3.203125 "/></g></g></g></svg>