<svg xmlns="http://www.w3.org/2000/svg" xmlns:xlink="http://www.w3.org/1999/xlink" width="75" zoomAndPan="magnify" viewBox="0 0 56.25 30.000001" height="40" preserveAspectRatio="xMidYMid meet" version="1.0"><defs><g/><clipPath id="5864910c18"><path d="M 0.542969 0 L 54.980469 0 L 54.980469 29 L 0.542969 29 Z M 0.542969 0 " clip-rule="nonzero"/></clipPath></defs><g clip-path="url(#5864910c18)"><path stroke-linecap="butt" transform="matrix(0.907258, 0, 0, 0.907258, 0.544354, 1.754049)" fill="none" stroke-linejoin="miter" d="M 10.155279 11.448315 C 12.885001 11.189981 14.977501 9.868176 14.977501 7.159981 C 14.977501 4.580954 13.440418 4.365676 11.416807 4.176231 C 10.646112 4.107342 9.767779 4.085815 8.872223 4.085815 C 7.171529 4.085815 5.380418 4.176231 3.907918 4.193454 C 3.843334 4.193454 3.649584 4.236509 3.649584 4.430259 C 3.649584 4.791926 3.946668 4.98137 4.222223 4.98137 C 4.334168 4.98137 4.415973 4.959842 4.50639 4.959842 C 4.73889 4.959842 4.820695 5.089009 4.820695 5.282759 C 4.820695 5.476509 4.760418 5.709009 4.73889 5.967342 C 4.717362 6.475398 4.523612 9.037204 4.334168 11.809981 C 4.097362 12.765815 3.326668 12.34387 3.30514 12.744287 L 3.30514 12.765815 C 3.30514 13.110259 4.058612 12.959565 4.183473 13.833592 C 4.037084 15.775398 3.92514 17.588037 3.88639 18.634287 C 3.843334 19.469565 3.843334 19.491093 3.520418 19.594426 C 3.417084 19.637481 3.223334 19.766648 3.223334 19.960398 C 3.223334 20.128315 3.374029 20.317759 3.520418 20.317759 C 3.610834 20.317759 3.628057 20.296231 3.735695 20.253176 C 4.334168 20.020676 5.117779 19.97762 5.974584 19.97762 C 7.339446 19.97762 9.044446 20.214426 9.858196 20.214426 C 12.76014 20.214426 16.127084 19.021787 16.127084 15.71512 C 16.127084 12.171648 12.841946 11.448315 10.155279 11.448315 Z M 9.513751 19.615954 L 9.453473 19.615954 C 8.557918 19.615954 7.765696 19.189704 7.662362 18.677343 C 7.511668 18.035815 7.468612 17.252204 7.468612 16.395398 C 7.468612 14.134981 7.851807 11.534426 7.894862 10.789565 C 7.998196 9.183592 8.127362 7.414009 8.385696 5.967342 C 8.557918 5.071787 9.022918 4.602481 9.983057 4.602481 C 11.13264 4.602481 11.967918 4.959842 11.967918 6.324704 C 11.967918 9.015676 10.878612 10.914426 8.493334 11.422481 C 8.34264 11.448315 8.282362 11.616231 8.282362 11.72387 C 8.282362 11.848731 8.407223 11.91762 8.493334 11.91762 C 8.53639 11.91762 8.557918 11.91762 8.596668 11.896092 C 8.855001 11.809981 9.087501 11.788454 9.341529 11.788454 C 11.455557 11.788454 12.609446 13.407342 12.609446 15.370676 C 12.609446 17.377065 11.52014 19.55137 9.513751 19.615954 Z M 28.540001 3.853315 C 28.389307 3.853315 28.242918 3.982481 28.053473 4.107342 C 27.769307 4.301092 27.067501 4.344148 26.494862 4.344148 C 23.399168 4.344148 21.801807 3.728454 20.540279 3.728454 C 19.412223 3.728454 17.978473 4.387204 17.702918 5.498037 C 17.702918 5.519565 17.68139 5.558315 17.68139 5.579842 C 17.68139 5.730537 17.853612 5.752065 17.961251 5.752065 C 18.025834 5.752065 18.090418 5.730537 18.111946 5.622898 C 18.344446 4.766092 19.627501 4.430259 20.350835 4.387204 C 19.046251 5.984565 19.024723 6.772481 18.813751 7.672342 C 18.516668 8.908037 18.387501 10.595815 18.30139 12.365398 C 18.090418 13.325537 17.319723 12.916509 17.298196 13.325537 L 17.298196 13.342759 C 17.298196 13.687204 18.06889 13.514981 18.193751 14.410537 C 18.090418 16.438454 17.961251 18.337204 17.599584 19.448037 C 17.44889 19.869981 17.104446 20.192898 17.104446 20.274704 C 17.104446 20.446926 17.21639 20.489981 17.319723 20.489981 C 18.000001 20.489981 19.136668 18.380259 19.34764 17.334009 C 19.494029 16.56762 19.627501 15.138176 19.687779 13.639842 C 20.647918 13.639842 21.775973 13.66137 22.994446 13.66137 L 23.933057 13.66137 C 23.846946 15.90887 23.739307 17.910954 23.657501 18.720398 C 23.614446 19.060537 23.592918 19.206926 23.463751 19.529843 C 23.420696 19.637481 23.188196 19.680537 23.14514 19.680537 C 23.059029 19.702065 22.994446 19.895815 22.994446 20.042204 C 22.994446 20.192898 23.097779 20.317759 23.209723 20.317759 C 24.126807 20.020676 25.130001 19.999148 26.068612 19.999148 C 27.558335 19.999148 27.941529 20.128315 28.092223 20.128315 C 28.217085 20.128315 28.346251 20.020676 28.346251 19.848454 C 28.346251 19.469565 28.053473 19.448037 27.898473 19.448037 C 27.79514 19.448037 27.730557 19.469565 27.687501 19.469565 C 27.515279 19.469565 27.515279 18.974426 27.515279 18.849565 C 27.433473 17.415815 27.347362 15.878731 27.347362 14.496648 C 27.515279 13.476231 28.307501 13.876648 28.329029 13.454704 C 28.329029 13.088731 27.558335 13.304009 27.390418 12.386926 C 27.450696 10.763731 27.730557 5.325815 27.859723 4.938315 C 27.881251 4.856509 28.031946 4.791926 28.626112 4.641231 C 28.733751 4.624009 28.88014 4.408731 28.88014 4.193454 C 28.88014 3.982481 28.712223 3.853315 28.540001 3.853315 Z M 21.590835 5.429148 C 22.038612 4.98137 22.546668 4.580954 23.14514 4.580954 C 23.291529 4.580954 23.442223 4.602481 23.614446 4.662759 C 23.911529 4.766092 24.019168 6.772481 24.019168 9.230954 C 24.019168 10.423592 23.993335 11.745398 23.954585 13.006926 C 22.71889 13.049981 21.224862 13.110259 19.709307 13.110259 C 19.838473 10.229842 20.075279 6.944704 21.590835 5.429148 Z M 42.188612 16.843176 C 42.188612 16.184426 42.21014 15.219981 42.231668 14.178037 C 42.468474 13.282481 43.196112 13.687204 43.21764 13.282481 L 43.21764 13.260954 C 43.21764 12.877759 42.296251 13.110259 42.296251 11.896092 C 42.296251 9.43762 42.322085 7.797204 42.322085 6.178315 C 42.322085 5.83387 42.40389 5.325815 42.657918 5.261231 C 42.83014 5.21387 43.148751 5.21387 43.299446 5.089009 C 43.364029 5.050259 43.381251 4.921092 43.381251 4.791926 C 43.381251 4.662759 43.364029 4.451787 43.239168 4.451787 L 42.79139 4.451787 C 41.702085 4.451787 41.185418 4.387204 40.655835 4.387204 C 40.462085 4.387204 40.397501 4.624009 40.397501 4.74887 C 40.397501 5.007204 40.591251 5.17512 40.716112 5.196648 C 41.16389 5.282759 41.486807 5.110537 41.486807 6.199842 C 41.486807 9.588315 41.254307 13.325537 41.16389 16.356648 C 39.867918 15.542898 38.670974 8.438731 35.00264 5.40762 C 33.977918 4.559426 32.71639 4.085815 31.248196 4.085815 C 31.058751 4.085815 31.037223 4.258037 31.037223 4.387204 C 31.037223 4.580954 31.183612 4.641231 31.334307 4.705815 C 31.420418 4.74887 31.993057 4.959842 32.315974 5.476509 C 32.505418 5.79512 32.613057 7.969426 32.613057 10.48387 C 32.613057 11.06512 32.591529 11.637759 32.591529 12.236231 C 32.380557 13.110259 31.657223 12.744287 31.657223 13.153315 L 31.657223 13.174842 C 31.657223 13.514981 32.402085 13.325537 32.574307 14.178037 C 32.531251 16.459981 32.48389 18.358731 32.462362 18.595537 C 32.380557 19.826926 31.485001 19.999148 31.373057 20.386648 L 31.373057 20.446926 C 31.373057 20.576093 31.441946 20.640676 31.545279 20.640676 C 31.566807 20.640676 31.588335 20.640676 31.609862 20.619148 C 31.932779 20.386648 32.402085 20.253176 33.082362 20.253176 C 33.357918 20.253176 33.659307 20.274704 33.999446 20.317759 L 34.059724 20.317759 C 34.231946 20.317759 34.365418 20.214426 34.365418 20.063731 C 34.365418 19.895815 34.214724 19.723593 34.15014 19.702065 C 33.91764 19.637481 33.508612 19.594426 33.469862 19.400676 L 33.469862 19.168176 C 33.469862 18.126231 33.594724 13.902481 33.594724 11.766926 C 33.594724 11.168454 33.551668 10.806787 33.551668 10.44512 C 33.551668 10.229842 33.573196 9.82512 33.680835 9.82512 C 34.955279 9.82512 37.073612 20.59762 42.576112 20.59762 C 43.002362 20.59762 43.381251 19.917343 43.381251 19.766648 L 43.381251 19.74512 C 43.127224 19.146648 42.188612 18.612759 42.188612 16.843176 Z M 57.718751 19.31887 C 57.417363 19.31887 53.387363 12.15012 52.939585 9.782065 C 54.498196 7.370954 56.224724 4.98137 56.991113 4.727342 C 57.43889 4.580954 57.546529 4.387204 57.546529 4.236509 C 57.546529 4.042759 57.395835 3.870537 57.24514 3.870537 C 57.184863 3.870537 57.098751 3.89637 57.060001 3.917898 C 56.991113 3.939426 56.564863 4.042759 55.583196 4.107342 C 55.096668 4.107342 54.709168 3.960954 54.304446 3.960954 C 53.964307 3.960954 53.60264 4.042759 53.284029 4.193454 C 53.193613 4.236509 53.154863 4.344148 53.154863 4.473315 C 53.154863 4.624009 53.21514 4.74887 53.322779 4.74887 C 53.365835 4.74887 53.430418 4.727342 53.44764 4.705815 C 53.619863 4.602481 53.878196 4.559426 54.089168 4.559426 C 54.45514 4.559426 54.821113 4.766092 54.821113 5.110537 C 54.821113 5.244009 54.773751 5.36887 54.68764 5.519565 C 54.343196 6.118037 50.059168 12.744287 49.80514 12.813176 C 49.908474 11.91762 49.99889 6.178315 50.209863 5.386092 C 50.313196 4.878037 50.85139 4.856509 51.019307 4.813454 C 51.251807 4.74887 51.402501 4.559426 51.402501 4.365676 C 51.402501 4.154704 51.251807 4.021231 51.08389 4.021231 C 51.019307 4.021231 50.743751 4.176231 49.632918 4.176231 C 46.946251 4.176231 45.856946 3.960954 45.624446 3.960954 C 45.538335 3.960954 45.409168 4.004009 45.38764 4.214981 C 45.38764 4.344148 45.38764 4.641231 45.684724 4.705815 C 46.089446 4.813454 46.412363 4.684287 46.412363 4.938315 C 46.412363 5.730537 46.373613 8.929565 46.304724 12.042481 C 46.050696 12.856231 45.366113 12.490259 45.34889 12.877759 L 45.34889 12.894981 C 45.34889 13.304009 46.261668 13.049981 46.261668 14.28137 C 46.261668 15.775398 46.158335 17.183315 46.158335 19.021787 C 46.158335 19.297343 46.110974 19.400676 45.835418 19.422204 C 45.473751 19.469565 45.34889 19.55137 45.34889 19.848454 C 45.366113 20.042204 45.409168 20.085259 45.538335 20.085259 C 45.753613 20.085259 45.947363 20.042204 46.110974 20.042204 C 47.566251 20.042204 48.909585 20.085259 50.23139 20.085259 C 50.446668 20.085259 50.46389 19.93887 50.46389 19.788176 C 50.46389 19.594426 50.403613 19.422204 50.166807 19.422204 C 50.059168 19.422204 50.016113 19.448037 49.955835 19.448037 C 49.865418 19.448037 49.783613 19.400676 49.762085 19.275815 C 49.740557 18.93137 49.719029 18.289843 49.719029 17.588037 C 49.719029 16.395398 49.762085 15.052065 49.826668 14.922898 C 49.908474 14.750676 50.334724 14.005815 50.933196 13.006926 C 51.746946 15.052065 53.662918 18.634287 53.662918 19.254287 C 53.662918 19.297343 53.64139 19.340398 53.619863 19.340398 C 53.430418 19.400676 52.98264 19.340398 52.98264 19.702065 C 52.98264 19.895815 53.090279 20.042204 53.284029 20.042204 C 53.365835 20.042204 53.44764 20.020676 53.559585 20.020676 C 54.45514 20.020676 55.286113 19.960398 56.117085 19.960398 C 57.098751 19.960398 57.692918 19.999148 58.312918 19.999148 C 58.463613 19.999148 58.463613 19.869981 58.463613 19.766648 C 58.463613 19.422204 58.424863 19.31887 57.886668 19.31887 Z M 57.718751 19.31887 " stroke="#7d4f00" stroke-width="1.600013" stroke-opacity="1" stroke-miterlimit="4"/></g><g fill="#faa81c" fill-opacity="1"><g transform="translate(2.28799, 19.89921)"><g><path d="M 7.46875 -7.765625 C 9.953125 -8 11.84375 -9.203125 11.84375 -11.65625 C 11.84375 -14 10.453125 -14.1875 8.609375 -14.359375 C 7.921875 -14.421875 7.125 -14.4375 6.3125 -14.4375 C 4.765625 -14.4375 3.140625 -14.359375 1.796875 -14.34375 C 1.75 -14.34375 1.5625 -14.3125 1.5625 -14.125 C 1.5625 -13.796875 1.84375 -13.625 2.09375 -13.625 C 2.1875 -13.625 2.265625 -13.640625 2.34375 -13.640625 C 2.5625 -13.640625 2.640625 -13.53125 2.640625 -13.359375 C 2.640625 -13.1875 2.578125 -12.96875 2.5625 -12.734375 C 2.53125 -12.28125 2.359375 -9.953125 2.1875 -7.4375 C 1.96875 -6.5625 1.28125 -6.953125 1.265625 -6.578125 L 1.265625 -6.5625 C 1.265625 -6.25 1.9375 -6.390625 2.046875 -5.59375 C 1.921875 -3.828125 1.8125 -2.1875 1.78125 -1.234375 C 1.75 -0.484375 1.75 -0.46875 1.453125 -0.375 C 1.359375 -0.328125 1.1875 -0.21875 1.1875 -0.03125 C 1.1875 0.109375 1.3125 0.296875 1.453125 0.296875 C 1.53125 0.296875 1.546875 0.265625 1.640625 0.234375 C 2.1875 0.015625 2.90625 -0.015625 3.671875 -0.015625 C 4.921875 -0.015625 6.46875 0.1875 7.203125 0.1875 C 9.828125 0.1875 12.890625 -0.890625 12.890625 -3.890625 C 12.890625 -7.109375 9.90625 -7.765625 7.46875 -7.765625 Z M 6.890625 -0.34375 L 6.828125 -0.34375 C 6.015625 -0.34375 5.296875 -0.734375 5.203125 -1.203125 C 5.078125 -1.78125 5.03125 -2.5 5.03125 -3.265625 C 5.03125 -5.328125 5.375 -7.6875 5.421875 -8.359375 C 5.515625 -9.8125 5.640625 -11.421875 5.859375 -12.734375 C 6.015625 -13.546875 6.453125 -13.984375 7.3125 -13.984375 C 8.359375 -13.984375 9.125 -13.640625 9.125 -12.40625 C 9.125 -9.96875 8.125 -8.25 5.96875 -7.78125 C 5.828125 -7.765625 5.765625 -7.609375 5.765625 -7.515625 C 5.765625 -7.390625 5.890625 -7.34375 5.96875 -7.34375 C 6 -7.34375 6.015625 -7.34375 6.0625 -7.359375 C 6.296875 -7.4375 6.5 -7.453125 6.734375 -7.453125 C 8.65625 -7.453125 9.703125 -5.984375 9.703125 -4.203125 C 9.703125 -2.375 8.71875 -0.40625 6.890625 -0.34375 Z M 6.890625 -0.34375 "/></g></g></g><g fill="#faa81c" fill-opacity="1"><g transform="translate(15.368726, 19.89921)"><g><path d="M 11.078125 -14.65625 C 10.9375 -14.65625 10.796875 -14.53125 10.625 -14.421875 C 10.375 -14.25 9.734375 -14.203125 9.21875 -14.203125 C 6.40625 -14.203125 4.953125 -14.765625 3.8125 -14.765625 C 2.78125 -14.765625 1.484375 -14.171875 1.234375 -13.171875 C 1.234375 -13.140625 1.21875 -13.109375 1.21875 -13.09375 C 1.21875 -12.953125 1.375 -12.9375 1.46875 -12.9375 C 1.53125 -12.9375 1.59375 -12.953125 1.609375 -13.046875 C 1.8125 -13.828125 2.984375 -14.125 3.640625 -14.171875 C 2.453125 -12.71875 2.4375 -12 2.25 -11.1875 C 1.96875 -10.0625 1.859375 -8.53125 1.78125 -6.9375 C 1.59375 -6.0625 0.890625 -6.421875 0.875 -6.0625 L 0.875 -6.046875 C 0.875 -5.734375 1.5625 -5.890625 1.6875 -5.078125 C 1.59375 -3.234375 1.46875 -1.515625 1.140625 -0.5 C 1 -0.109375 0.703125 0.171875 0.703125 0.25 C 0.703125 0.40625 0.796875 0.4375 0.890625 0.4375 C 1.515625 0.4375 2.53125 -1.46875 2.734375 -2.421875 C 2.859375 -3.109375 2.984375 -4.40625 3.046875 -5.765625 C 3.90625 -5.765625 4.9375 -5.75 6.046875 -5.75 L 6.890625 -5.75 C 6.8125 -3.71875 6.71875 -1.890625 6.640625 -1.15625 C 6.59375 -0.859375 6.578125 -0.71875 6.46875 -0.421875 C 6.421875 -0.328125 6.21875 -0.296875 6.171875 -0.296875 C 6.09375 -0.265625 6.046875 -0.09375 6.046875 0.03125 C 6.046875 0.171875 6.140625 0.296875 6.234375 0.296875 C 7.0625 0.015625 7.96875 0 8.828125 0 C 10.1875 0 10.53125 0.109375 10.671875 0.109375 C 10.78125 0.109375 10.90625 0.015625 10.90625 -0.140625 C 10.90625 -0.484375 10.625 -0.5 10.5 -0.5 C 10.390625 -0.5 10.34375 -0.484375 10.296875 -0.484375 C 10.140625 -0.484375 10.140625 -0.921875 10.140625 -1.046875 C 10.0625 -2.34375 9.984375 -3.734375 9.984375 -5 C 10.140625 -5.921875 10.859375 -5.5625 10.875 -5.9375 C 10.875 -6.265625 10.1875 -6.078125 10.03125 -6.90625 C 10.09375 -8.375 10.34375 -13.3125 10.453125 -13.671875 C 10.46875 -13.75 10.609375 -13.796875 11.15625 -13.9375 C 11.25 -13.953125 11.390625 -14.15625 11.390625 -14.34375 C 11.390625 -14.53125 11.234375 -14.65625 11.078125 -14.65625 Z M 4.765625 -13.21875 C 5.171875 -13.625 5.640625 -14 6.171875 -14 C 6.3125 -14 6.453125 -13.984375 6.59375 -13.921875 C 6.875 -13.828125 6.96875 -12 6.96875 -9.78125 C 6.96875 -8.6875 6.953125 -7.484375 6.90625 -6.34375 C 5.78125 -6.3125 4.4375 -6.25 3.0625 -6.25 C 3.171875 -8.859375 3.390625 -11.84375 4.765625 -13.21875 Z M 4.765625 -13.21875 "/></g></g></g><g fill="#faa81c" fill-opacity="1"><g transform="translate(27.733495, 19.89921)"><g><path d="M 11.09375 -2.859375 C 11.09375 -3.46875 11.109375 -4.34375 11.125 -5.28125 C 11.34375 -6.09375 12 -5.734375 12.015625 -6.09375 L 12.015625 -6.125 C 12.015625 -6.46875 11.1875 -6.25 11.1875 -7.359375 C 11.1875 -9.578125 11.203125 -11.078125 11.203125 -12.546875 C 11.203125 -12.859375 11.28125 -13.3125 11.515625 -13.375 C 11.671875 -13.421875 11.96875 -13.421875 12.09375 -13.53125 C 12.15625 -13.578125 12.171875 -13.6875 12.171875 -13.796875 C 12.171875 -13.921875 12.15625 -14.109375 12.046875 -14.109375 L 11.640625 -14.109375 C 10.640625 -14.109375 10.1875 -14.171875 9.703125 -14.171875 C 9.53125 -14.171875 9.46875 -13.953125 9.46875 -13.84375 C 9.46875 -13.609375 9.640625 -13.453125 9.75 -13.4375 C 10.15625 -13.359375 10.453125 -13.515625 10.453125 -12.53125 C 10.453125 -9.453125 10.234375 -6.0625 10.15625 -3.3125 C 8.984375 -4.046875 7.90625 -10.5 4.5625 -13.234375 C 3.640625 -14.015625 2.5 -14.4375 1.15625 -14.4375 C 0.984375 -14.4375 0.96875 -14.28125 0.96875 -14.171875 C 0.96875 -14 1.109375 -13.9375 1.234375 -13.875 C 1.3125 -13.84375 1.84375 -13.640625 2.125 -13.1875 C 2.296875 -12.890625 2.40625 -10.921875 2.40625 -8.640625 C 2.40625 -8.109375 2.375 -7.59375 2.375 -7.046875 C 2.1875 -6.25 1.53125 -6.578125 1.53125 -6.21875 L 1.53125 -6.1875 C 1.53125 -5.890625 2.203125 -6.0625 2.359375 -5.28125 C 2.328125 -3.21875 2.28125 -1.484375 2.265625 -1.28125 C 2.1875 -0.15625 1.375 0 1.28125 0.34375 L 1.28125 0.40625 C 1.28125 0.515625 1.328125 0.578125 1.4375 0.578125 C 1.453125 0.578125 1.46875 0.578125 1.484375 0.5625 C 1.78125 0.34375 2.203125 0.234375 2.828125 0.234375 C 3.078125 0.234375 3.34375 0.25 3.65625 0.296875 L 3.71875 0.296875 C 3.875 0.296875 3.984375 0.1875 3.984375 0.0625 C 3.984375 -0.09375 3.859375 -0.25 3.796875 -0.265625 C 3.578125 -0.328125 3.21875 -0.375 3.171875 -0.546875 L 3.171875 -0.75 C 3.171875 -1.703125 3.296875 -5.53125 3.296875 -7.46875 C 3.296875 -8.015625 3.25 -8.34375 3.25 -8.671875 C 3.25 -8.859375 3.265625 -9.234375 3.375 -9.234375 C 4.53125 -9.234375 6.453125 0.546875 11.4375 0.546875 C 11.828125 0.546875 12.171875 -0.078125 12.171875 -0.21875 L 12.171875 -0.234375 C 11.9375 -0.78125 11.09375 -1.265625 11.09375 -2.859375 Z M 11.09375 -2.859375 "/></g></g></g><g fill="#faa81c" fill-opacity="1"><g transform="translate(40.698123, 19.89921)"><g><path d="M 12.21875 -0.625 C 11.9375 -0.625 8.28125 -7.125 7.875 -9.265625 C 9.296875 -11.453125 10.859375 -13.625 11.5625 -13.859375 C 11.96875 -14 12.0625 -14.171875 12.0625 -14.3125 C 12.0625 -14.484375 11.921875 -14.640625 11.796875 -14.640625 C 11.734375 -14.640625 11.65625 -14.609375 11.609375 -14.59375 C 11.5625 -14.578125 11.171875 -14.484375 10.28125 -14.421875 C 9.828125 -14.421875 9.484375 -14.5625 9.125 -14.5625 C 8.8125 -14.5625 8.484375 -14.484375 8.1875 -14.34375 C 8.109375 -14.3125 8.078125 -14.203125 8.078125 -14.09375 C 8.078125 -13.953125 8.125 -13.84375 8.234375 -13.84375 C 8.265625 -13.84375 8.328125 -13.859375 8.34375 -13.875 C 8.5 -13.984375 8.734375 -14.015625 8.921875 -14.015625 C 9.25 -14.015625 9.578125 -13.828125 9.578125 -13.515625 C 9.578125 -13.390625 9.546875 -13.28125 9.46875 -13.140625 C 9.15625 -12.609375 5.265625 -6.578125 5.03125 -6.53125 C 5.125 -7.34375 5.203125 -12.546875 5.40625 -13.265625 C 5.5 -13.71875 5.984375 -13.75 6.140625 -13.78125 C 6.34375 -13.84375 6.484375 -14.015625 6.484375 -14.1875 C 6.484375 -14.390625 6.34375 -14.5 6.1875 -14.5 C 6.140625 -14.5 5.890625 -14.359375 4.875 -14.359375 C 2.4375 -14.359375 1.453125 -14.5625 1.234375 -14.5625 C 1.15625 -14.5625 1.046875 -14.515625 1.03125 -14.328125 C 1.03125 -14.203125 1.03125 -13.9375 1.296875 -13.875 C 1.671875 -13.78125 1.953125 -13.90625 1.953125 -13.671875 C 1.953125 -12.953125 1.921875 -10.046875 1.859375 -7.21875 C 1.625 -6.484375 1 -6.8125 0.984375 -6.46875 L 0.984375 -6.453125 C 0.984375 -6.078125 1.8125 -6.3125 1.8125 -5.1875 C 1.8125 -3.828125 1.71875 -2.5625 1.71875 -0.890625 C 1.71875 -0.640625 1.6875 -0.546875 1.4375 -0.515625 C 1.109375 -0.484375 0.984375 -0.40625 0.984375 -0.140625 C 1 0.03125 1.046875 0.078125 1.15625 0.078125 C 1.359375 0.078125 1.53125 0.03125 1.6875 0.03125 C 3 0.03125 4.21875 0.078125 5.421875 0.078125 C 5.609375 0.078125 5.640625 -0.0625 5.640625 -0.1875 C 5.640625 -0.375 5.578125 -0.515625 5.359375 -0.515625 C 5.265625 -0.515625 5.234375 -0.5 5.171875 -0.5 C 5.09375 -0.5 5.015625 -0.546875 5 -0.65625 C 4.96875 -0.96875 4.953125 -1.546875 4.953125 -2.1875 C 4.953125 -3.265625 5 -4.484375 5.046875 -4.609375 C 5.125 -4.765625 5.515625 -5.4375 6.0625 -6.34375 C 6.796875 -4.484375 8.53125 -1.234375 8.53125 -0.671875 C 8.53125 -0.640625 8.515625 -0.59375 8.5 -0.59375 C 8.328125 -0.546875 7.921875 -0.59375 7.921875 -0.265625 C 7.921875 -0.09375 8.015625 0.03125 8.1875 0.03125 C 8.265625 0.03125 8.34375 0.015625 8.4375 0.015625 C 9.25 0.015625 10.015625 -0.03125 10.765625 -0.03125 C 11.65625 -0.03125 12.203125 0 12.75 0 C 12.890625 0 12.890625 -0.109375 12.890625 -0.21875 C 12.890625 -0.515625 12.859375 -0.625 12.375 -0.625 Z M 12.21875 -0.625 "/></g></g></g></svg>