<svg xmlns="http://www.w3.org/2000/svg" xmlns:xlink="http://www.w3.org/1999/xlink" width="450" zoomAndPan="magnify" viewBox="0 0 337.5 60" height="80" preserveAspectRatio="xMidYMid meet" version="1.0"><defs><g/><clipPath id="371117b436"><path d="M 0 0.0429688 L 337 0.0429688 L 337 59.953125 L 0 59.953125 Z M 0 0.0429688 " clip-rule="nonzero"/></clipPath></defs><g clip-path="url(#371117b436)"><path stroke-linecap="butt" transform="matrix(0.748891, 0, 0, 0.748891, -1.672684, -4.69859)" fill="none" stroke-linejoin="miter" d="M 48.859817 38.46231 C 48.452965 38.46231 47.915712 38.73876 47.185465 38.73876 C 46.517811 38.73876 45.782348 38.545767 44.9217 37.664254 C 40.122934 31.869223 34.927749 27.263451 34.927749 24.613698 C 34.927749 20.477371 39.45528 19.402865 42.511885 19.402865 C 46.450002 19.402865 47.055064 24.467649 47.055064 26.940056 C 47.055064 27.477309 46.987255 28.207556 46.987255 28.207556 C 46.987255 28.943019 47.461916 29.203822 47.785311 29.203822 C 47.983521 29.203822 48.192163 29.136013 48.192163 29.005612 C 48.515558 24.613698 51.253984 19.809716 51.253984 18.542216 C 51.253984 18.411815 51.253984 18.328358 51.186175 18.265766 C 50.847132 17.744161 46.319601 17.274716 43.116946 17.274716 C 35.386761 17.274716 29.054477 20.477371 29.054477 27.868513 C 29.054477 32.406476 31.918088 37.210458 35.25636 41.930983 C 35.517162 42.530828 35.663212 43.068082 35.663212 43.474933 C 35.663212 44.810242 34.520897 45.264038 34.520897 45.931693 C 34.520897 46.338545 34.849508 46.599347 35.188551 46.599347 C 35.579755 46.599347 36.1796 46.338545 36.915063 46.338545 C 37.64531 46.338545 38.526823 46.599347 39.517872 47.736446 C 42.856144 52.32657 45.782348 56.739348 45.782348 60.333206 C 45.782348 64.125274 42.449292 66.274286 39.048428 66.274286 C 36.654261 66.274286 34.260094 65.267589 34.260094 62.273576 C 34.260094 59.863761 34.849508 57.667804 34.849508 55.404039 C 34.849508 54.543391 34.849508 53.531477 33.983644 53.531477 C 31.594693 54.475582 34.051452 54.543391 29.784724 63.066416 C 29.523921 63.671477 28.986668 64.271323 28.986668 64.860737 C 28.986668 66.602897 33.44639 68.261601 39.862131 68.261601 C 48.390373 68.261601 53.058737 63.327218 53.058737 55.273638 C 53.058737 50.86086 51.253984 46.729748 48.859817 42.93768 C 48.583366 42.400427 48.452965 41.930983 48.452965 41.539779 C 48.452965 40.267063 49.527471 39.72981 49.527471 39.129964 C 49.527471 38.670952 49.12062 38.46231 48.859817 38.46231 Z M 92.580745 17.013914 C 87.907164 17.274716 70.981083 17.744161 61.722595 17.744161 L 58.645126 17.744161 C 56.77778 17.744161 56.449169 19.809716 56.449169 22.141291 C 56.449169 23.669593 56.57957 25.343945 56.57957 26.663606 C 56.57957 27.607711 56.449169 27.998914 56.449169 28.405766 C 56.449169 28.729161 56.57957 29.07342 56.92383 29.136013 C 57.116824 29.203822 57.315033 29.203822 57.591484 29.203822 L 58.321731 29.203822 C 60.992348 28.666569 58.19133 20.331321 65.582472 20.331321 C 68.785127 20.331321 69.17633 20.998976 69.17633 23.064531 L 69.17633 41.863174 C 68.785127 45.39444 66.119725 44.074779 66.119725 45.39444 C 66.119725 46.66194 69.113738 45.738699 69.113738 49.739409 C 69.113738 55.727434 68.915528 61.329471 68.654725 64.792928 C 68.508676 66.274286 68.508676 65.935243 67.110775 66.128237 C 66.375312 66.128237 65.253861 66.926292 65.253861 67.593947 C 65.253861 68.193792 65.514663 68.261601 65.858923 68.324194 C 67.042966 68.407651 80.114386 68.407651 81.986948 68.470243 C 83.708244 68.470243 83.776053 67.802589 83.776053 66.728083 C 83.776053 66.196045 83.317041 66.128237 82.717195 66.128237 L 81.642689 66.128237 C 81.188892 66.128237 80.782041 66.128237 80.583831 65.935243 C 80.114386 60.202804 79.916176 54.26694 79.785775 48.60231 C 80.375189 45.8691 82.717195 47.006199 82.717195 45.738699 C 82.717195 44.533791 80.114386 45.331847 79.723183 42.139625 C 79.723183 34.002587 79.983985 27.263451 80.244787 23.732186 C 80.30738 22.871537 80.244787 20.268729 81.710497 20.268729 C 89.977936 20.268729 90.384788 22.803729 90.384788 27.13305 C 90.384788 27.738112 90.984634 28.729161 91.845282 28.729161 C 92.919788 28.729161 93.117998 28.468359 93.117998 27.33126 C 93.117998 24.337247 94.046455 21.943081 94.046455 19.402865 C 94.046455 18.004963 93.717844 17.013914 92.580745 17.013914 Z M 133.573679 17.535519 C 133.104234 17.535519 132.650438 17.942371 132.045376 18.328358 C 131.16908 18.93342 128.967907 19.079469 127.178802 19.079469 C 117.513462 19.079469 112.516486 17.144315 108.578369 17.144315 C 105.047103 17.144315 100.571733 19.209871 99.711085 22.673328 C 99.711085 22.741136 99.643276 22.871537 99.643276 22.93413 C 99.643276 23.408791 100.180529 23.471383 100.503924 23.471383 C 100.717782 23.471383 100.910776 23.408791 100.978585 23.064531 C 101.708832 20.39913 105.714758 19.340272 107.973307 19.209871 C 103.904788 24.206846 103.842196 26.663606 103.174542 29.480272 C 102.246085 33.334933 101.839233 38.608359 101.57843 44.142588 C 100.910776 47.1366 98.506177 45.8691 98.438368 47.1366 L 98.438368 47.199193 C 98.438368 48.273699 100.848183 47.736446 101.239387 50.537465 C 100.910776 56.869749 100.503924 62.810829 99.382473 66.274286 C 98.913029 67.593947 97.838523 68.600644 97.838523 68.861447 C 97.838523 69.3987 98.177566 69.529101 98.506177 69.529101 C 100.634325 69.529101 104.186455 62.941231 104.848893 59.665551 C 105.307906 57.276601 105.714758 52.80123 105.907752 48.12765 C 108.901764 48.12765 112.43303 48.195458 116.240746 48.195458 L 119.172166 48.195458 C 118.911363 55.205829 118.57232 61.475521 118.311517 63.994873 C 118.181116 65.069379 118.113308 65.528391 117.706456 66.535089 C 117.576054 66.858484 116.845808 67.009749 116.715406 67.009749 C 116.438956 67.072342 116.240746 67.672188 116.240746 68.1312 C 116.240746 68.600644 116.569357 68.991848 116.9084 68.991848 C 119.777227 68.063391 122.917289 68.000799 125.843493 68.000799 C 130.501425 68.000799 131.706333 68.407651 132.175777 68.407651 C 132.566981 68.407651 132.973833 68.063391 132.973833 67.526138 C 132.973833 66.342095 132.045376 66.274286 131.575932 66.274286 C 131.24732 66.274286 131.038678 66.342095 130.908277 66.342095 C 130.371024 66.342095 130.371024 64.792928 130.371024 64.401724 C 130.110222 59.926354 129.849419 55.127588 129.849419 50.798267 C 130.371024 47.606045 132.843432 48.863113 132.906024 47.543452 C 132.906024 46.406353 130.501425 47.068792 129.97982 44.20518 C 130.172814 39.129964 131.038678 22.141291 131.44553 20.936383 C 131.508123 20.675581 131.982783 20.477371 133.834481 20.007926 C 134.17874 19.940118 134.632537 19.272463 134.632537 18.604809 C 134.632537 17.942371 134.110932 17.535519 133.573679 17.535519 Z M 111.848832 22.464686 C 113.246733 21.066784 114.842844 19.809716 116.715406 19.809716 C 117.169203 19.809716 117.643863 19.877525 118.181116 20.070519 C 119.109573 20.39913 119.448616 26.663606 119.448616 34.346847 C 119.448616 38.071106 119.370376 42.207433 119.239974 46.145551 C 115.380098 46.275952 110.711733 46.468946 105.97556 46.468946 C 106.382412 37.47126 107.112659 27.200859 111.848832 22.464686 Z M 184.894391 65.867434 C 184.372786 65.935243 180.173866 58.804903 176.298341 51.33552 C 173.695532 46.338545 170.226859 44.940643 167.7701 44.726785 C 176.105347 40.611322 179.829606 34.346847 179.829606 28.875211 C 179.829606 22.871537 175.437693 17.874562 168.030902 17.874562 C 165.834945 17.874562 159.033217 18.73521 152.377537 18.73521 C 148.502013 18.73521 145.231549 18.604809 143.374636 17.744161 C 143.098185 17.598111 142.77479 17.46771 142.430531 17.46771 C 142.039327 17.46771 141.830685 17.942371 141.830685 18.197957 C 141.830685 18.73521 142.039327 19.272463 142.706981 19.663667 C 143.505037 20.138328 146.436457 21.145025 146.436457 23.601784 L 146.436457 23.862587 C 146.368648 24.39984 146.175654 33.402742 145.961796 42.676878 C 145.231549 45.201446 143.035593 44.142588 143.035593 45.331847 L 143.035593 45.39444 C 143.035593 46.468946 145.294142 45.999501 145.831395 48.534502 C 145.700994 54.798977 145.638401 60.401014 145.638401 62.727372 L 145.638401 63.994873 C 145.638401 67.802589 141.762876 68.470243 141.439481 69.659502 C 141.246488 70.389749 141.830685 70.734009 142.169728 70.389749 C 143.76584 68.668453 149.430469 68.324194 153.712846 68.324194 C 155.778402 68.324194 157.176303 68.470243 158.574204 68.470243 C 159.37226 68.470243 159.831272 68.407651 159.831272 67.672188 C 159.831272 67.202743 159.502661 66.858484 158.428155 66.795891 C 157.760501 66.795891 157.374513 66.404687 157.374513 65.804842 C 157.374513 59.53515 156.967661 53.875736 156.899852 48.12765 C 158.297754 47.736446 160.498927 47.1366 161.161365 47.1366 C 162.30368 47.1366 164.437044 47.804255 166.173989 51.596323 C 168.896766 57.537403 172.297631 64.271323 172.297631 65.737033 C 172.297631 65.935243 172.229822 65.997836 172.16723 65.997836 C 171.499575 66.128237 170.096458 65.935243 170.096458 67.072342 C 170.096458 67.802589 170.50331 68.193792 171.170964 68.193792 C 171.431767 68.193792 171.776026 68.193792 172.099421 68.1312 C 174.363186 67.93299 177.310254 67.870397 179.960008 67.870397 C 182.969668 67.870397 185.640286 67.93299 186.568743 68.063391 C 187.168588 68.063391 187.236397 67.870397 187.236397 67.463546 C 187.236397 66.196045 187.236397 65.867434 185.494236 65.867434 Z M 156.899852 45.8691 L 156.899852 42.009223 C 156.899852 31.53018 157.437106 21.943081 159.440069 20.738173 C 159.763464 20.545179 161.636025 19.877525 163.76939 19.877525 C 167.639699 19.877525 169.23581 22.673328 169.23581 26.079408 C 169.23581 33.533143 169.042816 43.996538 156.899852 45.8691 Z M 222.825503 17.013914 C 218.157139 17.274716 201.231058 17.744161 191.967354 17.744161 L 188.895101 17.744161 C 187.022539 17.744161 186.699144 19.809716 186.699144 22.141291 C 186.699144 23.669593 186.829545 25.343945 186.829545 26.663606 C 186.829545 27.607711 186.699144 27.998914 186.699144 28.405766 C 186.699144 28.729161 186.829545 29.07342 187.168588 29.136013 C 187.366798 29.203822 187.559792 29.203822 187.836243 29.203822 L 188.56649 29.203822 C 191.237107 28.666569 188.436088 20.331321 195.827231 20.331321 C 199.035101 20.331321 199.421089 20.998976 199.421089 23.064531 L 199.421089 41.863174 C 199.035101 45.39444 196.364484 44.074779 196.364484 45.39444 C 196.364484 46.66194 199.358496 45.738699 199.358496 49.739409 C 199.358496 55.727434 199.165502 61.329471 198.9047 64.792928 C 198.75865 66.274286 198.75865 65.935243 197.355533 66.128237 C 196.625286 66.128237 195.503835 66.926292 195.503835 67.593947 C 195.503835 68.193792 195.759422 68.261601 196.103681 68.324194 C 197.292941 68.407651 210.359145 68.407651 212.231707 68.470243 C 213.958219 68.470243 214.020812 67.802589 214.020812 66.728083 C 214.020812 66.196045 213.567015 66.128237 212.961954 66.128237 L 211.887447 66.128237 C 211.433651 66.128237 211.026799 66.128237 210.833805 65.935243 C 210.359145 60.202804 210.166151 54.26694 210.03575 48.60231 C 210.619947 45.8691 212.961954 47.006199 212.961954 45.738699 C 212.961954 44.533791 210.359145 45.331847 209.967941 42.139625 C 209.967941 34.002587 210.228744 27.263451 210.489546 23.732186 C 210.557355 22.871537 210.489546 20.268729 211.955256 20.268729 C 220.222695 20.268729 220.629546 22.803729 220.629546 27.13305 C 220.629546 27.738112 221.229392 28.729161 222.095256 28.729161 C 223.169763 28.729161 223.362756 28.468359 223.362756 27.33126 C 223.362756 24.337247 224.291213 21.943081 224.291213 19.402865 C 224.291213 18.004963 223.967818 17.013914 222.825503 17.013914 Z M 283.279518 42.270026 C 281.422605 42.270026 278.089549 41.602372 275.611925 41.602372 C 274.214024 41.602372 270.291555 41.930983 270.291555 43.537526 C 270.291555 44.142588 270.745351 44.872835 271.220011 44.872835 C 271.819857 44.872835 271.757265 44.142588 272.748314 44.142588 C 273.092573 44.142588 273.54637 44.20518 274.214024 44.465983 C 275.158129 45.071045 275.956185 49.739409 275.956185 54.605983 C 275.956185 60.401014 274.81387 66.602897 271.413005 66.602897 C 266.89069 66.602897 264.757326 56.608946 264.757326 45.999501 C 264.757326 35.807341 266.760289 25.135303 270.484548 22.203883 C 270.959209 21.797031 272.55532 20.805982 274.083623 20.805982 C 275.742326 20.805982 277.354086 22.010889 277.354086 26.465396 C 277.354086 27.539902 277.291493 27.998914 277.291493 28.536167 C 277.291493 29.871476 277.291493 30.940766 278.558993 30.940766 C 279.550043 30.940766 279.878654 30.403513 279.956895 30.210519 C 280.348098 26.809655 280.415907 21.943081 282.413654 19.209871 C 282.481463 19.079469 282.481463 18.996013 282.481463 18.865611 C 282.481463 18.73521 282.481463 18.604809 282.413654 18.474408 C 282.351061 18.411815 281.490413 18.411815 280.285506 18.411815 C 277.891339 18.411815 274.344425 18.474408 273.760228 18.474408 C 258.425042 18.542216 253.287233 31.201569 253.287233 43.068082 C 252.812572 45.931693 250.418406 44.940643 250.418406 46.145551 C 250.418406 47.397403 253.02643 46.93839 253.349826 48.941353 C 254.01748 57.339193 257.027141 69.137897 269.415258 69.137897 C 280.415907 69.137897 282.413654 53.875736 282.413654 45.67089 C 282.413654 44.335582 282.481463 44.272989 284.614827 44.074779 C 285.558932 43.996538 285.94492 43.261075 285.94492 42.744686 C 285.94492 42.207433 285.689333 42.009223 285.345074 42.009223 C 284.614827 42.009223 283.947173 42.270026 283.279518 42.270026 Z M 324.747112 17.535519 C 324.272452 17.535519 323.818656 17.942371 323.21881 18.328358 C 322.337298 18.93342 320.141341 19.079469 318.352236 19.079469 C 308.68168 19.079469 303.684704 17.144315 299.746587 17.144315 C 296.215321 17.144315 291.739951 19.209871 290.879302 22.673328 C 290.879302 22.741136 290.811494 22.871537 290.811494 22.93413 C 290.811494 23.408791 291.348747 23.471383 291.677358 23.471383 C 291.886 23.471383 292.08421 23.408791 292.146802 23.064531 C 292.882265 20.39913 296.882976 19.340272 299.146741 19.209871 C 295.078222 24.206846 295.010414 26.663606 294.347975 29.480272 C 293.419519 33.334933 293.012667 38.608359 292.751864 44.142588 C 292.08421 47.1366 289.674395 45.8691 289.611802 47.1366 L 289.611802 47.199193 C 289.611802 48.273699 292.016401 47.736446 292.407605 50.537465 C 292.08421 56.869749 291.677358 62.810829 290.555907 66.274286 C 290.081247 67.593947 289.006741 68.600644 289.006741 68.861447 C 289.006741 69.3987 289.351 69.529101 289.674395 69.529101 C 291.807759 69.529101 295.354673 62.941231 296.022327 59.665551 C 296.476124 57.276601 296.882976 52.80123 297.081185 48.12765 C 300.075198 48.12765 303.606463 48.195458 307.41418 48.195458 L 310.3456 48.195458 C 310.084797 55.205829 309.740538 61.475521 309.479735 63.994873 C 309.349334 65.069379 309.286741 65.528391 308.87989 66.535089 C 308.749488 66.858484 308.014025 67.009749 307.883624 67.009749 C 307.607173 67.072342 307.41418 67.672188 307.41418 68.1312 C 307.41418 68.600644 307.737575 68.991848 308.081834 68.991848 C 310.945445 68.063391 314.085507 68.000799 317.016927 68.000799 C 321.669643 68.000799 322.874551 68.407651 323.343995 68.407651 C 323.735199 68.407651 324.142051 68.063391 324.142051 67.526138 C 324.142051 66.342095 323.21881 66.274286 322.744149 66.274286 C 322.420754 66.274286 322.206896 66.342095 322.076495 66.342095 C 321.539242 66.342095 321.539242 64.792928 321.539242 64.401724 C 321.27844 59.926354 321.017637 55.127588 321.017637 50.798267 C 321.539242 47.606045 324.011649 48.863113 324.079458 47.543452 C 324.079458 46.406353 321.669643 47.068792 321.148038 44.20518 C 321.346248 39.129964 322.206896 22.141291 322.613748 20.936383 C 322.681557 20.675581 323.151001 20.477371 325.007915 20.007926 C 325.346958 19.940118 325.805971 19.272463 325.805971 18.604809 C 325.805971 17.942371 325.284366 17.535519 324.747112 17.535519 Z M 303.01705 22.464686 C 304.420167 21.066784 306.016278 19.809716 307.883624 19.809716 C 308.342636 19.809716 308.812081 19.877525 309.349334 20.070519 C 310.277791 20.39913 310.62205 26.663606 310.62205 34.346847 C 310.62205 38.071106 310.538593 42.207433 310.408192 46.145551 C 306.553531 46.275952 301.879951 46.468946 297.143778 46.468946 C 297.55063 37.47126 298.286093 27.200859 303.01705 22.464686 Z M 382.264491 18.197957 C 382.196683 18.197957 382.13409 18.265766 382.066282 18.265766 C 379.463473 18.865611 376.062608 18.996013 372.807793 18.996013 C 370.611837 18.996013 368.546281 18.93342 366.80412 18.93342 C 365.33841 18.93342 364.602947 19.470673 364.263904 21.405828 C 363.679707 24.676291 358.208071 59.196107 357.201373 59.795953 C 355.866064 52.263977 352.611249 27.33126 352.611249 19.079469 C 352.611249 18.865611 352.543441 18.73521 352.26699 18.672618 C 351.213348 18.865611 348.605323 18.996013 345.741712 18.996013 C 341.741002 18.996013 337.213471 18.73521 335.476527 18.004963 C 335.215724 17.942371 334.871465 17.681568 334.54807 17.681568 C 334.073409 17.681568 333.812607 18.542216 333.812607 18.865611 C 333.812607 19.340272 334.20381 19.601074 334.610662 19.809716 C 335.732113 20.268729 337.28128 21.536229 337.735076 22.266476 C 338.079335 22.803729 338.209737 24.613698 338.209737 27.263451 C 338.209737 31.269377 337.865477 37.064408 337.542082 42.869872 C 336.874428 45.738699 334.54807 44.465983 334.480261 45.738699 L 334.480261 45.801292 C 334.480261 46.792341 336.545817 46.468946 337.213471 48.664903 C 336.676218 56.134286 336.138965 62.534379 336.076372 63.264626 C 335.732113 67.202743 332.868502 67.009749 332.607699 68.1312 C 332.607699 68.193792 332.545107 68.407651 332.545107 68.600644 C 332.545107 69.075305 332.607699 69.59691 333.08236 69.59691 C 333.144952 69.59691 333.212761 69.59691 333.275354 69.529101 C 334.40202 68.798854 335.945971 68.668453 337.411681 68.668453 C 338.470539 68.668453 339.477237 68.731046 340.207483 68.731046 C 341.13594 68.731046 341.412391 68.668453 341.412391 68.1312 C 341.412391 67.463546 341.073348 66.728083 340.405693 66.728083 C 339.738039 66.66549 339.607638 66.065644 339.607638 65.330181 C 339.86844 62.403977 341.412391 30.210519 341.933996 25.672556 C 342.60165 26.465396 347.144829 63.134224 347.536033 66.472496 C 347.744675 68.1312 353.065046 68.600644 355.928657 68.600644 C 358.145478 68.600644 359.804182 67.593947 359.997176 65.460582 C 360.211034 63.196817 366.605911 31.269377 367.602176 25.604747 C 367.602176 27.931106 367.534367 31.071167 367.534367 34.477248 C 367.534367 45.331847 367.664769 59.404749 367.732577 62.46657 C 367.732577 64.125274 367.732577 65.935243 367.403966 66.602897 C 367.210972 66.858484 367.080571 67.463546 367.080571 67.93299 C 367.080571 68.1312 367.080571 68.324194 367.210972 68.470243 C 367.664769 68.991848 375.608812 68.470243 380.344985 71.532064 C 380.537979 71.725058 380.730973 71.662465 380.861374 71.532064 C 381.075232 71.333854 381.398627 70.389749 381.398627 70.066354 L 381.398627 70.003762 C 381.205633 68.861447 379.072269 69.59691 379.072269 66.065644 C 379.072269 59.994163 378.795818 54.798977 378.733226 49.530767 C 379.20267 46.208143 381.742886 47.459995 381.742886 46.145551 C 381.742886 44.872835 378.941868 45.801292 378.665417 42.139625 C 378.665417 30.127062 379.009676 23.408791 379.609522 22.396877 C 380.344985 21.212834 381.93588 20.545179 382.671343 20.138328 C 383.208596 19.877525 383.531991 19.663667 383.531991 19.340272 C 383.531991 18.73521 382.801745 18.197957 382.264491 18.197957 Z M 424.264123 18.411815 C 420.456407 18.411815 395.930541 18.197957 392.399276 16.539253 C 392.138473 16.476661 391.79943 16.278451 391.470819 16.278451 C 391.063967 16.278451 390.870973 16.737463 390.870973 17.013914 C 390.870973 17.535519 391.194368 18.265766 391.731621 18.474408 C 392.138473 18.604809 395.461097 19.877525 395.461097 22.464686 C 395.393288 23.278389 395.200294 31.608421 395.002085 42.807279 C 394.464831 46.145551 391.929831 44.810242 391.929831 46.145551 L 391.929831 46.208143 C 391.929831 47.267001 394.402239 46.66194 394.871683 49.609008 C 394.725634 55.53444 394.663041 60.661817 394.663041 64.062681 C 394.663041 67.802589 390.870973 68.600644 390.464121 69.727311 C 390.33372 69.935953 390.265912 70.196756 390.265912 70.473206 C 390.265912 70.86441 390.464121 71.208669 391.001375 71.208669 C 391.063967 71.208669 391.131776 71.208669 391.194368 71.14086 C 393.995387 69.137897 406.133134 68.668453 414.859585 68.668453 C 417.869246 68.668453 420.456407 68.798854 422.130759 68.798854 C 424.133722 68.798854 424.524925 60.333206 424.524925 58.804903 C 424.524925 58.006848 423.92508 57.860798 423.335666 57.860798 C 422.328968 57.860798 422.000357 58.460644 421.922117 58.804903 C 421.922117 60.401014 420.263413 62.727372 418.729894 64.208731 C 416.925141 65.935243 414.859585 66.472496 412.465419 66.472496 C 407.536252 66.404687 406.800789 65.39799 406.592147 62.143175 C 406.331344 58.335459 406.200943 50.537465 406.200943 42.807279 C 409.194956 42.593421 412.126375 42.46302 415.068227 42.46302 C 417.201592 42.46302 418.860295 46.275952 419.595758 46.275952 C 419.872209 46.275952 420.00261 45.608298 420.00261 44.726785 C 420.00261 43.474933 419.788752 41.800581 419.788752 41.19552 C 419.788752 40.611322 420.00261 39.208205 420.00261 38.138915 C 420.00261 37.403452 419.872209 36.803606 419.595758 36.803606 C 418.860295 36.803606 417.524987 40.465273 415.005635 40.465273 C 413.456468 40.465273 409.925202 40.527865 406.200943 40.527865 C 406.200943 32.865489 406.331344 25.604747 406.670388 22.93413 C 406.738196 21.797031 407.40585 20.477371 409.001962 20.477371 C 411.735172 20.477371 412.788814 20.675581 415.005635 20.675581 C 419.121098 20.675581 421.124061 22.93413 421.124061 26.209809 C 421.124061 26.533204 421.124061 26.809655 421.056252 27.33126 C 421.056252 27.800704 421.27011 28.536167 422.391561 28.536167 C 423.127024 28.536167 423.533876 28.144964 423.664277 27.200859 C 423.857271 25.928143 423.794678 23.862587 424.133722 22.464686 C 424.331931 21.473636 425.19258 19.533266 425.19258 19.142062 C 425.19258 18.542216 424.592734 18.411815 424.264123 18.411815 Z M 424.264123 18.411815 " stroke="#25412a" stroke-width="5.000002" stroke-opacity="1" stroke-miterlimit="4"/></g><g fill="#649b72" fill-opacity="1"><g transform="translate(18.488852, 46.225964)"><g><path d="M 16.421875 -22.109375 C 16.125 -22.109375 15.71875 -21.921875 15.171875 -21.921875 C 14.671875 -21.921875 14.125 -22.0625 13.484375 -22.71875 C 9.890625 -27.0625 5.984375 -30.5 5.984375 -32.5 C 5.984375 -35.59375 9.390625 -36.390625 11.6875 -36.390625 C 14.625 -36.390625 15.078125 -32.59375 15.078125 -30.75 C 15.078125 -30.359375 15.03125 -29.796875 15.03125 -29.796875 C 15.03125 -29.25 15.375 -29.046875 15.625 -29.046875 C 15.78125 -29.046875 15.921875 -29.109375 15.921875 -29.203125 C 16.171875 -32.5 18.21875 -36.09375 18.21875 -37.046875 C 18.21875 -37.140625 18.21875 -37.1875 18.171875 -37.234375 C 17.921875 -37.640625 14.53125 -37.984375 12.125 -37.984375 C 6.34375 -37.984375 1.59375 -35.59375 1.59375 -30.046875 C 1.59375 -26.65625 3.75 -23.0625 6.234375 -19.515625 C 6.4375 -19.0625 6.546875 -18.671875 6.546875 -18.375 C 6.546875 -17.375 5.6875 -17.015625 5.6875 -16.53125 C 5.6875 -16.21875 5.9375 -16.03125 6.1875 -16.03125 C 6.484375 -16.03125 6.9375 -16.21875 7.484375 -16.21875 C 8.03125 -16.21875 8.6875 -16.03125 9.4375 -15.171875 C 11.9375 -11.734375 14.125 -8.4375 14.125 -5.734375 C 14.125 -2.890625 11.625 -1.296875 9.078125 -1.296875 C 7.28125 -1.296875 5.484375 -2.046875 5.484375 -4.296875 C 5.484375 -6.09375 5.9375 -7.734375 5.9375 -9.4375 C 5.9375 -10.078125 5.9375 -10.828125 5.296875 -10.828125 C 3.5 -10.140625 5.34375 -10.078125 2.140625 -3.6875 C 1.953125 -3.25 1.546875 -2.796875 1.546875 -2.34375 C 1.546875 -1.046875 4.890625 0.203125 9.6875 0.203125 C 16.078125 0.203125 19.5625 -3.5 19.5625 -9.53125 C 19.5625 -12.828125 18.21875 -15.921875 16.421875 -18.765625 C 16.21875 -19.171875 16.125 -19.515625 16.125 -19.8125 C 16.125 -20.765625 16.921875 -21.171875 16.921875 -21.609375 C 16.921875 -21.96875 16.625 -22.109375 16.421875 -22.109375 Z M 16.421875 -22.109375 "/></g></g></g><g fill="#649b72" fill-opacity="1"><g transform="translate(39.554381, 46.225964)"><g><path d="M 28.109375 -38.1875 C 24.609375 -37.984375 11.9375 -37.640625 5 -37.640625 L 2.703125 -37.640625 C 1.296875 -37.640625 1.046875 -36.09375 1.046875 -34.34375 C 1.046875 -33.203125 1.140625 -31.953125 1.140625 -30.953125 C 1.140625 -30.25 1.046875 -29.953125 1.046875 -29.65625 C 1.046875 -29.40625 1.140625 -29.15625 1.390625 -29.109375 C 1.546875 -29.046875 1.703125 -29.046875 1.890625 -29.046875 L 2.453125 -29.046875 C 4.4375 -29.453125 2.34375 -35.6875 7.890625 -35.6875 C 10.28125 -35.6875 10.578125 -35.1875 10.578125 -33.640625 L 10.578125 -19.5625 C 10.28125 -16.921875 8.28125 -17.921875 8.28125 -16.921875 C 8.28125 -15.96875 10.53125 -16.671875 10.53125 -13.671875 C 10.53125 -9.1875 10.390625 -5 10.1875 -2.390625 C 10.078125 -1.296875 10.078125 -1.546875 9.03125 -1.390625 C 8.484375 -1.390625 7.640625 -0.796875 7.640625 -0.296875 C 7.640625 0.15625 7.84375 0.203125 8.09375 0.25 C 8.984375 0.296875 18.765625 0.296875 20.171875 0.34375 C 21.46875 0.34375 21.515625 -0.15625 21.515625 -0.953125 C 21.515625 -1.34375 21.171875 -1.390625 20.71875 -1.390625 L 19.921875 -1.390625 C 19.5625 -1.390625 19.265625 -1.390625 19.125 -1.546875 C 18.765625 -5.84375 18.625 -10.28125 18.515625 -14.53125 C 18.96875 -16.578125 20.71875 -15.71875 20.71875 -16.671875 C 20.71875 -17.578125 18.765625 -16.96875 18.46875 -19.375 C 18.46875 -25.453125 18.671875 -30.5 18.875 -33.140625 C 18.921875 -33.796875 18.875 -35.75 19.96875 -35.75 C 26.15625 -35.75 26.453125 -33.84375 26.453125 -30.609375 C 26.453125 -30.15625 26.90625 -29.40625 27.5625 -29.40625 C 28.359375 -29.40625 28.5 -29.609375 28.5 -30.453125 C 28.5 -32.703125 29.203125 -34.5 29.203125 -36.390625 C 29.203125 -37.4375 28.953125 -38.1875 28.109375 -38.1875 Z M 28.109375 -38.1875 "/></g></g></g><g fill="#649b72" fill-opacity="1"><g transform="translate(69.804878, 46.225964)"><g><path d="M 28.5625 -37.796875 C 28.203125 -37.796875 27.859375 -37.484375 27.40625 -37.1875 C 26.765625 -36.75 25.109375 -36.640625 23.765625 -36.640625 C 16.53125 -36.640625 12.78125 -38.09375 9.828125 -38.09375 C 7.1875 -38.09375 3.84375 -36.546875 3.1875 -33.953125 C 3.1875 -33.890625 3.140625 -33.796875 3.140625 -33.75 C 3.140625 -33.390625 3.546875 -33.34375 3.796875 -33.34375 C 3.9375 -33.34375 4.09375 -33.390625 4.140625 -33.640625 C 4.6875 -35.640625 7.6875 -36.4375 9.390625 -36.546875 C 6.34375 -32.796875 6.296875 -30.953125 5.796875 -28.859375 C 5.09375 -25.953125 4.796875 -22.015625 4.59375 -17.875 C 4.09375 -15.625 2.296875 -16.578125 2.25 -15.625 L 2.25 -15.578125 C 2.25 -14.78125 4.046875 -15.171875 4.34375 -13.078125 C 4.09375 -8.34375 3.796875 -3.890625 2.953125 -1.296875 C 2.59375 -0.296875 1.796875 0.453125 1.796875 0.65625 C 1.796875 1.046875 2.046875 1.140625 2.296875 1.140625 C 3.890625 1.140625 6.546875 -3.796875 7.03125 -6.234375 C 7.390625 -8.03125 7.6875 -11.375 7.84375 -14.875 C 10.078125 -14.875 12.734375 -14.828125 15.578125 -14.828125 L 17.765625 -14.828125 C 17.578125 -9.578125 17.328125 -4.890625 17.125 -3 C 17.015625 -2.203125 16.96875 -1.84375 16.671875 -1.09375 C 16.578125 -0.84375 16.03125 -0.75 15.921875 -0.75 C 15.71875 -0.703125 15.578125 -0.25 15.578125 0.09375 C 15.578125 0.453125 15.828125 0.75 16.078125 0.75 C 18.21875 0.046875 20.5625 0 22.765625 0 C 26.265625 0 27.15625 0.296875 27.5 0.296875 C 27.8125 0.296875 28.109375 0.046875 28.109375 -0.34375 C 28.109375 -1.25 27.40625 -1.296875 27.0625 -1.296875 C 26.8125 -1.296875 26.65625 -1.25 26.5625 -1.25 C 26.15625 -1.25 26.15625 -2.390625 26.15625 -2.703125 C 25.953125 -6.046875 25.765625 -9.640625 25.765625 -12.875 C 26.15625 -15.28125 28 -14.328125 28.0625 -15.328125 C 28.0625 -16.171875 26.265625 -15.671875 25.859375 -17.828125 C 26.015625 -21.609375 26.65625 -34.34375 26.953125 -35.25 C 27 -35.4375 27.359375 -35.59375 28.75 -35.9375 C 29 -36 29.359375 -36.5 29.359375 -37 C 29.359375 -37.484375 28.953125 -37.796875 28.5625 -37.796875 Z M 12.28125 -34.09375 C 13.328125 -35.140625 14.53125 -36.09375 15.921875 -36.09375 C 16.28125 -36.09375 16.625 -36.046875 17.015625 -35.890625 C 17.71875 -35.640625 17.96875 -30.953125 17.96875 -25.203125 C 17.96875 -22.421875 17.921875 -19.3125 17.828125 -16.375 C 14.921875 -16.28125 11.4375 -16.125 7.890625 -16.125 C 8.1875 -22.859375 8.734375 -30.546875 12.28125 -34.09375 Z M 12.28125 -34.09375 "/></g></g></g><g fill="#649b72" fill-opacity="1"><g transform="translate(101.702682, 46.225964)"><g><path d="M 35.09375 -1.59375 C 34.703125 -1.546875 31.546875 -6.890625 28.65625 -12.484375 C 26.703125 -16.21875 24.109375 -17.265625 22.265625 -17.421875 C 28.5 -20.515625 31.296875 -25.203125 31.296875 -29.296875 C 31.296875 -33.796875 28 -37.546875 22.46875 -37.546875 C 20.8125 -37.546875 15.71875 -36.890625 10.734375 -36.890625 C 7.84375 -36.890625 5.390625 -37 4 -37.640625 C 3.796875 -37.734375 3.546875 -37.84375 3.296875 -37.84375 C 3 -37.84375 2.84375 -37.484375 2.84375 -37.296875 C 2.84375 -36.890625 3 -36.5 3.5 -36.1875 C 4.09375 -35.84375 6.296875 -35.09375 6.296875 -33.25 L 6.296875 -33.046875 C 6.234375 -32.65625 6.09375 -25.90625 5.9375 -18.96875 C 5.390625 -17.078125 3.75 -17.875 3.75 -16.96875 L 3.75 -16.921875 C 3.75 -16.125 5.4375 -16.46875 5.84375 -14.578125 C 5.734375 -9.890625 5.6875 -5.6875 5.6875 -3.9375 L 5.6875 -3 C 5.6875 -0.15625 2.796875 0.34375 2.546875 1.25 C 2.390625 1.796875 2.84375 2.046875 3.09375 1.796875 C 4.296875 0.5 8.53125 0.25 11.734375 0.25 C 13.28125 0.25 14.328125 0.34375 15.375 0.34375 C 15.96875 0.34375 16.328125 0.296875 16.328125 -0.25 C 16.328125 -0.59375 16.078125 -0.84375 15.28125 -0.90625 C 14.78125 -0.90625 14.484375 -1.203125 14.484375 -1.640625 C 14.484375 -6.34375 14.171875 -10.578125 14.125 -14.875 C 15.171875 -15.171875 16.828125 -15.625 17.328125 -15.625 C 18.171875 -15.625 19.765625 -15.125 21.0625 -12.28125 C 23.109375 -7.84375 25.65625 -2.796875 25.65625 -1.703125 C 25.65625 -1.546875 25.609375 -1.5 25.5625 -1.5 C 25.0625 -1.390625 24.015625 -1.546875 24.015625 -0.703125 C 24.015625 -0.15625 24.3125 0.15625 24.8125 0.15625 C 25.015625 0.15625 25.265625 0.15625 25.515625 0.09375 C 27.203125 -0.046875 29.40625 -0.09375 31.40625 -0.09375 C 33.640625 -0.09375 35.640625 -0.046875 36.34375 0.046875 C 36.796875 0.046875 36.84375 -0.09375 36.84375 -0.40625 C 36.84375 -1.34375 36.84375 -1.59375 35.546875 -1.59375 Z M 14.125 -16.578125 L 14.125 -19.46875 C 14.125 -27.3125 14.53125 -34.5 16.03125 -35.390625 C 16.28125 -35.546875 17.671875 -36.046875 19.265625 -36.046875 C 22.171875 -36.046875 23.359375 -33.953125 23.359375 -31.40625 C 23.359375 -25.8125 23.21875 -17.96875 14.125 -16.578125 Z M 14.125 -16.578125 "/></g></g></g><g fill="#649b72" fill-opacity="1"><g transform="translate(137.094763, 46.225964)"><g><path d="M 28.109375 -38.1875 C 24.609375 -37.984375 11.9375 -37.640625 5 -37.640625 L 2.703125 -37.640625 C 1.296875 -37.640625 1.046875 -36.09375 1.046875 -34.34375 C 1.046875 -33.203125 1.140625 -31.953125 1.140625 -30.953125 C 1.140625 -30.25 1.046875 -29.953125 1.046875 -29.65625 C 1.046875 -29.40625 1.140625 -29.15625 1.390625 -29.109375 C 1.546875 -29.046875 1.703125 -29.046875 1.890625 -29.046875 L 2.453125 -29.046875 C 4.4375 -29.453125 2.34375 -35.6875 7.890625 -35.6875 C 10.28125 -35.6875 10.578125 -35.1875 10.578125 -33.640625 L 10.578125 -19.5625 C 10.28125 -16.921875 8.28125 -17.921875 8.28125 -16.921875 C 8.28125 -15.96875 10.53125 -16.671875 10.53125 -13.671875 C 10.53125 -9.1875 10.390625 -5 10.1875 -2.390625 C 10.078125 -1.296875 10.078125 -1.546875 9.03125 -1.390625 C 8.484375 -1.390625 7.640625 -0.796875 7.640625 -0.296875 C 7.640625 0.15625 7.84375 0.203125 8.09375 0.25 C 8.984375 0.296875 18.765625 0.296875 20.171875 0.34375 C 21.46875 0.34375 21.515625 -0.15625 21.515625 -0.953125 C 21.515625 -1.34375 21.171875 -1.390625 20.71875 -1.390625 L 19.921875 -1.390625 C 19.5625 -1.390625 19.265625 -1.390625 19.125 -1.546875 C 18.765625 -5.84375 18.625 -10.28125 18.515625 -14.53125 C 18.96875 -16.578125 20.71875 -15.71875 20.71875 -16.671875 C 20.71875 -17.578125 18.765625 -16.96875 18.46875 -19.375 C 18.46875 -25.453125 18.671875 -30.5 18.875 -33.140625 C 18.921875 -33.796875 18.875 -35.75 19.96875 -35.75 C 26.15625 -35.75 26.453125 -33.84375 26.453125 -30.609375 C 26.453125 -30.15625 26.90625 -29.40625 27.5625 -29.40625 C 28.359375 -29.40625 28.5 -29.609375 28.5 -30.453125 C 28.5 -32.703125 29.203125 -34.5 29.203125 -36.390625 C 29.203125 -37.4375 28.953125 -38.1875 28.109375 -38.1875 Z M 28.109375 -38.1875 "/></g></g></g><g fill="#649b72" fill-opacity="1"><g transform="translate(167.345261, 46.225964)"><g/></g></g><g fill="#649b72" fill-opacity="1"><g transform="translate(184.816672, 46.225964)"><g><path d="M 25.65625 -19.265625 C 24.265625 -19.265625 21.765625 -19.765625 19.921875 -19.765625 C 18.875 -19.765625 15.921875 -19.515625 15.921875 -18.328125 C 15.921875 -17.875 16.28125 -17.328125 16.625 -17.328125 C 17.078125 -17.328125 17.015625 -17.875 17.765625 -17.875 C 18.015625 -17.875 18.375 -17.828125 18.875 -17.625 C 19.5625 -17.171875 20.171875 -13.671875 20.171875 -10.03125 C 20.171875 -5.6875 19.3125 -1.046875 16.78125 -1.046875 C 13.375 -1.046875 11.78125 -8.53125 11.78125 -16.46875 C 11.78125 -24.109375 13.28125 -32.09375 16.078125 -34.296875 C 16.421875 -34.59375 17.625 -35.34375 18.765625 -35.34375 C 20.015625 -35.34375 21.21875 -34.453125 21.21875 -31.09375 C 21.21875 -30.296875 21.171875 -29.953125 21.171875 -29.546875 C 21.171875 -28.5625 21.171875 -27.75 22.109375 -27.75 C 22.859375 -27.75 23.109375 -28.15625 23.15625 -28.3125 C 23.46875 -30.859375 23.515625 -34.5 25.015625 -36.546875 C 25.0625 -36.640625 25.0625 -36.6875 25.0625 -36.796875 C 25.0625 -36.890625 25.0625 -37 25.015625 -37.09375 C 24.96875 -37.140625 24.3125 -37.140625 23.40625 -37.140625 C 21.609375 -37.140625 18.96875 -37.09375 18.515625 -37.09375 C 7.03125 -37.046875 3.1875 -27.5625 3.1875 -18.671875 C 2.84375 -16.53125 1.046875 -17.265625 1.046875 -16.375 C 1.046875 -15.421875 3 -15.78125 3.25 -14.28125 C 3.75 -7.984375 5.984375 0.84375 15.28125 0.84375 C 23.515625 0.84375 25.015625 -10.578125 25.015625 -16.71875 C 25.015625 -17.71875 25.0625 -17.765625 26.65625 -17.921875 C 27.359375 -17.96875 27.65625 -18.515625 27.65625 -18.921875 C 27.65625 -19.3125 27.453125 -19.46875 27.203125 -19.46875 C 26.65625 -19.46875 26.15625 -19.265625 25.65625 -19.265625 Z M 25.65625 -19.265625 "/></g></g></g><g fill="#649b72" fill-opacity="1"><g transform="translate(212.970606, 46.225964)"><g><path d="M 28.5625 -37.796875 C 28.203125 -37.796875 27.859375 -37.484375 27.40625 -37.1875 C 26.765625 -36.75 25.109375 -36.640625 23.765625 -36.640625 C 16.53125 -36.640625 12.78125 -38.09375 9.828125 -38.09375 C 7.1875 -38.09375 3.84375 -36.546875 3.1875 -33.953125 C 3.1875 -33.890625 3.140625 -33.796875 3.140625 -33.75 C 3.140625 -33.390625 3.546875 -33.34375 3.796875 -33.34375 C 3.9375 -33.34375 4.09375 -33.390625 4.140625 -33.640625 C 4.6875 -35.640625 7.6875 -36.4375 9.390625 -36.546875 C 6.34375 -32.796875 6.296875 -30.953125 5.796875 -28.859375 C 5.09375 -25.953125 4.796875 -22.015625 4.59375 -17.875 C 4.09375 -15.625 2.296875 -16.578125 2.25 -15.625 L 2.25 -15.578125 C 2.25 -14.78125 4.046875 -15.171875 4.34375 -13.078125 C 4.09375 -8.34375 3.796875 -3.890625 2.953125 -1.296875 C 2.59375 -0.296875 1.796875 0.453125 1.796875 0.65625 C 1.796875 1.046875 2.046875 1.140625 2.296875 1.140625 C 3.890625 1.140625 6.546875 -3.796875 7.03125 -6.234375 C 7.390625 -8.03125 7.6875 -11.375 7.84375 -14.875 C 10.078125 -14.875 12.734375 -14.828125 15.578125 -14.828125 L 17.765625 -14.828125 C 17.578125 -9.578125 17.328125 -4.890625 17.125 -3 C 17.015625 -2.203125 16.96875 -1.84375 16.671875 -1.09375 C 16.578125 -0.84375 16.03125 -0.75 15.921875 -0.75 C 15.71875 -0.703125 15.578125 -0.25 15.578125 0.09375 C 15.578125 0.453125 15.828125 0.75 16.078125 0.75 C 18.21875 0.046875 20.5625 0 22.765625 0 C 26.265625 0 27.15625 0.296875 27.5 0.296875 C 27.8125 0.296875 28.109375 0.046875 28.109375 -0.34375 C 28.109375 -1.25 27.40625 -1.296875 27.0625 -1.296875 C 26.8125 -1.296875 26.65625 -1.25 26.5625 -1.25 C 26.15625 -1.25 26.15625 -2.390625 26.15625 -2.703125 C 25.953125 -6.046875 25.765625 -9.640625 25.765625 -12.875 C 26.15625 -15.28125 28 -14.328125 28.0625 -15.328125 C 28.0625 -16.171875 26.265625 -15.671875 25.859375 -17.828125 C 26.015625 -21.609375 26.65625 -34.34375 26.953125 -35.25 C 27 -35.4375 27.359375 -35.59375 28.75 -35.9375 C 29 -36 29.359375 -36.5 29.359375 -37 C 29.359375 -37.484375 28.953125 -37.796875 28.5625 -37.796875 Z M 12.28125 -34.09375 C 13.328125 -35.140625 14.53125 -36.09375 15.921875 -36.09375 C 16.28125 -36.09375 16.625 -36.046875 17.015625 -35.890625 C 17.71875 -35.640625 17.96875 -30.953125 17.96875 -25.203125 C 17.96875 -22.421875 17.921875 -19.3125 17.828125 -16.375 C 14.921875 -16.28125 11.4375 -16.125 7.890625 -16.125 C 8.1875 -22.859375 8.734375 -30.546875 12.28125 -34.09375 Z M 12.28125 -34.09375 "/></g></g></g><g fill="#649b72" fill-opacity="1"><g transform="translate(244.868409, 46.225964)"><g><path d="M 39.734375 -37.296875 C 39.6875 -37.296875 39.640625 -37.234375 39.59375 -37.234375 C 37.640625 -36.796875 35.09375 -36.6875 32.65625 -36.6875 C 31 -36.6875 29.453125 -36.75 28.15625 -36.75 C 27.0625 -36.75 26.515625 -36.34375 26.265625 -34.890625 C 25.8125 -32.453125 21.71875 -6.59375 20.96875 -6.140625 C 19.96875 -11.78125 17.515625 -30.453125 17.515625 -36.640625 C 17.515625 -36.796875 17.46875 -36.890625 17.265625 -36.9375 C 16.46875 -36.796875 14.53125 -36.6875 12.375 -36.6875 C 9.390625 -36.6875 5.984375 -36.890625 4.6875 -37.4375 C 4.5 -37.484375 4.25 -37.6875 4 -37.6875 C 3.640625 -37.6875 3.4375 -37.046875 3.4375 -36.796875 C 3.4375 -36.4375 3.75 -36.25 4.046875 -36.09375 C 4.890625 -35.75 6.046875 -34.796875 6.390625 -34.25 C 6.640625 -33.84375 6.734375 -32.5 6.734375 -30.5 C 6.734375 -27.5 6.484375 -23.15625 6.234375 -18.828125 C 5.734375 -16.671875 4 -17.625 3.9375 -16.671875 L 3.9375 -16.625 C 3.9375 -15.875 5.484375 -16.125 5.984375 -14.484375 C 5.59375 -8.890625 5.1875 -4.09375 5.140625 -3.546875 C 4.890625 -0.59375 2.75 -0.75 2.546875 0.09375 C 2.546875 0.15625 2.5 0.296875 2.5 0.453125 C 2.5 0.796875 2.546875 1.203125 2.890625 1.203125 C 2.953125 1.203125 3 1.203125 3.046875 1.140625 C 3.890625 0.59375 5.046875 0.5 6.140625 0.5 C 6.9375 0.5 7.6875 0.546875 8.234375 0.546875 C 8.9375 0.546875 9.140625 0.5 9.140625 0.09375 C 9.140625 -0.40625 8.890625 -0.953125 8.390625 -0.953125 C 7.890625 -1 7.78125 -1.453125 7.78125 -2 C 7.984375 -4.1875 9.140625 -28.3125 9.53125 -31.703125 C 10.03125 -31.09375 13.421875 -3.640625 13.734375 -1.140625 C 13.875 0.09375 17.875 0.453125 20.015625 0.453125 C 21.671875 0.453125 22.921875 -0.296875 23.0625 -1.890625 C 23.21875 -3.59375 28 -27.5 28.75 -31.75 C 28.75 -30 28.703125 -27.65625 28.703125 -25.109375 C 28.703125 -16.96875 28.8125 -6.4375 28.859375 -4.140625 C 28.859375 -2.890625 28.859375 -1.546875 28.609375 -1.046875 C 28.453125 -0.84375 28.359375 -0.40625 28.359375 -0.046875 C 28.359375 0.09375 28.359375 0.25 28.453125 0.34375 C 28.8125 0.75 34.75 0.34375 38.296875 2.640625 C 38.4375 2.796875 38.59375 2.75 38.6875 2.640625 C 38.84375 2.5 39.09375 1.796875 39.09375 1.546875 L 39.09375 1.5 C 38.9375 0.65625 37.34375 1.203125 37.34375 -1.453125 C 37.34375 -5.984375 37.140625 -9.890625 37.09375 -13.828125 C 37.4375 -16.328125 39.34375 -15.375 39.34375 -16.375 C 39.34375 -17.328125 37.234375 -16.625 37.046875 -19.375 C 37.046875 -28.359375 37.296875 -33.390625 37.734375 -34.140625 C 38.296875 -35.046875 39.484375 -35.546875 40.03125 -35.84375 C 40.4375 -36.046875 40.6875 -36.1875 40.6875 -36.4375 C 40.6875 -36.890625 40.140625 -37.296875 39.734375 -37.296875 Z M 39.734375 -37.296875 "/></g></g></g><g fill="#649b72" fill-opacity="1"><g transform="translate(288.047747, 46.225964)"><g><path d="M 28 -37.140625 C 25.15625 -37.140625 6.796875 -37.296875 4.140625 -38.546875 C 3.9375 -38.59375 3.6875 -38.734375 3.4375 -38.734375 C 3.140625 -38.734375 3 -38.390625 3 -38.1875 C 3 -37.796875 3.25 -37.234375 3.640625 -37.09375 C 3.9375 -37 6.4375 -36.046875 6.4375 -34.09375 C 6.390625 -33.5 6.234375 -27.25 6.09375 -18.875 C 5.6875 -16.375 3.796875 -17.375 3.796875 -16.375 L 3.796875 -16.328125 C 3.796875 -15.53125 5.640625 -15.96875 5.984375 -13.78125 C 5.890625 -9.328125 5.84375 -5.484375 5.84375 -2.953125 C 5.84375 -0.15625 3 0.453125 2.703125 1.296875 C 2.59375 1.453125 2.546875 1.640625 2.546875 1.84375 C 2.546875 2.140625 2.703125 2.390625 3.09375 2.390625 C 3.140625 2.390625 3.1875 2.390625 3.25 2.34375 C 5.34375 0.84375 14.421875 0.5 20.96875 0.5 C 23.21875 0.5 25.15625 0.59375 26.40625 0.59375 C 27.90625 0.59375 28.203125 -5.734375 28.203125 -6.890625 C 28.203125 -7.484375 27.75 -7.59375 27.3125 -7.59375 C 26.5625 -7.59375 26.3125 -7.140625 26.265625 -6.890625 C 26.265625 -5.6875 25.015625 -3.9375 23.859375 -2.84375 C 22.515625 -1.546875 20.96875 -1.140625 19.171875 -1.140625 C 15.46875 -1.203125 14.921875 -1.953125 14.78125 -4.390625 C 14.578125 -7.234375 14.484375 -13.078125 14.484375 -18.875 C 16.71875 -19.015625 18.921875 -19.125 21.109375 -19.125 C 22.71875 -19.125 23.96875 -16.28125 24.515625 -16.28125 C 24.71875 -16.28125 24.8125 -16.78125 24.8125 -17.421875 C 24.8125 -18.375 24.65625 -19.625 24.65625 -20.0625 C 24.65625 -20.515625 24.8125 -21.5625 24.8125 -22.359375 C 24.8125 -22.921875 24.71875 -23.359375 24.515625 -23.359375 C 23.96875 -23.359375 22.96875 -20.625 21.0625 -20.625 C 19.921875 -20.625 17.265625 -20.5625 14.484375 -20.5625 C 14.484375 -26.3125 14.578125 -31.75 14.828125 -33.75 C 14.875 -34.59375 15.375 -35.59375 16.578125 -35.59375 C 18.625 -35.59375 19.421875 -35.4375 21.0625 -35.4375 C 24.15625 -35.4375 25.65625 -33.75 25.65625 -31.296875 C 25.65625 -31.046875 25.65625 -30.859375 25.609375 -30.453125 C 25.609375 -30.109375 25.765625 -29.546875 26.609375 -29.546875 C 27.15625 -29.546875 27.453125 -29.859375 27.5625 -30.546875 C 27.703125 -31.5 27.65625 -33.046875 27.90625 -34.09375 C 28.0625 -34.84375 28.703125 -36.296875 28.703125 -36.59375 C 28.703125 -37.046875 28.25 -37.140625 28 -37.140625 Z M 28 -37.140625 "/></g></g></g></svg>