<svg xmlns="http://www.w3.org/2000/svg" xmlns:xlink="http://www.w3.org/1999/xlink" width="75" zoomAndPan="magnify" viewBox="0 0 56.25 30.000001" height="40" preserveAspectRatio="xMidYMid meet" version="1.0"><defs><g/><clipPath id="68fe776080"><path d="M 0.542969 0 L 54.980469 0 L 54.980469 29 L 0.542969 29 Z M 0.542969 0 " clip-rule="nonzero"/></clipPath></defs><g clip-path="url(#68fe776080)"><path stroke-linecap="butt" transform="matrix(0.907258, 0, 0, 0.907258, 0.544354, 1.754051)" fill="none" stroke-linejoin="miter" d="M 11.950696 11.448313 C 14.680418 11.18998 16.772918 9.868174 16.772918 7.15998 C 16.772918 4.580952 15.235834 4.365674 13.212223 4.17623 C 12.441529 4.107341 11.567501 4.085813 10.671946 4.085813 C 8.966946 4.085813 7.175834 4.17623 5.703334 4.193452 C 5.638751 4.193452 5.449307 4.236507 5.449307 4.430257 C 5.449307 4.791924 5.74639 4.981369 6.021946 4.981369 C 6.129584 4.981369 6.21139 4.959841 6.301807 4.959841 C 6.534307 4.959841 6.620418 5.089007 6.620418 5.282757 C 6.620418 5.476507 6.555834 5.709007 6.534307 5.967341 C 6.517084 6.475396 6.323334 9.037202 6.129584 11.80998 C 5.897084 12.765813 5.12639 12.343869 5.104862 12.744285 L 5.104862 12.765813 C 5.104862 13.110258 5.854029 12.959563 5.97889 13.833591 C 5.832501 15.775396 5.724862 17.588035 5.681807 18.634285 C 5.638751 19.469563 5.638751 19.491091 5.315834 19.594424 C 5.212501 19.63748 5.018751 19.766646 5.018751 19.960396 C 5.018751 20.128313 5.173751 20.317758 5.315834 20.317758 C 5.406251 20.317758 5.427779 20.29623 5.531112 20.253174 C 6.129584 20.020674 6.917501 19.977619 7.770001 19.977619 C 9.134862 19.977619 10.844168 20.214424 11.653612 20.214424 C 14.555557 20.214424 17.926807 19.021785 17.926807 15.715119 C 17.926807 12.171646 14.637362 11.448313 11.950696 11.448313 Z M 11.309168 19.615952 L 11.24889 19.615952 C 10.353334 19.615952 9.561112 19.189702 9.457779 18.677341 C 9.307084 18.035813 9.264029 17.252202 9.264029 16.395396 C 9.264029 14.13498 9.651529 11.534424 9.690279 10.789563 C 9.797918 9.183591 9.927084 7.414008 10.181112 5.967341 C 10.353334 5.071785 10.82264 4.60248 11.778473 4.60248 C 12.932362 4.60248 13.763334 4.959841 13.763334 6.324702 C 13.763334 9.015674 12.674029 10.914424 10.288751 11.42248 C 10.138057 11.448313 10.077779 11.61623 10.077779 11.723869 C 10.077779 11.84873 10.20264 11.917619 10.288751 11.917619 C 10.331807 11.917619 10.353334 11.917619 10.39639 11.896091 C 10.650418 11.80998 10.882918 11.788452 11.141251 11.788452 C 13.255279 11.788452 14.404862 13.407341 14.404862 15.370674 C 14.404862 17.377063 13.315557 19.551369 11.309168 19.615952 Z M 30.339723 3.853313 C 30.184723 3.853313 30.04264 3.98248 29.84889 4.107341 C 29.569029 4.301091 28.862918 4.344146 28.290279 4.344146 C 25.19889 4.344146 23.597223 3.728452 22.340001 3.728452 C 21.20764 3.728452 19.778196 4.387202 19.50264 5.498035 C 19.50264 5.519563 19.481112 5.558313 19.481112 5.579841 C 19.481112 5.730535 19.653335 5.752063 19.756668 5.752063 C 19.825557 5.752063 19.885835 5.730535 19.907362 5.622896 C 20.139862 4.766091 21.422918 4.430257 22.146251 4.387202 C 20.845973 5.984563 20.824446 6.77248 20.609168 7.672341 C 20.312085 8.908035 20.182918 10.595813 20.101112 12.365396 C 19.885835 13.325535 19.11514 12.916508 19.093612 13.325535 L 19.093612 13.342758 C 19.093612 13.687202 19.864307 13.51498 19.989168 14.410535 C 19.885835 16.438452 19.756668 18.337202 19.395001 19.448035 C 19.244307 19.86998 18.904168 20.192896 18.904168 20.274702 C 18.904168 20.446924 19.011807 20.48998 19.11514 20.48998 C 19.799723 20.48998 20.932085 18.380258 21.147362 17.334008 C 21.293751 16.567619 21.422918 15.138174 21.483196 13.639841 C 22.443335 13.639841 23.57139 13.661369 24.789862 13.661369 L 25.728473 13.661369 C 25.646668 15.908869 25.534723 17.910952 25.452918 18.720396 C 25.409862 19.060535 25.39264 19.206924 25.259168 19.529841 C 25.220418 19.63748 24.983612 19.680535 24.944862 19.680535 C 24.854446 19.702063 24.789862 19.895813 24.789862 20.042202 C 24.789862 20.192896 24.897501 20.317758 25.00514 20.317758 C 25.922223 20.020674 26.925418 19.999146 27.864029 19.999146 C 29.353751 19.999146 29.736946 20.128313 29.891946 20.128313 C 30.016807 20.128313 30.145973 20.020674 30.145973 19.848452 C 30.145973 19.469563 29.84889 19.448035 29.698196 19.448035 C 29.594862 19.448035 29.525973 19.469563 29.482918 19.469563 C 29.310696 19.469563 29.310696 18.974424 29.310696 18.849563 C 29.22889 17.415813 29.147085 15.87873 29.147085 14.496646 C 29.310696 13.47623 30.102918 13.876646 30.124446 13.454702 C 30.124446 13.08873 29.353751 13.304008 29.185835 12.386924 C 29.250418 10.76373 29.525973 5.325813 29.65514 4.938313 C 29.676668 4.856507 29.827362 4.791924 30.421529 4.64123 C 30.529168 4.624007 30.675557 4.40873 30.675557 4.193452 C 30.675557 3.98248 30.50764 3.853313 30.339723 3.853313 Z M 23.386251 5.429146 C 23.834029 4.981369 24.342085 4.580952 24.944862 4.580952 C 25.086946 4.580952 25.23764 4.60248 25.409862 4.662757 C 25.706946 4.766091 25.81889 6.77248 25.81889 9.230952 C 25.81889 10.423591 25.793057 11.745396 25.750001 13.006924 C 24.514307 13.04998 23.020279 13.110258 21.504723 13.110258 C 21.638196 10.229841 21.870696 6.944702 23.386251 5.429146 Z M 39.80764 4.042757 C 35.885279 4.042757 33.06514 6.647619 33.06514 11.340674 C 33.06514 11.61623 33.06514 11.896091 33.086668 12.150119 C 32.897224 12.938035 32.191112 12.640952 32.191112 13.028452 C 32.21264 13.407341 33.004862 13.131785 33.194307 14.087619 C 33.620557 18.229563 35.136112 20.235952 38.421251 20.235952 C 41.301668 20.235952 41.770974 17.631091 41.770974 16.670952 C 41.770974 16.438452 41.340418 16.287758 41.004585 16.287758 C 40.638612 16.287758 40.509446 16.438452 40.509446 16.735535 C 40.509446 16.968035 40.530974 17.269424 40.530974 17.566508 C 40.530974 18.574008 39.958335 19.448035 38.912085 19.448035 C 37.564446 19.448035 36.884168 16.201646 36.884168 12.791646 C 36.884168 9.377341 37.413751 4.878035 39.721529 4.878035 C 40.509446 4.878035 40.767779 5.644424 40.767779 6.264424 L 40.767779 6.690674 C 40.767779 7.116924 41.189724 7.39248 41.51264 7.39248 C 41.981946 7.39248 42.025001 6.432341 42.025001 6.118035 C 42.025001 4.559424 40.681668 4.042757 39.80764 4.042757 Z M 55.931946 19.318869 C 55.630557 19.318869 51.600557 12.150119 51.152779 9.782063 C 52.71139 7.370952 54.437918 4.981369 55.204307 4.727341 C 55.652085 4.580952 55.759724 4.387202 55.759724 4.236507 C 55.759724 4.042757 55.609029 3.870535 55.458335 3.870535 C 55.398057 3.870535 55.311946 3.896369 55.273196 3.917896 C 55.204307 3.939424 54.778057 4.042757 53.79639 4.107341 C 53.309863 4.107341 52.922363 3.960952 52.51764 3.960952 C 52.177501 3.960952 51.815835 4.042757 51.497224 4.193452 C 51.406807 4.236507 51.368057 4.344146 51.368057 4.473313 C 51.368057 4.624007 51.428335 4.748869 51.540279 4.748869 C 51.579029 4.748869 51.643613 4.727341 51.66514 4.705813 C 51.837363 4.60248 52.09139 4.559424 52.302363 4.559424 C 52.668335 4.559424 53.034307 4.766091 53.034307 5.110535 C 53.034307 5.244007 52.986946 5.368869 52.900835 5.519563 C 52.560696 6.118035 48.272363 12.744285 48.018335 12.813174 C 48.121668 11.917619 48.212085 6.178313 48.423057 5.386091 C 48.52639 4.878035 49.064585 4.856507 49.232501 4.813452 C 49.465001 4.748869 49.615696 4.559424 49.615696 4.365674 C 49.615696 4.154702 49.465001 4.02123 49.297085 4.02123 C 49.232501 4.02123 48.956946 4.17623 47.846113 4.17623 C 45.159446 4.17623 44.07014 3.960952 43.83764 3.960952 C 43.751529 3.960952 43.622362 4.004007 43.600835 4.21498 C 43.600835 4.344146 43.600835 4.64123 43.897918 4.705813 C 44.306946 4.813452 44.629862 4.684285 44.629862 4.938313 C 44.629862 5.730535 44.586807 8.929563 44.517918 12.04248 C 44.26389 12.85623 43.579307 12.490258 43.562085 12.877758 L 43.562085 12.89498 C 43.562085 13.304008 44.474862 13.04998 44.474862 14.281369 C 44.474862 15.775396 44.371529 17.183313 44.371529 19.021785 C 44.371529 19.297341 44.324168 19.400674 44.048612 19.422202 C 43.686946 19.469563 43.562085 19.551369 43.562085 19.848452 C 43.579307 20.042202 43.622362 20.085258 43.751529 20.085258 C 43.966807 20.085258 44.160557 20.042202 44.324168 20.042202 C 45.779446 20.042202 47.122779 20.085258 48.444585 20.085258 C 48.659863 20.085258 48.68139 19.938869 48.68139 19.788174 C 48.68139 19.594424 48.616807 19.422202 48.384307 19.422202 C 48.272363 19.422202 48.233613 19.448035 48.169029 19.448035 C 48.078613 19.448035 47.996807 19.400674 47.975279 19.275813 C 47.953751 18.931369 47.936529 18.289841 47.936529 17.588035 C 47.936529 16.395396 47.975279 15.052063 48.039863 14.922896 C 48.121668 14.750674 48.547918 14.005813 49.14639 13.006924 C 49.96014 15.052063 51.876113 18.634285 51.876113 19.254285 C 51.876113 19.297341 51.854585 19.340396 51.837363 19.340396 C 51.643613 19.400674 51.195835 19.340396 51.195835 19.702063 C 51.195835 19.895813 51.303474 20.042202 51.497224 20.042202 C 51.579029 20.042202 51.66514 20.020674 51.772779 20.020674 C 52.668335 20.020674 53.503613 19.960396 54.330279 19.960396 C 55.311946 19.960396 55.906113 19.999146 56.526113 19.999146 C 56.676807 19.999146 56.676807 19.86998 56.676807 19.766646 C 56.676807 19.422202 56.638057 19.318869 56.099863 19.318869 Z M 55.931946 19.318869 " stroke="#800000" stroke-width="1.600013" stroke-opacity="1" stroke-miterlimit="4"/></g><g fill="#eb4d4d" fill-opacity="1"><g transform="translate(3.91822, 19.899212)"><g><path d="M 7.46875 -7.765625 C 9.953125 -8 11.84375 -9.203125 11.84375 -11.65625 C 11.84375 -14 10.453125 -14.1875 8.609375 -14.359375 C 7.921875 -14.421875 7.125 -14.4375 6.3125 -14.4375 C 4.765625 -14.4375 3.140625 -14.359375 1.796875 -14.34375 C 1.75 -14.34375 1.5625 -14.3125 1.5625 -14.125 C 1.5625 -13.796875 1.84375 -13.625 2.09375 -13.625 C 2.1875 -13.625 2.265625 -13.640625 2.34375 -13.640625 C 2.5625 -13.640625 2.640625 -13.53125 2.640625 -13.359375 C 2.640625 -13.1875 2.578125 -12.96875 2.5625 -12.734375 C 2.53125 -12.28125 2.359375 -9.953125 2.1875 -7.4375 C 1.96875 -6.5625 1.28125 -6.953125 1.265625 -6.578125 L 1.265625 -6.5625 C 1.265625 -6.25 1.9375 -6.390625 2.046875 -5.59375 C 1.921875 -3.828125 1.8125 -2.1875 1.78125 -1.234375 C 1.75 -0.484375 1.75 -0.46875 1.453125 -0.375 C 1.359375 -0.328125 1.1875 -0.21875 1.1875 -0.03125 C 1.1875 0.109375 1.3125 0.296875 1.453125 0.296875 C 1.53125 0.296875 1.546875 0.265625 1.640625 0.234375 C 2.1875 0.015625 2.90625 -0.015625 3.671875 -0.015625 C 4.921875 -0.015625 6.46875 0.1875 7.203125 0.1875 C 9.828125 0.1875 12.890625 -0.890625 12.890625 -3.890625 C 12.890625 -7.109375 9.90625 -7.765625 7.46875 -7.765625 Z M 6.890625 -0.34375 L 6.828125 -0.34375 C 6.015625 -0.34375 5.296875 -0.734375 5.203125 -1.203125 C 5.078125 -1.78125 5.03125 -2.5 5.03125 -3.265625 C 5.03125 -5.328125 5.375 -7.6875 5.421875 -8.359375 C 5.515625 -9.8125 5.640625 -11.421875 5.859375 -12.734375 C 6.015625 -13.546875 6.453125 -13.984375 7.3125 -13.984375 C 8.359375 -13.984375 9.125 -13.640625 9.125 -12.40625 C 9.125 -9.96875 8.125 -8.25 5.96875 -7.78125 C 5.828125 -7.765625 5.765625 -7.609375 5.765625 -7.515625 C 5.765625 -7.390625 5.890625 -7.34375 5.96875 -7.34375 C 6 -7.34375 6.015625 -7.34375 6.0625 -7.359375 C 6.296875 -7.4375 6.5 -7.453125 6.734375 -7.453125 C 8.65625 -7.453125 9.703125 -5.984375 9.703125 -4.203125 C 9.703125 -2.375 8.71875 -0.40625 6.890625 -0.34375 Z M 6.890625 -0.34375 "/></g></g></g><g fill="#eb4d4d" fill-opacity="1"><g transform="translate(16.998955, 19.899212)"><g><path d="M 11.078125 -14.65625 C 10.9375 -14.65625 10.796875 -14.53125 10.625 -14.421875 C 10.375 -14.25 9.734375 -14.203125 9.21875 -14.203125 C 6.40625 -14.203125 4.953125 -14.765625 3.8125 -14.765625 C 2.78125 -14.765625 1.484375 -14.171875 1.234375 -13.171875 C 1.234375 -13.140625 1.21875 -13.109375 1.21875 -13.09375 C 1.21875 -12.953125 1.375 -12.9375 1.46875 -12.9375 C 1.53125 -12.9375 1.59375 -12.953125 1.609375 -13.046875 C 1.8125 -13.828125 2.984375 -14.125 3.640625 -14.171875 C 2.453125 -12.71875 2.4375 -12 2.25 -11.1875 C 1.96875 -10.0625 1.859375 -8.53125 1.78125 -6.9375 C 1.59375 -6.0625 0.890625 -6.421875 0.875 -6.0625 L 0.875 -6.046875 C 0.875 -5.734375 1.5625 -5.890625 1.6875 -5.078125 C 1.59375 -3.234375 1.46875 -1.515625 1.140625 -0.5 C 1 -0.109375 0.703125 0.171875 0.703125 0.25 C 0.703125 0.40625 0.796875 0.4375 0.890625 0.4375 C 1.515625 0.4375 2.53125 -1.46875 2.734375 -2.421875 C 2.859375 -3.109375 2.984375 -4.40625 3.046875 -5.765625 C 3.90625 -5.765625 4.9375 -5.75 6.046875 -5.75 L 6.890625 -5.75 C 6.8125 -3.71875 6.71875 -1.890625 6.640625 -1.15625 C 6.59375 -0.859375 6.578125 -0.71875 6.46875 -0.421875 C 6.421875 -0.328125 6.21875 -0.296875 6.171875 -0.296875 C 6.09375 -0.265625 6.046875 -0.09375 6.046875 0.03125 C 6.046875 0.171875 6.140625 0.296875 6.234375 0.296875 C 7.0625 0.015625 7.96875 0 8.828125 0 C 10.1875 0 10.53125 0.109375 10.671875 0.109375 C 10.78125 0.109375 10.90625 0.015625 10.90625 -0.140625 C 10.90625 -0.484375 10.625 -0.5 10.5 -0.5 C 10.390625 -0.5 10.34375 -0.484375 10.296875 -0.484375 C 10.140625 -0.484375 10.140625 -0.921875 10.140625 -1.046875 C 10.0625 -2.34375 9.984375 -3.734375 9.984375 -5 C 10.140625 -5.921875 10.859375 -5.5625 10.875 -5.9375 C 10.875 -6.265625 10.1875 -6.078125 10.03125 -6.90625 C 10.09375 -8.375 10.34375 -13.3125 10.453125 -13.671875 C 10.46875 -13.75 10.609375 -13.796875 11.15625 -13.9375 C 11.25 -13.953125 11.390625 -14.15625 11.390625 -14.34375 C 11.390625 -14.53125 11.234375 -14.65625 11.078125 -14.65625 Z M 4.765625 -13.21875 C 5.171875 -13.625 5.640625 -14 6.171875 -14 C 6.3125 -14 6.453125 -13.984375 6.59375 -13.921875 C 6.875 -13.828125 6.96875 -12 6.96875 -9.78125 C 6.96875 -8.6875 6.953125 -7.484375 6.90625 -6.34375 C 5.78125 -6.3125 4.4375 -6.25 3.0625 -6.25 C 3.171875 -8.859375 3.390625 -11.84375 4.765625 -13.21875 Z M 4.765625 -13.21875 "/></g></g></g><g fill="#eb4d4d" fill-opacity="1"><g transform="translate(29.363724, 19.899212)"><g><path d="M 7.296875 -14.484375 C 3.734375 -14.484375 1.1875 -12.125 1.1875 -7.859375 C 1.1875 -7.609375 1.1875 -7.359375 1.203125 -7.125 C 1.03125 -6.40625 0.390625 -6.671875 0.390625 -6.328125 C 0.40625 -5.984375 1.125 -6.234375 1.296875 -5.359375 C 1.6875 -1.609375 3.0625 0.21875 6.046875 0.21875 C 8.65625 0.21875 9.078125 -2.15625 9.078125 -3.015625 C 9.078125 -3.234375 8.6875 -3.375 8.375 -3.375 C 8.046875 -3.375 7.9375 -3.234375 7.9375 -2.96875 C 7.9375 -2.75 7.953125 -2.484375 7.953125 -2.203125 C 7.953125 -1.296875 7.4375 -0.5 6.484375 -0.5 C 5.265625 -0.5 4.640625 -3.453125 4.640625 -6.546875 C 4.640625 -9.640625 5.125 -13.71875 7.21875 -13.71875 C 7.9375 -13.71875 8.171875 -13.03125 8.171875 -12.46875 L 8.171875 -12.078125 C 8.171875 -11.6875 8.5625 -11.4375 8.84375 -11.4375 C 9.265625 -11.4375 9.3125 -12.3125 9.3125 -12.609375 C 9.3125 -14.015625 8.09375 -14.484375 7.296875 -14.484375 Z M 7.296875 -14.484375 "/></g></g></g><g fill="#eb4d4d" fill-opacity="1"><g transform="translate(39.077515, 19.899212)"><g><path d="M 12.21875 -0.625 C 11.9375 -0.625 8.28125 -7.125 7.875 -9.265625 C 9.296875 -11.453125 10.859375 -13.625 11.5625 -13.859375 C 11.96875 -14 12.0625 -14.171875 12.0625 -14.3125 C 12.0625 -14.484375 11.921875 -14.640625 11.796875 -14.640625 C 11.734375 -14.640625 11.65625 -14.609375 11.609375 -14.59375 C 11.5625 -14.578125 11.171875 -14.484375 10.28125 -14.421875 C 9.828125 -14.421875 9.484375 -14.5625 9.125 -14.5625 C 8.8125 -14.5625 8.484375 -14.484375 8.1875 -14.34375 C 8.109375 -14.3125 8.078125 -14.203125 8.078125 -14.09375 C 8.078125 -13.953125 8.125 -13.84375 8.234375 -13.84375 C 8.265625 -13.84375 8.328125 -13.859375 8.34375 -13.875 C 8.5 -13.984375 8.734375 -14.015625 8.921875 -14.015625 C 9.25 -14.015625 9.578125 -13.828125 9.578125 -13.515625 C 9.578125 -13.390625 9.546875 -13.28125 9.46875 -13.140625 C 9.15625 -12.609375 5.265625 -6.578125 5.03125 -6.53125 C 5.125 -7.34375 5.203125 -12.546875 5.40625 -13.265625 C 5.5 -13.71875 5.984375 -13.75 6.140625 -13.78125 C 6.34375 -13.84375 6.484375 -14.015625 6.484375 -14.1875 C 6.484375 -14.390625 6.34375 -14.5 6.1875 -14.5 C 6.140625 -14.5 5.890625 -14.359375 4.875 -14.359375 C 2.4375 -14.359375 1.453125 -14.5625 1.234375 -14.5625 C 1.15625 -14.5625 1.046875 -14.515625 1.03125 -14.328125 C 1.03125 -14.203125 1.03125 -13.9375 1.296875 -13.875 C 1.671875 -13.78125 1.953125 -13.90625 1.953125 -13.671875 C 1.953125 -12.953125 1.921875 -10.046875 1.859375 -7.21875 C 1.625 -6.484375 1 -6.8125 0.984375 -6.46875 L 0.984375 -6.453125 C 0.984375 -6.078125 1.8125 -6.3125 1.8125 -5.1875 C 1.8125 -3.828125 1.71875 -2.5625 1.71875 -0.890625 C 1.71875 -0.640625 1.6875 -0.546875 1.4375 -0.515625 C 1.109375 -0.484375 0.984375 -0.40625 0.984375 -0.140625 C 1 0.03125 1.046875 0.078125 1.15625 0.078125 C 1.359375 0.078125 1.53125 0.03125 1.6875 0.03125 C 3 0.03125 4.21875 0.078125 5.421875 0.078125 C 5.609375 0.078125 5.640625 -0.0625 5.640625 -0.1875 C 5.640625 -0.375 5.578125 -0.515625 5.359375 -0.515625 C 5.265625 -0.515625 5.234375 -0.5 5.171875 -0.5 C 5.09375 -0.5 5.015625 -0.546875 5 -0.65625 C 4.96875 -0.96875 4.953125 -1.546875 4.953125 -2.1875 C 4.953125 -3.265625 5 -4.484375 5.046875 -4.609375 C 5.125 -4.765625 5.515625 -5.4375 6.0625 -6.34375 C 6.796875 -4.484375 8.53125 -1.234375 8.53125 -0.671875 C 8.53125 -0.640625 8.515625 -0.59375 8.5 -0.59375 C 8.328125 -0.546875 7.921875 -0.59375 7.921875 -0.265625 C 7.921875 -0.09375 8.015625 0.03125 8.1875 0.03125 C 8.265625 0.03125 8.34375 0.015625 8.4375 0.015625 C 9.25 0.015625 10.015625 -0.03125 10.765625 -0.03125 C 11.65625 -0.03125 12.203125 0 12.75 0 C 12.890625 0 12.890625 -0.109375 12.890625 -0.21875 C 12.890625 -0.515625 12.859375 -0.625 12.375 -0.625 Z M 12.21875 -0.625 "/></g></g></g></svg>