<svg xmlns="http://www.w3.org/2000/svg" xmlns:xlink="http://www.w3.org/1999/xlink" width="400" zoomAndPan="magnify" viewBox="0 0 300 52.499999" height="70" preserveAspectRatio="xMidYMid meet" version="1.0"><defs><g/></defs><g fill="#25412a" fill-opacity="1"><g transform="translate(17.491637, 46.111355)"><g><path d="M 21.984375 -17.25 C 21.171875 -17.34375 19.609375 -17.5625 18.046875 -17.5625 C 17.078125 -17.5625 14.171875 -17.390625 14.171875 -16.21875 C 14.171875 -15.828125 14.484375 -15.328125 14.796875 -15.328125 C 14.890625 -15.328125 14.984375 -15.375 15.0625 -15.46875 C 15.203125 -15.609375 15.421875 -16 16 -16 C 18.28125 -16 18.28125 -10.875 18.28125 -9.40625 C 18.28125 -5.3125 17.296875 -0.796875 14.9375 -0.796875 C 12.078125 -0.84375 10.34375 -8.5625 10.34375 -16.140625 C 10.34375 -20.859375 11.0625 -31.25 16.625 -31.25 C 19.609375 -31.25 18.09375 -25.09375 20.234375 -25.09375 C 21.703125 -25.09375 21.84375 -27.5 21.84375 -28.65625 C 21.84375 -31.515625 20.0625 -32.984375 16.578125 -32.984375 C 3.75 -32.984375 3.03125 -20.640625 2.859375 -17.703125 C 2.859375 -17.4375 2.8125 -16.984375 2.8125 -16.453125 C 2.40625 -14.796875 0.9375 -15.375 0.9375 -14.625 L 0.9375 -14.578125 C 0.984375 -13.78125 2.453125 -14.359375 2.859375 -12.4375 C 3.203125 -6.828125 5.21875 0.890625 13.59375 0.890625 C 21.078125 0.890625 22.109375 -8.828125 22.109375 -14.046875 C 22.109375 -15.953125 21.984375 -17.25 21.984375 -17.25 Z M 21.984375 -17.25 "/></g></g></g><g fill="#25412a" fill-opacity="1"><g transform="translate(41.202697, 46.111355)"><g><path d="M 25.5 -33.75 C 25.1875 -33.75 24.875 -33.484375 24.46875 -33.203125 C 23.890625 -32.8125 22.421875 -32.71875 21.21875 -32.71875 C 14.75 -32.71875 11.40625 -34.015625 8.78125 -34.015625 C 6.421875 -34.015625 3.4375 -32.625 2.859375 -30.3125 C 2.859375 -30.265625 2.8125 -30.171875 2.8125 -30.140625 C 2.8125 -29.828125 3.171875 -29.78125 3.390625 -29.78125 C 3.515625 -29.78125 3.65625 -29.828125 3.703125 -30.046875 C 4.1875 -31.828125 6.859375 -32.546875 8.375 -32.625 C 5.65625 -29.28125 5.609375 -27.640625 5.171875 -25.765625 C 4.546875 -23.1875 4.28125 -19.65625 4.09375 -15.953125 C 3.65625 -13.953125 2.046875 -14.796875 2 -13.953125 L 2 -13.90625 C 2 -13.1875 3.609375 -13.546875 3.875 -11.671875 C 3.65625 -7.4375 3.390625 -3.484375 2.625 -1.15625 C 2.3125 -0.265625 1.609375 0.40625 1.609375 0.578125 C 1.609375 0.9375 1.828125 1.03125 2.046875 1.03125 C 3.484375 1.03125 5.84375 -3.390625 6.28125 -5.578125 C 6.59375 -7.171875 6.859375 -10.15625 7 -13.28125 C 9 -13.28125 11.375 -13.234375 13.90625 -13.234375 L 15.875 -13.234375 C 15.6875 -8.5625 15.46875 -4.375 15.296875 -2.671875 C 15.203125 -1.96875 15.15625 -1.65625 14.890625 -0.984375 C 14.796875 -0.765625 14.3125 -0.671875 14.21875 -0.671875 C 14.046875 -0.625 13.90625 -0.21875 13.90625 0.09375 C 13.90625 0.40625 14.125 0.671875 14.359375 0.671875 C 16.265625 0.046875 18.359375 0 20.328125 0 C 23.453125 0 24.25 0.265625 24.5625 0.265625 C 24.828125 0.265625 25.09375 0.046875 25.09375 -0.3125 C 25.09375 -1.109375 24.46875 -1.15625 24.15625 -1.15625 C 23.9375 -1.15625 23.8125 -1.109375 23.71875 -1.109375 C 23.359375 -1.109375 23.359375 -2.140625 23.359375 -2.40625 C 23.1875 -5.390625 23 -8.609375 23 -11.5 C 23.359375 -13.640625 25.015625 -12.796875 25.046875 -13.6875 C 25.046875 -14.4375 23.453125 -14 23.09375 -15.921875 C 23.21875 -19.296875 23.8125 -30.671875 24.078125 -31.46875 C 24.109375 -31.65625 24.421875 -31.78125 25.671875 -32.09375 C 25.90625 -32.140625 26.21875 -32.59375 26.21875 -33.03125 C 26.21875 -33.484375 25.859375 -33.75 25.5 -33.75 Z M 10.96875 -30.453125 C 11.90625 -31.390625 12.96875 -32.234375 14.21875 -32.234375 C 14.53125 -32.234375 14.84375 -32.1875 15.203125 -32.046875 C 15.828125 -31.828125 16.046875 -27.640625 16.046875 -22.515625 C 16.046875 -20.015625 16 -17.25 15.921875 -14.625 C 13.328125 -14.53125 10.203125 -14.40625 7.046875 -14.40625 C 7.3125 -20.421875 7.796875 -27.28125 10.96875 -30.453125 Z M 10.96875 -30.453125 "/></g></g></g><g fill="#25412a" fill-opacity="1"><g transform="translate(69.682708, 46.111355)"><g><path d="M 35.484375 -33.296875 C 35.4375 -33.296875 35.390625 -33.25 35.34375 -33.25 C 33.609375 -32.859375 31.34375 -32.765625 29.15625 -32.765625 C 27.6875 -32.765625 26.296875 -32.8125 25.140625 -32.8125 C 24.15625 -32.8125 23.671875 -32.453125 23.453125 -31.15625 C 23.046875 -28.96875 19.390625 -5.890625 18.71875 -5.484375 C 17.828125 -10.515625 15.640625 -27.1875 15.640625 -32.71875 C 15.640625 -32.859375 15.609375 -32.9375 15.421875 -32.984375 C 14.703125 -32.859375 12.96875 -32.765625 11.0625 -32.765625 C 8.375 -32.765625 5.34375 -32.9375 4.1875 -33.4375 C 4.015625 -33.484375 3.796875 -33.65625 3.5625 -33.65625 C 3.25 -33.65625 3.078125 -33.078125 3.078125 -32.859375 C 3.078125 -32.546875 3.34375 -32.359375 3.609375 -32.234375 C 4.375 -31.921875 5.390625 -31.078125 5.703125 -30.578125 C 5.921875 -30.21875 6.015625 -29.015625 6.015625 -27.234375 C 6.015625 -24.5625 5.796875 -20.6875 5.578125 -16.8125 C 5.125 -14.890625 3.5625 -15.734375 3.515625 -14.890625 L 3.515625 -14.84375 C 3.515625 -14.171875 4.90625 -14.40625 5.34375 -12.921875 C 5 -7.9375 4.640625 -3.65625 4.59375 -3.171875 C 4.375 -0.53125 2.453125 -0.671875 2.28125 0.09375 C 2.28125 0.140625 2.234375 0.265625 2.234375 0.40625 C 2.234375 0.71875 2.28125 1.0625 2.578125 1.0625 C 2.625 1.0625 2.671875 1.0625 2.71875 1.03125 C 3.484375 0.53125 4.5 0.453125 5.484375 0.453125 C 6.203125 0.453125 6.859375 0.484375 7.359375 0.484375 C 7.984375 0.484375 8.15625 0.453125 8.15625 0.09375 C 8.15625 -0.359375 7.9375 -0.84375 7.484375 -0.84375 C 7.046875 -0.890625 6.953125 -1.296875 6.953125 -1.78125 C 7.125 -3.75 8.15625 -25.28125 8.515625 -28.3125 C 8.953125 -27.765625 11.984375 -3.25 12.265625 -1.03125 C 12.390625 0.09375 15.953125 0.40625 17.875 0.40625 C 19.34375 0.40625 20.46875 -0.265625 20.59375 -1.6875 C 20.734375 -3.203125 25.015625 -24.5625 25.671875 -28.359375 C 25.671875 -26.796875 25.625 -24.703125 25.625 -22.421875 C 25.625 -15.15625 25.71875 -5.75 25.765625 -3.703125 C 25.765625 -2.578125 25.765625 -1.375 25.546875 -0.9375 C 25.40625 -0.765625 25.328125 -0.359375 25.328125 -0.046875 C 25.328125 0.09375 25.328125 0.21875 25.40625 0.3125 C 25.71875 0.671875 31.03125 0.3125 34.1875 2.359375 C 34.328125 2.5 34.453125 2.453125 34.546875 2.359375 C 34.6875 2.234375 34.90625 1.609375 34.90625 1.375 L 34.90625 1.34375 C 34.765625 0.578125 33.34375 1.0625 33.34375 -1.296875 C 33.34375 -5.34375 33.171875 -8.828125 33.125 -12.34375 C 33.4375 -14.578125 35.125 -13.734375 35.125 -14.625 C 35.125 -15.46875 33.25 -14.84375 33.078125 -17.296875 C 33.078125 -25.328125 33.296875 -29.828125 33.703125 -30.484375 C 34.1875 -31.296875 35.265625 -31.734375 35.75 -32 C 36.109375 -32.1875 36.328125 -32.3125 36.328125 -32.546875 C 36.328125 -32.9375 35.84375 -33.296875 35.484375 -33.296875 Z M 35.484375 -33.296875 "/></g></g></g><g fill="#25412a" fill-opacity="1"><g transform="translate(108.235461, 46.111355)"><g><path d="M 25.015625 -33.171875 C 22.46875 -33.171875 6.0625 -33.296875 3.703125 -34.421875 C 3.515625 -34.453125 3.296875 -34.59375 3.078125 -34.59375 C 2.8125 -34.59375 2.671875 -34.28125 2.671875 -34.109375 C 2.671875 -33.75 2.890625 -33.25 3.25 -33.125 C 3.515625 -33.03125 5.75 -32.1875 5.75 -30.453125 C 5.703125 -29.90625 5.578125 -24.34375 5.4375 -16.84375 C 5.078125 -14.625 3.390625 -15.515625 3.390625 -14.625 L 3.390625 -14.578125 C 3.390625 -13.859375 5.03125 -14.265625 5.34375 -12.296875 C 5.265625 -8.34375 5.21875 -4.90625 5.21875 -2.625 C 5.21875 -0.140625 2.671875 0.40625 2.40625 1.15625 C 2.3125 1.296875 2.28125 1.46875 2.28125 1.65625 C 2.28125 1.921875 2.40625 2.140625 2.765625 2.140625 C 2.8125 2.140625 2.859375 2.140625 2.890625 2.09375 C 4.765625 0.765625 12.890625 0.453125 18.71875 0.453125 C 20.734375 0.453125 22.46875 0.53125 23.578125 0.53125 C 24.921875 0.53125 25.1875 -5.125 25.1875 -6.15625 C 25.1875 -6.6875 24.78125 -6.78125 24.390625 -6.78125 C 23.71875 -6.78125 23.5 -6.375 23.453125 -6.15625 C 23.453125 -5.078125 22.328125 -3.515625 21.3125 -2.546875 C 20.109375 -1.375 18.71875 -1.03125 17.125 -1.03125 C 13.8125 -1.0625 13.328125 -1.734375 13.1875 -3.921875 C 13.015625 -6.46875 12.921875 -11.671875 12.921875 -16.84375 C 14.9375 -16.984375 16.890625 -17.078125 18.859375 -17.078125 C 20.28125 -17.078125 21.390625 -14.53125 21.890625 -14.53125 C 22.0625 -14.53125 22.15625 -14.984375 22.15625 -15.5625 C 22.15625 -16.40625 22.015625 -17.515625 22.015625 -17.921875 C 22.015625 -18.328125 22.15625 -19.25 22.15625 -19.96875 C 22.15625 -20.46875 22.0625 -20.859375 21.890625 -20.859375 C 21.390625 -20.859375 20.5 -18.40625 18.8125 -18.40625 C 17.78125 -18.40625 15.421875 -18.359375 12.921875 -18.359375 C 12.921875 -23.5 13.015625 -28.359375 13.234375 -30.140625 C 13.28125 -30.890625 13.734375 -31.78125 14.796875 -31.78125 C 16.625 -31.78125 17.34375 -31.65625 18.8125 -31.65625 C 21.578125 -31.65625 22.90625 -30.140625 22.90625 -27.953125 C 22.90625 -27.734375 22.90625 -27.546875 22.875 -27.1875 C 22.875 -26.875 23 -26.390625 23.765625 -26.390625 C 24.25 -26.390625 24.515625 -26.65625 24.609375 -27.28125 C 24.734375 -28.125 24.703125 -29.515625 24.921875 -30.453125 C 25.046875 -31.109375 25.625 -32.40625 25.625 -32.671875 C 25.625 -33.078125 25.234375 -33.171875 25.015625 -33.171875 Z M 25.015625 -33.171875 "/></g></g></g><g fill="#25412a" fill-opacity="1"><g transform="translate(135.422951, 46.111355)"><g/></g></g><g fill="#25412a" fill-opacity="1"><g transform="translate(151.022331, 46.111355)"><g><path d="M 32.546875 2.71875 C 24.65625 2.71875 32.359375 -15.609375 18.984375 -15.609375 L 18.5 -15.609375 C 23.671875 -17.03125 28.125 -20.375 28.125 -26.125 C 28.125 -29.78125 25.984375 -33.796875 20.109375 -33.796875 C 19.4375 -33.796875 9.8125 -33.203125 6.234375 -33.203125 C 4.8125 -33.203125 4.140625 -33.34375 3.515625 -33.34375 C 2.859375 -33.34375 2.671875 -33.171875 2.671875 -32.90625 C 2.671875 -32 3.515625 -31.609375 3.796875 -31.609375 C 5.4375 -31.296875 5.484375 -30.046875 5.484375 -28.65625 C 5.484375 -27.109375 5.390625 -22.375 5.265625 -17.390625 C 4.953125 -15.15625 3.25 -16 3.203125 -15.109375 C 3.203125 -14.359375 4.765625 -14.796875 5.171875 -13.015625 C 5.125 -9 5.078125 -5.75 5.078125 -2.5 C 5.078125 -1.46875 4.953125 -1.46875 4.09375 -1.421875 C 3.96875 -1.421875 3.390625 -1.03125 3.390625 -0.359375 C 3.390625 -0.171875 3.65625 0.046875 3.921875 0.046875 C 5.96875 0.046875 12.65625 0 13.59375 0.046875 C 14.171875 0.046875 14.4375 -0.046875 14.4375 -0.53125 C 14.4375 -0.984375 14.21875 -1.515625 13.5 -1.515625 C 13.5 -1.515625 12.796875 -1.515625 12.796875 -2.234375 C 12.796875 -3.25 12.53125 -10.03125 12.53125 -16.890625 C 12.53125 -23.5 12.84375 -30.09375 14 -31.515625 C 14.4375 -32.1875 16.671875 -32.3125 17.34375 -32.3125 C 19.25 -32.3125 21.359375 -31.515625 21.359375 -28.171875 C 21.359375 -22.421875 19.078125 -17.15625 12.75 -15.78125 C 12.703125 -15.734375 12.65625 -15.640625 12.65625 -15.515625 C 12.65625 -15.109375 12.921875 -14.484375 13.953125 -14.484375 C 24.65625 -14.484375 14.09375 3.703125 30.359375 3.703125 C 31.03125 3.703125 31.78125 3.65625 32.546875 3.609375 C 32.90625 3.5625 33.171875 3.4375 33.171875 3.078125 C 33.171875 2.765625 32.859375 2.71875 32.546875 2.71875 Z M 32.546875 2.71875 "/></g></g></g><g fill="#25412a" fill-opacity="1"><g transform="translate(182.845064, 46.111355)"><g><path d="M 23.984375 -30.796875 C 24.34375 -30.84375 24.875 -31.203125 24.875 -32 L 24.875 -32.046875 C 24.875 -32.1875 24.828125 -32.453125 24.34375 -32.453125 C 23.765625 -32.453125 23.3125 -32.359375 22.875 -32.359375 C 21.578125 -32.359375 19.921875 -32.5 19.34375 -32.5 C 18.765625 -32.5 18.5 -31.78125 18.5 -31.46875 C 18.5 -31.15625 18.71875 -30.71875 19.03125 -30.71875 C 19.296875 -30.71875 19.484375 -30.84375 19.703125 -30.84375 C 19.921875 -30.84375 20.109375 -30.765625 20.15625 -30.40625 C 20.328125 -26.296875 20.46875 -22.734375 20.46875 -19.609375 C 20.46875 -12.4375 19.875 -7.625 18.59375 -4.375 C 17.921875 -2.71875 17.078125 -0.765625 15.25 -0.765625 C 13.28125 -0.765625 12.4375 -2.1875 12.21875 -6.546875 C 12.03125 -10.296875 11.859375 -15.25 11.859375 -20.109375 C 11.859375 -23.3125 11.953125 -26.4375 12.125 -29.15625 C 12.265625 -30.765625 12.296875 -30.9375 13.234375 -30.9375 C 13.78125 -30.9375 13.90625 -31.5625 13.90625 -32.09375 C 13.90625 -32.453125 13.90625 -32.859375 13.59375 -32.859375 C 13.375 -32.859375 12.96875 -32.71875 12.703125 -32.71875 C 11.234375 -32.671875 9.359375 -32.625 7.578125 -32.625 C 5.125 -32.625 4.1875 -32.859375 3.75 -32.859375 C 3.515625 -32.859375 3.296875 -32.765625 3.296875 -32.359375 C 3.296875 -31.734375 3.34375 -30.84375 3.921875 -30.84375 L 4.328125 -30.84375 C 4.546875 -30.84375 4.59375 -30.671875 4.59375 -30.453125 C 4.59375 -25.9375 4.375 -21.671875 4.375 -17.34375 C 4.015625 -15.5625 2.453125 -16.21875 2.453125 -15.375 C 2.5 -14.671875 3.921875 -15.0625 4.40625 -13.546875 C 4.5 -11.015625 4.6875 -8.46875 4.953125 -6.234375 C 5.609375 -0.984375 9.578125 0.984375 14.359375 0.984375 C 18.09375 0.984375 20.0625 -0.984375 21.171875 -4.28125 C 22.015625 -6.828125 22.515625 -10.078125 22.828125 -13.375 C 23.265625 -15.25 24.828125 -14.4375 24.875 -15.296875 C 24.875 -16 23.453125 -15.6875 23.046875 -17.203125 C 23.140625 -19.03125 23.140625 -20.859375 23.140625 -22.515625 C 23.140625 -26.125 23.046875 -28.96875 23.046875 -30.046875 C 23.046875 -30.71875 23.3125 -30.796875 23.53125 -30.796875 Z M 23.984375 -30.796875 "/></g></g></g><g fill="#25412a" fill-opacity="1"><g transform="translate(209.319451, 46.111355)"><g><path d="M 24.78125 -7.21875 C 24.296875 -7.21875 23.40625 -7.09375 23.3125 -6.6875 C 23.265625 -5.609375 22.59375 -4.375 22.015625 -3.65625 C 20.546875 -1.875 18.453125 -1.109375 16.09375 -1.109375 C 12.796875 -1.15625 13.1875 -1.828125 13.0625 -4.015625 C 13.0625 -4.328125 12.96875 -7.84375 12.921875 -12.296875 C 13.1875 -14.578125 14.9375 -13.734375 14.9375 -14.625 C 14.9375 -15.421875 13.234375 -14.890625 12.890625 -16.984375 C 12.890625 -24.34375 13.109375 -32.1875 13.859375 -32.3125 C 14.21875 -32.359375 15.515625 -32.3125 15.515625 -32.90625 C 15.515625 -34.015625 7.484375 -33.125 3.5625 -34.5 C 3.390625 -34.546875 3.171875 -34.6875 2.9375 -34.6875 C 2.671875 -34.6875 2.546875 -34.375 2.546875 -34.1875 C 2.546875 -33.828125 2.765625 -33.34375 3.125 -33.203125 C 3.390625 -33.125 5.609375 -32.28125 5.609375 -30.53125 L 5.609375 -30.40625 C 5.578125 -30.046875 5.4375 -23.53125 5.3125 -16.9375 C 4.90625 -14.890625 3.296875 -15.6875 3.296875 -14.84375 L 3.296875 -14.796875 C 3.296875 -14.09375 4.8125 -14.4375 5.21875 -12.75 C 5.125 -9.046875 5.078125 -5.921875 5.078125 -2.859375 C 5.078125 -0.140625 2.5 0.140625 2.28125 1.0625 C 2.28125 1.109375 2.234375 1.25 2.234375 1.375 C 2.234375 1.734375 2.3125 2.046875 2.625 2.046875 C 2.671875 2.046875 2.71875 2.046875 2.765625 2 C 4.59375 0.671875 12.53125 0.359375 18.328125 0.359375 C 20.46875 0.359375 22.28125 0.453125 23.453125 0.453125 C 24.828125 0.453125 25.046875 -4.640625 25.046875 -6.6875 C 25.046875 -7 24.96875 -7.171875 24.78125 -7.21875 Z M 24.78125 -7.21875 "/></g></g></g><g fill="#25412a" fill-opacity="1"><g transform="translate(234.813295, 46.111355)"><g><path d="M 25.015625 -33.171875 C 22.46875 -33.171875 6.0625 -33.296875 3.703125 -34.421875 C 3.515625 -34.453125 3.296875 -34.59375 3.078125 -34.59375 C 2.8125 -34.59375 2.671875 -34.28125 2.671875 -34.109375 C 2.671875 -33.75 2.890625 -33.25 3.25 -33.125 C 3.515625 -33.03125 5.75 -32.1875 5.75 -30.453125 C 5.703125 -29.90625 5.578125 -24.34375 5.4375 -16.84375 C 5.078125 -14.625 3.390625 -15.515625 3.390625 -14.625 L 3.390625 -14.578125 C 3.390625 -13.859375 5.03125 -14.265625 5.34375 -12.296875 C 5.265625 -8.34375 5.21875 -4.90625 5.21875 -2.625 C 5.21875 -0.140625 2.671875 0.40625 2.40625 1.15625 C 2.3125 1.296875 2.28125 1.46875 2.28125 1.65625 C 2.28125 1.921875 2.40625 2.140625 2.765625 2.140625 C 2.8125 2.140625 2.859375 2.140625 2.890625 2.09375 C 4.765625 0.765625 12.890625 0.453125 18.71875 0.453125 C 20.734375 0.453125 22.46875 0.53125 23.578125 0.53125 C 24.921875 0.53125 25.1875 -5.125 25.1875 -6.15625 C 25.1875 -6.6875 24.78125 -6.78125 24.390625 -6.78125 C 23.71875 -6.78125 23.5 -6.375 23.453125 -6.15625 C 23.453125 -5.078125 22.328125 -3.515625 21.3125 -2.546875 C 20.109375 -1.375 18.71875 -1.03125 17.125 -1.03125 C 13.8125 -1.0625 13.328125 -1.734375 13.1875 -3.921875 C 13.015625 -6.46875 12.921875 -11.671875 12.921875 -16.84375 C 14.9375 -16.984375 16.890625 -17.078125 18.859375 -17.078125 C 20.28125 -17.078125 21.390625 -14.53125 21.890625 -14.53125 C 22.0625 -14.53125 22.15625 -14.984375 22.15625 -15.5625 C 22.15625 -16.40625 22.015625 -17.515625 22.015625 -17.921875 C 22.015625 -18.328125 22.15625 -19.25 22.15625 -19.96875 C 22.15625 -20.46875 22.0625 -20.859375 21.890625 -20.859375 C 21.390625 -20.859375 20.5 -18.40625 18.8125 -18.40625 C 17.78125 -18.40625 15.421875 -18.359375 12.921875 -18.359375 C 12.921875 -23.5 13.015625 -28.359375 13.234375 -30.140625 C 13.28125 -30.890625 13.734375 -31.78125 14.796875 -31.78125 C 16.625 -31.78125 17.34375 -31.65625 18.8125 -31.65625 C 21.578125 -31.65625 22.90625 -30.140625 22.90625 -27.953125 C 22.90625 -27.734375 22.90625 -27.546875 22.875 -27.1875 C 22.875 -26.875 23 -26.390625 23.765625 -26.390625 C 24.25 -26.390625 24.515625 -26.65625 24.609375 -27.28125 C 24.734375 -28.125 24.703125 -29.515625 24.921875 -30.453125 C 25.046875 -31.109375 25.625 -32.40625 25.625 -32.671875 C 25.625 -33.078125 25.234375 -33.171875 25.015625 -33.171875 Z M 25.015625 -33.171875 "/></g></g></g><g fill="#25412a" fill-opacity="1"><g transform="translate(262.000792, 46.111355)"><g><path d="M 15.515625 -20.0625 C 15.203125 -20.0625 14.75 -19.796875 14.171875 -19.796875 C 13.859375 -19.796875 13.546875 -19.875 13.15625 -20.109375 C 10.15625 -23.1875 7.21875 -25.671875 7.21875 -27.640625 C 7.265625 -30.265625 8.609375 -32.28125 12.703125 -32.28125 C 15.921875 -32.28125 16.453125 -30 16.453125 -28.265625 C 16.453125 -27.5 16.3125 -26.921875 16.3125 -26.390625 C 16.3125 -25.984375 16.578125 -25.859375 16.8125 -25.859375 C 16.9375 -25.859375 17.078125 -25.90625 17.078125 -25.984375 C 17.296875 -28.84375 19.078125 -32 19.078125 -32.859375 C 19.078125 -32.9375 19.078125 -32.984375 19.03125 -33.03125 C 18.953125 -33.171875 16.359375 -33.75 13.328125 -33.75 C 8.828125 -33.75 3.296875 -32.5 3.296875 -26.609375 C 3.296875 -22.59375 4.8125 -19.53125 6.734375 -16.984375 C 6.90625 -16.625 6.953125 -16.359375 6.953125 -16.09375 C 6.953125 -15.25 6.234375 -14.796875 6.234375 -14.40625 C 6.234375 -14.171875 6.515625 -14 6.6875 -14 C 7 -14 7.484375 -14.3125 8.109375 -14.3125 C 8.953125 -14.3125 9.40625 -13.6875 9.890625 -13.1875 C 12.265625 -10.65625 14.359375 -8.46875 14.359375 -5.75 C 14.359375 -1.65625 9.859375 -1.25 9.578125 -1.25 C 6.90625 -1.25 5.03125 -2.859375 5.03125 -5.21875 C 5.03125 -6.828125 5.890625 -8.78125 7.984375 -10.875 C 8.203125 -11.09375 8.25 -11.28125 8.25 -11.40625 C 8.25 -11.984375 7.359375 -12.078125 7 -12.078125 C 5.171875 -12.078125 2.28125 -10.46875 2.140625 -10.34375 C 1.6875 -9.9375 1.375 -8.78125 1.375 -7.40625 C 1.375 -4.28125 3.125 0 9.546875 0 C 14.890625 0 19.171875 -3.96875 19.171875 -8.953125 C 19.171875 -12.125 17.5625 -14.9375 15.515625 -17.4375 C 15.375 -17.703125 15.328125 -17.921875 15.328125 -18.140625 C 15.328125 -18.90625 15.953125 -19.296875 15.953125 -19.65625 C 15.953125 -19.875 15.6875 -20.0625 15.515625 -20.0625 Z M 15.515625 -20.0625 "/></g></g></g></svg>