<svg xmlns="http://www.w3.org/2000/svg" xmlns:xlink="http://www.w3.org/1999/xlink" width="820" zoomAndPan="magnify" viewBox="0 0 615 207.75" height="277" preserveAspectRatio="xMidYMid meet" version="1.0"><defs><g/></defs><g fill="#f89c23" fill-opacity="0.7608"><g transform="translate(55.897134, 184.258177)"><g><path d="M 20.125 -62.09375 C 17.8125 -60.46875 13.078125 -58.375 10 -56.203125 C 8.25 -54.984375 3.640625 -51.109375 5.046875 -49.125 C 5.5625 -48.375 6.796875 -47.859375 7.375 -48.265625 C 8.125 -48.796875 7.390625 -49.65625 8.65625 -50.53125 C 9.0625 -50.828125 9.703125 -51.140625 10.765625 -51.40625 C 12.453125 -51.484375 17.546875 -46.375 21.828125 -40.296875 C 26.90625 -33.078125 30.921875 -24.34375 26.6875 -21.375 C 21.046875 -17.390625 9.625 -28 0.328125 -41.203125 C -8.609375 -53.90625 -15.484375 -68.953125 -13.390625 -75.875 C -13.171875 -76.78125 -12.046875 -79.421875 -10.125 -80.765625 C -8.0625 -82.234375 -5.015625 -82.125 -1.109375 -76.5625 C -0.171875 -75.234375 0.15625 -74.609375 0.625 -73.9375 C 1.796875 -72.28125 2.734375 -70.953125 4.3125 -72.0625 C 5.5625 -72.9375 5.5 -73.875 5.421875 -74.203125 C 2.9375 -78.796875 -1.265625 -84.90625 -1.15625 -90.078125 C -1.203125 -90.28125 -1.265625 -90.375 -1.375 -90.546875 C -1.5 -90.703125 -1.609375 -90.875 -1.8125 -90.984375 C -1.953125 -91 -3.015625 -90.234375 -4.515625 -89.1875 C -7.515625 -87.078125 -11.859375 -83.90625 -12.609375 -83.375 C -31.65625 -69.859375 -26.9375 -49.578125 -16.546875 -34.796875 C -14.609375 -30.8125 -18.484375 -29.953125 -17.4375 -28.46875 C -16.3125 -26.875 -13.484375 -29.75 -11.328125 -27.546875 C -3.125 -17.671875 10.953125 -5.609375 26.40625 -16.46875 C 40.09375 -26.109375 29.21875 -46.890625 22.03125 -57.09375 C 20.875 -58.765625 20.890625 -58.90625 23.375 -61.015625 C 24.46875 -61.921875 24.328125 -63.171875 23.859375 -63.828125 C 23.390625 -64.5 22.875 -64.53125 22.46875 -64.234375 C 21.546875 -63.59375 20.953125 -62.671875 20.125 -62.09375 Z M 20.125 -62.09375 "/></g></g></g><g fill="#f89c23" fill-opacity="0.7608"><g transform="translate(98.798848, 153.364714)"><g><path d="M 16.796875 -94.859375 C 16.171875 -94.546875 15.8125 -93.6875 15.265625 -92.734375 C 14.5 -91.296875 11.625 -89.609375 9.1875 -88.359375 C -3.9375 -81.671875 -12.0625 -80.828125 -17.40625 -78.109375 C -22.1875 -75.65625 -26.828125 -69.75 -25.578125 -64.453125 C -25.546875 -64.375 -25.5625 -64.140625 -25.515625 -64.046875 C -25.1875 -63.421875 -24.40625 -63.703125 -23.953125 -63.9375 C -23.6875 -64.0625 -23.453125 -64.296875 -23.609375 -64.78125 C -24.453125 -68.921875 -19.75 -73.140625 -16.78125 -74.875 C -18.84375 -65.28125 -17.203125 -61.890625 -16.171875 -57.640625 C -14.765625 -51.734375 -11.671875 -44.328125 -8.203125 -36.640625 C -7.015625 -32.09375 -11.171875 -32.15625 -10.375 -30.390625 L -10.34375 -30.296875 C -9.59375 -28.859375 -6.703125 -31.234375 -4.234375 -27.71875 C -0.28125 -18.875 3.28125 -10.578125 4.125 -5.078125 C 4.421875 -2.953125 3.65625 -0.84375 3.84375 -0.484375 C 4.21875 0.234375 4.765625 0.1875 5.21875 -0.046875 C 8.125 -1.515625 8.328125 -12.921875 6.984375 -17.796875 C 5.96875 -21.390625 3.40625 -27.734375 0.453125 -34.203125 C 4.53125 -36.28125 9.359375 -38.625 14.515625 -41.265625 L 18.5 -43.296875 C 22.984375 -33.625 26.859375 -24.875 28.25 -21.25 C 28.8125 -19.71875 29.0625 -19.03125 29.203125 -17.40625 C 29.25 -16.859375 28.34375 -16.15625 28.15625 -16.0625 C 27.84375 -15.796875 27.984375 -14.859375 28.3125 -14.21875 C 28.625 -13.59375 29.359375 -13.28125 29.8125 -13.515625 C 33.0625 -16.765625 37.265625 -19.015625 41.25 -21.046875 C 47.578125 -24.265625 49.484375 -24.5625 50.125 -24.890625 C 50.65625 -25.15625 50.96875 -25.90625 50.609375 -26.609375 C 49.765625 -28.234375 48.453125 -27.703125 47.8125 -27.375 C 47.375 -27.140625 47.140625 -26.890625 46.953125 -26.796875 C 46.234375 -26.4375 45.171875 -28.53125 44.890625 -29.078125 C 41.453125 -34.9375 37.765625 -41.265625 34.765625 -47.15625 C 33.265625 -51.875 37.5 -51.84375 36.65625 -53.703125 C 35.875 -55.25 33.078125 -52.671875 30.375 -56.1875 C 27.140625 -63.21875 16.546875 -86.859375 16.265625 -88.78125 C 16.171875 -89.1875 16.65625 -89.78125 18.859375 -91.703125 C 19.265625 -92.03125 19.4375 -93.265625 18.96875 -94.171875 C 18.515625 -95.078125 17.515625 -95.234375 16.796875 -94.859375 Z M -9.28125 -73.140625 C -8.34375 -76 -7.0625 -78.828125 -4.53125 -80.125 C -3.890625 -80.453125 -3.203125 -80.671875 -2.34375 -80.765625 C -0.84375 -80.96875 3.953125 -72.703125 9.25 -62.296875 C 11.84375 -57.234375 14.609375 -51.5625 17.140625 -46.140625 C 12 -43.28125 5.796875 -39.78125 -0.609375 -36.515625 C -6.296875 -49 -12.421875 -63.421875 -9.28125 -73.140625 Z M -9.28125 -73.140625 "/></g></g></g><g fill="#f89c23" fill-opacity="0.7608"><g transform="translate(151.143551, 124.982463)"><g><path d="M 55.265625 -96.09375 C 55.171875 -96.0625 55.109375 -95.921875 55.015625 -95.890625 C 51.484375 -93.875 46.578125 -92.171875 41.8125 -90.71875 C 38.609375 -89.75 35.578125 -88.921875 33.046875 -88.15625 C 30.921875 -87.515625 30.09375 -86.40625 30.4375 -83.4375 C 31.03125 -78.40625 38.359375 -25.671875 37.1875 -24.34375 C 31.90625 -34.75 16.078125 -69.640625 12.40625 -81.6875 C 12.328125 -81.984375 12.1875 -82.140625 11.765625 -82.109375 C 10.296875 -81.359375 6.546875 -80 2.375 -78.734375 C -3.453125 -76.953125 -10.171875 -75.34375 -13.015625 -75.640625 C -13.4375 -75.625 -14.046875 -75.875 -14.515625 -75.71875 C -15.21875 -75.515625 -15.21875 -74.109375 -15.0625 -73.640625 C -14.859375 -72.953125 -14.15625 -72.75 -13.5 -72.640625 C -11.640625 -72.453125 -8.84375 -71.296875 -7.828125 -70.421875 C -7.109375 -69.78125 -6.125 -67.234375 -4.9375 -63.34375 C -3.171875 -57.515625 -1.078125 -48.9375 1 -40.3125 C 1.296875 -35.84375 -2.640625 -36.65625 -2.203125 -34.78125 L -2.15625 -34.671875 C -1.71875 -33.234375 1.140625 -34.625 3.09375 -31.71875 C 5.625 -20.609375 7.6875 -11.046875 7.90625 -9.9375 C 9.15625 -4.0625 4.90625 -3.078125 5.015625 -1.3125 C 5.046875 -1.21875 5.03125 -0.90625 5.125 -0.625 C 5.328125 0.078125 5.65625 0.828125 6.34375 0.609375 C 6.421875 0.59375 6.53125 0.5625 6.59375 0.4375 C 7.9375 -1.125 10.109375 -2.015625 12.234375 -2.65625 C 13.796875 -3.140625 15.296875 -3.484375 16.359375 -3.8125 C 17.71875 -4.21875 18.078125 -4.4375 17.84375 -5.21875 C 17.546875 -6.1875 16.734375 -7.109375 15.765625 -6.8125 C 14.765625 -6.609375 14.296875 -7.421875 13.96875 -8.5 C 13.0625 -12.890625 1.03125 -60.5 -0.21875 -67.328125 C 1.125 -66.46875 23.96875 -15.015625 26.046875 -10.359375 C 27.078125 -8.03125 35.046875 -9.71875 39.21875 -10.984375 C 42.4375 -11.96875 44.421875 -14.140625 43.765625 -17.34375 C 43.046875 -20.734375 38.21875 -70.109375 37.171875 -78.796875 C 38.203125 -75.40625 39.5 -70.796875 41 -65.859375 C 45.8125 -50.015625 52.25 -29.578125 53.703125 -25.140625 C 54.4375 -22.71875 55.25 -20.078125 55.046875 -18.953125 C 54.875 -18.46875 54.9375 -17.5625 55.140625 -16.875 C 55.234375 -16.59375 55.3125 -16.296875 55.578125 -16.15625 C 56.5 -15.59375 67.8125 -19.890625 76.078125 -17.515625 C 76.46875 -17.3125 76.734375 -17.484375 76.859375 -17.75 C 77.0625 -18.125 77.140625 -19.625 76.984375 -20.125 L 76.96875 -20.203125 C 76.15625 -21.796875 73.375 -19.765625 71.8125 -24.90625 C 69.125 -33.75 66.4375 -41.203125 64 -48.859375 C 63.203125 -53.921875 67.453125 -53.203125 66.859375 -55.15625 C 66.296875 -56.984375 62.640625 -54.375 60.609375 -59.625 C 55.296875 -77.09375 52.8125 -87.0625 53.234375 -88.78125 C 53.78125 -90.859375 55.828125 -92.53125 56.71875 -93.4375 C 57.359375 -94.0625 57.765625 -94.515625 57.625 -95 C 57.359375 -95.875 56.046875 -96.328125 55.265625 -96.09375 Z M 55.265625 -96.09375 "/></g></g></g><g fill="#f89c23" fill-opacity="0.7608"><g transform="translate(230.152753, 101.639034)"><g><path d="M 47.359375 -81.90625 C 41.609375 -81.203125 4.484375 -76.984375 -1.171875 -78.84375 C -1.59375 -78.890625 -2.125 -79.125 -2.625 -79.0625 C -3.234375 -79 -3.453125 -78.25 -3.40625 -77.84375 C -3.296875 -77.03125 -2.671875 -75.984375 -1.828125 -75.796875 C -1.203125 -75.65625 4.078125 -74.359375 4.5625 -70.4375 C 4.625 -69.21875 5.859375 -56.578125 7.625 -39.609375 C 7.4375 -34.46875 3.359375 -36.015625 3.609375 -34 L 3.625 -33.890625 C 3.8125 -32.28125 7.4375 -33.65625 8.6875 -29.3125 C 9.578125 -20.296875 10.421875 -12.53125 11.046875 -7.375 C 11.75 -1.734375 6.15625 0.171875 5.765625 1.953125 C 5.59375 2.28125 5.546875 2.6875 5.59375 3.09375 C 5.671875 3.703125 6.03125 4.171875 6.84375 4.078125 C 6.9375 4.0625 7.046875 4.046875 7.125 3.9375 C 10.984375 0.375 29.25 -2.546875 42.46875 -4.171875 C 47 -4.734375 50.9375 -5.015625 53.453125 -5.328125 C 56.484375 -5.703125 55.53125 -18.5625 55.25 -20.890625 C 55.09375 -22.109375 54.15625 -22.1875 53.265625 -22.078125 C 51.734375 -21.890625 51.359375 -20.921875 51.3125 -20.40625 C 51.609375 -17.984375 49.53125 -14.140625 47.484375 -11.640625 C 45.078125 -8.6875 42.0625 -7.5 38.421875 -7.0625 C 30.953125 -6.25 29.65625 -7.609375 28.75 -12.53125 C 27.640625 -18.21875 26 -29.984375 24.5625 -41.6875 C 29.0625 -42.546875 33.46875 -43.296875 37.90625 -43.828125 C 41.125 -44.234375 44.359375 -38.78125 45.453125 -38.921875 C 45.859375 -38.96875 45.9375 -40.015625 45.78125 -41.3125 C 45.546875 -43.234375 44.9375 -45.703125 44.828125 -46.625 C 44.71875 -47.515625 44.765625 -49.6875 44.5625 -51.296875 C 44.421875 -52.40625 44.109375 -53.28125 43.703125 -53.234375 C 42.609375 -53.09375 41.28125 -47.3125 37.453125 -46.84375 C 35.125 -46.546875 29.78125 -45.8125 24.140625 -45.109375 C 22.71875 -56.703125 21.578125 -67.703125 21.59375 -71.796875 C 21.484375 -73.546875 22.234375 -75.671875 24.65625 -75.96875 C 28.78125 -76.484375 30.4375 -76.359375 33.78125 -76.78125 C 40.03125 -77.546875 43.453125 -74.46875 44.046875 -69.546875 C 44.109375 -69.03125 44.171875 -68.625 44.171875 -67.8125 C 44.25 -67.109375 44.6875 -66.03125 46.40625 -66.234375 C 47.515625 -66.375 48.03125 -67.0625 48.0625 -68.484375 C 48.140625 -70.46875 47.65625 -73.5625 47.90625 -75.75 C 48.015625 -77.28125 48.96875 -80.375 48.90625 -80.984375 C 48.796875 -81.875 47.859375 -81.96875 47.359375 -81.90625 Z M 47.359375 -81.90625 "/></g></g></g><g fill="#f89c23" fill-opacity="0.7608"><g transform="translate(288.118908, 95.082379)"><g/></g></g><g fill="#f89c23" fill-opacity="0.7608"><g transform="translate(319.429373, 92.837701)"><g><path d="M 75.5625 8.765625 C 74.234375 8.609375 74.53125 6.390625 74.5 4.234375 C 74.5625 1.46875 75.359375 -7.859375 76.53125 -18.5625 C 77.875 -23.296875 81.375 -21.09375 81.609375 -22.90625 L 81.625 -23.015625 C 81.859375 -24.828125 77.984375 -24.109375 77.75 -28.734375 L 78.34375 -33.265625 C 80.25 -47.953125 82.484375 -61.296875 84.0625 -61.609375 C 85.40625 -61.84375 86.796875 -63 86.953125 -64.09375 C 87 -64.5 86.734375 -64.84375 86.328125 -64.90625 C 85.40625 -65.015625 83.609375 -64.421875 82.765625 -64.234375 C 81.53125 -64.1875 78.796875 -64.453125 75.78125 -64.84375 C 71.34375 -65.40625 67.078125 -66.453125 64.953125 -66.734375 C 62.75 -67.015625 61.546875 -66.46875 60.65625 -63.609375 C 59.109375 -58.6875 45.765625 -7.890625 44.140625 -7.1875 C 43.546875 -19.234375 44.265625 -31.84375 43.265625 -43.96875 C 42.734375 -51.59375 42.703125 -57.75 43.640625 -65 C 43.84375 -66.515625 44.015625 -67.921875 44.328125 -69.515625 C 44.359375 -69.8125 43.890625 -69.984375 43.171875 -70.078125 C 40.1875 -69.84375 35.296875 -70.078125 30.46875 -70.703125 C 26.84375 -71.171875 23.328125 -71.84375 20.890625 -72.75 C 20.5 -72.90625 20.109375 -73.0625 19.8125 -73.109375 C 19.109375 -73.1875 18.90625 -72.5 18.84375 -72 C 18.640625 -70.484375 22.59375 -69.359375 22.875 -67.390625 L 22.765625 -66.578125 C 22.328125 -63.15625 19.875 -49.953125 17.34375 -36.75 C 15.828125 -32.046875 12.359375 -34.546875 12.015625 -32.65625 L 12 -32.546875 C 11.796875 -30.9375 15.203125 -31.21875 15.53125 -27.375 C 13.40625 -16.578125 11.609375 -7.5 11.203125 -5.921875 C 10.21875 -2.25 11 -1.125 7.6875 -0.84375 C 6.546875 -0.78125 5.21875 -0.03125 5.015625 1.578125 C 4.921875 2.28125 5.328125 2.328125 5.734375 2.375 C 6.53125 2.484375 7.984375 2.359375 10 2.609375 C 12.609375 2.953125 14.40625 3.296875 16.328125 3.546875 C 17.234375 3.65625 17.84375 3.625 17.953125 2.828125 C 18.09375 1.71875 17.59375 0.140625 15.6875 -0.21875 C 14.78125 -0.34375 14.609375 -1.375 14.765625 -2.59375 C 15.859375 -6.34375 24 -53.3125 26.1875 -61.515625 C 26.9375 -60.1875 28.609375 -3.546875 28.671875 1.578125 C 28.65625 4.125 36.515625 5.84375 40.84375 6.40625 C 44.171875 6.828125 45.859375 5.53125 46.59375 2.34375 C 47.328125 -1.03125 61.390625 -49.390625 64.109375 -57.734375 C 63.46875 -53.71875 62.734375 -47.96875 61.921875 -41.75 C 59.734375 -24.921875 57.234375 -3.9375 56.65625 0.5 C 56.328125 3 56.171875 4.21875 54.578125 6.359375 C 54.328125 6.625 54.15625 7.109375 54.109375 7.515625 C 54.03125 8.109375 54.34375 8.890625 54.84375 8.953125 C 55.140625 8.984375 55.59375 8.734375 56.4375 8.53125 C 58.09375 8.359375 60.640625 8.484375 63.265625 8.8125 C 67.59375 9.375 71.0625 10.3125 74.6875 10.78125 C 75.890625 10.9375 77.828125 10.90625 78.015625 9.484375 C 77.984375 8.984375 77.6875 8.84375 77.203125 8.78125 C 76.59375 8.703125 76.046875 8.84375 75.5625 8.765625 Z M 75.5625 8.765625 "/></g></g></g><g fill="#f89c23" fill-opacity="0.7608"><g transform="translate(397.1027, 103.223352)"><g><path d="M 68.265625 -19.5 L 69.390625 -23.09375 C 71.765625 -30.75 73.421875 -50.75 61.609375 -54.421875 C 59.171875 -55.171875 56.4375 -55.59375 52.546875 -54.375 C 51.828125 -54.171875 51.46875 -53.65625 51.28125 -53.078125 C 50.921875 -51.90625 51.453125 -50.546875 52.046875 -50.375 C 52.125 -50.34375 52.234375 -50.3125 52.375 -50.390625 C 54.09375 -50.796875 55.421875 -50.9375 56.390625 -50.625 C 60.15625 -49.453125 59.4375 -45.109375 52.359375 -22.3125 C 49.015625 -11.5625 41.078125 11.84375 32.265625 9.09375 C 23.34375 6.328125 29.75 -18.078125 32.984375 -28.453125 C 36.03125 -38.25 44.46875 -60.609375 55.140625 -58.984375 C 56.3125 -58.625 57.234375 -59.515625 57.5 -60.375 C 57.671875 -60.953125 57.5 -61.4375 57.0625 -61.703125 C 30.953125 -69.8125 20.015625 -41.09375 17.828125 -35.09375 C 15.765625 -30.828125 12.65625 -33.515625 12.109375 -31.765625 L 12.078125 -31.65625 C 11.5 -29.828125 15.796875 -30.28125 14.921875 -24.71875 C 12.953125 -11.921875 12.28125 5.953125 31.203125 11.828125 C 48.15625 17.109375 58.640625 2.1875 64.3125 -9.875 C 66.375 -13.0625 69.96875 -11.625 70.46875 -12.84375 L 70.5 -12.953125 C 70.984375 -14.5 67.171875 -14.9375 68.265625 -19.5 Z M 68.265625 -19.5 "/></g></g></g><g fill="#f89c23" fill-opacity="0.7608"><g transform="translate(455.277808, 120.80834)"><g><path d="M 79.390625 -17.90625 C 84.71875 -28.75 86.859375 -42.0625 64.71875 -52.953125 C 60.609375 -54.96875 57.0625 -56.03125 53.78125 -57.640625 C 48.859375 -60.0625 43.515625 -63.6875 42.515625 -64.640625 L 42.421875 -64.6875 C 41.875 -64.953125 41.109375 -64.109375 40.78125 -63.453125 C 40.515625 -62.90625 40.703125 -62.59375 40.96875 -62.453125 C 42.03125 -61.375 43.640625 -59.796875 42.515625 -56.828125 C 41.3125 -53.921875 39.75 -50.515625 37.96875 -46.859375 C 35.1875 -41.21875 31.828125 -34.828125 28.453125 -28.671875 C 25.359375 -24.4375 22.890625 -28.140625 21.875 -26.359375 L 21.828125 -26.265625 C 21.109375 -24.8125 24.640625 -23.875 23.421875 -19.8125 C 16.78125 -8.140625 11.125 1.0625 11.078125 1.140625 C 9.109375 4.03125 6.734375 3.078125 5.15625 2.859375 C 4.984375 2.78125 4.734375 3 4.640625 3.1875 C 4.46875 3.546875 4.515625 4.140625 5.015625 4.5 C 7.3125 5.859375 9.53125 7.046875 11.71875 8.125 C 35.609375 19.859375 53.203125 17.21875 67.359375 1.53125 C 70.515625 -1.890625 72.859375 1.859375 73.875 0.21875 L 73.96875 0.03125 C 74.640625 -1.34375 71.109375 -2.625 73.171875 -6.8125 C 75.171875 -10.90625 77.59375 -14.265625 79.390625 -17.90625 Z M 28.546875 10.078125 C 28.125 9.984375 27.71875 9.90625 27.4375 9.765625 C 27.171875 9.625 26.9375 9.40625 27.078125 9.140625 C 27.671875 7.71875 32.578125 -3.21875 38.53125 -15.328125 C 46.875 -32.28125 57.28125 -51.625 60.46875 -50.28125 C 61.390625 -49.828125 62.234375 -49.515625 63.0625 -49.109375 C 70.796875 -45.296875 75.34375 -40.03125 65.71875 -20.4375 C 58.734375 -6.21875 46.421875 13.53125 28.546875 10.078125 Z M 28.546875 10.078125 "/></g></g></g><g fill="#f89c23" fill-opacity="0.7608"><g transform="translate(512.595759, 148.859655)"><g><path d="M 89.90625 -29.484375 C 85.15625 -32.796875 54.65625 -54.390625 51.671875 -59.546875 C 51.40625 -59.859375 51.15625 -60.390625 50.734375 -60.6875 C 50.234375 -61.03125 49.59375 -60.625 49.359375 -60.296875 C 48.890625 -59.625 48.65625 -58.421875 49.15625 -57.703125 C 49.546875 -57.203125 52.609375 -52.71875 50.359375 -49.46875 C 49.578125 -48.515625 42.078125 -38.265625 32.09375 -24.4375 C 28.515625 -20.734375 26.53125 -24.609375 25.359375 -22.9375 L 25.296875 -22.859375 C 24.375 -21.515625 27.984375 -20.140625 26 -16.0625 C 20.6875 -8.734375 16.125 -2.390625 13.171875 1.875 C 9.921875 6.53125 4.484375 4.234375 3 5.296875 C 2.65625 5.421875 2.34375 5.703125 2.109375 6.03125 C 1.765625 6.53125 1.71875 7.125 2.390625 7.59375 C 2.46875 7.65625 2.5625 7.71875 2.6875 7.671875 C 7.9375 7.609375 23.515625 17.578125 34.4375 25.1875 C 38.1875 27.796875 41.3125 30.21875 43.390625 31.671875 C 45.90625 33.40625 53.78125 23.1875 55.109375 21.265625 C 55.8125 20.265625 55.15625 19.5625 54.40625 19.046875 C 53.15625 18.171875 52.21875 18.640625 51.84375 19 C 50.453125 21 46.34375 22.46875 43.15625 22.96875 C 39.390625 23.578125 36.34375 22.453125 33.34375 20.359375 C 27.234375 15.984375 27.171875 14.078125 29.796875 9.828125 C 32.75 4.859375 39.359375 -5.03125 46.09375 -14.703125 C 50.015625 -12.34375 53.796875 -9.953125 57.46875 -7.390625 C 60.140625 -5.546875 58.921875 0.640625 59.84375 1.28125 C 60.171875 1.515625 60.921875 0.796875 61.671875 -0.28125 C 62.78125 -1.875 63.96875 -4.125 64.5 -4.875 C 65.015625 -5.625 66.484375 -7.203125 67.421875 -8.546875 C 68.046875 -9.453125 68.40625 -10.3125 68.078125 -10.546875 C 67.15625 -11.1875 62.3125 -7.75 59.140625 -9.953125 C 57.21875 -11.28125 52.734375 -14.296875 48.0625 -17.546875 C 54.734375 -27.125 61.21875 -36.078125 63.9375 -39.125 C 65.03125 -40.5 67.03125 -41.578125 69.03125 -40.1875 C 72.4375 -37.8125 73.59375 -36.640625 76.359375 -34.71875 C 81.53125 -31.125 82.03125 -26.546875 79.203125 -22.46875 C 78.90625 -22.046875 78.671875 -21.71875 78.125 -21.09375 C 77.734375 -20.515625 77.34375 -19.421875 78.765625 -18.4375 C 79.671875 -17.8125 80.515625 -17.953125 81.5 -19.015625 C 82.859375 -20.421875 84.546875 -23.0625 86.21875 -24.53125 C 87.3125 -25.609375 90.09375 -27.265625 90.4375 -27.765625 C 90.953125 -28.515625 90.3125 -29.203125 89.90625 -29.484375 Z M 89.90625 -29.484375 "/></g></g></g><g fill="#eb4d4d" fill-opacity="1"><g transform="translate(54.191705, 182.552742)"><g><path d="M 20.125 -62.09375 C 17.8125 -60.46875 13.078125 -58.375 10 -56.203125 C 8.25 -54.984375 3.640625 -51.109375 5.046875 -49.125 C 5.5625 -48.375 6.796875 -47.859375 7.375 -48.265625 C 8.125 -48.796875 7.390625 -49.65625 8.65625 -50.53125 C 9.0625 -50.828125 9.703125 -51.140625 10.765625 -51.40625 C 12.453125 -51.484375 17.546875 -46.375 21.828125 -40.296875 C 26.90625 -33.078125 30.921875 -24.34375 26.6875 -21.375 C 21.046875 -17.390625 9.625 -28 0.328125 -41.203125 C -8.609375 -53.90625 -15.484375 -68.953125 -13.390625 -75.875 C -13.171875 -76.78125 -12.046875 -79.421875 -10.125 -80.765625 C -8.0625 -82.234375 -5.015625 -82.125 -1.109375 -76.5625 C -0.171875 -75.234375 0.15625 -74.609375 0.625 -73.9375 C 1.796875 -72.28125 2.734375 -70.953125 4.3125 -72.0625 C 5.5625 -72.9375 5.5 -73.875 5.421875 -74.203125 C 2.9375 -78.796875 -1.265625 -84.90625 -1.15625 -90.078125 C -1.203125 -90.28125 -1.265625 -90.375 -1.375 -90.546875 C -1.5 -90.703125 -1.609375 -90.875 -1.8125 -90.984375 C -1.953125 -91 -3.015625 -90.234375 -4.515625 -89.1875 C -7.515625 -87.078125 -11.859375 -83.90625 -12.609375 -83.375 C -31.65625 -69.859375 -26.9375 -49.578125 -16.546875 -34.796875 C -14.609375 -30.8125 -18.484375 -29.953125 -17.4375 -28.46875 C -16.3125 -26.875 -13.484375 -29.75 -11.328125 -27.546875 C -3.125 -17.671875 10.953125 -5.609375 26.40625 -16.46875 C 40.09375 -26.109375 29.21875 -46.890625 22.03125 -57.09375 C 20.875 -58.765625 20.890625 -58.90625 23.375 -61.015625 C 24.46875 -61.921875 24.328125 -63.171875 23.859375 -63.828125 C 23.390625 -64.5 22.875 -64.53125 22.46875 -64.234375 C 21.546875 -63.59375 20.953125 -62.671875 20.125 -62.09375 Z M 20.125 -62.09375 "/></g></g></g><g fill="#eb4d4d" fill-opacity="1"><g transform="translate(97.093418, 151.659276)"><g><path d="M 16.796875 -94.859375 C 16.171875 -94.546875 15.8125 -93.6875 15.265625 -92.734375 C 14.5 -91.296875 11.625 -89.609375 9.1875 -88.359375 C -3.9375 -81.671875 -12.0625 -80.828125 -17.40625 -78.109375 C -22.1875 -75.65625 -26.828125 -69.75 -25.578125 -64.453125 C -25.546875 -64.375 -25.5625 -64.140625 -25.515625 -64.046875 C -25.1875 -63.421875 -24.40625 -63.703125 -23.953125 -63.9375 C -23.6875 -64.0625 -23.453125 -64.296875 -23.609375 -64.78125 C -24.453125 -68.921875 -19.75 -73.140625 -16.78125 -74.875 C -18.84375 -65.28125 -17.203125 -61.890625 -16.171875 -57.640625 C -14.765625 -51.734375 -11.671875 -44.328125 -8.203125 -36.640625 C -7.015625 -32.09375 -11.171875 -32.15625 -10.375 -30.390625 L -10.34375 -30.296875 C -9.59375 -28.859375 -6.703125 -31.234375 -4.234375 -27.71875 C -0.28125 -18.875 3.28125 -10.578125 4.125 -5.078125 C 4.421875 -2.953125 3.65625 -0.84375 3.84375 -0.484375 C 4.21875 0.234375 4.765625 0.1875 5.21875 -0.046875 C 8.125 -1.515625 8.328125 -12.921875 6.984375 -17.796875 C 5.96875 -21.390625 3.40625 -27.734375 0.453125 -34.203125 C 4.53125 -36.28125 9.359375 -38.625 14.515625 -41.265625 L 18.5 -43.296875 C 22.984375 -33.625 26.859375 -24.875 28.25 -21.25 C 28.8125 -19.71875 29.0625 -19.03125 29.203125 -17.40625 C 29.25 -16.859375 28.34375 -16.15625 28.15625 -16.0625 C 27.84375 -15.796875 27.984375 -14.859375 28.3125 -14.21875 C 28.625 -13.59375 29.359375 -13.28125 29.8125 -13.515625 C 33.0625 -16.765625 37.265625 -19.015625 41.25 -21.046875 C 47.578125 -24.265625 49.484375 -24.5625 50.125 -24.890625 C 50.65625 -25.15625 50.96875 -25.90625 50.609375 -26.609375 C 49.765625 -28.234375 48.453125 -27.703125 47.8125 -27.375 C 47.375 -27.140625 47.140625 -26.890625 46.953125 -26.796875 C 46.234375 -26.4375 45.171875 -28.53125 44.890625 -29.078125 C 41.453125 -34.9375 37.765625 -41.265625 34.765625 -47.15625 C 33.265625 -51.875 37.5 -51.84375 36.65625 -53.703125 C 35.875 -55.25 33.078125 -52.671875 30.375 -56.1875 C 27.140625 -63.21875 16.546875 -86.859375 16.265625 -88.78125 C 16.171875 -89.1875 16.65625 -89.78125 18.859375 -91.703125 C 19.265625 -92.03125 19.4375 -93.265625 18.96875 -94.171875 C 18.515625 -95.078125 17.515625 -95.234375 16.796875 -94.859375 Z M -9.28125 -73.140625 C -8.34375 -76 -7.0625 -78.828125 -4.53125 -80.125 C -3.890625 -80.453125 -3.203125 -80.671875 -2.34375 -80.765625 C -0.84375 -80.96875 3.953125 -72.703125 9.25 -62.296875 C 11.84375 -57.234375 14.609375 -51.5625 17.140625 -46.140625 C 12 -43.28125 5.796875 -39.78125 -0.609375 -36.515625 C -6.296875 -49 -12.421875 -63.421875 -9.28125 -73.140625 Z M -9.28125 -73.140625 "/></g></g></g><g fill="#eb4d4d" fill-opacity="1"><g transform="translate(149.438121, 123.277024)"><g><path d="M 55.265625 -96.09375 C 55.171875 -96.0625 55.109375 -95.921875 55.015625 -95.890625 C 51.484375 -93.875 46.578125 -92.171875 41.8125 -90.71875 C 38.609375 -89.75 35.578125 -88.921875 33.046875 -88.15625 C 30.921875 -87.515625 30.09375 -86.40625 30.4375 -83.4375 C 31.03125 -78.40625 38.359375 -25.671875 37.1875 -24.34375 C 31.90625 -34.75 16.078125 -69.640625 12.40625 -81.6875 C 12.328125 -81.984375 12.1875 -82.140625 11.765625 -82.109375 C 10.296875 -81.359375 6.546875 -80 2.375 -78.734375 C -3.453125 -76.953125 -10.171875 -75.34375 -13.015625 -75.640625 C -13.4375 -75.625 -14.046875 -75.875 -14.515625 -75.71875 C -15.21875 -75.515625 -15.21875 -74.109375 -15.0625 -73.640625 C -14.859375 -72.953125 -14.15625 -72.75 -13.5 -72.640625 C -11.640625 -72.453125 -8.84375 -71.296875 -7.828125 -70.421875 C -7.109375 -69.78125 -6.125 -67.234375 -4.9375 -63.34375 C -3.171875 -57.515625 -1.078125 -48.9375 1 -40.3125 C 1.296875 -35.84375 -2.640625 -36.65625 -2.203125 -34.78125 L -2.15625 -34.671875 C -1.71875 -33.234375 1.140625 -34.625 3.09375 -31.71875 C 5.625 -20.609375 7.6875 -11.046875 7.90625 -9.9375 C 9.15625 -4.0625 4.90625 -3.078125 5.015625 -1.3125 C 5.046875 -1.21875 5.03125 -0.90625 5.125 -0.625 C 5.328125 0.078125 5.65625 0.828125 6.34375 0.609375 C 6.421875 0.59375 6.53125 0.5625 6.59375 0.4375 C 7.9375 -1.125 10.109375 -2.015625 12.234375 -2.65625 C 13.796875 -3.140625 15.296875 -3.484375 16.359375 -3.8125 C 17.71875 -4.21875 18.078125 -4.4375 17.84375 -5.21875 C 17.546875 -6.1875 16.734375 -7.109375 15.765625 -6.8125 C 14.765625 -6.609375 14.296875 -7.421875 13.96875 -8.5 C 13.0625 -12.890625 1.03125 -60.5 -0.21875 -67.328125 C 1.125 -66.46875 23.96875 -15.015625 26.046875 -10.359375 C 27.078125 -8.03125 35.046875 -9.71875 39.21875 -10.984375 C 42.4375 -11.96875 44.421875 -14.140625 43.765625 -17.34375 C 43.046875 -20.734375 38.21875 -70.109375 37.171875 -78.796875 C 38.203125 -75.40625 39.5 -70.796875 41 -65.859375 C 45.8125 -50.015625 52.25 -29.578125 53.703125 -25.140625 C 54.4375 -22.71875 55.25 -20.078125 55.046875 -18.953125 C 54.875 -18.46875 54.9375 -17.5625 55.140625 -16.875 C 55.234375 -16.59375 55.3125 -16.296875 55.578125 -16.15625 C 56.5 -15.59375 67.8125 -19.890625 76.078125 -17.515625 C 76.46875 -17.3125 76.734375 -17.484375 76.859375 -17.75 C 77.0625 -18.125 77.140625 -19.625 76.984375 -20.125 L 76.96875 -20.203125 C 76.15625 -21.796875 73.375 -19.765625 71.8125 -24.90625 C 69.125 -33.75 66.4375 -41.203125 64 -48.859375 C 63.203125 -53.921875 67.453125 -53.203125 66.859375 -55.15625 C 66.296875 -56.984375 62.640625 -54.375 60.609375 -59.625 C 55.296875 -77.09375 52.8125 -87.0625 53.234375 -88.78125 C 53.78125 -90.859375 55.828125 -92.53125 56.71875 -93.4375 C 57.359375 -94.0625 57.765625 -94.515625 57.625 -95 C 57.359375 -95.875 56.046875 -96.328125 55.265625 -96.09375 Z M 55.265625 -96.09375 "/></g></g></g><g fill="#eb4d4d" fill-opacity="1"><g transform="translate(228.447325, 99.933597)"><g><path d="M 47.359375 -81.90625 C 41.609375 -81.203125 4.484375 -76.984375 -1.171875 -78.84375 C -1.59375 -78.890625 -2.125 -79.125 -2.625 -79.0625 C -3.234375 -79 -3.453125 -78.25 -3.40625 -77.84375 C -3.296875 -77.03125 -2.671875 -75.984375 -1.828125 -75.796875 C -1.203125 -75.65625 4.078125 -74.359375 4.5625 -70.4375 C 4.625 -69.21875 5.859375 -56.578125 7.625 -39.609375 C 7.4375 -34.46875 3.359375 -36.015625 3.609375 -34 L 3.625 -33.890625 C 3.8125 -32.28125 7.4375 -33.65625 8.6875 -29.3125 C 9.578125 -20.296875 10.421875 -12.53125 11.046875 -7.375 C 11.75 -1.734375 6.15625 0.171875 5.765625 1.953125 C 5.59375 2.28125 5.546875 2.6875 5.59375 3.09375 C 5.671875 3.703125 6.03125 4.171875 6.84375 4.078125 C 6.9375 4.0625 7.046875 4.046875 7.125 3.9375 C 10.984375 0.375 29.25 -2.546875 42.46875 -4.171875 C 47 -4.734375 50.9375 -5.015625 53.453125 -5.328125 C 56.484375 -5.703125 55.53125 -18.5625 55.25 -20.890625 C 55.09375 -22.109375 54.15625 -22.1875 53.265625 -22.078125 C 51.734375 -21.890625 51.359375 -20.921875 51.3125 -20.40625 C 51.609375 -17.984375 49.53125 -14.140625 47.484375 -11.640625 C 45.078125 -8.6875 42.0625 -7.5 38.421875 -7.0625 C 30.953125 -6.25 29.65625 -7.609375 28.75 -12.53125 C 27.640625 -18.21875 26 -29.984375 24.5625 -41.6875 C 29.0625 -42.546875 33.46875 -43.296875 37.90625 -43.828125 C 41.125 -44.234375 44.359375 -38.78125 45.453125 -38.921875 C 45.859375 -38.96875 45.9375 -40.015625 45.78125 -41.3125 C 45.546875 -43.234375 44.9375 -45.703125 44.828125 -46.625 C 44.71875 -47.515625 44.765625 -49.6875 44.5625 -51.296875 C 44.421875 -52.40625 44.109375 -53.28125 43.703125 -53.234375 C 42.609375 -53.09375 41.28125 -47.3125 37.453125 -46.84375 C 35.125 -46.546875 29.78125 -45.8125 24.140625 -45.109375 C 22.71875 -56.703125 21.578125 -67.703125 21.59375 -71.796875 C 21.484375 -73.546875 22.234375 -75.671875 24.65625 -75.96875 C 28.78125 -76.484375 30.4375 -76.359375 33.78125 -76.78125 C 40.03125 -77.546875 43.453125 -74.46875 44.046875 -69.546875 C 44.109375 -69.03125 44.171875 -68.625 44.171875 -67.8125 C 44.25 -67.109375 44.6875 -66.03125 46.40625 -66.234375 C 47.515625 -66.375 48.03125 -67.0625 48.0625 -68.484375 C 48.140625 -70.46875 47.65625 -73.5625 47.90625 -75.75 C 48.015625 -77.28125 48.96875 -80.375 48.90625 -80.984375 C 48.796875 -81.875 47.859375 -81.96875 47.359375 -81.90625 Z M 47.359375 -81.90625 "/></g></g></g><g fill="#eb4d4d" fill-opacity="1"><g transform="translate(286.413449, 93.376942)"><g/></g></g><g fill="#eb4d4d" fill-opacity="1"><g transform="translate(317.723946, 91.132264)"><g><path d="M 75.5625 8.765625 C 74.234375 8.609375 74.53125 6.390625 74.5 4.234375 C 74.5625 1.46875 75.359375 -7.859375 76.53125 -18.5625 C 77.875 -23.296875 81.375 -21.09375 81.609375 -22.90625 L 81.625 -23.015625 C 81.859375 -24.828125 77.984375 -24.109375 77.75 -28.734375 L 78.34375 -33.265625 C 80.25 -47.953125 82.484375 -61.296875 84.0625 -61.609375 C 85.40625 -61.84375 86.796875 -63 86.953125 -64.09375 C 87 -64.5 86.734375 -64.84375 86.328125 -64.90625 C 85.40625 -65.015625 83.609375 -64.421875 82.765625 -64.234375 C 81.53125 -64.1875 78.796875 -64.453125 75.78125 -64.84375 C 71.34375 -65.40625 67.078125 -66.453125 64.953125 -66.734375 C 62.75 -67.015625 61.546875 -66.46875 60.65625 -63.609375 C 59.109375 -58.6875 45.765625 -7.890625 44.140625 -7.1875 C 43.546875 -19.234375 44.265625 -31.84375 43.265625 -43.96875 C 42.734375 -51.59375 42.703125 -57.75 43.640625 -65 C 43.84375 -66.515625 44.015625 -67.921875 44.328125 -69.515625 C 44.359375 -69.8125 43.890625 -69.984375 43.171875 -70.078125 C 40.1875 -69.84375 35.296875 -70.078125 30.46875 -70.703125 C 26.84375 -71.171875 23.328125 -71.84375 20.890625 -72.75 C 20.5 -72.90625 20.109375 -73.0625 19.8125 -73.109375 C 19.109375 -73.1875 18.90625 -72.5 18.84375 -72 C 18.640625 -70.484375 22.59375 -69.359375 22.875 -67.390625 L 22.765625 -66.578125 C 22.328125 -63.15625 19.875 -49.953125 17.34375 -36.75 C 15.828125 -32.046875 12.359375 -34.546875 12.015625 -32.65625 L 12 -32.546875 C 11.796875 -30.9375 15.203125 -31.21875 15.53125 -27.375 C 13.40625 -16.578125 11.609375 -7.5 11.203125 -5.921875 C 10.21875 -2.25 11 -1.125 7.6875 -0.84375 C 6.546875 -0.78125 5.21875 -0.03125 5.015625 1.578125 C 4.921875 2.28125 5.328125 2.328125 5.734375 2.375 C 6.53125 2.484375 7.984375 2.359375 10 2.609375 C 12.609375 2.953125 14.40625 3.296875 16.328125 3.546875 C 17.234375 3.65625 17.84375 3.625 17.953125 2.828125 C 18.09375 1.71875 17.59375 0.140625 15.6875 -0.21875 C 14.78125 -0.34375 14.609375 -1.375 14.765625 -2.59375 C 15.859375 -6.34375 24 -53.3125 26.1875 -61.515625 C 26.9375 -60.1875 28.609375 -3.546875 28.671875 1.578125 C 28.65625 4.125 36.515625 5.84375 40.84375 6.40625 C 44.171875 6.828125 45.859375 5.53125 46.59375 2.34375 C 47.328125 -1.03125 61.390625 -49.390625 64.109375 -57.734375 C 63.46875 -53.71875 62.734375 -47.96875 61.921875 -41.75 C 59.734375 -24.921875 57.234375 -3.9375 56.65625 0.5 C 56.328125 3 56.171875 4.21875 54.578125 6.359375 C 54.328125 6.625 54.15625 7.109375 54.109375 7.515625 C 54.03125 8.109375 54.34375 8.890625 54.84375 8.953125 C 55.140625 8.984375 55.59375 8.734375 56.4375 8.53125 C 58.09375 8.359375 60.640625 8.484375 63.265625 8.8125 C 67.59375 9.375 71.0625 10.3125 74.6875 10.78125 C 75.890625 10.9375 77.828125 10.90625 78.015625 9.484375 C 77.984375 8.984375 77.6875 8.84375 77.203125 8.78125 C 76.59375 8.703125 76.046875 8.84375 75.5625 8.765625 Z M 75.5625 8.765625 "/></g></g></g><g fill="#eb4d4d" fill-opacity="1"><g transform="translate(395.397248, 101.517915)"><g><path d="M 68.265625 -19.5 L 69.390625 -23.09375 C 71.765625 -30.75 73.421875 -50.75 61.609375 -54.421875 C 59.171875 -55.171875 56.4375 -55.59375 52.546875 -54.375 C 51.828125 -54.171875 51.46875 -53.65625 51.28125 -53.078125 C 50.921875 -51.90625 51.453125 -50.546875 52.046875 -50.375 C 52.125 -50.34375 52.234375 -50.3125 52.375 -50.390625 C 54.09375 -50.796875 55.421875 -50.9375 56.390625 -50.625 C 60.15625 -49.453125 59.4375 -45.109375 52.359375 -22.3125 C 49.015625 -11.5625 41.078125 11.84375 32.265625 9.09375 C 23.34375 6.328125 29.75 -18.078125 32.984375 -28.453125 C 36.03125 -38.25 44.46875 -60.609375 55.140625 -58.984375 C 56.3125 -58.625 57.234375 -59.515625 57.5 -60.375 C 57.671875 -60.953125 57.5 -61.4375 57.0625 -61.703125 C 30.953125 -69.8125 20.015625 -41.09375 17.828125 -35.09375 C 15.765625 -30.828125 12.65625 -33.515625 12.109375 -31.765625 L 12.078125 -31.65625 C 11.5 -29.828125 15.796875 -30.28125 14.921875 -24.71875 C 12.953125 -11.921875 12.28125 5.953125 31.203125 11.828125 C 48.15625 17.109375 58.640625 2.1875 64.3125 -9.875 C 66.375 -13.0625 69.96875 -11.625 70.46875 -12.84375 L 70.5 -12.953125 C 70.984375 -14.5 67.171875 -14.9375 68.265625 -19.5 Z M 68.265625 -19.5 "/></g></g></g><g fill="#eb4d4d" fill-opacity="1"><g transform="translate(453.57238, 119.102901)"><g><path d="M 79.390625 -17.90625 C 84.71875 -28.75 86.859375 -42.0625 64.71875 -52.953125 C 60.609375 -54.96875 57.0625 -56.03125 53.78125 -57.640625 C 48.859375 -60.0625 43.515625 -63.6875 42.515625 -64.640625 L 42.421875 -64.6875 C 41.875 -64.953125 41.109375 -64.109375 40.78125 -63.453125 C 40.515625 -62.90625 40.703125 -62.59375 40.96875 -62.453125 C 42.03125 -61.375 43.640625 -59.796875 42.515625 -56.828125 C 41.3125 -53.921875 39.75 -50.515625 37.96875 -46.859375 C 35.1875 -41.21875 31.828125 -34.828125 28.453125 -28.671875 C 25.359375 -24.4375 22.890625 -28.140625 21.875 -26.359375 L 21.828125 -26.265625 C 21.109375 -24.8125 24.640625 -23.875 23.421875 -19.8125 C 16.78125 -8.140625 11.125 1.0625 11.078125 1.140625 C 9.109375 4.03125 6.734375 3.078125 5.15625 2.859375 C 4.984375 2.78125 4.734375 3 4.640625 3.1875 C 4.46875 3.546875 4.515625 4.140625 5.015625 4.5 C 7.3125 5.859375 9.53125 7.046875 11.71875 8.125 C 35.609375 19.859375 53.203125 17.21875 67.359375 1.53125 C 70.515625 -1.890625 72.859375 1.859375 73.875 0.21875 L 73.96875 0.03125 C 74.640625 -1.34375 71.109375 -2.625 73.171875 -6.8125 C 75.171875 -10.90625 77.59375 -14.265625 79.390625 -17.90625 Z M 28.546875 10.078125 C 28.125 9.984375 27.71875 9.90625 27.4375 9.765625 C 27.171875 9.625 26.9375 9.40625 27.078125 9.140625 C 27.671875 7.71875 32.578125 -3.21875 38.53125 -15.328125 C 46.875 -32.28125 57.28125 -51.625 60.46875 -50.28125 C 61.390625 -49.828125 62.234375 -49.515625 63.0625 -49.109375 C 70.796875 -45.296875 75.34375 -40.03125 65.71875 -20.4375 C 58.734375 -6.21875 46.421875 13.53125 28.546875 10.078125 Z M 28.546875 10.078125 "/></g></g></g><g fill="#eb4d4d" fill-opacity="1"><g transform="translate(510.890283, 147.154213)"><g><path d="M 89.90625 -29.484375 C 85.15625 -32.796875 54.65625 -54.390625 51.671875 -59.546875 C 51.40625 -59.859375 51.15625 -60.390625 50.734375 -60.6875 C 50.234375 -61.03125 49.59375 -60.625 49.359375 -60.296875 C 48.890625 -59.625 48.65625 -58.421875 49.15625 -57.703125 C 49.546875 -57.203125 52.609375 -52.71875 50.359375 -49.46875 C 49.578125 -48.515625 42.078125 -38.265625 32.09375 -24.4375 C 28.515625 -20.734375 26.53125 -24.609375 25.359375 -22.9375 L 25.296875 -22.859375 C 24.375 -21.515625 27.984375 -20.140625 26 -16.0625 C 20.6875 -8.734375 16.125 -2.390625 13.171875 1.875 C 9.921875 6.53125 4.484375 4.234375 3 5.296875 C 2.65625 5.421875 2.34375 5.703125 2.109375 6.03125 C 1.765625 6.53125 1.71875 7.125 2.390625 7.59375 C 2.46875 7.65625 2.5625 7.71875 2.6875 7.671875 C 7.9375 7.609375 23.515625 17.578125 34.4375 25.1875 C 38.1875 27.796875 41.3125 30.21875 43.390625 31.671875 C 45.90625 33.40625 53.78125 23.1875 55.109375 21.265625 C 55.8125 20.265625 55.15625 19.5625 54.40625 19.046875 C 53.15625 18.171875 52.21875 18.640625 51.84375 19 C 50.453125 21 46.34375 22.46875 43.15625 22.96875 C 39.390625 23.578125 36.34375 22.453125 33.34375 20.359375 C 27.234375 15.984375 27.171875 14.078125 29.796875 9.828125 C 32.75 4.859375 39.359375 -5.03125 46.09375 -14.703125 C 50.015625 -12.34375 53.796875 -9.953125 57.46875 -7.390625 C 60.140625 -5.546875 58.921875 0.640625 59.84375 1.28125 C 60.171875 1.515625 60.921875 0.796875 61.671875 -0.28125 C 62.78125 -1.875 63.96875 -4.125 64.5 -4.875 C 65.015625 -5.625 66.484375 -7.203125 67.421875 -8.546875 C 68.046875 -9.453125 68.40625 -10.3125 68.078125 -10.546875 C 67.15625 -11.1875 62.3125 -7.75 59.140625 -9.953125 C 57.21875 -11.28125 52.734375 -14.296875 48.0625 -17.546875 C 54.734375 -27.125 61.21875 -36.078125 63.9375 -39.125 C 65.03125 -40.5 67.03125 -41.578125 69.03125 -40.1875 C 72.4375 -37.8125 73.59375 -36.640625 76.359375 -34.71875 C 81.53125 -31.125 82.03125 -26.546875 79.203125 -22.46875 C 78.90625 -22.046875 78.671875 -21.71875 78.125 -21.09375 C 77.734375 -20.515625 77.34375 -19.421875 78.765625 -18.4375 C 79.671875 -17.8125 80.515625 -17.953125 81.5 -19.015625 C 82.859375 -20.421875 84.546875 -23.0625 86.21875 -24.53125 C 87.3125 -25.609375 90.09375 -27.265625 90.4375 -27.765625 C 90.953125 -28.515625 90.3125 -29.203125 89.90625 -29.484375 Z M 89.90625 -29.484375 "/></g></g></g></svg>