<svg xmlns="http://www.w3.org/2000/svg" xmlns:xlink="http://www.w3.org/1999/xlink" width="50" zoomAndPan="magnify" viewBox="0 0 37.5 37.499999" height="50" preserveAspectRatio="xMidYMid meet" version="1.0"><defs><clipPath id="36bfaacd46"><path d="M 2 9 L 23 9 L 23 34 L 2 34 Z M 2 9 " clip-rule="nonzero"/></clipPath><clipPath id="585622370f"><path d="M 10.226562 -6.410156 L 43.363281 10.074219 L 26.882812 43.207031 L -6.253906 26.726562 Z M 10.226562 -6.410156 " clip-rule="nonzero"/></clipPath><clipPath id="4683088bbb"><path d="M 43.363281 10.074219 L 10.226562 -6.410156 L -6.253906 26.726562 L 26.882812 43.207031 Z M 43.363281 10.074219 " clip-rule="nonzero"/></clipPath><clipPath id="fd6afcfdd6"><path d="M 2 9 L 23 9 L 23 35 L 2 35 Z M 2 9 " clip-rule="nonzero"/></clipPath><clipPath id="dc9ec145d6"><path d="M 10.226562 -6.410156 L 43.363281 10.074219 L 26.882812 43.207031 L -6.253906 26.726562 Z M 10.226562 -6.410156 " clip-rule="nonzero"/></clipPath><clipPath id="7b224788b6"><path d="M 43.363281 10.074219 L 10.226562 -6.410156 L -6.253906 26.726562 L 26.882812 43.207031 Z M 43.363281 10.074219 " clip-rule="nonzero"/></clipPath><clipPath id="87db2bae79"><path d="M 2 3 L 35 3 L 35 13 L 2 13 Z M 2 3 " clip-rule="nonzero"/></clipPath><clipPath id="1f361aef7c"><path d="M 10.226562 -6.410156 L 43.363281 10.074219 L 26.882812 43.207031 L -6.253906 26.726562 Z M 10.226562 -6.410156 " clip-rule="nonzero"/></clipPath><clipPath id="ded15c9316"><path d="M 43.363281 10.074219 L 10.226562 -6.410156 L -6.253906 26.726562 L 26.882812 43.207031 Z M 43.363281 10.074219 " clip-rule="nonzero"/></clipPath><clipPath id="4cfa7d96d2"><path d="M 2 2 L 35 2 L 35 14 L 2 14 Z M 2 2 " clip-rule="nonzero"/></clipPath><clipPath id="5952241560"><path d="M 10.226562 -6.410156 L 43.363281 10.074219 L 26.882812 43.207031 L -6.253906 26.726562 Z M 10.226562 -6.410156 " clip-rule="nonzero"/></clipPath><clipPath id="18ca888a2d"><path d="M 43.363281 10.074219 L 10.226562 -6.410156 L -6.253906 26.726562 L 26.882812 43.207031 Z M 43.363281 10.074219 " clip-rule="nonzero"/></clipPath><clipPath id="40a4dd65a1"><path d="M 22 6 L 35 6 L 35 34 L 22 34 Z M 22 6 " clip-rule="nonzero"/></clipPath><clipPath id="b4f2360859"><path d="M 10.226562 -6.410156 L 43.363281 10.074219 L 26.882812 43.207031 L -6.253906 26.726562 Z M 10.226562 -6.410156 " clip-rule="nonzero"/></clipPath><clipPath id="647b518904"><path d="M 43.363281 10.074219 L 10.226562 -6.410156 L -6.253906 26.726562 L 26.882812 43.207031 Z M 43.363281 10.074219 " clip-rule="nonzero"/></clipPath><clipPath id="cc9b6da142"><path d="M 21 5 L 35 5 L 35 35 L 21 35 Z M 21 5 " clip-rule="nonzero"/></clipPath><clipPath id="59f3cff5d2"><path d="M 10.226562 -6.410156 L 43.363281 10.074219 L 26.882812 43.207031 L -6.253906 26.726562 Z M 10.226562 -6.410156 " clip-rule="nonzero"/></clipPath><clipPath id="fe8c967e7c"><path d="M 43.363281 10.074219 L 10.226562 -6.410156 L -6.253906 26.726562 L 26.882812 43.207031 Z M 43.363281 10.074219 " clip-rule="nonzero"/></clipPath><clipPath id="15782c5d5b"><path d="M 17 7 L 22 7 L 22 10 L 17 10 Z M 17 7 " clip-rule="nonzero"/></clipPath><clipPath id="e53cf341d1"><path d="M 10.226562 -6.410156 L 43.363281 10.074219 L 26.882812 43.207031 L -6.253906 26.726562 Z M 10.226562 -6.410156 " clip-rule="nonzero"/></clipPath><clipPath id="66d028950c"><path d="M 43.363281 10.074219 L 10.226562 -6.410156 L -6.253906 26.726562 L 26.882812 43.207031 Z M 43.363281 10.074219 " clip-rule="nonzero"/></clipPath><clipPath id="828323241b"><path d="M 30 9 L 34 9 L 34 15 L 30 15 Z M 30 9 " clip-rule="nonzero"/></clipPath><clipPath id="62785c8046"><path d="M 10.226562 -6.410156 L 43.363281 10.074219 L 26.882812 43.207031 L -6.253906 26.726562 Z M 10.226562 -6.410156 " clip-rule="nonzero"/></clipPath><clipPath id="d5a648ddcd"><path d="M 43.363281 10.074219 L 10.226562 -6.410156 L -6.253906 26.726562 L 26.882812 43.207031 Z M 43.363281 10.074219 " clip-rule="nonzero"/></clipPath><clipPath id="3c93047577"><path d="M 27 17 L 31 17 L 31 22 L 27 22 Z M 27 17 " clip-rule="nonzero"/></clipPath><clipPath id="c69783e5e8"><path d="M 10.226562 -6.410156 L 43.363281 10.074219 L 26.882812 43.207031 L -6.253906 26.726562 Z M 10.226562 -6.410156 " clip-rule="nonzero"/></clipPath><clipPath id="3cf804babb"><path d="M 43.363281 10.074219 L 10.226562 -6.410156 L -6.253906 26.726562 L 26.882812 43.207031 Z M 43.363281 10.074219 " clip-rule="nonzero"/></clipPath><clipPath id="83fbdb4f14"><path d="M 24 24 L 28 24 L 28 30 L 24 30 Z M 24 24 " clip-rule="nonzero"/></clipPath><clipPath id="df94865958"><path d="M 10.226562 -6.410156 L 43.363281 10.074219 L 26.882812 43.207031 L -6.253906 26.726562 Z M 10.226562 -6.410156 " clip-rule="nonzero"/></clipPath><clipPath id="eaa01e643d"><path d="M 43.363281 10.074219 L 10.226562 -6.410156 L -6.253906 26.726562 L 26.882812 43.207031 Z M 43.363281 10.074219 " clip-rule="nonzero"/></clipPath><clipPath id="28fd33ce06"><path d="M 15 15 L 20 15 L 20 20 L 15 20 Z M 15 15 " clip-rule="nonzero"/></clipPath><clipPath id="d28bca0381"><path d="M 10.226562 -6.410156 L 43.363281 10.074219 L 26.882812 43.207031 L -6.253906 26.726562 Z M 10.226562 -6.410156 " clip-rule="nonzero"/></clipPath><clipPath id="80d61a86df"><path d="M 43.363281 10.074219 L 10.226562 -6.410156 L -6.253906 26.726562 L 26.882812 43.207031 Z M 43.363281 10.074219 " clip-rule="nonzero"/></clipPath><clipPath id="5083e5159e"><path d="M 15 20 L 20 20 L 20 26 L 15 26 Z M 15 20 " clip-rule="nonzero"/></clipPath><clipPath id="e4b625ec3b"><path d="M 10.226562 -6.410156 L 43.363281 10.074219 L 26.882812 43.207031 L -6.253906 26.726562 Z M 10.226562 -6.410156 " clip-rule="nonzero"/></clipPath><clipPath id="2b4142ae64"><path d="M 43.363281 10.074219 L 10.226562 -6.410156 L -6.253906 26.726562 L 26.882812 43.207031 Z M 43.363281 10.074219 " clip-rule="nonzero"/></clipPath><clipPath id="4201a4677f"><path d="M 15 26 L 20 26 L 20 31 L 15 31 Z M 15 26 " clip-rule="nonzero"/></clipPath><clipPath id="c741c66286"><path d="M 10.226562 -6.410156 L 43.363281 10.074219 L 26.882812 43.207031 L -6.253906 26.726562 Z M 10.226562 -6.410156 " clip-rule="nonzero"/></clipPath><clipPath id="5edb7f22f2"><path d="M 43.363281 10.074219 L 10.226562 -6.410156 L -6.253906 26.726562 L 26.882812 43.207031 Z M 43.363281 10.074219 " clip-rule="nonzero"/></clipPath><clipPath id="b02a274e80"><path d="M 4 13 L 8 13 L 8 18 L 4 18 Z M 4 13 " clip-rule="nonzero"/></clipPath><clipPath id="7303949628"><path d="M 10.226562 -6.410156 L 43.363281 10.074219 L 26.882812 43.207031 L -6.253906 26.726562 Z M 10.226562 -6.410156 " clip-rule="nonzero"/></clipPath><clipPath id="a390ffaa33"><path d="M 43.363281 10.074219 L 10.226562 -6.410156 L -6.253906 26.726562 L 26.882812 43.207031 Z M 43.363281 10.074219 " clip-rule="nonzero"/></clipPath><clipPath id="c173db79a4"><path d="M 4 19 L 8 19 L 8 24 L 4 24 Z M 4 19 " clip-rule="nonzero"/></clipPath><clipPath id="4059393786"><path d="M 10.226562 -6.410156 L 43.363281 10.074219 L 26.882812 43.207031 L -6.253906 26.726562 Z M 10.226562 -6.410156 " clip-rule="nonzero"/></clipPath><clipPath id="92fa048123"><path d="M 43.363281 10.074219 L 10.226562 -6.410156 L -6.253906 26.726562 L 26.882812 43.207031 Z M 43.363281 10.074219 " clip-rule="nonzero"/></clipPath><clipPath id="59be015202"><path d="M 4 24 L 8 24 L 8 29 L 4 29 Z M 4 24 " clip-rule="nonzero"/></clipPath><clipPath id="18670e5864"><path d="M 10.226562 -6.410156 L 43.363281 10.074219 L 26.882812 43.207031 L -6.253906 26.726562 Z M 10.226562 -6.410156 " clip-rule="nonzero"/></clipPath><clipPath id="bf874a575c"><path d="M 43.363281 10.074219 L 10.226562 -6.410156 L -6.253906 26.726562 L 26.882812 43.207031 Z M 43.363281 10.074219 " clip-rule="nonzero"/></clipPath></defs><g clip-path="url(#36bfaacd46)"><g clip-path="url(#585622370f)"><g clip-path="url(#4683088bbb)"><path fill="#eb4d4d" d="M 2.652344 9.972656 L 2.65625 30.96875 L 22.109375 33.738281 L 22.105469 12.738281 L 2.652344 9.972656 " fill-opacity="1" fill-rule="nonzero"/></g></g></g><g clip-path="url(#fd6afcfdd6)"><g clip-path="url(#dc9ec145d6)"><g clip-path="url(#7b224788b6)"><path fill="#000000" d="M 2.652344 9.972656 L 3.019531 9.972656 L 3.023438 30.652344 L 21.742188 33.316406 L 21.738281 13.054688 L 2.601562 10.335938 L 2.652344 9.972656 L 3.019531 9.972656 L 2.652344 9.972656 L 2.703125 9.609375 L 22.15625 12.375 C 22.335938 12.398438 22.472656 12.554688 22.472656 12.738281 L 22.476562 33.738281 C 22.476562 33.84375 22.429688 33.945312 22.347656 34.015625 C 22.269531 34.085938 22.160156 34.117188 22.058594 34.101562 L 2.605469 31.332031 C 2.425781 31.308594 2.289062 31.152344 2.289062 30.96875 L 2.285156 9.972656 C 2.285156 9.863281 2.332031 9.761719 2.414062 9.695312 C 2.492188 9.625 2.597656 9.59375 2.703125 9.609375 L 2.652344 9.972656 " fill-opacity="1" fill-rule="nonzero"/></g></g></g><g clip-path="url(#87db2bae79)"><g clip-path="url(#1f361aef7c)"><g clip-path="url(#ded15c9316)"><path fill="#eb4d4d" d="M 22.226562 12.6875 L 34.429688 6.074219 L 14.796875 3.21875 L 2.589844 9.832031 L 22.226562 12.6875 " fill-opacity="1" fill-rule="nonzero"/></g></g></g><g clip-path="url(#4cfa7d96d2)"><g clip-path="url(#5952241560)"><g clip-path="url(#18ca888a2d)"><path fill="#000000" d="M 22.226562 12.6875 L 22.050781 12.367188 L 33.28125 6.28125 L 14.863281 3.597656 L 3.738281 9.628906 L 22.277344 12.324219 L 22.226562 12.6875 L 22.050781 12.367188 L 22.226562 12.6875 L 22.171875 13.050781 L 2.539062 10.195312 C 2.382812 10.171875 2.257812 10.050781 2.230469 9.894531 C 2.203125 9.738281 2.277344 9.585938 2.414062 9.507812 L 14.621094 2.894531 C 14.691406 2.859375 14.773438 2.84375 14.847656 2.855469 L 34.484375 5.710938 C 34.640625 5.734375 34.761719 5.855469 34.789062 6.011719 C 34.820312 6.167969 34.742188 6.324219 34.605469 6.398438 L 22.398438 13.011719 C 22.332031 13.050781 22.25 13.0625 22.171875 13.050781 L 22.226562 12.6875 " fill-opacity="1" fill-rule="nonzero"/></g></g></g><g clip-path="url(#40a4dd65a1)"><g clip-path="url(#b4f2360859)"><g clip-path="url(#647b518904)"><path fill="#eb4d4d" d="M 22.167969 33.875 L 34.371094 27.261719 L 34.429688 6.074219 L 22.226562 12.6875 L 22.167969 33.875 " fill-opacity="1" fill-rule="nonzero"/></g></g></g><g clip-path="url(#cc9b6da142)"><g clip-path="url(#59f3cff5d2)"><g clip-path="url(#fe8c967e7c)"><path fill="#000000" d="M 22.167969 33.875 L 21.992188 33.554688 L 34.007812 27.042969 L 34.0625 6.691406 L 22.589844 12.90625 L 22.535156 33.878906 L 22.167969 33.875 L 21.992188 33.554688 L 22.167969 33.875 L 21.800781 33.875 L 21.859375 12.6875 C 21.859375 12.554688 21.933594 12.429688 22.050781 12.367188 L 34.253906 5.753906 C 34.367188 5.691406 34.507812 5.695312 34.617188 5.761719 C 34.730469 5.828125 34.796875 5.945312 34.796875 6.078125 L 34.738281 27.265625 C 34.738281 27.398438 34.664062 27.519531 34.546875 27.585938 L 22.34375 34.199219 C 22.230469 34.261719 22.089844 34.257812 21.980469 34.191406 C 21.867188 34.125 21.800781 34.003906 21.800781 33.875 L 22.167969 33.875 " fill-opacity="1" fill-rule="nonzero"/></g></g></g><g clip-path="url(#15782c5d5b)"><g clip-path="url(#e53cf341d1)"><g clip-path="url(#66d028950c)"><path fill="#000000" d="M 17.074219 8.027344 C 17.070312 8.582031 18.019531 9.03125 19.1875 9.035156 C 20.355469 9.039062 21.304688 8.589844 21.304688 8.03125 C 21.304688 7.476562 20.359375 7.027344 19.191406 7.023438 C 18.023438 7.019531 17.074219 7.46875 17.074219 8.027344 " fill-opacity="1" fill-rule="nonzero"/></g></g></g><g clip-path="url(#828323241b)"><g clip-path="url(#62785c8046)"><g clip-path="url(#d5a648ddcd)"><path fill="#000000" d="M 30.515625 12.164062 C 30.511719 13.417969 31.140625 14.433594 31.914062 14.433594 C 32.6875 14.4375 33.316406 13.421875 33.316406 12.171875 C 33.320312 10.917969 32.695312 9.902344 31.921875 9.898438 C 31.144531 9.898438 30.515625 10.910156 30.515625 12.164062 " fill-opacity="1" fill-rule="nonzero"/></g></g></g><g clip-path="url(#3c93047577)"><g clip-path="url(#c69783e5e8)"><g clip-path="url(#3cf804babb)"><path fill="#000000" d="M 27.648438 19.546875 C 27.648438 20.800781 28.273438 21.816406 29.046875 21.816406 C 29.820312 21.820312 30.449219 20.804688 30.453125 19.554688 C 30.453125 18.300781 29.828125 17.285156 29.054688 17.28125 C 28.28125 17.28125 27.652344 18.296875 27.648438 19.546875 " fill-opacity="1" fill-rule="nonzero"/></g></g></g><g clip-path="url(#83fbdb4f14)"><g clip-path="url(#df94865958)"><g clip-path="url(#eaa01e643d)"><path fill="#000000" d="M 24.785156 26.933594 C 24.78125 28.183594 25.40625 29.199219 26.179688 29.203125 C 26.957031 29.203125 27.582031 28.1875 27.585938 26.9375 C 27.589844 25.683594 26.960938 24.667969 26.1875 24.664062 C 25.414062 24.667969 24.785156 25.679688 24.785156 26.933594 " fill-opacity="1" fill-rule="nonzero"/></g></g></g><g clip-path="url(#28fd33ce06)"><g clip-path="url(#d28bca0381)"><g clip-path="url(#80d61a86df)"><path fill="#000000" d="M 15.574219 17.402344 C 15.570312 18.53125 16.378906 19.449219 17.375 19.449219 C 18.375 19.453125 19.1875 18.539062 19.1875 17.410156 C 19.191406 16.28125 18.382812 15.363281 17.382812 15.363281 C 16.382812 15.359375 15.574219 16.273438 15.574219 17.402344 " fill-opacity="1" fill-rule="nonzero"/></g></g></g><g clip-path="url(#5083e5159e)"><g clip-path="url(#e4b625ec3b)"><g clip-path="url(#2b4142ae64)"><path fill="#000000" d="M 15.5625 22.957031 C 15.5625 24.085938 16.367188 25.003906 17.367188 25.003906 C 18.367188 25.007812 19.175781 24.09375 19.179688 22.964844 C 19.179688 21.835938 18.371094 20.917969 17.375 20.917969 C 16.375 20.914062 15.566406 21.828125 15.5625 22.957031 " fill-opacity="1" fill-rule="nonzero"/></g></g></g><g clip-path="url(#4201a4677f)"><g clip-path="url(#c741c66286)"><g clip-path="url(#5edb7f22f2)"><path fill="#000000" d="M 15.554688 28.511719 C 15.550781 29.640625 16.359375 30.558594 17.359375 30.558594 C 18.355469 30.5625 19.167969 29.648438 19.167969 28.519531 C 19.171875 27.390625 18.363281 26.472656 17.367188 26.472656 C 16.367188 26.46875 15.554688 27.386719 15.554688 28.511719 " fill-opacity="1" fill-rule="nonzero"/></g></g></g><g clip-path="url(#b02a274e80)"><g clip-path="url(#7303949628)"><g clip-path="url(#a390ffaa33)"><path fill="#000000" d="M 4.214844 15.773438 C 4.214844 16.902344 5.019531 17.820312 6.019531 17.820312 C 7.019531 17.820312 7.828125 16.910156 7.832031 15.777344 C 7.832031 14.652344 7.023438 13.734375 6.027344 13.734375 C 5.027344 13.730469 4.21875 14.644531 4.214844 15.773438 " fill-opacity="1" fill-rule="nonzero"/></g></g></g><g clip-path="url(#c173db79a4)"><g clip-path="url(#4059393786)"><g clip-path="url(#92fa048123)"><path fill="#000000" d="M 4.203125 21.328125 C 4.203125 22.457031 5.011719 23.371094 6.011719 23.375 C 7.007812 23.375 7.820312 22.464844 7.820312 21.335938 C 7.824219 20.207031 7.015625 19.289062 6.015625 19.289062 C 5.019531 19.285156 4.207031 20.199219 4.203125 21.328125 " fill-opacity="1" fill-rule="nonzero"/></g></g></g><g clip-path="url(#59be015202)"><g clip-path="url(#18670e5864)"><g clip-path="url(#bf874a575c)"><path fill="#000000" d="M 4.195312 26.882812 C 4.195312 28.011719 5 28.929688 6 28.929688 C 7 28.929688 7.808594 28.019531 7.8125 26.886719 C 7.8125 25.761719 7.007812 24.84375 6.007812 24.84375 C 5.007812 24.839844 4.199219 25.753906 4.195312 26.882812 " fill-opacity="1" fill-rule="nonzero"/></g></g></g></svg>