<svg xmlns="http://www.w3.org/2000/svg" xmlns:xlink="http://www.w3.org/1999/xlink" width="50" zoomAndPan="magnify" viewBox="0 0 37.5 37.499999" height="50" preserveAspectRatio="xMidYMid meet" version="1.0"><defs><clipPath id="812bfa33cd"><path d="M 0 0.132812 L 36 0.132812 L 36 36 L 0 36 Z M 0 0.132812 " clip-rule="nonzero"/></clipPath><clipPath id="53d674b7b7"><path d="M 34 1 L 36.871094 1 L 36.871094 37 L 34 37 Z M 34 1 " clip-rule="nonzero"/></clipPath><clipPath id="6387ec1e2c"><path d="M 3 0.132812 L 5 0.132812 L 5 2 L 3 2 Z M 3 0.132812 " clip-rule="nonzero"/></clipPath></defs><g clip-path="url(#812bfa33cd)"><path fill="#25412a" d="M 4.480469 34.828125 C 4.414062 34.792969 4.351562 34.730469 4.28125 34.722656 C 4.023438 34.699219 3.761719 34.691406 3.5 34.6875 C 3.402344 34.683594 3.304688 34.710938 3.207031 34.722656 C 3.207031 34.734375 3.210938 34.765625 3.21875 34.796875 C 3.203125 34.800781 3.191406 34.800781 3.191406 34.800781 C 3.152344 34.589844 2.964844 34.683594 2.863281 34.675781 C 2.539062 34.644531 2.210938 34.664062 1.886719 34.65625 C 1.746094 34.652344 1.601562 34.632812 1.460938 34.617188 C 1.339844 34.601562 1.277344 34.632812 1.308594 34.777344 L 1.195312 34.777344 C 1.214844 34.734375 1.238281 34.6875 1.273438 34.605469 C 0.980469 34.59375 0.703125 34.597656 0.433594 34.554688 C 0.246094 34.523438 0.0664062 34.425781 -0.113281 34.351562 C -0.125 34.347656 -0.132812 34.296875 -0.125 34.273438 C -0.09375 34.15625 0.175781 33.964844 0.289062 33.960938 C 0.496094 33.957031 0.703125 33.941406 0.910156 33.9375 C 1.101562 33.933594 1.289062 33.941406 1.480469 33.933594 C 1.609375 33.929688 1.738281 33.910156 1.867188 33.855469 C 1.824219 33.839844 1.773438 33.839844 1.734375 33.8125 C 1.703125 33.792969 1.582031 33.785156 1.699219 33.695312 C 1.726562 33.675781 1.695312 33.570312 1.6875 33.507812 C 1.675781 33.433594 1.65625 33.359375 1.636719 33.273438 C 1.613281 33.285156 1.582031 33.296875 1.550781 33.3125 C 1.34375 33.113281 1.386719 32.84375 1.339844 32.597656 C 1.328125 32.527344 1.351562 32.453125 1.359375 32.371094 C 1.152344 32.347656 1.257812 32.132812 1.230469 32.007812 C 1.160156 31.6875 1.132812 31.355469 1.101562 31.027344 C 1.09375 30.96875 1.144531 30.90625 1.175781 30.828125 C 1.066406 30.796875 1.066406 30.683594 1.070312 30.558594 C 1.074219 30.457031 1.039062 30.355469 1.03125 30.253906 C 1.027344 30.195312 1.039062 30.132812 1.019531 30.070312 C 1.046875 30.023438 1.078125 29.976562 1.105469 29.929688 L 0.984375 29.929688 C 0.980469 29.890625 0.972656 29.835938 0.96875 29.777344 C 1.03125 29.75 1.085938 29.726562 1.140625 29.699219 L 1.132812 29.675781 C 1.085938 29.679688 1.039062 29.6875 0.984375 29.695312 C 0.957031 29.550781 0.929688 29.410156 0.902344 29.265625 L 0.953125 29.25 L 1.042969 29.546875 C 1.058594 29.539062 1.074219 29.535156 1.089844 29.53125 C 1.097656 29.394531 1.105469 29.261719 1.113281 29.125 L 0.894531 29.125 C 0.972656 29.082031 1.011719 29.0625 1.023438 29.054688 C 0.980469 28.890625 0.9375 28.734375 0.894531 28.582031 C 0.890625 28.558594 0.871094 28.527344 0.878906 28.515625 C 1.042969 28.347656 0.917969 28.195312 0.867188 28.027344 C 0.816406 27.847656 0.816406 27.65625 0.804688 27.46875 C 0.796875 27.296875 0.796875 27.125 0.796875 26.953125 C 0.796875 26.925781 0.789062 26.882812 0.804688 26.867188 C 0.898438 26.773438 0.890625 26.6875 0.796875 26.601562 C 0.785156 26.589844 0.796875 26.554688 0.796875 26.511719 C 0.839844 26.53125 0.871094 26.546875 0.929688 26.570312 C 0.929688 26.492188 0.929688 26.425781 0.929688 26.355469 C 0.894531 26.378906 0.859375 26.398438 0.8125 26.429688 L 0.8125 26.109375 C 0.851562 26.171875 0.875 26.207031 0.898438 26.242188 C 0.921875 26.242188 0.941406 26.242188 0.960938 26.242188 C 0.828125 26.015625 0.992188 25.832031 1.003906 25.628906 C 1.015625 25.375 0.976562 25.121094 0.972656 24.867188 C 0.964844 24.570312 0.972656 24.273438 0.972656 23.976562 C 0.972656 23.960938 0.964844 23.945312 0.925781 23.929688 C 0.914062 23.996094 0.90625 24.0625 0.894531 24.128906 L 0.863281 24.144531 C 0.835938 24.078125 0.769531 23.992188 0.789062 23.953125 C 0.867188 23.8125 0.757812 23.6875 0.777344 23.5625 C 0.808594 23.398438 0.726562 23.226562 0.851562 23.070312 C 0.878906 23.039062 0.839844 22.953125 0.832031 22.890625 C 0.828125 22.84375 0.753906 22.746094 0.894531 22.800781 C 0.902344 22.804688 0.921875 22.789062 0.933594 22.777344 C 1.011719 22.691406 0.96875 22.292969 0.878906 22.226562 C 0.988281 22.164062 1 21.917969 0.910156 21.832031 C 0.863281 21.785156 0.851562 21.703125 0.835938 21.632812 C 0.820312 21.582031 0.820312 21.527344 0.816406 21.464844 L 0.898438 21.464844 C 0.855469 21.394531 0.820312 21.335938 0.769531 21.253906 L 0.964844 21.253906 C 0.96875 21.09375 1.101562 20.898438 0.808594 20.789062 C 0.882812 20.753906 0.929688 20.730469 0.992188 20.699219 C 0.976562 20.609375 0.964844 20.511719 0.949219 20.394531 C 0.953125 20.394531 0.980469 20.363281 1.011719 20.328125 C 1 20.320312 0.992188 20.308594 0.980469 20.296875 C 0.933594 20.324219 0.886719 20.351562 0.820312 20.386719 C 0.859375 20.152344 0.742188 19.90625 0.964844 19.6875 C 1.019531 19.636719 0.925781 19.425781 0.855469 19.296875 C 0.878906 19.253906 0.902344 19.207031 0.925781 19.164062 C 0.953125 19.171875 0.984375 19.183594 1.019531 19.195312 C 1.023438 19.179688 1.027344 19.167969 1.023438 19.164062 C 0.972656 19.09375 0.917969 19.027344 0.875 18.972656 C 0.875 18.695312 0.871094 18.40625 0.878906 18.121094 C 0.878906 17.914062 0.894531 17.707031 0.902344 17.5 C 0.910156 17.292969 0.910156 17.082031 0.921875 16.875 C 0.929688 16.699219 0.949219 16.523438 0.972656 16.351562 C 0.984375 16.265625 1.101562 16.222656 1.023438 16.089844 C 0.992188 16.039062 1.09375 15.898438 0.96875 15.828125 C 0.988281 15.800781 1.003906 15.777344 1.027344 15.753906 C 1.085938 15.6875 1.140625 15.628906 1.011719 15.570312 C 0.980469 15.558594 0.964844 15.492188 0.960938 15.445312 C 0.953125 15.40625 0.96875 15.363281 0.976562 15.316406 C 0.988281 15.316406 1.011719 15.3125 0.988281 15.316406 C 1.019531 15.207031 1.046875 15.121094 1.066406 15.03125 C 1.074219 14.996094 1.074219 14.949219 1.066406 14.910156 C 1.058594 14.847656 0.945312 14.789062 1.058594 14.710938 C 1.066406 14.707031 1.046875 14.625 1.019531 14.609375 C 0.898438 14.535156 0.949219 14.484375 1.054688 14.429688 C 1.011719 14.382812 0.980469 14.34375 0.949219 14.308594 C 0.957031 14.292969 0.960938 14.273438 0.964844 14.273438 C 1.066406 14.273438 1.097656 14.261719 1.046875 14.140625 C 1 14.019531 1.015625 13.871094 0.996094 13.703125 C 1 13.710938 0.988281 13.683594 0.976562 13.65625 C 1.160156 13.605469 1.007812 13.476562 1.03125 13.386719 C 1.0625 13.285156 1.011719 13.164062 1.011719 13.050781 C 1.007812 12.957031 1.019531 12.859375 1.023438 12.765625 C 1.027344 12.507812 1.027344 12.25 1.035156 11.996094 C 1.039062 11.953125 1.070312 11.917969 1.0625 11.882812 C 1.0625 11.804688 1.0625 11.726562 1.0625 11.652344 C 1.0625 11.597656 1.054688 11.542969 1.050781 11.488281 C 1.046875 11.367188 1.039062 11.246094 1.039062 11.125 C 1.039062 11.007812 1.011719 10.871094 1.0625 10.78125 C 1.167969 10.601562 1.046875 10.4375 1.066406 10.269531 C 1.074219 10.175781 1.089844 10.082031 1.105469 9.976562 C 1.113281 9.945312 1.152344 9.890625 1.136719 9.863281 C 1.039062 9.683594 1.089844 9.507812 1.113281 9.324219 C 1.128906 9.226562 1.132812 9.128906 1.140625 9.03125 C 1.160156 8.703125 1.183594 8.371094 1.199219 8.042969 C 1.203125 7.972656 1.183594 7.902344 1.1875 7.832031 C 1.203125 7.574219 1.21875 7.320312 1.246094 7.070312 C 1.273438 6.808594 1.308594 6.550781 1.339844 6.292969 C 1.351562 6.191406 1.34375 6.082031 1.367188 5.984375 C 1.46875 5.539062 1.4375 5.085938 1.46875 4.632812 C 1.492188 4.285156 1.570312 3.941406 1.617188 3.59375 C 1.640625 3.410156 1.632812 3.226562 1.652344 3.042969 C 1.691406 2.746094 1.734375 2.453125 1.785156 2.160156 C 1.816406 2 1.734375 1.890625 1.570312 1.875 C 1.371094 1.855469 1.171875 1.816406 0.945312 1.785156 C 1.0625 1.550781 1.097656 1.308594 1.324219 1.140625 C 1.308594 1.246094 1.300781 1.320312 1.296875 1.363281 C 1.503906 1.363281 1.703125 1.359375 1.902344 1.363281 C 1.988281 1.367188 2.082031 1.417969 2.136719 1.300781 C 2.140625 1.289062 2.195312 1.285156 2.214844 1.300781 C 2.351562 1.398438 2.503906 1.289062 2.644531 1.328125 C 2.703125 1.34375 2.769531 1.34375 2.832031 1.335938 C 2.933594 1.324219 3.03125 1.300781 3.132812 1.285156 C 3.171875 1.277344 3.214844 1.269531 3.253906 1.273438 C 3.820312 1.367188 4.378906 1.234375 4.941406 1.1875 C 5.113281 1.171875 5.28125 1.160156 5.453125 1.152344 C 5.539062 1.152344 5.6875 1.027344 5.695312 1.039062 C 5.824219 1.21875 5.988281 1.0625 6.128906 1.082031 C 6.1875 1.09375 6.308594 1.152344 6.308594 1 C 6.335938 1.003906 6.359375 1.007812 6.386719 1.007812 C 6.515625 1.023438 6.644531 1.058594 6.769531 1.046875 C 6.964844 1.035156 7.15625 0.988281 7.382812 0.953125 C 7.378906 0.949219 7.40625 0.984375 7.429688 1.023438 C 7.453125 1.011719 7.46875 1.007812 7.480469 0.996094 C 7.5 0.972656 7.515625 0.921875 7.535156 0.921875 C 7.683594 0.914062 7.832031 0.917969 7.980469 0.910156 C 8.011719 0.910156 8.042969 0.878906 8.078125 0.863281 C 8.054688 0.839844 8.035156 0.800781 8.011719 0.796875 C 7.945312 0.785156 7.878906 0.78125 7.8125 0.785156 C 7.589844 0.789062 7.363281 0.792969 7.140625 0.800781 C 6.921875 0.8125 6.703125 0.820312 6.484375 0.839844 C 5.96875 0.882812 5.453125 0.933594 4.941406 0.976562 C 4.820312 0.988281 4.695312 0.976562 4.574219 0.976562 L 4.574219 0.921875 C 4.664062 0.917969 4.753906 0.914062 4.84375 0.90625 C 4.882812 0.90625 4.925781 0.90625 4.960938 0.894531 C 5.375 0.78125 5.804688 0.796875 6.226562 0.75 C 6.460938 0.726562 6.699219 0.722656 6.933594 0.691406 C 7.132812 0.667969 7.332031 0.613281 7.53125 0.59375 C 7.707031 0.574219 7.886719 0.59375 8.066406 0.585938 C 8.28125 0.574219 8.496094 0.542969 8.710938 0.535156 C 9.183594 0.519531 9.660156 0.511719 10.136719 0.496094 C 10.300781 0.492188 10.46875 0.488281 10.632812 0.476562 C 10.933594 0.457031 11.230469 0.429688 11.53125 0.414062 C 11.738281 0.402344 11.960938 0.445312 12.15625 0.394531 C 12.324219 0.351562 12.464844 0.355469 12.628906 0.375 C 12.785156 0.394531 12.953125 0.339844 13.113281 0.328125 C 13.3125 0.308594 13.511719 0.292969 13.710938 0.285156 C 13.964844 0.273438 14.222656 0.296875 14.46875 0.25 C 14.601562 0.222656 14.710938 0.160156 14.832031 0.257812 C 14.839844 0.265625 14.890625 0.199219 14.921875 0.199219 C 15.203125 0.199219 15.484375 0.214844 15.769531 0.210938 C 15.929688 0.210938 16.089844 0.171875 16.25 0.164062 C 16.410156 0.160156 16.566406 0.175781 16.726562 0.175781 C 17.082031 0.171875 17.4375 0.152344 17.789062 0.164062 C 18.203125 0.171875 18.609375 0.207031 19.023438 0.226562 C 19.03125 0.226562 19.042969 0.222656 19.050781 0.21875 C 19.050781 0.210938 19.054688 0.203125 19.054688 0.199219 C 19.035156 0.191406 19.019531 0.183594 19.003906 0.175781 C 19.433594 0.191406 19.863281 0.210938 20.289062 0.222656 C 20.625 0.230469 20.960938 0.238281 21.300781 0.242188 C 21.625 0.25 21.953125 0.25 22.277344 0.257812 C 22.792969 0.269531 23.3125 0.289062 23.828125 0.292969 C 24.21875 0.296875 24.605469 0.269531 24.996094 0.269531 C 25.25 0.265625 25.503906 0.292969 25.761719 0.296875 C 26.148438 0.300781 26.539062 0.292969 26.929688 0.292969 C 27.011719 0.292969 27.089844 0.300781 27.167969 0.300781 C 27.789062 0.296875 28.410156 0.28125 29.03125 0.292969 C 29.441406 0.300781 29.851562 0.332031 30.261719 0.378906 C 30.8125 0.4375 31.363281 0.507812 31.910156 0.59375 C 32.117188 0.628906 32.320312 0.714844 32.523438 0.777344 C 32.832031 0.871094 33.136719 0.96875 33.449219 1.058594 C 33.5 1.074219 33.582031 1.042969 33.605469 1.070312 C 33.65625 1.136719 33.675781 1.222656 33.722656 1.335938 C 33.558594 1.300781 33.449219 1.285156 33.347656 1.253906 C 33.199219 1.203125 33.164062 1.265625 33.191406 1.410156 C 33.332031 1.320312 33.402344 1.382812 33.433594 1.523438 C 33.363281 1.574219 33.292969 1.628906 33.222656 1.683594 C 33.386719 1.816406 33.5625 1.953125 33.722656 2.101562 C 33.761719 2.132812 33.777344 2.242188 33.75 2.277344 C 33.695312 2.351562 33.601562 2.398438 33.519531 2.464844 C 33.53125 2.472656 33.5625 2.5 33.617188 2.550781 C 33.558594 2.574219 33.511719 2.617188 33.472656 2.613281 C 32.929688 2.546875 32.390625 2.472656 31.851562 2.40625 C 31.8125 2.398438 31.773438 2.410156 31.734375 2.410156 C 31.546875 2.414062 31.523438 2.386719 31.589844 2.226562 C 31.382812 2.164062 31.1875 2.054688 30.957031 2.101562 C 30.746094 2.144531 30.539062 2.03125 30.332031 2.058594 C 30.25 2.191406 30.367188 2.214844 30.433594 2.253906 C 30.457031 2.265625 30.515625 2.222656 30.601562 2.1875 C 30.613281 2.199219 30.667969 2.25 30.71875 2.296875 C 30.707031 2.3125 30.699219 2.328125 30.691406 2.34375 C 30.484375 2.269531 30.21875 2.4375 30.058594 2.167969 C 30.125 2.132812 30.175781 2.105469 30.253906 2.0625 C 30.113281 2.042969 29.992188 2.023438 29.871094 2.003906 C 29.871094 2 29.875 1.992188 29.875 1.988281 C 29.800781 1.996094 29.699219 1.980469 29.65625 2.023438 C 29.597656 2.082031 29.578125 2.1875 29.542969 2.269531 C 29.527344 2.265625 29.507812 2.261719 29.492188 2.253906 C 29.503906 2.183594 29.519531 2.113281 29.539062 2.011719 L 29 2.011719 C 29 2.023438 28.996094 2.035156 28.996094 2.046875 C 29.035156 2.066406 29.074219 2.085938 29.121094 2.109375 C 29.046875 2.148438 29.074219 2.332031 28.917969 2.242188 C 28.75 2.144531 28.90625 2.089844 28.996094 2.019531 C 28.886719 1.996094 28.820312 1.980469 28.757812 1.96875 C 28.75 2.03125 28.753906 2.105469 28.738281 2.179688 C 28.730469 2.210938 28.691406 2.253906 28.664062 2.257812 C 28.417969 2.261719 28.171875 2.257812 27.925781 2.25 C 27.890625 2.25 27.859375 2.214844 27.816406 2.191406 C 27.71875 2.34375 27.617188 2.210938 27.511719 2.210938 C 27.464844 2.21875 27.410156 2.242188 27.363281 2.230469 C 27.152344 2.175781 26.941406 2.238281 26.730469 2.230469 C 26.644531 2.226562 26.5625 2.1875 26.496094 2.171875 C 26.421875 2.191406 26.355469 2.21875 26.285156 2.226562 C 26.191406 2.234375 26.097656 2.230469 26.003906 2.21875 C 25.882812 2.207031 25.765625 2.179688 25.644531 2.171875 C 25.597656 2.167969 25.542969 2.214844 25.5 2.207031 C 25.414062 2.1875 25.332031 2.140625 25.210938 2.09375 C 25.332031 2.058594 25.425781 2.03125 25.554688 1.996094 C 25.242188 1.878906 25.214844 1.980469 25.183594 2.203125 C 25.097656 2.199219 25.050781 2.144531 25.039062 2.035156 C 24.914062 2.234375 24.679688 2.28125 24.554688 2.148438 C 24.464844 2.175781 24.382812 2.222656 24.304688 2.21875 C 24.164062 2.207031 24.023438 2.160156 23.898438 2.136719 C 23.8125 2.144531 23.730469 2.152344 23.648438 2.15625 C 23.542969 2.160156 23.4375 2.160156 23.328125 2.15625 C 23.15625 2.152344 22.980469 2.144531 22.804688 2.140625 C 22.777344 2.140625 22.75 2.152344 22.722656 2.152344 C 22.667969 2.144531 22.617188 2.132812 22.527344 2.117188 C 22.464844 2.179688 22.1875 2.183594 22.09375 2.097656 C 22.007812 2.117188 21.9375 2.152344 21.871094 2.152344 C 21.585938 2.144531 21.300781 2.132812 21.015625 2.105469 C 20.949219 2.101562 20.890625 2.027344 20.816406 1.980469 C 20.800781 2.015625 20.78125 2.058594 20.773438 2.074219 C 20.734375 2.0625 20.691406 2.042969 20.675781 2.050781 C 20.605469 2.09375 20.570312 2.117188 20.515625 2.019531 C 20.492188 1.980469 20.367188 2 20.289062 2.003906 C 20.222656 1.996094 20.15625 1.984375 20.089844 1.976562 C 20 1.96875 19.910156 1.957031 19.820312 1.957031 C 19.761719 1.957031 19.707031 1.980469 19.648438 1.984375 C 19.625 1.988281 19.601562 1.972656 19.578125 1.96875 C 19.476562 1.949219 19.375 1.917969 19.273438 1.914062 C 19.230469 1.914062 19.191406 1.972656 19.140625 2.011719 C 19.109375 1.964844 19.082031 1.917969 19.046875 1.859375 C 19.011719 1.910156 18.980469 1.949219 18.953125 1.992188 C 18.953125 1.972656 18.953125 1.957031 18.953125 1.941406 C 18.765625 1.929688 18.574219 1.914062 18.382812 1.902344 C 18.109375 1.890625 17.832031 1.871094 17.558594 1.871094 C 17.425781 1.871094 17.296875 1.816406 17.152344 1.894531 C 17.0625 1.9375 16.917969 1.871094 16.796875 1.859375 C 16.546875 1.839844 16.292969 1.792969 16.050781 1.816406 C 15.90625 1.832031 15.761719 1.800781 15.625 1.839844 C 15.59375 1.847656 15.570312 1.886719 15.5625 1.894531 C 15.511719 1.871094 15.46875 1.839844 15.429688 1.839844 C 15.25 1.835938 15.070312 1.832031 14.890625 1.839844 C 14.847656 1.84375 14.800781 1.90625 14.757812 1.90625 C 14.6875 1.90625 14.613281 1.882812 14.539062 1.867188 C 14.535156 1.882812 14.523438 1.910156 14.507812 1.960938 C 14.488281 1.917969 14.476562 1.878906 14.46875 1.878906 C 14.371094 1.890625 14.273438 1.902344 14.179688 1.921875 C 14.113281 1.933594 14.046875 1.972656 13.984375 1.96875 C 13.914062 1.960938 13.84375 1.914062 13.773438 1.886719 C 13.757812 1.882812 13.738281 1.878906 13.726562 1.882812 C 13.371094 2.074219 12.980469 1.996094 12.605469 2.011719 C 11.789062 2.042969 10.96875 2.054688 10.152344 2.058594 C 9.65625 2.058594 9.164062 2.027344 8.667969 2.011719 C 8.433594 2.007812 8.199219 2.015625 7.96875 2.007812 C 7.890625 2.003906 7.8125 1.953125 7.734375 1.949219 C 7.625 1.9375 7.503906 1.929688 7.40625 1.960938 C 7.25 2.015625 7.121094 1.953125 6.980469 1.921875 C 6.964844 1.917969 6.945312 1.910156 6.933594 1.914062 C 6.578125 2.105469 6.195312 1.980469 5.828125 2.011719 C 5.546875 2.03125 5.261719 2.035156 4.980469 2.035156 C 4.859375 2.039062 4.738281 2.003906 4.617188 2.003906 C 4.292969 2.003906 3.964844 2.019531 3.636719 2.019531 C 3.257812 2.019531 2.882812 2.011719 2.503906 2.007812 C 2.476562 2.007812 2.449219 2.011719 2.382812 2.019531 C 2.402344 2.238281 2.421875 2.449219 2.441406 2.660156 C 2.5 3.273438 2.558594 3.886719 2.613281 4.503906 C 2.621094 4.578125 2.621094 4.65625 2.621094 4.730469 C 2.621094 5.03125 2.621094 5.335938 2.621094 5.636719 C 2.621094 5.871094 2.601562 6.109375 2.625 6.339844 C 2.726562 7.246094 2.738281 8.15625 2.765625 9.066406 C 2.789062 9.878906 2.847656 10.6875 2.863281 11.496094 C 2.886719 12.457031 2.882812 13.417969 2.886719 14.378906 C 2.890625 14.652344 2.890625 14.925781 2.878906 15.199219 C 2.871094 15.335938 2.808594 15.46875 2.804688 15.605469 C 2.800781 15.804688 2.867188 16.015625 2.832031 16.207031 C 2.78125 16.511719 2.921875 16.8125 2.785156 17.121094 C 2.722656 17.273438 2.789062 17.480469 2.789062 17.660156 C 2.789062 17.757812 2.769531 17.851562 2.765625 17.945312 C 2.742188 18.324219 2.714844 18.699219 2.707031 19.078125 C 2.699219 19.523438 2.714844 19.972656 2.703125 20.417969 C 2.691406 20.789062 2.65625 21.160156 2.625 21.527344 C 2.617188 21.652344 2.589844 21.773438 2.589844 21.898438 C 2.582031 22.253906 2.585938 22.609375 2.578125 22.964844 C 2.574219 23.203125 2.535156 23.445312 2.535156 23.683594 C 2.535156 23.875 2.59375 24.0625 2.589844 24.253906 C 2.582031 24.539062 2.539062 24.820312 2.511719 25.101562 C 2.503906 25.195312 2.488281 25.289062 2.488281 25.382812 C 2.488281 25.402344 2.550781 25.417969 2.585938 25.4375 C 2.542969 25.566406 2.445312 25.691406 2.613281 25.800781 C 2.636719 25.816406 2.621094 25.890625 2.617188 25.933594 C 2.613281 25.964844 2.585938 25.996094 2.589844 26.027344 C 2.601562 26.289062 2.625 26.546875 2.636719 26.808594 C 2.636719 26.839844 2.578125 26.875 2.542969 26.914062 C 2.613281 26.996094 2.671875 27.097656 2.589844 27.230469 C 2.574219 27.257812 2.597656 27.304688 2.601562 27.34375 C 2.617188 27.480469 2.640625 27.621094 2.648438 27.757812 C 2.65625 27.960938 2.65625 28.167969 2.660156 28.371094 C 2.660156 28.460938 2.652344 28.546875 2.652344 28.632812 C 2.648438 28.847656 2.652344 29.0625 2.652344 29.289062 C 2.648438 29.289062 2.671875 29.289062 2.75 29.289062 C 2.667969 29.328125 2.632812 29.347656 2.566406 29.382812 C 2.609375 29.390625 2.644531 29.390625 2.644531 29.398438 C 2.679688 29.511719 2.730469 29.625 2.738281 29.738281 C 2.769531 30.058594 2.785156 30.375 2.800781 30.695312 C 2.804688 30.796875 2.773438 30.902344 2.777344 31.007812 C 2.785156 31.101562 2.816406 31.195312 2.84375 31.289062 C 2.859375 31.351562 2.882812 31.414062 2.90625 31.472656 C 2.851562 31.453125 2.792969 31.410156 2.777344 31.421875 C 2.730469 31.453125 2.707031 31.511719 2.648438 31.589844 C 2.75 31.566406 2.792969 31.558594 2.839844 31.546875 C 2.828125 31.628906 2.816406 31.707031 2.796875 31.789062 C 2.792969 31.808594 2.777344 31.828125 2.753906 31.863281 C 2.925781 31.898438 2.96875 32.003906 2.941406 32.160156 C 2.90625 32.355469 2.886719 32.558594 2.855469 32.765625 C 2.90625 32.800781 2.964844 32.839844 3.046875 32.890625 C 2.96875 32.933594 2.917969 32.960938 2.871094 32.988281 C 2.875 33 2.875 33.011719 2.878906 33.023438 C 2.917969 33.019531 2.957031 33.015625 3.039062 33.007812 C 2.964844 33.066406 2.921875 33.101562 2.878906 33.132812 C 2.894531 33.132812 2.910156 33.132812 2.921875 33.132812 C 2.910156 33.304688 2.917969 33.480469 2.882812 33.648438 C 2.859375 33.765625 2.886719 33.859375 3.011719 33.855469 C 3.144531 33.851562 3.277344 33.828125 3.414062 33.820312 C 3.621094 33.804688 3.828125 33.792969 4.039062 33.785156 C 4.328125 33.769531 4.617188 33.761719 4.90625 33.746094 C 5.324219 33.726562 5.742188 33.703125 6.164062 33.675781 C 6.734375 33.640625 7.308594 33.609375 7.882812 33.566406 C 8.054688 33.554688 8.226562 33.492188 8.402344 33.480469 C 8.675781 33.460938 8.953125 33.464844 9.230469 33.457031 C 9.34375 33.453125 9.453125 33.4375 9.566406 33.421875 C 9.78125 33.398438 9.996094 33.367188 10.210938 33.351562 C 10.476562 33.328125 10.742188 33.320312 11.007812 33.300781 C 11.3125 33.273438 11.621094 33.242188 11.925781 33.214844 C 12.261719 33.1875 12.59375 33.148438 12.929688 33.136719 C 13.113281 33.128906 13.296875 33.167969 13.480469 33.171875 C 13.574219 33.171875 13.679688 33.105469 13.753906 33.132812 C 13.875 33.175781 13.980469 33.054688 14.109375 33.148438 C 14.167969 33.191406 14.320312 33.101562 14.429688 33.085938 C 14.597656 33.066406 14.761719 33.011719 14.933594 33.09375 C 15 33.125 15.105469 33.050781 15.191406 33.046875 C 15.398438 33.042969 15.601562 33.058594 15.808594 33.054688 C 16.058594 33.054688 16.308594 33.046875 16.558594 33.039062 C 16.792969 33.03125 17.027344 33.015625 17.261719 33.011719 C 17.359375 33.007812 17.457031 33.035156 17.550781 33.027344 C 17.746094 33.011719 17.9375 32.980469 18.132812 32.957031 C 18.144531 32.957031 18.15625 32.953125 18.167969 32.957031 C 18.335938 33.023438 18.5 32.960938 18.667969 32.941406 C 18.679688 32.9375 18.691406 32.9375 18.703125 32.941406 C 19.101562 33.054688 19.5 32.914062 19.898438 32.9375 C 20.214844 32.953125 20.535156 32.957031 20.851562 32.972656 C 20.894531 32.972656 20.9375 33.019531 20.992188 33.050781 C 21.085938 32.925781 21.203125 32.9375 21.335938 33.046875 C 21.378906 33.078125 21.472656 33.078125 21.523438 33.054688 C 21.804688 32.921875 22.074219 33.015625 22.351562 33.070312 C 22.40625 33.082031 22.464844 33.050781 22.523438 33.046875 C 22.578125 33.046875 22.636719 33.054688 22.695312 33.101562 C 22.726562 33.078125 22.757812 33.058594 22.808594 33.019531 C 22.8125 33.070312 22.816406 33.101562 22.820312 33.132812 C 22.980469 33.113281 23.144531 33.082031 23.3125 33.074219 C 23.394531 33.070312 23.507812 33.023438 23.5625 33.15625 C 23.570312 33.175781 23.679688 33.152344 23.738281 33.128906 C 23.933594 33.207031 24.128906 33.289062 24.34375 33.144531 C 24.441406 33.082031 24.503906 33.121094 24.53125 33.242188 C 24.542969 33.203125 24.558594 33.160156 24.582031 33.101562 C 24.589844 33.148438 24.597656 33.179688 24.609375 33.230469 C 24.660156 33.183594 24.703125 33.144531 24.761719 33.09375 C 24.785156 33.148438 24.800781 33.191406 24.820312 33.234375 L 25.296875 33.234375 C 25.277344 33.207031 25.261719 33.183594 25.234375 33.136719 C 25.421875 33.152344 25.589844 33.167969 25.769531 33.179688 C 25.726562 33.214844 25.691406 33.238281 25.632812 33.277344 L 25.824219 33.277344 C 25.824219 33.242188 25.820312 33.207031 25.820312 33.167969 C 25.84375 33.175781 25.863281 33.175781 25.863281 33.179688 C 25.871094 33.285156 25.90625 33.300781 26.027344 33.296875 C 26.488281 33.289062 26.949219 33.308594 27.410156 33.320312 C 27.746094 33.332031 28.082031 33.351562 28.414062 33.351562 C 28.492188 33.351562 28.609375 33.398438 28.640625 33.265625 C 28.640625 33.261719 28.703125 33.269531 28.726562 33.285156 C 28.753906 33.300781 28.777344 33.355469 28.789062 33.351562 C 28.832031 33.339844 28.871094 33.304688 28.902344 33.289062 C 29.445312 33.382812 29.996094 33.359375 30.558594 33.359375 C 30.578125 33.332031 30.613281 33.285156 30.648438 33.238281 L 30.683594 33.261719 C 30.667969 33.292969 30.652344 33.328125 30.609375 33.414062 C 30.765625 33.375 30.890625 33.34375 31.011719 33.3125 C 31.050781 33.304688 31.09375 33.296875 31.132812 33.285156 C 31.140625 33.320312 31.144531 33.351562 31.15625 33.425781 C 31.304688 33.195312 31.492188 33.273438 31.675781 33.3125 C 31.695312 33.316406 31.699219 33.359375 31.722656 33.371094 C 31.75 33.390625 31.8125 33.40625 31.820312 33.398438 C 31.898438 33.273438 31.992188 33.324219 32.09375 33.355469 C 32.128906 33.363281 32.175781 33.335938 32.214844 33.324219 C 32.238281 33.316406 32.273438 33.296875 32.28125 33.304688 C 32.398438 33.4375 32.570312 33.28125 32.695312 33.378906 C 32.71875 33.394531 32.765625 33.417969 32.777344 33.40625 C 32.882812 33.332031 32.976562 33.351562 33.078125 33.410156 C 33.121094 33.4375 33.207031 33.550781 33.246094 33.398438 C 33.488281 33.410156 33.730469 33.414062 33.972656 33.445312 C 34.050781 33.457031 34.117188 33.566406 34.203125 33.433594 C 34.21875 33.40625 34.332031 33.414062 34.382812 33.441406 C 34.582031 33.542969 34.789062 33.53125 35 33.523438 C 35.0625 33.519531 35.125 33.535156 35.195312 33.542969 C 35.207031 33.589844 35.238281 33.640625 35.234375 33.6875 C 35.226562 33.734375 35.199219 33.792969 35.160156 33.816406 C 35.066406 33.867188 34.929688 33.875 34.867188 33.949219 C 34.753906 34.082031 34.613281 34.167969 34.414062 34.238281 C 34.570312 34.28125 34.679688 34.3125 34.789062 34.339844 C 34.792969 34.363281 34.796875 34.382812 34.804688 34.40625 C 34.714844 34.449219 34.621094 34.484375 34.539062 34.539062 C 34.472656 34.582031 34.425781 34.648438 34.339844 34.730469 C 34.46875 34.746094 34.550781 34.757812 34.636719 34.765625 C 34.480469 35.054688 32.675781 35.394531 32.507812 35.226562 C 32.289062 35.265625 32.101562 35.316406 31.917969 35.316406 C 31.664062 35.316406 31.414062 35.375 31.15625 35.300781 C 31.050781 35.273438 30.925781 35.320312 30.808594 35.324219 C 30.753906 35.328125 30.699219 35.3125 30.644531 35.304688 C 30.609375 35.320312 30.554688 35.359375 30.5 35.355469 C 30.367188 35.351562 30.234375 35.324219 30.097656 35.3125 C 30.066406 35.308594 30.03125 35.320312 30 35.335938 C 29.875 35.382812 29.761719 35.394531 29.710938 35.296875 C 29.511719 35.316406 29.339844 35.347656 29.164062 35.355469 C 29.019531 35.359375 28.875 35.34375 28.710938 35.335938 C 28.714844 35.316406 28.710938 35.339844 28.707031 35.355469 C 28.578125 35.367188 28.441406 35.390625 28.304688 35.378906 C 28.246094 35.375 28.1875 35.300781 28.148438 35.273438 C 28.105469 35.316406 28.058594 35.394531 28.03125 35.386719 C 27.800781 35.34375 27.527344 35.503906 27.324219 35.257812 C 27.3125 35.296875 27.300781 35.339844 27.296875 35.363281 C 27.152344 35.347656 27.019531 35.335938 26.882812 35.320312 C 26.785156 35.308594 26.6875 35.277344 26.59375 35.273438 C 26.484375 35.273438 26.378906 35.300781 26.273438 35.304688 C 26.234375 35.308594 26.199219 35.28125 26.160156 35.265625 C 26.132812 35.257812 26.074219 35.242188 26.070312 35.246094 C 25.988281 35.5 25.953125 35.277344 25.910156 35.226562 C 25.808594 35.246094 25.714844 35.265625 25.597656 35.289062 C 25.605469 35.296875 25.589844 35.269531 25.582031 35.253906 C 25.503906 35.269531 25.417969 35.277344 25.34375 35.304688 C 25.230469 35.347656 25.203125 35.285156 25.171875 35.199219 C 25.167969 35.183594 25.085938 35.175781 25.082031 35.1875 C 24.972656 35.398438 24.8125 35.285156 24.660156 35.265625 C 24.570312 35.257812 24.480469 35.28125 24.386719 35.273438 C 23.890625 35.242188 23.390625 35.203125 22.890625 35.167969 C 22.835938 35.164062 22.777344 35.183594 22.722656 35.179688 C 22.496094 35.164062 22.273438 35.148438 22.046875 35.132812 C 21.820312 35.121094 21.59375 35.09375 21.367188 35.109375 C 21.210938 35.121094 21.246094 34.960938 21.140625 34.921875 C 21.125 34.964844 21.117188 35.003906 21.101562 35.050781 C 21.050781 34.835938 20.941406 35.007812 20.871094 35.015625 C 20.710938 35.03125 20.578125 35.015625 20.421875 34.960938 C 20.289062 34.914062 20.097656 34.792969 19.933594 34.957031 C 19.90625 34.984375 19.835938 34.976562 19.789062 34.964844 C 19.59375 34.90625 19.394531 34.941406 19.199219 34.925781 C 19 34.910156 18.796875 34.898438 18.597656 34.902344 C 18.316406 34.90625 18.027344 34.972656 17.757812 34.925781 C 17.601562 34.894531 17.445312 35.015625 17.296875 34.898438 C 17.273438 34.882812 17.210938 34.914062 17.164062 34.921875 C 17.117188 34.929688 17.058594 34.945312 17.019531 34.929688 C 16.863281 34.855469 16.703125 34.898438 16.542969 34.910156 C 16.394531 34.921875 16.242188 34.898438 16.09375 34.898438 C 15.890625 34.894531 15.6875 34.871094 15.492188 34.898438 C 15.175781 34.945312 14.863281 34.941406 14.550781 34.90625 C 14.507812 34.898438 14.457031 34.957031 14.410156 34.960938 C 14.320312 34.96875 14.300781 34.910156 14.296875 34.820312 C 14.285156 34.707031 14.242188 34.59375 14.207031 34.484375 C 14.199219 34.460938 14.152344 34.449219 14.125 34.433594 C 14.109375 34.460938 14.09375 34.488281 14.082031 34.519531 C 14.054688 34.582031 14.03125 34.652344 14.003906 34.71875 C 14.066406 34.710938 14.132812 34.703125 14.191406 34.699219 C 14.210938 34.753906 14.25 34.808594 14.238281 34.851562 C 14.222656 34.90625 14.171875 34.988281 14.128906 34.992188 C 13.824219 35.015625 13.511719 35.074219 13.21875 35.015625 C 12.992188 34.972656 12.765625 35.148438 12.558594 34.984375 C 12.375 35.128906 12.152344 35.046875 11.953125 35.0625 C 11.5625 35.09375 11.167969 35.074219 10.773438 35.082031 C 10.296875 35.089844 9.820312 35.117188 9.339844 35.121094 C 9.042969 35.125 8.742188 35.097656 8.441406 35.089844 C 8.292969 35.085938 8.140625 35.109375 7.992188 35.109375 C 7.855469 35.109375 7.722656 35.089844 7.585938 35.089844 C 7.480469 35.089844 7.378906 35.105469 7.265625 35.113281 C 7.332031 34.9375 7.535156 34.855469 7.757812 34.886719 C 7.710938 34.734375 7.257812 34.652344 7.015625 34.765625 C 7.09375 34.863281 7.171875 34.957031 7.25 35.054688 L 7.222656 35.117188 C 6.890625 35.121094 6.558594 35.136719 6.226562 35.128906 C 5.882812 35.121094 5.535156 35.105469 5.1875 35.066406 C 4.882812 35.03125 4.566406 35.0625 4.265625 34.964844 C 4.269531 34.941406 4.273438 34.917969 4.277344 34.894531 C 4.351562 34.90625 4.425781 34.917969 4.507812 34.929688 C 4.496094 34.886719 4.488281 34.851562 4.480469 34.820312 C 4.609375 34.820312 4.738281 34.820312 4.894531 34.820312 C 4.851562 34.785156 4.8125 34.730469 4.765625 34.722656 C 4.660156 34.703125 4.542969 34.691406 4.484375 34.824219 Z M 14.941406 34.5625 C 14.949219 34.558594 14.953125 34.554688 14.957031 34.550781 C 14.964844 34.550781 14.972656 34.554688 14.972656 34.554688 C 14.964844 34.695312 15.042969 34.738281 15.132812 34.753906 C 15.132812 34.644531 15.140625 34.554688 15.136719 34.464844 C 15.136719 34.449219 15.113281 34.417969 15.097656 34.414062 C 15.074219 34.410156 15.035156 34.414062 15.023438 34.433594 C 14.992188 34.472656 14.96875 34.519531 14.945312 34.5625 C 14.871094 34.554688 14.796875 34.53125 14.726562 34.539062 C 14.703125 34.539062 14.683594 34.628906 14.679688 34.675781 C 14.679688 34.695312 14.742188 34.742188 14.746094 34.738281 C 14.816406 34.683594 14.878906 34.621094 14.941406 34.5625 Z M 14.566406 0.628906 C 14.578125 0.65625 14.585938 0.6875 14.59375 0.71875 C 14.65625 0.691406 14.722656 0.664062 14.78125 0.640625 L 14.691406 0.4375 C 14.675781 0.441406 14.664062 0.445312 14.648438 0.449219 C 14.640625 0.5 14.640625 0.550781 14.625 0.597656 C 14.621094 0.617188 14.582031 0.621094 14.558594 0.632812 C 14.484375 0.464844 14.269531 0.425781 14.160156 0.566406 C 14.136719 0.59375 14.140625 0.65625 14.160156 0.691406 C 14.171875 0.714844 14.257812 0.726562 14.261719 0.722656 C 14.320312 0.554688 14.460938 0.648438 14.566406 0.628906 Z M 21.441406 34.726562 C 21.40625 34.664062 21.382812 34.582031 21.328125 34.542969 C 21.261719 34.492188 21.105469 34.441406 21.097656 34.453125 C 21 34.625 20.925781 34.5 20.835938 34.429688 C 20.820312 34.507812 20.804688 34.574219 20.796875 34.617188 C 20.746094 34.582031 20.699219 34.546875 20.648438 34.511719 C 20.632812 34.53125 20.621094 34.554688 20.605469 34.574219 C 20.726562 34.65625 20.851562 34.734375 20.972656 34.816406 C 20.980469 34.800781 20.988281 34.789062 20.992188 34.777344 C 20.988281 34.75 20.980469 34.722656 20.980469 34.734375 C 21.089844 34.738281 21.21875 34.710938 21.285156 34.757812 C 21.382812 34.828125 21.398438 34.789062 21.4375 34.722656 L 21.65625 34.722656 C 21.597656 34.625 21.550781 34.539062 21.5 34.453125 L 21.457031 34.480469 C 21.449219 34.5625 21.445312 34.644531 21.441406 34.726562 Z M 15.746094 34.726562 C 15.683594 34.410156 15.574219 34.355469 15.285156 34.503906 C 15.253906 34.519531 15.207031 34.5625 15.210938 34.582031 C 15.226562 34.625 15.261719 34.695312 15.296875 34.699219 C 15.449219 34.714844 15.601562 34.714844 15.75 34.722656 C 15.886719 34.730469 16.023438 34.75 16.160156 34.753906 C 16.398438 34.757812 16.636719 34.753906 16.875 34.753906 C 16.902344 34.691406 16.945312 34.652344 16.992188 34.644531 C 17.046875 34.640625 17.105469 34.675781 17.164062 34.679688 C 17.175781 34.683594 17.195312 34.636719 17.214844 34.613281 C 17.25 34.660156 17.285156 34.703125 17.324219 34.75 C 17.355469 34.734375 17.394531 34.699219 17.433594 34.703125 C 17.65625 34.703125 17.878906 34.71875 18.101562 34.71875 C 18.242188 34.722656 18.382812 34.707031 18.527344 34.75 C 18.636719 34.785156 18.769531 34.753906 18.894531 34.738281 C 18.921875 34.738281 18.949219 34.691406 18.953125 34.6875 C 19.03125 34.699219 19.089844 34.714844 19.144531 34.722656 C 19.296875 34.742188 19.449219 34.632812 19.601562 34.730469 C 19.617188 34.742188 19.648438 34.757812 19.664062 34.75 C 19.816406 34.652344 19.960938 34.617188 20.058594 34.820312 C 20.082031 34.769531 20.097656 34.730469 20.113281 34.6875 C 20.203125 34.730469 20.292969 34.777344 20.425781 34.839844 C 20.371094 34.671875 20.332031 34.542969 20.289062 34.410156 C 20.273438 34.410156 20.257812 34.40625 20.242188 34.40625 C 20.199219 34.5 20.15625 34.59375 20.113281 34.683594 C 20.089844 34.625 20.070312 34.566406 20.042969 34.507812 C 19.980469 34.378906 19.910156 34.375 19.816406 34.488281 C 19.792969 34.515625 19.738281 34.539062 19.710938 34.53125 C 19.617188 34.503906 19.527344 34.453125 19.433594 34.421875 C 19.402344 34.410156 19.363281 34.425781 19.328125 34.429688 C 19.234375 34.441406 19.082031 34.492188 19.0625 34.460938 C 18.988281 34.335938 18.84375 34.40625 18.820312 34.417969 C 18.710938 34.492188 18.632812 34.398438 18.542969 34.394531 C 18.511719 34.394531 18.476562 34.375 18.445312 34.375 C 18.269531 34.378906 18.09375 34.386719 17.917969 34.402344 C 17.75 34.414062 17.585938 34.347656 17.40625 34.445312 C 17.316406 34.496094 17.230469 34.5 17.214844 34.617188 C 17.203125 34.605469 17.183594 34.597656 17.175781 34.582031 C 17.089844 34.425781 16.984375 34.328125 16.800781 34.460938 C 16.769531 34.484375 16.699219 34.488281 16.671875 34.46875 C 16.464844 34.304688 16.230469 34.464844 16.015625 34.410156 C 15.972656 34.398438 15.894531 34.480469 15.851562 34.535156 C 15.804688 34.589844 15.78125 34.660156 15.746094 34.726562 Z M 16.5 0.480469 C 16.480469 0.457031 16.453125 0.410156 16.445312 0.414062 C 16.21875 0.523438 15.941406 0.335938 15.722656 0.546875 C 15.785156 0.589844 15.855469 0.632812 15.925781 0.683594 C 15.945312 0.648438 15.964844 0.617188 15.960938 0.621094 L 16.484375 0.621094 C 16.492188 0.5625 16.5 0.519531 16.503906 0.472656 C 16.53125 0.535156 16.558594 0.597656 16.582031 0.65625 C 16.722656 0.636719 16.847656 0.621094 16.976562 0.601562 C 16.972656 0.597656 16.96875 0.589844 16.964844 0.585938 C 17.242188 0.609375 17.523438 0.632812 17.804688 0.660156 C 17.875 0.601562 17.949219 0.539062 17.984375 0.507812 C 18.058594 0.546875 18.105469 0.574219 18.152344 0.585938 C 18.203125 0.601562 18.261719 0.589844 18.3125 0.597656 C 18.382812 0.613281 18.453125 0.65625 18.523438 0.65625 C 18.609375 0.65625 18.703125 0.609375 18.789062 0.617188 C 18.964844 0.628906 19.140625 0.664062 19.316406 0.679688 C 19.363281 0.683594 19.414062 0.648438 19.460938 0.632812 C 19.457031 0.578125 19.453125 0.535156 19.449219 0.496094 C 19.355469 0.480469 19.257812 0.453125 19.15625 0.449219 C 18.78125 0.429688 18.402344 0.492188 18.023438 0.449219 C 17.820312 0.425781 17.613281 0.433594 17.410156 0.4375 C 17.289062 0.4375 17.171875 0.460938 17.050781 0.472656 C 16.988281 0.476562 16.925781 0.484375 16.863281 0.488281 C 16.742188 0.488281 16.621094 0.480469 16.5 0.480469 Z M 30.316406 34.953125 C 30.367188 34.988281 30.414062 35.035156 30.472656 35.054688 C 30.503906 35.0625 30.589844 35.027344 30.589844 35.011719 C 30.589844 34.925781 30.558594 34.855469 30.457031 34.847656 C 30.429688 34.84375 30.398438 34.847656 30.371094 34.84375 C 30.285156 34.835938 30.214844 34.769531 30.105469 34.835938 C 30.0625 34.863281 29.9375 34.765625 29.847656 34.726562 C 29.835938 34.71875 29.800781 34.738281 29.792969 34.753906 C 29.761719 34.816406 29.738281 34.878906 29.699219 34.96875 C 29.652344 34.941406 29.589844 34.894531 29.519531 34.867188 C 29.441406 34.835938 29.355469 34.816406 29.273438 34.800781 C 29.203125 34.789062 29.132812 34.789062 29.097656 34.785156 C 29.035156 34.804688 28.953125 34.835938 28.949219 34.832031 C 28.90625 34.730469 28.839844 34.773438 28.761719 34.78125 C 28.675781 34.789062 28.582031 34.730469 28.496094 34.738281 C 28.34375 34.746094 28.195312 34.78125 28.050781 34.804688 C 28.054688 34.816406 28.074219 34.867188 28.09375 34.917969 C 27.96875 34.800781 27.835938 34.742188 27.664062 34.75 C 27.503906 34.761719 27.34375 34.757812 27.179688 34.753906 C 26.9375 34.746094 26.695312 34.726562 26.453125 34.722656 C 26.394531 34.722656 26.292969 34.785156 26.289062 34.777344 C 26.214844 34.621094 26.089844 34.75 25.996094 34.722656 C 25.945312 34.707031 25.890625 34.714844 25.835938 34.707031 C 25.574219 34.648438 25.394531 34.765625 25.390625 34.964844 C 25.472656 35.007812 25.535156 35.0625 25.601562 35.066406 C 25.753906 35.074219 25.90625 35.050781 26.058594 35.042969 C 26.089844 35.042969 26.125 35.058594 26.160156 35.058594 C 26.339844 35.066406 26.519531 35.074219 26.699219 35.078125 C 26.925781 35.078125 27.148438 35.078125 27.371094 35.078125 C 27.425781 35.078125 27.484375 35.085938 27.539062 35.078125 C 27.683594 35.054688 27.835938 34.972656 27.957031 35.007812 C 28.078125 35.042969 28.183594 35.082031 28.308594 35.066406 C 28.394531 35.058594 28.480469 35.085938 28.566406 35.085938 C 28.667969 35.089844 28.765625 35.074219 28.867188 35.074219 C 29.292969 35.074219 29.714844 35.074219 30.140625 35.078125 C 30.257812 35.078125 30.328125 35.042969 30.316406 34.953125 Z M 32.203125 34.726562 C 32.109375 34.726562 32.03125 34.917969 31.96875 34.714844 C 31.917969 34.742188 31.859375 34.792969 31.84375 34.78125 C 31.671875 34.648438 31.519531 34.800781 31.359375 34.808594 C 31.328125 34.808594 31.296875 34.839844 31.265625 34.855469 C 31.207031 34.746094 31.148438 34.824219 31.085938 34.851562 C 31.042969 34.867188 30.992188 34.878906 30.949219 34.871094 C 30.882812 34.855469 30.820312 34.800781 30.753906 34.800781 C 30.59375 34.808594 30.660156 34.933594 30.644531 35.019531 C 31.070312 35.085938 31.480469 35.078125 31.878906 34.976562 C 31.878906 34.960938 31.878906 34.941406 31.875 34.925781 C 31.925781 34.960938 31.972656 34.992188 32.027344 35.035156 C 32.085938 34.929688 32.144531 34.832031 32.203125 34.726562 Z M 26.378906 1.085938 C 26.378906 1.105469 26.378906 1.125 26.378906 1.144531 L 29.335938 1.144531 L 29.335938 1.085938 C 28.351562 1.042969 27.367188 1.050781 26.378906 1.085938 Z M 28.660156 0.691406 C 28.546875 0.648438 28.441406 0.574219 28.339844 0.582031 C 27.960938 0.601562 27.589844 0.589844 27.214844 0.558594 C 27.167969 0.554688 27.121094 0.617188 27.074219 0.648438 C 27.082031 0.660156 27.089844 0.675781 27.097656 0.691406 Z M 33.472656 34.78125 C 33.523438 34.898438 33.632812 34.929688 33.761719 34.847656 C 33.804688 34.820312 33.859375 34.800781 33.910156 34.800781 C 34.050781 34.796875 34.195312 34.800781 34.328125 34.800781 C 34.34375 34.714844 34.355469 34.648438 34.375 34.554688 C 34.234375 34.585938 34.097656 34.589844 34 34.652344 C 33.894531 34.722656 33.839844 34.738281 33.796875 34.617188 C 33.6875 34.671875 33.589844 34.722656 33.472656 34.78125 Z M 31.855469 0.859375 C 31.980469 1.09375 32.160156 1.097656 32.335938 1.121094 C 32.429688 1.132812 32.523438 1.15625 32.621094 1.171875 C 32.597656 1.101562 32.546875 1.039062 32.480469 1 C 32.449219 0.984375 32.390625 1.015625 32.34375 1.027344 C 32.347656 1.019531 32.355469 1.011719 32.359375 1 C 32.207031 0.957031 32.054688 0.917969 31.855469 0.859375 Z M 13.890625 34.78125 C 13.875 34.671875 13.859375 34.570312 13.847656 34.5 C 13.722656 34.5 13.617188 34.496094 13.511719 34.5 C 13.488281 34.5 13.445312 34.519531 13.445312 34.535156 C 13.441406 34.574219 13.445312 34.644531 13.464844 34.648438 C 13.542969 34.671875 13.625 34.675781 13.71875 34.6875 L 13.71875 34.792969 C 13.777344 34.789062 13.828125 34.785156 13.890625 34.78125 Z M 18.679688 1.046875 C 18.476562 0.9375 17.546875 0.941406 17.457031 1.046875 Z M 2.519531 33.566406 C 2.378906 33.691406 2.246094 33.808594 2.121094 33.917969 C 2.25 33.910156 2.394531 33.898438 2.554688 33.890625 C 2.542969 33.765625 2.527344 33.65625 2.519531 33.566406 Z M 13.738281 0.769531 C 13.835938 0.726562 13.914062 0.695312 13.988281 0.65625 C 14.023438 0.636719 14.054688 0.601562 14.085938 0.574219 C 14.0625 0.542969 14.027344 0.484375 14.007812 0.492188 C 13.96875 0.5 13.933594 0.542969 13.90625 0.566406 C 13.847656 0.535156 13.789062 0.503906 13.703125 0.460938 C 13.714844 0.574219 13.722656 0.648438 13.738281 0.769531 Z M 14.996094 0.667969 L 15.046875 0.65625 C 15.046875 0.628906 15.050781 0.601562 15.054688 0.554688 C 15.1875 0.59375 15.308594 0.632812 15.441406 0.671875 C 15.4375 0.601562 15.429688 0.53125 15.425781 0.480469 C 15.328125 0.480469 15.238281 0.480469 15.148438 0.480469 C 15.085938 0.480469 15.027344 0.492188 14.964844 0.496094 C 14.976562 0.550781 14.988281 0.609375 14.996094 0.664062 Z M 13.171875 0.609375 C 13.175781 0.625 13.179688 0.644531 13.179688 0.660156 C 13.222656 0.675781 13.265625 0.695312 13.308594 0.707031 C 13.355469 0.714844 13.40625 0.726562 13.453125 0.71875 C 13.488281 0.714844 13.523438 0.683594 13.558594 0.664062 C 13.589844 0.644531 13.628906 0.628906 13.640625 0.601562 C 13.648438 0.585938 13.613281 0.523438 13.597656 0.523438 C 13.550781 0.523438 13.503906 0.542969 13.457031 0.558594 C 13.414062 0.570312 13.371094 0.597656 13.328125 0.605469 C 13.277344 0.613281 13.222656 0.609375 13.171875 0.609375 Z M 14.585938 34.550781 C 14.59375 34.539062 14.628906 34.5 14.648438 34.472656 L 14.394531 34.472656 C 14.386719 34.527344 14.371094 34.605469 14.355469 34.714844 C 14.433594 34.710938 14.503906 34.714844 14.570312 34.699219 C 14.582031 34.695312 14.578125 34.617188 14.585938 34.550781 Z M 6.964844 34.949219 C 6.902344 34.722656 6.734375 34.691406 6.535156 34.835938 C 6.679688 34.875 6.800781 34.90625 6.964844 34.949219 Z M 13.238281 34.460938 C 13.21875 34.460938 13.203125 34.460938 13.183594 34.460938 C 13.15625 34.53125 13.128906 34.601562 13.109375 34.644531 C 13.210938 34.695312 13.28125 34.734375 13.355469 34.769531 C 13.363281 34.765625 13.378906 34.761719 13.386719 34.753906 C 13.339844 34.65625 13.289062 34.558594 13.238281 34.460938 Z M 12.472656 34.539062 C 12.464844 34.554688 12.453125 34.570312 12.445312 34.585938 C 12.527344 34.640625 12.613281 34.699219 12.695312 34.753906 C 12.714844 34.710938 12.765625 34.65625 12.753906 34.628906 C 12.695312 34.496094 12.5625 34.585938 12.472656 34.539062 Z M 25.105469 34.992188 C 25.175781 35.007812 25.246094 35.027344 25.335938 35.050781 C 25.316406 34.925781 25.300781 34.839844 25.277344 34.710938 C 25.207031 34.824219 25.164062 34.894531 25.105469 34.992188 Z M 25.105469 34.992188 " fill-opacity="1" fill-rule="nonzero"/></g><g clip-path="url(#53d674b7b7)"><path fill="#25412a" d="M 35.261719 1.605469 C 35.195312 1.628906 35.144531 1.648438 35.09375 1.667969 C 35.101562 1.691406 35.109375 1.710938 35.117188 1.734375 C 35.164062 1.726562 35.210938 1.714844 35.300781 1.699219 C 35.257812 1.761719 35.234375 1.800781 35.203125 1.839844 C 35.335938 1.875 35.371094 1.976562 35.398438 2.121094 C 35.4375 2.339844 35.535156 2.550781 35.585938 2.769531 C 35.625 2.941406 35.621094 3.125 35.644531 3.300781 C 35.664062 3.441406 35.703125 3.578125 35.722656 3.714844 C 35.792969 4.171875 35.867188 4.628906 35.925781 5.089844 C 35.980469 5.527344 36.015625 5.964844 36.070312 6.402344 C 36.15625 7.117188 36.265625 7.828125 36.339844 8.542969 C 36.386719 9.015625 36.382812 9.488281 36.414062 9.960938 C 36.441406 10.402344 36.492188 10.839844 36.523438 11.28125 C 36.554688 11.675781 36.578125 12.070312 36.597656 12.46875 C 36.625 13.074219 36.648438 13.679688 36.675781 14.285156 C 36.691406 14.617188 36.71875 14.953125 36.726562 15.285156 C 36.738281 15.839844 36.734375 16.390625 36.734375 16.941406 C 36.734375 17.117188 36.671875 17.308594 36.726562 17.460938 C 36.832031 17.753906 36.648438 18.050781 36.734375 18.292969 C 36.820312 18.527344 36.761719 18.730469 36.769531 18.941406 C 36.789062 19.40625 36.765625 19.875 36.765625 20.34375 C 36.765625 20.628906 36.777344 20.917969 36.777344 21.203125 C 36.773438 21.445312 36.757812 21.6875 36.75 21.933594 C 36.742188 22.203125 36.726562 22.472656 36.722656 22.742188 C 36.714844 23.105469 36.714844 23.46875 36.710938 23.832031 C 36.710938 24.082031 36.714844 24.328125 36.710938 24.578125 C 36.707031 24.921875 36.691406 25.261719 36.6875 25.601562 C 36.6875 25.703125 36.746094 25.808594 36.726562 25.898438 C 36.6875 26.085938 36.730469 26.261719 36.738281 26.441406 C 36.742188 26.507812 36.714844 26.574219 36.710938 26.640625 C 36.703125 27.167969 36.6875 27.691406 36.695312 28.214844 C 36.703125 28.835938 36.738281 29.453125 36.746094 30.074219 C 36.753906 30.429688 36.734375 30.785156 36.730469 31.144531 C 36.730469 31.238281 36.757812 31.332031 36.761719 31.425781 C 36.773438 31.703125 36.78125 31.976562 36.785156 32.253906 C 36.789062 32.65625 36.777344 33.058594 36.789062 33.460938 C 36.796875 33.746094 36.839844 34.027344 36.847656 34.3125 C 36.855469 34.507812 36.828125 34.703125 36.824219 34.894531 C 36.824219 34.945312 36.855469 34.992188 36.875 35.039062 C 36.898438 35.097656 36.925781 35.15625 36.953125 35.214844 C 36.917969 35.226562 36.910156 35.230469 36.90625 35.230469 L 36.882812 35.167969 C 36.875 35.167969 36.863281 35.171875 36.851562 35.171875 C 36.863281 35.234375 36.855469 35.304688 36.882812 35.351562 C 36.945312 35.453125 37 35.894531 36.914062 35.949219 C 36.730469 36.070312 36.785156 36.203125 36.84375 36.355469 C 36.855469 36.390625 36.800781 36.441406 36.792969 36.488281 C 36.78125 36.558594 36.792969 36.632812 36.78125 36.699219 C 36.765625 36.792969 36.746094 36.949219 36.710938 36.957031 C 36.570312 36.980469 36.597656 36.84375 36.578125 36.753906 C 36.546875 36.617188 36.511719 36.480469 36.472656 36.328125 C 36.429688 36.339844 36.378906 36.355469 36.328125 36.371094 C 36.328125 36.347656 36.332031 36.320312 36.335938 36.25 C 36.289062 36.328125 36.261719 36.371094 36.238281 36.40625 C 36.222656 36.375 36.203125 36.332031 36.191406 36.332031 C 36.109375 36.34375 36.042969 36.476562 35.9375 36.375 C 35.929688 36.398438 35.917969 36.417969 35.898438 36.46875 C 35.835938 36.253906 35.613281 36.140625 35.664062 35.886719 C 35.679688 35.804688 35.566406 35.679688 35.566406 35.621094 C 35.570312 35.441406 35.355469 35.355469 35.4375 35.128906 C 35.507812 34.9375 35.421875 34.6875 35.398438 34.46875 C 35.375 34.246094 35.347656 34.027344 35.316406 33.808594 C 35.296875 33.683594 35.261719 33.5625 35.238281 33.445312 C 35.210938 33.441406 35.238281 33.445312 35.269531 33.453125 C 35.269531 33.351562 35.273438 33.242188 35.269531 33.136719 C 35.269531 33.109375 35.253906 33.0625 35.25 33.0625 C 35.035156 33.070312 35.128906 32.9375 35.148438 32.84375 C 35.160156 32.769531 35.199219 32.703125 35.082031 32.652344 C 35.039062 32.636719 35.046875 32.492188 35.039062 32.40625 C 35.035156 32.351562 35.042969 32.296875 35.050781 32.242188 C 35.03125 32.238281 35.015625 32.238281 35 32.234375 C 35.03125 32.199219 35.058594 32.164062 35.089844 32.128906 C 34.992188 32.070312 34.972656 31.9375 35.03125 31.847656 C 35.054688 31.816406 35.066406 31.742188 35.054688 31.730469 C 34.910156 31.617188 34.992188 31.519531 35.078125 31.410156 C 34.929688 31.324219 34.917969 31.234375 35.097656 31.160156 C 34.925781 30.992188 34.957031 30.785156 34.953125 30.582031 C 34.949219 30.320312 34.925781 30.058594 34.917969 29.796875 C 34.910156 29.632812 34.917969 29.46875 34.917969 29.304688 C 34.917969 29.238281 34.910156 29.175781 34.914062 29.113281 C 34.914062 29.082031 34.929688 29.050781 34.941406 29.019531 C 34.953125 28.992188 34.980469 28.9375 34.976562 28.933594 C 34.785156 28.816406 34.949219 28.710938 35 28.589844 C 34.949219 28.574219 34.902344 28.558594 34.878906 28.550781 C 34.878906 28.378906 34.875 28.21875 34.878906 28.0625 C 34.878906 28.03125 34.894531 27.996094 34.910156 27.96875 C 34.941406 27.914062 34.972656 27.859375 35.007812 27.808594 C 34.992188 27.796875 34.980469 27.789062 34.96875 27.777344 C 34.945312 27.792969 34.925781 27.804688 34.882812 27.835938 C 34.882812 27.675781 34.886719 27.523438 34.882812 27.371094 C 34.875 27.199219 34.84375 27.019531 34.859375 26.847656 C 34.890625 26.570312 34.769531 26.277344 34.945312 26.015625 C 34.957031 25.996094 34.90625 25.9375 34.882812 25.894531 C 35.015625 25.859375 34.984375 25.746094 34.972656 25.621094 C 34.960938 25.484375 34.988281 25.34375 34.992188 25.203125 C 34.996094 25.152344 34.964844 25.101562 34.964844 25.050781 C 34.96875 24.800781 34.976562 24.550781 34.980469 24.300781 C 34.984375 24.097656 34.976562 23.898438 34.976562 23.695312 C 34.976562 23.578125 34.988281 23.464844 34.992188 23.351562 C 35.007812 23.007812 35.023438 22.660156 35.023438 22.316406 C 35.023438 22.109375 34.996094 21.898438 34.988281 21.6875 C 34.980469 21.507812 34.980469 21.324219 34.984375 21.140625 C 34.992188 20.761719 35.007812 20.382812 35.007812 20.007812 C 35.007812 19.828125 35.03125 19.652344 34.964844 19.46875 C 34.925781 19.359375 35 19.207031 35.023438 19.074219 C 35.027344 19.058594 35.039062 19.039062 35.035156 19.023438 C 35.035156 18.757812 35.035156 18.488281 35.027344 18.21875 C 35.023438 18 34.996094 17.78125 35.007812 17.5625 C 35.023438 17.289062 35.074219 17.015625 35.09375 16.742188 C 35.105469 16.519531 35.09375 16.292969 35.097656 16.066406 C 35.101562 15.894531 35.136719 15.714844 35.105469 15.546875 C 35.085938 15.433594 35.089844 15.328125 35.085938 15.222656 C 35.078125 15.105469 35.074219 14.988281 35.070312 14.875 C 35.058594 14.5 35.007812 14.121094 35.046875 13.75 C 35.089844 13.351562 35.007812 12.960938 35.023438 12.566406 C 35.03125 12.277344 35.058594 11.984375 35.0625 11.695312 C 35.0625 11.503906 35 11.308594 35.023438 11.121094 C 35.078125 10.746094 35.027344 10.371094 35.027344 9.996094 C 35.03125 9.46875 35.007812 8.945312 35 8.421875 C 34.996094 8.003906 34.996094 7.589844 34.988281 7.175781 C 34.980469 6.5625 34.96875 5.945312 34.957031 5.332031 C 34.945312 4.65625 34.941406 3.984375 34.921875 3.3125 C 34.914062 3.035156 34.878906 2.757812 34.859375 2.480469 C 34.84375 2.257812 34.820312 2.035156 34.824219 1.8125 C 34.824219 1.726562 34.878906 1.628906 34.941406 1.5625 C 35.007812 1.492188 35.105469 1.453125 35.214844 1.386719 C 35.242188 1.503906 35.257812 1.574219 35.261719 1.605469 Z M 35.253906 1.898438 C 35.148438 2.09375 35.226562 2.4375 35.390625 2.515625 C 35.34375 2.308594 35.300781 2.113281 35.253906 1.898438 Z M 35.253906 1.898438 " fill-opacity="1" fill-rule="nonzero"/></g><g clip-path="url(#6387ec1e2c)"><path fill="#25412a" d="M 4.515625 0.992188 C 4.09375 1.082031 3.65625 1.0625 3.226562 1.105469 C 3.222656 1.085938 3.222656 1.070312 3.21875 1.050781 C 3.648438 1.015625 4.078125 0.976562 4.503906 0.941406 C 4.507812 0.957031 4.511719 0.976562 4.515625 0.992188 Z M 4.515625 0.992188 " fill-opacity="1" fill-rule="nonzero"/></g><path fill="#25412a" d="M 2.328125 34.78125 C 2.425781 34.78125 2.488281 34.777344 2.550781 34.785156 C 2.570312 34.785156 2.601562 34.804688 2.609375 34.824219 C 2.617188 34.839844 2.605469 34.886719 2.601562 34.886719 C 2.523438 34.894531 2.445312 34.898438 2.371094 34.890625 C 2.351562 34.886719 2.34375 34.820312 2.328125 34.78125 Z M 2.328125 34.78125 " fill-opacity="1" fill-rule="nonzero"/><path fill="#25412a" d="M 2.703125 34.738281 C 2.8125 34.796875 2.886719 34.839844 3 34.898438 C 2.886719 34.910156 2.808594 34.921875 2.710938 34.933594 C 2.710938 34.875 2.707031 34.824219 2.703125 34.738281 Z M 2.703125 34.738281 " fill-opacity="1" fill-rule="nonzero"/></svg>